G04 MADE WITH FRITZING*
G04 WWW.FRITZING.ORG*
G04 DOUBLE SIDED*
G04 HOLES PLATED*
G04 CONTOUR ON CENTER OF CONTOUR VECTOR*
%ASAXBY*%
%FSLAX23Y23*%
%MOIN*%
%OFA0B0*%
%SFA1.0B1.0*%
%ADD10C,0.043622*%
%ADD11C,0.068000*%
%ADD12C,0.078000*%
%ADD13C,0.070000*%
%ADD14C,0.075000*%
%ADD15C,0.074000*%
%ADD16C,0.082000*%
%ADD17C,0.140000*%
%ADD18C,0.083307*%
%ADD19C,0.062992*%
%ADD20C,0.074667*%
%ADD21C,0.074695*%
%ADD22C,0.124033*%
%ADD23C,0.090020*%
%ADD24R,0.078000X0.078000*%
%ADD25R,0.075000X0.075000*%
%ADD26R,0.082000X0.082000*%
%ADD27R,0.062992X0.062992*%
%ADD28C,0.024000*%
%ADD29R,0.001000X0.001000*%
%LNCOPPER0*%
G90*
G70*
G54D10*
X1320Y455D03*
X1570Y455D03*
G54D11*
X1261Y2075D03*
X1161Y2075D03*
X1061Y2075D03*
X961Y2075D03*
X961Y1775D03*
X1061Y1775D03*
X1161Y1775D03*
X1261Y1775D03*
G54D12*
X1789Y829D03*
X1889Y829D03*
G54D13*
X814Y2409D03*
X814Y2209D03*
X1168Y1572D03*
X1168Y1372D03*
X966Y2166D03*
X1166Y2166D03*
X832Y1774D03*
X832Y1974D03*
X341Y3689D03*
X341Y3889D03*
G54D14*
X968Y1569D03*
X968Y1669D03*
X1880Y2184D03*
X1780Y2184D03*
X1450Y2183D03*
X1550Y2183D03*
X1184Y3459D03*
X1084Y3459D03*
G54D15*
X758Y3821D03*
X658Y3821D03*
X558Y3821D03*
G54D14*
X1184Y3702D03*
X1084Y3702D03*
G54D16*
X908Y3872D03*
X1206Y3872D03*
G54D17*
X1573Y3542D03*
X1813Y3542D03*
X1693Y3732D03*
G54D12*
X1503Y3771D03*
X1503Y3771D03*
X1503Y3871D03*
X206Y3408D03*
X106Y3408D03*
X206Y3408D03*
X106Y3408D03*
X106Y3308D03*
X206Y3308D03*
G54D18*
X1350Y3861D03*
X1095Y3276D03*
X813Y1641D03*
X1371Y881D03*
X599Y2469D03*
X499Y2469D03*
X171Y2784D03*
X71Y2784D03*
G54D12*
X1123Y2454D03*
X1023Y2454D03*
X1123Y2454D03*
X1023Y2454D03*
X1023Y2354D03*
X1123Y2354D03*
X171Y2673D03*
X71Y2673D03*
X171Y2673D03*
X71Y2673D03*
X71Y2573D03*
X171Y2573D03*
G54D18*
X71Y1200D03*
X71Y1300D03*
X71Y693D03*
X171Y693D03*
X71Y585D03*
X171Y585D03*
X71Y1766D03*
X71Y1866D03*
G54D12*
X1817Y1417D03*
X1817Y1417D03*
X1717Y1417D03*
X1324Y3158D03*
X1224Y3158D03*
X1324Y3158D03*
X1224Y3158D03*
X1224Y3058D03*
X1324Y3058D03*
X206Y3095D03*
X106Y3095D03*
X206Y3095D03*
X106Y3095D03*
X106Y2995D03*
X206Y2995D03*
X206Y3697D03*
X106Y3697D03*
X206Y3697D03*
X106Y3697D03*
X106Y3597D03*
X206Y3597D03*
G54D15*
X988Y1135D03*
X988Y1242D03*
X988Y1349D03*
X1216Y840D03*
X1216Y947D03*
X1216Y1054D03*
X1350Y3461D03*
X1350Y3568D03*
X1350Y3675D03*
G54D14*
X1341Y2356D03*
X1341Y2656D03*
X1040Y2705D03*
X1040Y3005D03*
G54D19*
X1169Y2568D03*
X1169Y2667D03*
X496Y2800D03*
X496Y2898D03*
X348Y3024D03*
X348Y3122D03*
X348Y3334D03*
X348Y3432D03*
G54D12*
X171Y233D03*
X171Y333D03*
X171Y433D03*
X171Y233D03*
X171Y333D03*
X171Y433D03*
X71Y433D03*
X71Y333D03*
X71Y233D03*
G54D18*
X171Y2453D03*
X71Y2453D03*
X171Y2453D03*
X71Y2453D03*
X71Y2353D03*
X171Y2353D03*
G54D12*
X171Y855D03*
X171Y955D03*
X171Y1055D03*
X171Y855D03*
X171Y955D03*
X171Y1055D03*
X71Y1055D03*
X71Y955D03*
X71Y855D03*
X171Y1434D03*
X171Y1534D03*
X171Y1634D03*
X171Y1434D03*
X171Y1534D03*
X171Y1634D03*
X71Y1634D03*
X71Y1534D03*
X71Y1434D03*
X171Y2004D03*
X171Y2104D03*
X171Y2204D03*
X171Y2004D03*
X171Y2104D03*
X171Y2204D03*
X71Y2204D03*
X71Y2104D03*
X71Y2004D03*
G54D20*
X303Y439D03*
X303Y339D03*
G54D21*
X303Y239D03*
G54D22*
X598Y533D03*
X598Y144D03*
G54D20*
X303Y1050D03*
X303Y950D03*
G54D21*
X303Y850D03*
G54D22*
X598Y1144D03*
X598Y756D03*
G54D20*
X1802Y1966D03*
X1702Y1966D03*
G54D21*
X1602Y1966D03*
G54D22*
X1896Y1671D03*
X1508Y1671D03*
G54D20*
X1801Y2772D03*
X1701Y2772D03*
G54D21*
X1601Y2772D03*
G54D22*
X1895Y2477D03*
X1506Y2477D03*
G54D20*
X303Y1639D03*
X303Y1539D03*
G54D21*
X303Y1439D03*
G54D22*
X598Y1733D03*
X598Y1344D03*
G54D20*
X304Y2210D03*
X304Y2110D03*
G54D21*
X304Y2010D03*
G54D22*
X600Y2305D03*
X600Y1916D03*
G54D23*
X1572Y929D03*
X1627Y1028D03*
X1458Y1294D03*
X1753Y1314D03*
X1881Y1122D03*
X1576Y2908D03*
X1631Y3007D03*
X1462Y3273D03*
X1757Y3293D03*
X1885Y3101D03*
G54D14*
X964Y2613D03*
X664Y2613D03*
X352Y2880D03*
X52Y2880D03*
X350Y3193D03*
X50Y3193D03*
X352Y3506D03*
X52Y3506D03*
X1284Y1577D03*
X1284Y1277D03*
X1376Y1688D03*
X1376Y1988D03*
G54D24*
X1789Y829D03*
G54D25*
X968Y1569D03*
X1880Y2184D03*
X1450Y2183D03*
X1184Y3459D03*
X1184Y3702D03*
G54D26*
X907Y3872D03*
G54D27*
X1169Y2568D03*
X496Y2800D03*
X348Y3024D03*
X348Y3334D03*
G54D28*
X963Y2276D02*
X827Y2215D01*
D02*
X1416Y2292D02*
X963Y2276D01*
D02*
X1805Y2292D02*
X1801Y2752D01*
D02*
X1870Y2198D02*
X1805Y2292D01*
D02*
X1829Y2250D02*
X1869Y2198D01*
D02*
X1372Y2250D02*
X1829Y2250D01*
D02*
X1173Y2086D02*
X1372Y2250D01*
D02*
X981Y2617D02*
X1154Y2663D01*
D02*
X1434Y1850D02*
X1449Y2165D01*
D02*
X1276Y1782D02*
X1434Y1850D01*
D02*
X1597Y1986D02*
X1554Y2166D01*
D02*
X1052Y2163D02*
X973Y2086D01*
D02*
X1151Y2165D02*
X1052Y2163D01*
D02*
X1881Y1092D02*
X1888Y848D01*
D02*
X843Y1983D02*
X948Y2065D01*
D02*
X1172Y3689D02*
X1116Y3625D01*
D02*
X369Y2882D02*
X480Y2896D01*
D02*
X193Y2785D02*
X480Y2799D01*
D02*
X349Y3138D02*
X349Y3176D01*
D02*
X333Y3331D02*
X225Y3311D01*
D02*
X345Y3481D02*
X347Y3489D01*
D02*
X347Y3448D02*
X345Y3481D01*
D02*
X1439Y3254D02*
X1338Y3170D01*
D02*
X1551Y2924D02*
X1340Y3048D01*
D02*
X1243Y3158D02*
X1305Y3158D01*
D02*
X1243Y3058D02*
X1305Y3058D01*
D02*
X1822Y3492D02*
X1881Y3131D01*
D02*
X1338Y3691D02*
X1219Y3855D01*
D02*
X206Y3327D02*
X206Y3389D01*
D02*
X125Y3408D02*
X187Y3408D01*
D02*
X541Y3811D02*
X354Y3696D01*
D02*
X125Y3095D02*
X187Y3095D01*
D02*
X125Y3697D02*
X187Y3697D01*
D02*
X106Y3616D02*
X106Y3678D01*
D02*
X187Y3597D02*
X125Y3597D01*
D02*
X659Y3841D02*
X663Y3895D01*
D02*
X663Y3895D02*
X356Y3889D01*
G54D29*
X722Y3858D02*
X795Y3858D01*
X722Y3857D02*
X795Y3857D01*
X722Y3856D02*
X795Y3856D01*
X722Y3855D02*
X795Y3855D01*
X722Y3854D02*
X795Y3854D01*
X722Y3853D02*
X795Y3853D01*
X722Y3852D02*
X795Y3852D01*
X722Y3851D02*
X795Y3851D01*
X722Y3850D02*
X795Y3850D01*
X722Y3849D02*
X795Y3849D01*
X722Y3848D02*
X795Y3848D01*
X722Y3847D02*
X795Y3847D01*
X722Y3846D02*
X795Y3846D01*
X722Y3845D02*
X795Y3845D01*
X722Y3844D02*
X795Y3844D01*
X722Y3843D02*
X795Y3843D01*
X722Y3842D02*
X795Y3842D01*
X722Y3841D02*
X753Y3841D01*
X763Y3841D02*
X795Y3841D01*
X722Y3840D02*
X750Y3840D01*
X766Y3840D02*
X795Y3840D01*
X722Y3839D02*
X748Y3839D01*
X768Y3839D02*
X795Y3839D01*
X722Y3838D02*
X746Y3838D01*
X770Y3838D02*
X795Y3838D01*
X722Y3837D02*
X745Y3837D01*
X771Y3837D02*
X795Y3837D01*
X722Y3836D02*
X744Y3836D01*
X772Y3836D02*
X795Y3836D01*
X722Y3835D02*
X743Y3835D01*
X773Y3835D02*
X795Y3835D01*
X722Y3834D02*
X742Y3834D01*
X774Y3834D02*
X795Y3834D01*
X554Y3833D02*
X561Y3833D01*
X654Y3833D02*
X662Y3833D01*
X722Y3833D02*
X741Y3833D01*
X775Y3833D02*
X795Y3833D01*
X552Y3832D02*
X564Y3832D01*
X652Y3832D02*
X664Y3832D01*
X722Y3832D02*
X741Y3832D01*
X775Y3832D02*
X795Y3832D01*
X551Y3831D02*
X565Y3831D01*
X651Y3831D02*
X665Y3831D01*
X722Y3831D02*
X740Y3831D01*
X776Y3831D02*
X795Y3831D01*
X550Y3830D02*
X567Y3830D01*
X650Y3830D02*
X666Y3830D01*
X722Y3830D02*
X740Y3830D01*
X776Y3830D02*
X795Y3830D01*
X549Y3829D02*
X567Y3829D01*
X649Y3829D02*
X667Y3829D01*
X722Y3829D02*
X739Y3829D01*
X777Y3829D02*
X795Y3829D01*
X548Y3828D02*
X568Y3828D01*
X648Y3828D02*
X668Y3828D01*
X722Y3828D02*
X739Y3828D01*
X777Y3828D02*
X795Y3828D01*
X548Y3827D02*
X569Y3827D01*
X648Y3827D02*
X668Y3827D01*
X722Y3827D02*
X739Y3827D01*
X777Y3827D02*
X795Y3827D01*
X547Y3826D02*
X569Y3826D01*
X647Y3826D02*
X669Y3826D01*
X722Y3826D02*
X738Y3826D01*
X778Y3826D02*
X795Y3826D01*
X547Y3825D02*
X570Y3825D01*
X647Y3825D02*
X669Y3825D01*
X722Y3825D02*
X738Y3825D01*
X778Y3825D02*
X795Y3825D01*
X547Y3824D02*
X570Y3824D01*
X647Y3824D02*
X670Y3824D01*
X722Y3824D02*
X738Y3824D01*
X778Y3824D02*
X795Y3824D01*
X547Y3823D02*
X570Y3823D01*
X647Y3823D02*
X670Y3823D01*
X722Y3823D02*
X738Y3823D01*
X778Y3823D02*
X795Y3823D01*
X547Y3822D02*
X571Y3822D01*
X647Y3822D02*
X670Y3822D01*
X722Y3822D02*
X738Y3822D01*
X778Y3822D02*
X795Y3822D01*
X547Y3821D02*
X571Y3821D01*
X647Y3821D02*
X671Y3821D01*
X722Y3821D02*
X738Y3821D01*
X778Y3821D02*
X795Y3821D01*
X547Y3820D02*
X571Y3820D01*
X647Y3820D02*
X671Y3820D01*
X722Y3820D02*
X738Y3820D01*
X778Y3820D02*
X795Y3820D01*
X547Y3819D02*
X571Y3819D01*
X647Y3819D02*
X671Y3819D01*
X722Y3819D02*
X738Y3819D01*
X778Y3819D02*
X795Y3819D01*
X547Y3818D02*
X571Y3818D01*
X647Y3818D02*
X672Y3818D01*
X722Y3818D02*
X738Y3818D01*
X778Y3818D02*
X795Y3818D01*
X548Y3817D02*
X571Y3817D01*
X648Y3817D02*
X672Y3817D01*
X722Y3817D02*
X739Y3817D01*
X778Y3817D02*
X795Y3817D01*
X548Y3816D02*
X571Y3816D01*
X648Y3816D02*
X672Y3816D01*
X722Y3816D02*
X739Y3816D01*
X777Y3816D02*
X795Y3816D01*
X548Y3815D02*
X571Y3815D01*
X648Y3815D02*
X673Y3815D01*
X722Y3815D02*
X739Y3815D01*
X777Y3815D02*
X795Y3815D01*
X548Y3814D02*
X572Y3814D01*
X649Y3814D02*
X673Y3814D01*
X722Y3814D02*
X740Y3814D01*
X777Y3814D02*
X795Y3814D01*
X549Y3813D02*
X572Y3813D01*
X649Y3813D02*
X674Y3813D01*
X722Y3813D02*
X740Y3813D01*
X776Y3813D02*
X795Y3813D01*
X549Y3812D02*
X572Y3812D01*
X649Y3812D02*
X674Y3812D01*
X722Y3812D02*
X741Y3812D01*
X775Y3812D02*
X795Y3812D01*
X549Y3811D02*
X572Y3811D01*
X650Y3811D02*
X674Y3811D01*
X722Y3811D02*
X741Y3811D01*
X775Y3811D02*
X795Y3811D01*
X549Y3810D02*
X572Y3810D01*
X650Y3810D02*
X675Y3810D01*
X722Y3810D02*
X742Y3810D01*
X774Y3810D02*
X795Y3810D01*
X549Y3809D02*
X572Y3809D01*
X650Y3809D02*
X675Y3809D01*
X722Y3809D02*
X743Y3809D01*
X773Y3809D02*
X795Y3809D01*
X549Y3808D02*
X572Y3808D01*
X651Y3808D02*
X676Y3808D01*
X722Y3808D02*
X744Y3808D01*
X772Y3808D02*
X795Y3808D01*
X549Y3807D02*
X572Y3807D01*
X651Y3807D02*
X676Y3807D01*
X722Y3807D02*
X745Y3807D01*
X771Y3807D02*
X795Y3807D01*
X549Y3806D02*
X572Y3806D01*
X651Y3806D02*
X676Y3806D01*
X722Y3806D02*
X746Y3806D01*
X770Y3806D02*
X795Y3806D01*
X549Y3805D02*
X572Y3805D01*
X652Y3805D02*
X677Y3805D01*
X722Y3805D02*
X748Y3805D01*
X769Y3805D02*
X795Y3805D01*
X549Y3804D02*
X572Y3804D01*
X652Y3804D02*
X677Y3804D01*
X722Y3804D02*
X749Y3804D01*
X767Y3804D02*
X795Y3804D01*
X549Y3803D02*
X573Y3803D01*
X653Y3803D02*
X678Y3803D01*
X722Y3803D02*
X752Y3803D01*
X764Y3803D02*
X795Y3803D01*
X550Y3802D02*
X573Y3802D01*
X653Y3802D02*
X678Y3802D01*
X722Y3802D02*
X795Y3802D01*
X550Y3801D02*
X573Y3801D01*
X654Y3801D02*
X679Y3801D01*
X722Y3801D02*
X795Y3801D01*
X550Y3800D02*
X573Y3800D01*
X654Y3800D02*
X679Y3800D01*
X722Y3800D02*
X795Y3800D01*
X550Y3799D02*
X573Y3799D01*
X654Y3799D02*
X680Y3799D01*
X722Y3799D02*
X795Y3799D01*
X550Y3798D02*
X573Y3798D01*
X655Y3798D02*
X680Y3798D01*
X722Y3798D02*
X795Y3798D01*
X550Y3797D02*
X573Y3797D01*
X655Y3797D02*
X680Y3797D01*
X722Y3797D02*
X795Y3797D01*
X550Y3796D02*
X573Y3796D01*
X656Y3796D02*
X681Y3796D01*
X722Y3796D02*
X795Y3796D01*
X550Y3795D02*
X573Y3795D01*
X656Y3795D02*
X682Y3795D01*
X722Y3795D02*
X795Y3795D01*
X550Y3794D02*
X573Y3794D01*
X657Y3794D02*
X682Y3794D01*
X722Y3794D02*
X795Y3794D01*
X550Y3793D02*
X574Y3793D01*
X657Y3793D02*
X683Y3793D01*
X722Y3793D02*
X795Y3793D01*
X550Y3792D02*
X574Y3792D01*
X657Y3792D02*
X683Y3792D01*
X722Y3792D02*
X795Y3792D01*
X551Y3791D02*
X574Y3791D01*
X658Y3791D02*
X684Y3791D01*
X722Y3791D02*
X795Y3791D01*
X551Y3790D02*
X574Y3790D01*
X658Y3790D02*
X684Y3790D01*
X722Y3790D02*
X795Y3790D01*
X551Y3789D02*
X574Y3789D01*
X659Y3789D02*
X685Y3789D01*
X722Y3789D02*
X795Y3789D01*
X551Y3788D02*
X574Y3788D01*
X659Y3788D02*
X685Y3788D01*
X722Y3788D02*
X795Y3788D01*
X551Y3787D02*
X574Y3787D01*
X660Y3787D02*
X686Y3787D01*
X722Y3787D02*
X795Y3787D01*
X551Y3786D02*
X574Y3786D01*
X660Y3786D02*
X686Y3786D01*
X722Y3786D02*
X795Y3786D01*
X551Y3785D02*
X575Y3785D01*
X661Y3785D02*
X687Y3785D01*
X722Y3785D02*
X794Y3785D01*
X552Y3784D02*
X575Y3784D01*
X661Y3784D02*
X687Y3784D01*
X552Y3783D02*
X575Y3783D01*
X662Y3783D02*
X688Y3783D01*
X552Y3782D02*
X575Y3782D01*
X662Y3782D02*
X689Y3782D01*
X552Y3781D02*
X575Y3781D01*
X663Y3781D02*
X689Y3781D01*
X552Y3780D02*
X575Y3780D01*
X663Y3780D02*
X690Y3780D01*
X552Y3779D02*
X576Y3779D01*
X664Y3779D02*
X690Y3779D01*
X552Y3778D02*
X576Y3778D01*
X665Y3778D02*
X691Y3778D01*
X553Y3777D02*
X576Y3777D01*
X665Y3777D02*
X692Y3777D01*
X553Y3776D02*
X576Y3776D01*
X666Y3776D02*
X692Y3776D01*
X553Y3775D02*
X576Y3775D01*
X666Y3775D02*
X693Y3775D01*
X553Y3774D02*
X576Y3774D01*
X667Y3774D02*
X694Y3774D01*
X553Y3773D02*
X577Y3773D01*
X667Y3773D02*
X694Y3773D01*
X553Y3772D02*
X577Y3772D01*
X668Y3772D02*
X695Y3772D01*
X554Y3771D02*
X577Y3771D01*
X669Y3771D02*
X696Y3771D01*
X554Y3770D02*
X577Y3770D01*
X669Y3770D02*
X696Y3770D01*
X554Y3769D02*
X577Y3769D01*
X670Y3769D02*
X697Y3769D01*
X554Y3768D02*
X578Y3768D01*
X670Y3768D02*
X698Y3768D01*
X554Y3767D02*
X578Y3767D01*
X671Y3767D02*
X699Y3767D01*
X555Y3766D02*
X578Y3766D01*
X672Y3766D02*
X699Y3766D01*
X555Y3765D02*
X578Y3765D01*
X672Y3765D02*
X700Y3765D01*
X555Y3764D02*
X578Y3764D01*
X673Y3764D02*
X701Y3764D01*
X555Y3763D02*
X579Y3763D01*
X674Y3763D02*
X701Y3763D01*
X555Y3762D02*
X579Y3762D01*
X674Y3762D02*
X702Y3762D01*
X556Y3761D02*
X579Y3761D01*
X675Y3761D02*
X703Y3761D01*
X556Y3760D02*
X579Y3760D01*
X676Y3760D02*
X704Y3760D01*
X556Y3759D02*
X580Y3759D01*
X676Y3759D02*
X705Y3759D01*
X556Y3758D02*
X580Y3758D01*
X677Y3758D02*
X705Y3758D01*
X557Y3757D02*
X580Y3757D01*
X678Y3757D02*
X706Y3757D01*
X557Y3756D02*
X580Y3756D01*
X678Y3756D02*
X707Y3756D01*
X557Y3755D02*
X581Y3755D01*
X679Y3755D02*
X708Y3755D01*
X557Y3754D02*
X581Y3754D01*
X680Y3754D02*
X709Y3754D01*
X558Y3753D02*
X581Y3753D01*
X680Y3753D02*
X710Y3753D01*
X558Y3752D02*
X582Y3752D01*
X681Y3752D02*
X710Y3752D01*
X558Y3751D02*
X582Y3751D01*
X682Y3751D02*
X711Y3751D01*
X558Y3750D02*
X582Y3750D01*
X683Y3750D02*
X712Y3750D01*
X559Y3749D02*
X582Y3749D01*
X683Y3749D02*
X713Y3749D01*
X559Y3748D02*
X583Y3748D01*
X684Y3748D02*
X714Y3748D01*
X559Y3747D02*
X583Y3747D01*
X685Y3747D02*
X715Y3747D01*
X559Y3746D02*
X583Y3746D01*
X686Y3746D02*
X716Y3746D01*
X560Y3745D02*
X584Y3745D01*
X687Y3745D02*
X717Y3745D01*
X560Y3744D02*
X584Y3744D01*
X687Y3744D02*
X718Y3744D01*
X560Y3743D02*
X584Y3743D01*
X688Y3743D02*
X719Y3743D01*
X561Y3742D02*
X585Y3742D01*
X689Y3742D02*
X720Y3742D01*
X561Y3741D02*
X585Y3741D01*
X690Y3741D02*
X721Y3741D01*
X561Y3740D02*
X585Y3740D01*
X691Y3740D02*
X722Y3740D01*
X561Y3739D02*
X585Y3739D01*
X691Y3739D02*
X723Y3739D01*
X562Y3738D02*
X586Y3738D01*
X692Y3738D02*
X724Y3738D01*
X562Y3737D02*
X586Y3737D01*
X693Y3737D02*
X725Y3737D01*
X562Y3736D02*
X587Y3736D01*
X694Y3736D02*
X726Y3736D01*
X563Y3735D02*
X587Y3735D01*
X695Y3735D02*
X727Y3735D01*
X563Y3734D02*
X587Y3734D01*
X696Y3734D02*
X728Y3734D01*
X563Y3733D02*
X588Y3733D01*
X697Y3733D02*
X729Y3733D01*
X564Y3732D02*
X588Y3732D01*
X698Y3732D02*
X730Y3732D01*
X564Y3731D02*
X588Y3731D01*
X698Y3731D02*
X731Y3731D01*
X564Y3730D02*
X589Y3730D01*
X699Y3730D02*
X733Y3730D01*
X565Y3729D02*
X589Y3729D01*
X700Y3729D02*
X734Y3729D01*
X565Y3728D02*
X589Y3728D01*
X701Y3728D02*
X735Y3728D01*
X565Y3727D02*
X590Y3727D01*
X702Y3727D02*
X736Y3727D01*
X566Y3726D02*
X590Y3726D01*
X703Y3726D02*
X737Y3726D01*
X566Y3725D02*
X591Y3725D01*
X704Y3725D02*
X738Y3725D01*
X567Y3724D02*
X591Y3724D01*
X705Y3724D02*
X740Y3724D01*
X567Y3723D02*
X592Y3723D01*
X706Y3723D02*
X741Y3723D01*
X567Y3722D02*
X592Y3722D01*
X707Y3722D02*
X742Y3722D01*
X568Y3721D02*
X592Y3721D01*
X708Y3721D02*
X743Y3721D01*
X568Y3720D02*
X593Y3720D01*
X709Y3720D02*
X745Y3720D01*
X568Y3719D02*
X593Y3719D01*
X710Y3719D02*
X746Y3719D01*
X569Y3718D02*
X594Y3718D01*
X711Y3718D02*
X747Y3718D01*
X569Y3717D02*
X594Y3717D01*
X712Y3717D02*
X749Y3717D01*
X570Y3716D02*
X595Y3716D01*
X713Y3716D02*
X750Y3716D01*
X570Y3715D02*
X595Y3715D01*
X715Y3715D02*
X751Y3715D01*
X570Y3714D02*
X595Y3714D01*
X716Y3714D02*
X753Y3714D01*
X571Y3713D02*
X596Y3713D01*
X717Y3713D02*
X754Y3713D01*
X571Y3712D02*
X596Y3712D01*
X718Y3712D02*
X756Y3712D01*
X572Y3711D02*
X597Y3711D01*
X719Y3711D02*
X757Y3711D01*
X572Y3710D02*
X597Y3710D01*
X720Y3710D02*
X759Y3710D01*
X573Y3709D02*
X598Y3709D01*
X721Y3709D02*
X760Y3709D01*
X573Y3708D02*
X598Y3708D01*
X723Y3708D02*
X762Y3708D01*
X573Y3707D02*
X599Y3707D01*
X724Y3707D02*
X763Y3707D01*
X574Y3706D02*
X599Y3706D01*
X725Y3706D02*
X765Y3706D01*
X574Y3705D02*
X600Y3705D01*
X726Y3705D02*
X766Y3705D01*
X575Y3704D02*
X600Y3704D01*
X727Y3704D02*
X768Y3704D01*
X575Y3703D02*
X601Y3703D01*
X729Y3703D02*
X770Y3703D01*
X576Y3702D02*
X601Y3702D01*
X730Y3702D02*
X771Y3702D01*
X576Y3701D02*
X602Y3701D01*
X731Y3701D02*
X773Y3701D01*
X577Y3700D02*
X602Y3700D01*
X733Y3700D02*
X775Y3700D01*
X577Y3699D02*
X603Y3699D01*
X734Y3699D02*
X776Y3699D01*
X578Y3698D02*
X603Y3698D01*
X735Y3698D02*
X778Y3698D01*
X578Y3697D02*
X604Y3697D01*
X737Y3697D02*
X780Y3697D01*
X578Y3696D02*
X605Y3696D01*
X738Y3696D02*
X782Y3696D01*
X579Y3695D02*
X605Y3695D01*
X739Y3695D02*
X783Y3695D01*
X579Y3694D02*
X606Y3694D01*
X741Y3694D02*
X785Y3694D01*
X580Y3693D02*
X606Y3693D01*
X742Y3693D02*
X787Y3693D01*
X581Y3692D02*
X607Y3692D01*
X744Y3692D02*
X789Y3692D01*
X581Y3691D02*
X607Y3691D01*
X745Y3691D02*
X791Y3691D01*
X582Y3690D02*
X608Y3690D01*
X746Y3690D02*
X793Y3690D01*
X582Y3689D02*
X609Y3689D01*
X748Y3689D02*
X795Y3689D01*
X583Y3688D02*
X609Y3688D01*
X749Y3688D02*
X797Y3688D01*
X583Y3687D02*
X610Y3687D01*
X751Y3687D02*
X799Y3687D01*
X584Y3686D02*
X610Y3686D01*
X753Y3686D02*
X801Y3686D01*
X584Y3685D02*
X611Y3685D01*
X754Y3685D02*
X803Y3685D01*
X585Y3684D02*
X612Y3684D01*
X756Y3684D02*
X805Y3684D01*
X585Y3683D02*
X612Y3683D01*
X757Y3683D02*
X808Y3683D01*
X586Y3682D02*
X613Y3682D01*
X759Y3682D02*
X810Y3682D01*
X586Y3681D02*
X613Y3681D01*
X761Y3681D02*
X812Y3681D01*
X587Y3680D02*
X614Y3680D01*
X762Y3680D02*
X814Y3680D01*
X588Y3679D02*
X615Y3679D01*
X764Y3679D02*
X817Y3679D01*
X588Y3678D02*
X615Y3678D01*
X766Y3678D02*
X819Y3678D01*
X589Y3677D02*
X616Y3677D01*
X767Y3677D02*
X822Y3677D01*
X589Y3676D02*
X617Y3676D01*
X769Y3676D02*
X824Y3676D01*
X590Y3675D02*
X617Y3675D01*
X771Y3675D02*
X827Y3675D01*
X591Y3674D02*
X618Y3674D01*
X773Y3674D02*
X829Y3674D01*
X591Y3673D02*
X619Y3673D01*
X775Y3673D02*
X832Y3673D01*
X592Y3672D02*
X619Y3672D01*
X777Y3672D02*
X835Y3672D01*
X592Y3671D02*
X620Y3671D01*
X778Y3671D02*
X837Y3671D01*
X593Y3670D02*
X621Y3670D01*
X780Y3670D02*
X840Y3670D01*
X594Y3669D02*
X622Y3669D01*
X782Y3669D02*
X843Y3669D01*
X594Y3668D02*
X622Y3668D01*
X784Y3668D02*
X846Y3668D01*
X595Y3667D02*
X623Y3667D01*
X786Y3667D02*
X849Y3667D01*
X596Y3666D02*
X624Y3666D01*
X788Y3666D02*
X852Y3666D01*
X596Y3665D02*
X625Y3665D01*
X790Y3665D02*
X855Y3665D01*
X597Y3664D02*
X625Y3664D01*
X792Y3664D02*
X858Y3664D01*
X598Y3663D02*
X626Y3663D01*
X795Y3663D02*
X862Y3663D01*
X598Y3662D02*
X627Y3662D01*
X797Y3662D02*
X865Y3662D01*
X599Y3661D02*
X628Y3661D01*
X799Y3661D02*
X869Y3661D01*
X600Y3660D02*
X628Y3660D01*
X801Y3660D02*
X872Y3660D01*
X600Y3659D02*
X629Y3659D01*
X804Y3659D02*
X876Y3659D01*
X601Y3658D02*
X630Y3658D01*
X806Y3658D02*
X879Y3658D01*
X602Y3657D02*
X631Y3657D01*
X808Y3657D02*
X884Y3657D01*
X602Y3656D02*
X631Y3656D01*
X811Y3656D02*
X888Y3656D01*
X603Y3655D02*
X632Y3655D01*
X813Y3655D02*
X892Y3655D01*
X604Y3654D02*
X633Y3654D01*
X816Y3654D02*
X896Y3654D01*
X605Y3653D02*
X634Y3653D01*
X818Y3653D02*
X900Y3653D01*
X605Y3652D02*
X635Y3652D01*
X821Y3652D02*
X905Y3652D01*
X606Y3651D02*
X636Y3651D01*
X823Y3651D02*
X910Y3651D01*
X607Y3650D02*
X636Y3650D01*
X826Y3650D02*
X915Y3650D01*
X608Y3649D02*
X637Y3649D01*
X829Y3649D02*
X920Y3649D01*
X608Y3648D02*
X638Y3648D01*
X831Y3648D02*
X925Y3648D01*
X609Y3647D02*
X639Y3647D01*
X834Y3647D02*
X931Y3647D01*
X610Y3646D02*
X640Y3646D01*
X837Y3646D02*
X937Y3646D01*
X611Y3645D02*
X641Y3645D01*
X840Y3645D02*
X943Y3645D01*
X611Y3644D02*
X642Y3644D01*
X843Y3644D02*
X950Y3644D01*
X612Y3643D02*
X643Y3643D01*
X847Y3643D02*
X957Y3643D01*
X613Y3642D02*
X643Y3642D01*
X850Y3642D02*
X965Y3642D01*
X614Y3641D02*
X644Y3641D01*
X853Y3641D02*
X973Y3641D01*
X615Y3640D02*
X645Y3640D01*
X856Y3640D02*
X983Y3640D01*
X615Y3639D02*
X646Y3639D01*
X860Y3639D02*
X993Y3639D01*
X616Y3638D02*
X647Y3638D01*
X863Y3638D02*
X1006Y3638D01*
X617Y3637D02*
X648Y3637D01*
X867Y3637D02*
X1023Y3637D01*
X1108Y3637D02*
X1119Y3637D01*
X618Y3636D02*
X649Y3636D01*
X870Y3636D02*
X1053Y3636D01*
X1081Y3636D02*
X1121Y3636D01*
X619Y3635D02*
X650Y3635D01*
X874Y3635D02*
X1123Y3635D01*
X620Y3634D02*
X651Y3634D01*
X878Y3634D02*
X1124Y3634D01*
X620Y3633D02*
X652Y3633D01*
X882Y3633D02*
X1125Y3633D01*
X621Y3632D02*
X653Y3632D01*
X886Y3632D02*
X1126Y3632D01*
X622Y3631D02*
X654Y3631D01*
X890Y3631D02*
X1126Y3631D01*
X623Y3630D02*
X655Y3630D01*
X894Y3630D02*
X1127Y3630D01*
X624Y3629D02*
X656Y3629D01*
X899Y3629D02*
X1127Y3629D01*
X625Y3628D02*
X657Y3628D01*
X904Y3628D02*
X1127Y3628D01*
X626Y3627D02*
X658Y3627D01*
X908Y3627D02*
X1128Y3627D01*
X627Y3626D02*
X659Y3626D01*
X913Y3626D02*
X1128Y3626D01*
X628Y3625D02*
X660Y3625D01*
X919Y3625D02*
X1128Y3625D01*
X629Y3624D02*
X661Y3624D01*
X924Y3624D02*
X1128Y3624D01*
X629Y3623D02*
X662Y3623D01*
X930Y3623D02*
X1127Y3623D01*
X630Y3622D02*
X663Y3622D01*
X936Y3622D02*
X1127Y3622D01*
X631Y3621D02*
X664Y3621D01*
X942Y3621D02*
X1127Y3621D01*
X632Y3620D02*
X666Y3620D01*
X949Y3620D02*
X1126Y3620D01*
X633Y3619D02*
X667Y3619D01*
X956Y3619D02*
X1126Y3619D01*
X634Y3618D02*
X668Y3618D01*
X965Y3618D02*
X1125Y3618D01*
X635Y3617D02*
X669Y3617D01*
X973Y3617D02*
X1124Y3617D01*
X636Y3616D02*
X670Y3616D01*
X983Y3616D02*
X1123Y3616D01*
X637Y3615D02*
X671Y3615D01*
X994Y3615D02*
X1121Y3615D01*
X638Y3614D02*
X672Y3614D01*
X1006Y3614D02*
X1119Y3614D01*
X639Y3613D02*
X673Y3613D01*
X1023Y3613D02*
X1107Y3613D01*
X640Y3612D02*
X675Y3612D01*
X1053Y3612D02*
X1081Y3612D01*
X641Y3611D02*
X676Y3611D01*
X642Y3610D02*
X677Y3610D01*
X643Y3609D02*
X678Y3609D01*
X644Y3608D02*
X679Y3608D01*
X645Y3607D02*
X681Y3607D01*
X647Y3606D02*
X682Y3606D01*
X648Y3605D02*
X683Y3605D01*
X649Y3604D02*
X684Y3604D01*
X650Y3603D02*
X686Y3603D01*
X651Y3602D02*
X687Y3602D01*
X652Y3601D02*
X688Y3601D01*
X653Y3600D02*
X690Y3600D01*
X654Y3599D02*
X691Y3599D01*
X655Y3598D02*
X692Y3598D01*
X657Y3597D02*
X694Y3597D01*
X658Y3596D02*
X695Y3596D01*
X659Y3595D02*
X696Y3595D01*
X660Y3594D02*
X698Y3594D01*
X661Y3593D02*
X699Y3593D01*
X662Y3592D02*
X700Y3592D01*
X664Y3591D02*
X702Y3591D01*
X665Y3590D02*
X703Y3590D01*
X666Y3589D02*
X705Y3589D01*
X667Y3588D02*
X706Y3588D01*
X669Y3587D02*
X708Y3587D01*
X670Y3586D02*
X709Y3586D01*
X671Y3585D02*
X711Y3585D01*
X672Y3584D02*
X712Y3584D01*
X674Y3583D02*
X714Y3583D01*
X675Y3582D02*
X715Y3582D01*
X676Y3581D02*
X717Y3581D01*
X678Y3580D02*
X718Y3580D01*
X679Y3579D02*
X720Y3579D01*
X680Y3578D02*
X722Y3578D01*
X682Y3577D02*
X723Y3577D01*
X683Y3576D02*
X725Y3576D01*
X684Y3575D02*
X726Y3575D01*
X686Y3574D02*
X728Y3574D01*
X687Y3573D02*
X730Y3573D01*
X688Y3572D02*
X731Y3572D01*
X690Y3571D02*
X733Y3571D01*
X691Y3570D02*
X735Y3570D01*
X693Y3569D02*
X737Y3569D01*
X694Y3568D02*
X738Y3568D01*
X696Y3567D02*
X740Y3567D01*
X697Y3566D02*
X742Y3566D01*
X699Y3565D02*
X744Y3565D01*
X700Y3564D02*
X746Y3564D01*
X702Y3563D02*
X747Y3563D01*
X703Y3562D02*
X749Y3562D01*
X705Y3561D02*
X751Y3561D01*
X706Y3560D02*
X753Y3560D01*
X708Y3559D02*
X755Y3559D01*
X709Y3558D02*
X757Y3558D01*
X711Y3557D02*
X759Y3557D01*
X713Y3556D02*
X761Y3556D01*
X714Y3555D02*
X763Y3555D01*
X716Y3554D02*
X765Y3554D01*
X717Y3553D02*
X767Y3553D01*
X719Y3552D02*
X769Y3552D01*
X721Y3551D02*
X771Y3551D01*
X723Y3550D02*
X773Y3550D01*
X724Y3549D02*
X775Y3549D01*
X726Y3548D02*
X777Y3548D01*
X728Y3547D02*
X779Y3547D01*
X729Y3546D02*
X781Y3546D01*
X731Y3545D02*
X784Y3545D01*
X733Y3544D02*
X786Y3544D01*
X735Y3543D02*
X788Y3543D01*
X737Y3542D02*
X790Y3542D01*
X739Y3541D02*
X793Y3541D01*
X740Y3540D02*
X795Y3540D01*
X742Y3539D02*
X797Y3539D01*
X744Y3538D02*
X800Y3538D01*
X746Y3537D02*
X802Y3537D01*
X748Y3536D02*
X805Y3536D01*
X750Y3535D02*
X807Y3535D01*
X752Y3534D02*
X810Y3534D01*
X754Y3533D02*
X812Y3533D01*
X756Y3532D02*
X815Y3532D01*
X758Y3531D02*
X817Y3531D01*
X760Y3530D02*
X820Y3530D01*
X762Y3529D02*
X823Y3529D01*
X764Y3528D02*
X825Y3528D01*
X766Y3527D02*
X828Y3527D01*
X769Y3526D02*
X831Y3526D01*
X771Y3525D02*
X833Y3525D01*
X773Y3524D02*
X836Y3524D01*
X775Y3523D02*
X839Y3523D01*
X777Y3522D02*
X842Y3522D01*
X780Y3521D02*
X845Y3521D01*
X782Y3520D02*
X848Y3520D01*
X784Y3519D02*
X851Y3519D01*
X52Y3518D02*
X52Y3518D01*
X786Y3518D02*
X854Y3518D01*
X48Y3517D02*
X56Y3517D01*
X789Y3517D02*
X857Y3517D01*
X46Y3516D02*
X58Y3516D01*
X791Y3516D02*
X860Y3516D01*
X45Y3515D02*
X60Y3515D01*
X794Y3515D02*
X863Y3515D01*
X44Y3514D02*
X61Y3514D01*
X796Y3514D02*
X867Y3514D01*
X43Y3513D02*
X61Y3513D01*
X799Y3513D02*
X864Y3513D01*
X869Y3513D02*
X870Y3513D01*
X42Y3512D02*
X62Y3512D01*
X801Y3512D02*
X873Y3512D01*
X42Y3511D02*
X63Y3511D01*
X803Y3511D02*
X877Y3511D01*
X41Y3510D02*
X63Y3510D01*
X806Y3510D02*
X880Y3510D01*
X41Y3509D02*
X63Y3509D01*
X809Y3509D02*
X883Y3509D01*
X41Y3508D02*
X63Y3508D01*
X811Y3508D02*
X887Y3508D01*
X40Y3507D02*
X64Y3507D01*
X814Y3507D02*
X891Y3507D01*
X40Y3506D02*
X64Y3506D01*
X817Y3506D02*
X894Y3506D01*
X39Y3505D02*
X64Y3505D01*
X819Y3505D02*
X898Y3505D01*
X39Y3504D02*
X63Y3504D01*
X822Y3504D02*
X902Y3504D01*
X39Y3503D02*
X63Y3503D01*
X825Y3503D02*
X906Y3503D01*
X38Y3502D02*
X63Y3502D01*
X828Y3502D02*
X910Y3502D01*
X38Y3501D02*
X63Y3501D01*
X831Y3501D02*
X914Y3501D01*
X38Y3500D02*
X62Y3500D01*
X833Y3500D02*
X918Y3500D01*
X37Y3499D02*
X62Y3499D01*
X836Y3499D02*
X922Y3499D01*
X37Y3498D02*
X61Y3498D01*
X839Y3498D02*
X926Y3498D01*
X37Y3497D02*
X61Y3497D01*
X842Y3497D02*
X930Y3497D01*
X36Y3496D02*
X61Y3496D01*
X845Y3496D02*
X935Y3496D01*
X36Y3495D02*
X60Y3495D01*
X848Y3495D02*
X939Y3495D01*
X36Y3494D02*
X60Y3494D01*
X851Y3494D02*
X944Y3494D01*
X36Y3493D02*
X60Y3493D01*
X854Y3493D02*
X948Y3493D01*
X35Y3492D02*
X59Y3492D01*
X858Y3492D02*
X953Y3492D01*
X35Y3491D02*
X59Y3491D01*
X861Y3491D02*
X958Y3491D01*
X35Y3490D02*
X59Y3490D01*
X864Y3490D02*
X963Y3490D01*
X34Y3489D02*
X58Y3489D01*
X868Y3489D02*
X968Y3489D01*
X34Y3488D02*
X58Y3488D01*
X871Y3488D02*
X973Y3488D01*
X34Y3487D02*
X58Y3487D01*
X874Y3487D02*
X979Y3487D01*
X33Y3486D02*
X57Y3486D01*
X878Y3486D02*
X984Y3486D01*
X33Y3485D02*
X57Y3485D01*
X881Y3485D02*
X990Y3485D01*
X33Y3484D02*
X57Y3484D01*
X885Y3484D02*
X996Y3484D01*
X33Y3483D02*
X57Y3483D01*
X889Y3483D02*
X1002Y3483D01*
X32Y3482D02*
X56Y3482D01*
X892Y3482D02*
X1008Y3482D01*
X32Y3481D02*
X56Y3481D01*
X896Y3481D02*
X1014Y3481D01*
X32Y3480D02*
X56Y3480D01*
X900Y3480D02*
X1021Y3480D01*
X32Y3479D02*
X55Y3479D01*
X904Y3479D02*
X1028Y3479D01*
X31Y3478D02*
X55Y3478D01*
X908Y3478D02*
X1034Y3478D01*
X31Y3477D02*
X55Y3477D01*
X912Y3477D02*
X1042Y3477D01*
X31Y3476D02*
X55Y3476D01*
X916Y3476D02*
X1050Y3476D01*
X31Y3475D02*
X54Y3475D01*
X920Y3475D02*
X1057Y3475D01*
X30Y3474D02*
X54Y3474D01*
X925Y3474D02*
X1066Y3474D01*
X30Y3473D02*
X54Y3473D01*
X929Y3473D02*
X1075Y3473D01*
X30Y3472D02*
X54Y3472D01*
X933Y3472D02*
X1084Y3472D01*
X30Y3471D02*
X53Y3471D01*
X938Y3471D02*
X1088Y3471D01*
X30Y3470D02*
X53Y3470D01*
X942Y3470D02*
X1090Y3470D01*
X29Y3469D02*
X53Y3469D01*
X947Y3469D02*
X1091Y3469D01*
X29Y3468D02*
X53Y3468D01*
X952Y3468D02*
X1092Y3468D01*
X29Y3467D02*
X52Y3467D01*
X957Y3467D02*
X1093Y3467D01*
X29Y3466D02*
X52Y3466D01*
X962Y3466D02*
X1094Y3466D01*
X28Y3465D02*
X52Y3465D01*
X967Y3465D02*
X1094Y3465D01*
X28Y3464D02*
X52Y3464D01*
X972Y3464D02*
X1095Y3464D01*
X28Y3463D02*
X52Y3463D01*
X978Y3463D02*
X1095Y3463D01*
X28Y3462D02*
X51Y3462D01*
X983Y3462D02*
X1095Y3462D01*
X28Y3461D02*
X51Y3461D01*
X989Y3461D02*
X1096Y3461D01*
X27Y3460D02*
X51Y3460D01*
X995Y3460D02*
X1096Y3460D01*
X27Y3459D02*
X51Y3459D01*
X1001Y3459D02*
X1096Y3459D01*
X27Y3458D02*
X50Y3458D01*
X1007Y3458D02*
X1095Y3458D01*
X27Y3457D02*
X50Y3457D01*
X1014Y3457D02*
X1095Y3457D01*
X27Y3456D02*
X50Y3456D01*
X1020Y3456D02*
X1095Y3456D01*
X27Y3455D02*
X50Y3455D01*
X1027Y3455D02*
X1095Y3455D01*
X26Y3454D02*
X50Y3454D01*
X1034Y3454D02*
X1094Y3454D01*
X26Y3453D02*
X50Y3453D01*
X1042Y3453D02*
X1093Y3453D01*
X26Y3452D02*
X49Y3452D01*
X1049Y3452D02*
X1093Y3452D01*
X26Y3451D02*
X49Y3451D01*
X1057Y3451D02*
X1092Y3451D01*
X26Y3450D02*
X49Y3450D01*
X1066Y3450D02*
X1090Y3450D01*
X25Y3449D02*
X49Y3449D01*
X1074Y3449D02*
X1089Y3449D01*
X25Y3448D02*
X49Y3448D01*
X1083Y3448D02*
X1085Y3448D01*
X25Y3447D02*
X48Y3447D01*
X25Y3446D02*
X48Y3446D01*
X25Y3445D02*
X48Y3445D01*
X25Y3444D02*
X48Y3444D01*
X24Y3443D02*
X48Y3443D01*
X24Y3442D02*
X48Y3442D01*
X24Y3441D02*
X47Y3441D01*
X24Y3440D02*
X47Y3440D01*
X24Y3439D02*
X47Y3439D01*
X24Y3438D02*
X47Y3438D01*
X24Y3437D02*
X47Y3437D01*
X23Y3436D02*
X47Y3436D01*
X23Y3435D02*
X47Y3435D01*
X23Y3434D02*
X46Y3434D01*
X23Y3433D02*
X46Y3433D01*
X23Y3432D02*
X46Y3432D01*
X23Y3431D02*
X46Y3431D01*
X23Y3430D02*
X46Y3430D01*
X22Y3429D02*
X46Y3429D01*
X22Y3428D02*
X46Y3428D01*
X22Y3427D02*
X45Y3427D01*
X22Y3426D02*
X45Y3426D01*
X22Y3425D02*
X45Y3425D01*
X22Y3424D02*
X45Y3424D01*
X22Y3423D02*
X45Y3423D01*
X22Y3422D02*
X45Y3422D01*
X22Y3421D02*
X45Y3421D01*
X21Y3420D02*
X45Y3420D01*
X21Y3419D02*
X44Y3419D01*
X21Y3418D02*
X44Y3418D01*
X21Y3417D02*
X44Y3417D01*
X21Y3416D02*
X44Y3416D01*
X21Y3415D02*
X44Y3415D01*
X21Y3414D02*
X44Y3414D01*
X21Y3413D02*
X44Y3413D01*
X21Y3412D02*
X44Y3412D01*
X21Y3411D02*
X44Y3411D01*
X20Y3410D02*
X44Y3410D01*
X20Y3409D02*
X43Y3409D01*
X20Y3408D02*
X43Y3408D01*
X20Y3407D02*
X43Y3407D01*
X20Y3406D02*
X43Y3406D01*
X20Y3405D02*
X43Y3405D01*
X20Y3404D02*
X43Y3404D01*
X20Y3403D02*
X43Y3403D01*
X20Y3402D02*
X43Y3402D01*
X20Y3401D02*
X43Y3401D01*
X20Y3400D02*
X43Y3400D01*
X20Y3399D02*
X43Y3399D01*
X20Y3398D02*
X43Y3398D01*
X20Y3397D02*
X43Y3397D01*
X19Y3396D02*
X42Y3396D01*
X19Y3395D02*
X42Y3395D01*
X19Y3394D02*
X42Y3394D01*
X19Y3393D02*
X42Y3393D01*
X19Y3392D02*
X42Y3392D01*
X19Y3391D02*
X42Y3391D01*
X19Y3390D02*
X42Y3390D01*
X19Y3389D02*
X42Y3389D01*
X19Y3388D02*
X42Y3388D01*
X19Y3387D02*
X42Y3387D01*
X19Y3386D02*
X42Y3386D01*
X19Y3385D02*
X42Y3385D01*
X19Y3384D02*
X42Y3384D01*
X19Y3383D02*
X42Y3383D01*
X19Y3382D02*
X42Y3382D01*
X19Y3381D02*
X42Y3381D01*
X19Y3380D02*
X42Y3380D01*
X19Y3379D02*
X42Y3379D01*
X19Y3378D02*
X42Y3378D01*
X19Y3377D02*
X42Y3377D01*
X19Y3376D02*
X42Y3376D01*
X19Y3375D02*
X42Y3375D01*
X19Y3374D02*
X41Y3374D01*
X19Y3373D02*
X41Y3373D01*
X18Y3372D02*
X41Y3372D01*
X18Y3371D02*
X41Y3371D01*
X18Y3370D02*
X41Y3370D01*
X18Y3369D02*
X41Y3369D01*
X18Y3368D02*
X41Y3368D01*
X18Y3367D02*
X41Y3367D01*
X18Y3366D02*
X41Y3366D01*
X18Y3365D02*
X41Y3365D01*
X18Y3364D02*
X41Y3364D01*
X18Y3363D02*
X41Y3363D01*
X18Y3362D02*
X41Y3362D01*
X18Y3361D02*
X41Y3361D01*
X18Y3360D02*
X41Y3360D01*
X18Y3359D02*
X41Y3359D01*
X18Y3358D02*
X41Y3358D01*
X18Y3357D02*
X41Y3357D01*
X18Y3356D02*
X41Y3356D01*
X18Y3355D02*
X41Y3355D01*
X18Y3354D02*
X41Y3354D01*
X18Y3353D02*
X41Y3353D01*
X18Y3352D02*
X41Y3352D01*
X18Y3351D02*
X41Y3351D01*
X18Y3350D02*
X41Y3350D01*
X18Y3349D02*
X41Y3349D01*
X19Y3348D02*
X41Y3348D01*
X19Y3347D02*
X41Y3347D01*
X19Y3346D02*
X41Y3346D01*
X19Y3345D02*
X41Y3345D01*
X19Y3344D02*
X42Y3344D01*
X19Y3343D02*
X42Y3343D01*
X19Y3342D02*
X42Y3342D01*
X19Y3341D02*
X42Y3341D01*
X19Y3340D02*
X42Y3340D01*
X19Y3339D02*
X42Y3339D01*
X19Y3338D02*
X42Y3338D01*
X19Y3337D02*
X42Y3337D01*
X19Y3336D02*
X42Y3336D01*
X19Y3335D02*
X42Y3335D01*
X19Y3334D02*
X42Y3334D01*
X19Y3333D02*
X42Y3333D01*
X19Y3332D02*
X42Y3332D01*
X19Y3331D02*
X42Y3331D01*
X19Y3330D02*
X42Y3330D01*
X19Y3329D02*
X42Y3329D01*
X19Y3328D02*
X42Y3328D01*
X19Y3327D02*
X42Y3327D01*
X19Y3326D02*
X42Y3326D01*
X19Y3325D02*
X42Y3325D01*
X19Y3324D02*
X42Y3324D01*
X19Y3323D02*
X42Y3323D01*
X20Y3322D02*
X42Y3322D01*
X20Y3321D02*
X43Y3321D01*
X20Y3320D02*
X43Y3320D01*
X20Y3319D02*
X43Y3319D01*
X20Y3318D02*
X43Y3318D01*
X20Y3317D02*
X43Y3317D01*
X20Y3316D02*
X43Y3316D01*
X20Y3315D02*
X43Y3315D01*
X20Y3314D02*
X43Y3314D01*
X20Y3313D02*
X43Y3313D01*
X20Y3312D02*
X43Y3312D01*
X20Y3311D02*
X43Y3311D01*
X20Y3310D02*
X43Y3310D01*
X20Y3309D02*
X43Y3309D01*
X20Y3308D02*
X43Y3308D01*
X21Y3307D02*
X44Y3307D01*
X21Y3306D02*
X44Y3306D01*
X21Y3305D02*
X44Y3305D01*
X21Y3304D02*
X44Y3304D01*
X21Y3303D02*
X44Y3303D01*
X21Y3302D02*
X44Y3302D01*
X21Y3301D02*
X44Y3301D01*
X21Y3300D02*
X44Y3300D01*
X21Y3299D02*
X44Y3299D01*
X21Y3298D02*
X44Y3298D01*
X21Y3297D02*
X44Y3297D01*
X22Y3296D02*
X45Y3296D01*
X22Y3295D02*
X45Y3295D01*
X22Y3294D02*
X45Y3294D01*
X22Y3293D02*
X45Y3293D01*
X22Y3292D02*
X45Y3292D01*
X22Y3291D02*
X45Y3291D01*
X22Y3290D02*
X45Y3290D01*
X22Y3289D02*
X45Y3289D01*
X22Y3288D02*
X45Y3288D01*
X22Y3287D02*
X46Y3287D01*
X23Y3286D02*
X46Y3286D01*
X23Y3285D02*
X46Y3285D01*
X23Y3284D02*
X46Y3284D01*
X23Y3283D02*
X46Y3283D01*
X23Y3282D02*
X46Y3282D01*
X23Y3281D02*
X46Y3281D01*
X23Y3280D02*
X46Y3280D01*
X23Y3279D02*
X46Y3279D01*
X23Y3278D02*
X47Y3278D01*
X24Y3277D02*
X47Y3277D01*
X24Y3276D02*
X47Y3276D01*
X24Y3275D02*
X47Y3275D01*
X24Y3274D02*
X47Y3274D01*
X24Y3273D02*
X47Y3273D01*
X24Y3272D02*
X47Y3272D01*
X24Y3271D02*
X48Y3271D01*
X25Y3270D02*
X48Y3270D01*
X25Y3269D02*
X48Y3269D01*
X25Y3268D02*
X48Y3268D01*
X25Y3267D02*
X48Y3267D01*
X25Y3266D02*
X48Y3266D01*
X25Y3265D02*
X48Y3265D01*
X25Y3264D02*
X49Y3264D01*
X25Y3263D02*
X49Y3263D01*
X26Y3262D02*
X49Y3262D01*
X26Y3261D02*
X49Y3261D01*
X26Y3260D02*
X49Y3260D01*
X26Y3259D02*
X49Y3259D01*
X26Y3258D02*
X49Y3258D01*
X26Y3257D02*
X50Y3257D01*
X27Y3256D02*
X50Y3256D01*
X27Y3255D02*
X50Y3255D01*
X27Y3254D02*
X50Y3254D01*
X27Y3253D02*
X50Y3253D01*
X27Y3252D02*
X50Y3252D01*
X27Y3251D02*
X51Y3251D01*
X27Y3250D02*
X51Y3250D01*
X28Y3249D02*
X51Y3249D01*
X28Y3248D02*
X51Y3248D01*
X28Y3247D02*
X51Y3247D01*
X28Y3246D02*
X51Y3246D01*
X28Y3245D02*
X52Y3245D01*
X28Y3244D02*
X52Y3244D01*
X29Y3243D02*
X52Y3243D01*
X29Y3242D02*
X52Y3242D01*
X29Y3241D02*
X52Y3241D01*
X29Y3240D02*
X52Y3240D01*
X29Y3239D02*
X53Y3239D01*
X29Y3238D02*
X53Y3238D01*
X30Y3237D02*
X53Y3237D01*
X30Y3236D02*
X53Y3236D01*
X30Y3235D02*
X53Y3235D01*
X30Y3234D02*
X53Y3234D01*
X30Y3233D02*
X54Y3233D01*
X30Y3232D02*
X54Y3232D01*
X31Y3231D02*
X54Y3231D01*
X31Y3230D02*
X54Y3230D01*
X31Y3229D02*
X54Y3229D01*
X31Y3228D02*
X55Y3228D01*
X31Y3227D02*
X55Y3227D01*
X32Y3226D02*
X55Y3226D01*
X32Y3225D02*
X55Y3225D01*
X32Y3224D02*
X55Y3224D01*
X32Y3223D02*
X56Y3223D01*
X32Y3222D02*
X56Y3222D01*
X33Y3221D02*
X56Y3221D01*
X33Y3220D02*
X56Y3220D01*
X33Y3219D02*
X56Y3219D01*
X33Y3218D02*
X57Y3218D01*
X33Y3217D02*
X57Y3217D01*
X34Y3216D02*
X57Y3216D01*
X34Y3215D02*
X57Y3215D01*
X34Y3214D02*
X57Y3214D01*
X34Y3213D02*
X58Y3213D01*
X34Y3212D02*
X58Y3212D01*
X35Y3211D02*
X58Y3211D01*
X35Y3210D02*
X58Y3210D01*
X35Y3209D02*
X59Y3209D01*
X35Y3208D02*
X59Y3208D01*
X35Y3207D02*
X59Y3207D01*
X36Y3206D02*
X59Y3206D01*
X36Y3205D02*
X59Y3205D01*
X36Y3204D02*
X60Y3204D01*
X36Y3203D02*
X60Y3203D01*
X37Y3202D02*
X60Y3202D01*
X37Y3201D02*
X60Y3201D01*
X37Y3200D02*
X61Y3200D01*
X37Y3199D02*
X61Y3199D01*
X37Y3198D02*
X61Y3198D01*
X38Y3197D02*
X61Y3197D01*
X38Y3196D02*
X61Y3196D01*
X38Y3195D02*
X62Y3195D01*
X38Y3194D02*
X62Y3194D01*
X39Y3193D02*
X62Y3193D01*
X39Y3192D02*
X62Y3192D01*
X39Y3191D02*
X61Y3191D01*
X39Y3190D02*
X61Y3190D01*
X40Y3189D02*
X61Y3189D01*
X40Y3188D02*
X60Y3188D01*
X41Y3187D02*
X60Y3187D01*
X42Y3186D02*
X59Y3186D01*
X43Y3185D02*
X58Y3185D01*
X44Y3184D02*
X57Y3184D01*
X46Y3183D02*
X55Y3183D01*
X49Y3182D02*
X51Y3182D01*
X1036Y3017D02*
X1044Y3017D01*
X1034Y3016D02*
X1046Y3016D01*
X1033Y3015D02*
X1047Y3015D01*
X1031Y3014D02*
X1048Y3014D01*
X1030Y3013D02*
X1049Y3013D01*
X1029Y3012D02*
X1050Y3012D01*
X1027Y3011D02*
X1050Y3011D01*
X1026Y3010D02*
X1051Y3010D01*
X1025Y3009D02*
X1051Y3009D01*
X1023Y3008D02*
X1051Y3008D01*
X1022Y3007D02*
X1051Y3007D01*
X1021Y3006D02*
X1052Y3006D01*
X1019Y3005D02*
X1051Y3005D01*
X1018Y3004D02*
X1051Y3004D01*
X1017Y3003D02*
X1051Y3003D01*
X1015Y3002D02*
X1051Y3002D01*
X1014Y3001D02*
X1050Y3001D01*
X1013Y3000D02*
X1050Y3000D01*
X1011Y2999D02*
X1049Y2999D01*
X1010Y2998D02*
X1048Y2998D01*
X1009Y2997D02*
X1047Y2997D01*
X1007Y2996D02*
X1046Y2996D01*
X1006Y2995D02*
X1045Y2995D01*
X1005Y2994D02*
X1044Y2994D01*
X1003Y2993D02*
X1042Y2993D01*
X1002Y2992D02*
X1041Y2992D01*
X1001Y2991D02*
X1040Y2991D01*
X999Y2990D02*
X1038Y2990D01*
X998Y2989D02*
X1037Y2989D01*
X996Y2988D02*
X1036Y2988D01*
X995Y2987D02*
X1034Y2987D01*
X994Y2986D02*
X1033Y2986D01*
X992Y2985D02*
X1032Y2985D01*
X991Y2984D02*
X1030Y2984D01*
X990Y2983D02*
X1029Y2983D01*
X988Y2982D02*
X1028Y2982D01*
X987Y2981D02*
X1026Y2981D01*
X986Y2980D02*
X1025Y2980D01*
X984Y2979D02*
X1024Y2979D01*
X983Y2978D02*
X1022Y2978D01*
X982Y2977D02*
X1021Y2977D01*
X980Y2976D02*
X1020Y2976D01*
X979Y2975D02*
X1018Y2975D01*
X977Y2974D02*
X1017Y2974D01*
X976Y2973D02*
X1015Y2973D01*
X975Y2972D02*
X1014Y2972D01*
X973Y2971D02*
X1013Y2971D01*
X972Y2970D02*
X1011Y2970D01*
X971Y2969D02*
X1010Y2969D01*
X969Y2968D02*
X1009Y2968D01*
X968Y2967D02*
X1007Y2967D01*
X966Y2966D02*
X1006Y2966D01*
X965Y2965D02*
X1005Y2965D01*
X964Y2964D02*
X1003Y2964D01*
X962Y2963D02*
X1002Y2963D01*
X961Y2962D02*
X1001Y2962D01*
X960Y2961D02*
X999Y2961D01*
X958Y2960D02*
X998Y2960D01*
X957Y2959D02*
X997Y2959D01*
X955Y2958D02*
X995Y2958D01*
X954Y2957D02*
X994Y2957D01*
X953Y2956D02*
X993Y2956D01*
X951Y2955D02*
X991Y2955D01*
X950Y2954D02*
X990Y2954D01*
X949Y2953D02*
X988Y2953D01*
X947Y2952D02*
X987Y2952D01*
X946Y2951D02*
X986Y2951D01*
X944Y2950D02*
X984Y2950D01*
X943Y2949D02*
X983Y2949D01*
X942Y2948D02*
X982Y2948D01*
X940Y2947D02*
X980Y2947D01*
X939Y2946D02*
X979Y2946D01*
X937Y2945D02*
X977Y2945D01*
X936Y2944D02*
X976Y2944D01*
X934Y2943D02*
X975Y2943D01*
X933Y2942D02*
X973Y2942D01*
X932Y2941D02*
X972Y2941D01*
X930Y2940D02*
X970Y2940D01*
X929Y2939D02*
X969Y2939D01*
X927Y2938D02*
X968Y2938D01*
X926Y2937D02*
X966Y2937D01*
X924Y2936D02*
X965Y2936D01*
X923Y2935D02*
X964Y2935D01*
X922Y2934D02*
X962Y2934D01*
X920Y2933D02*
X961Y2933D01*
X919Y2932D02*
X959Y2932D01*
X917Y2931D02*
X958Y2931D01*
X916Y2930D02*
X957Y2930D01*
X915Y2929D02*
X955Y2929D01*
X913Y2928D02*
X954Y2928D01*
X912Y2927D02*
X952Y2927D01*
X910Y2926D02*
X951Y2926D01*
X909Y2925D02*
X950Y2925D01*
X907Y2924D02*
X948Y2924D01*
X906Y2923D02*
X947Y2923D01*
X904Y2922D02*
X945Y2922D01*
X903Y2921D02*
X944Y2921D01*
X902Y2920D02*
X942Y2920D01*
X900Y2919D02*
X941Y2919D01*
X899Y2918D02*
X940Y2918D01*
X897Y2917D02*
X938Y2917D01*
X896Y2916D02*
X937Y2916D01*
X894Y2915D02*
X935Y2915D01*
X893Y2914D02*
X934Y2914D01*
X891Y2913D02*
X932Y2913D01*
X890Y2912D02*
X931Y2912D01*
X888Y2911D02*
X930Y2911D01*
X887Y2910D02*
X928Y2910D01*
X885Y2909D02*
X927Y2909D01*
X884Y2908D02*
X925Y2908D01*
X882Y2907D02*
X924Y2907D01*
X881Y2906D02*
X923Y2906D01*
X879Y2905D02*
X921Y2905D01*
X878Y2904D02*
X920Y2904D01*
X876Y2903D02*
X918Y2903D01*
X875Y2902D02*
X917Y2902D01*
X873Y2901D02*
X915Y2901D01*
X872Y2900D02*
X914Y2900D01*
X871Y2899D02*
X912Y2899D01*
X869Y2898D02*
X911Y2898D01*
X867Y2897D02*
X909Y2897D01*
X866Y2896D02*
X908Y2896D01*
X864Y2895D02*
X906Y2895D01*
X863Y2894D02*
X905Y2894D01*
X861Y2893D02*
X903Y2893D01*
X860Y2892D02*
X902Y2892D01*
X858Y2891D02*
X900Y2891D01*
X857Y2890D02*
X899Y2890D01*
X855Y2889D02*
X898Y2889D01*
X854Y2888D02*
X896Y2888D01*
X852Y2887D02*
X895Y2887D01*
X851Y2886D02*
X893Y2886D01*
X849Y2885D02*
X892Y2885D01*
X847Y2884D02*
X890Y2884D01*
X846Y2883D02*
X889Y2883D01*
X844Y2882D02*
X887Y2882D01*
X843Y2881D02*
X886Y2881D01*
X841Y2880D02*
X884Y2880D01*
X840Y2879D02*
X883Y2879D01*
X838Y2878D02*
X881Y2878D01*
X837Y2877D02*
X880Y2877D01*
X835Y2876D02*
X878Y2876D01*
X833Y2875D02*
X877Y2875D01*
X832Y2874D02*
X875Y2874D01*
X830Y2873D02*
X874Y2873D01*
X829Y2872D02*
X872Y2872D01*
X827Y2871D02*
X870Y2871D01*
X825Y2870D02*
X869Y2870D01*
X824Y2869D02*
X867Y2869D01*
X822Y2868D02*
X866Y2868D01*
X820Y2867D02*
X864Y2867D01*
X819Y2866D02*
X863Y2866D01*
X817Y2865D02*
X861Y2865D01*
X816Y2864D02*
X860Y2864D01*
X814Y2863D02*
X858Y2863D01*
X812Y2862D02*
X857Y2862D01*
X811Y2861D02*
X855Y2861D01*
X809Y2860D02*
X853Y2860D01*
X808Y2859D02*
X852Y2859D01*
X806Y2858D02*
X850Y2858D01*
X804Y2857D02*
X849Y2857D01*
X803Y2856D02*
X847Y2856D01*
X801Y2855D02*
X846Y2855D01*
X799Y2854D02*
X844Y2854D01*
X797Y2853D02*
X842Y2853D01*
X796Y2852D02*
X841Y2852D01*
X794Y2851D02*
X839Y2851D01*
X792Y2850D02*
X838Y2850D01*
X791Y2849D02*
X836Y2849D01*
X789Y2848D02*
X834Y2848D01*
X787Y2847D02*
X833Y2847D01*
X785Y2846D02*
X831Y2846D01*
X784Y2845D02*
X830Y2845D01*
X782Y2844D02*
X828Y2844D01*
X780Y2843D02*
X826Y2843D01*
X779Y2842D02*
X825Y2842D01*
X777Y2841D02*
X823Y2841D01*
X775Y2840D02*
X821Y2840D01*
X773Y2839D02*
X820Y2839D01*
X772Y2838D02*
X818Y2838D01*
X770Y2837D02*
X817Y2837D01*
X768Y2836D02*
X815Y2836D01*
X766Y2835D02*
X813Y2835D01*
X764Y2834D02*
X812Y2834D01*
X762Y2833D02*
X810Y2833D01*
X761Y2832D02*
X808Y2832D01*
X759Y2831D02*
X806Y2831D01*
X757Y2830D02*
X805Y2830D01*
X755Y2829D02*
X803Y2829D01*
X753Y2828D02*
X801Y2828D01*
X751Y2827D02*
X800Y2827D01*
X750Y2826D02*
X798Y2826D01*
X748Y2825D02*
X796Y2825D01*
X746Y2824D02*
X794Y2824D01*
X744Y2823D02*
X793Y2823D01*
X742Y2822D02*
X791Y2822D01*
X740Y2821D02*
X789Y2821D01*
X738Y2820D02*
X787Y2820D01*
X736Y2819D02*
X786Y2819D01*
X734Y2818D02*
X784Y2818D01*
X732Y2817D02*
X782Y2817D01*
X730Y2816D02*
X780Y2816D01*
X728Y2815D02*
X779Y2815D01*
X726Y2814D02*
X777Y2814D01*
X724Y2813D02*
X775Y2813D01*
X722Y2812D02*
X773Y2812D01*
X720Y2811D02*
X771Y2811D01*
X718Y2810D02*
X769Y2810D01*
X716Y2809D02*
X768Y2809D01*
X714Y2808D02*
X766Y2808D01*
X712Y2807D02*
X764Y2807D01*
X710Y2806D02*
X762Y2806D01*
X708Y2805D02*
X760Y2805D01*
X706Y2804D02*
X758Y2804D01*
X703Y2803D02*
X757Y2803D01*
X701Y2802D02*
X755Y2802D01*
X699Y2801D02*
X753Y2801D01*
X697Y2800D02*
X751Y2800D01*
X695Y2799D02*
X749Y2799D01*
X693Y2798D02*
X747Y2798D01*
X690Y2797D02*
X745Y2797D01*
X688Y2796D02*
X743Y2796D01*
X685Y2795D02*
X741Y2795D01*
X683Y2794D02*
X739Y2794D01*
X681Y2793D02*
X737Y2793D01*
X678Y2792D02*
X735Y2792D01*
X676Y2791D02*
X733Y2791D01*
X674Y2790D02*
X731Y2790D01*
X671Y2789D02*
X729Y2789D01*
X669Y2788D02*
X727Y2788D01*
X666Y2787D02*
X725Y2787D01*
X663Y2786D02*
X723Y2786D01*
X661Y2785D02*
X721Y2785D01*
X658Y2784D02*
X719Y2784D01*
X1597Y2784D02*
X1605Y2784D01*
X655Y2783D02*
X717Y2783D01*
X1595Y2783D02*
X1607Y2783D01*
X653Y2782D02*
X714Y2782D01*
X1593Y2782D02*
X1608Y2782D01*
X650Y2781D02*
X712Y2781D01*
X1592Y2781D02*
X1609Y2781D01*
X647Y2780D02*
X710Y2780D01*
X1591Y2780D02*
X1610Y2780D01*
X644Y2779D02*
X708Y2779D01*
X1589Y2779D02*
X1610Y2779D01*
X641Y2778D02*
X706Y2778D01*
X1588Y2778D02*
X1611Y2778D01*
X638Y2777D02*
X703Y2777D01*
X1587Y2777D02*
X1611Y2777D01*
X635Y2776D02*
X701Y2776D01*
X1585Y2776D02*
X1612Y2776D01*
X632Y2775D02*
X699Y2775D01*
X1584Y2775D02*
X1612Y2775D01*
X629Y2774D02*
X696Y2774D01*
X1583Y2774D02*
X1612Y2774D01*
X626Y2773D02*
X694Y2773D01*
X1581Y2773D02*
X1612Y2773D01*
X623Y2772D02*
X692Y2772D01*
X1580Y2772D02*
X1612Y2772D01*
X619Y2771D02*
X689Y2771D01*
X1579Y2771D02*
X1612Y2771D01*
X616Y2770D02*
X687Y2770D01*
X1578Y2770D02*
X1612Y2770D01*
X612Y2769D02*
X685Y2769D01*
X1576Y2769D02*
X1612Y2769D01*
X609Y2768D02*
X682Y2768D01*
X1575Y2768D02*
X1611Y2768D01*
X605Y2767D02*
X680Y2767D01*
X1574Y2767D02*
X1611Y2767D01*
X601Y2766D02*
X677Y2766D01*
X1573Y2766D02*
X1610Y2766D01*
X597Y2765D02*
X675Y2765D01*
X1571Y2765D02*
X1609Y2765D01*
X593Y2764D02*
X672Y2764D01*
X1570Y2764D02*
X1608Y2764D01*
X588Y2763D02*
X669Y2763D01*
X1569Y2763D02*
X1607Y2763D01*
X584Y2762D02*
X667Y2762D01*
X1568Y2762D02*
X1606Y2762D01*
X579Y2761D02*
X664Y2761D01*
X1566Y2761D02*
X1604Y2761D01*
X574Y2760D02*
X661Y2760D01*
X1565Y2760D02*
X1603Y2760D01*
X569Y2759D02*
X659Y2759D01*
X1564Y2759D02*
X1602Y2759D01*
X564Y2758D02*
X656Y2758D01*
X1563Y2758D02*
X1600Y2758D01*
X558Y2757D02*
X653Y2757D01*
X1562Y2757D02*
X1599Y2757D01*
X552Y2756D02*
X650Y2756D01*
X1560Y2756D02*
X1598Y2756D01*
X546Y2755D02*
X647Y2755D01*
X1559Y2755D02*
X1596Y2755D01*
X539Y2754D02*
X644Y2754D01*
X1558Y2754D02*
X1595Y2754D01*
X532Y2753D02*
X641Y2753D01*
X1557Y2753D02*
X1594Y2753D01*
X525Y2752D02*
X638Y2752D01*
X1556Y2752D02*
X1593Y2752D01*
X516Y2751D02*
X635Y2751D01*
X1555Y2751D02*
X1591Y2751D01*
X508Y2750D02*
X632Y2750D01*
X1553Y2750D02*
X1590Y2750D01*
X498Y2749D02*
X628Y2749D01*
X1552Y2749D02*
X1589Y2749D01*
X489Y2748D02*
X625Y2748D01*
X1551Y2748D02*
X1587Y2748D01*
X479Y2747D02*
X621Y2747D01*
X1550Y2747D02*
X1586Y2747D01*
X469Y2746D02*
X618Y2746D01*
X1549Y2746D02*
X1585Y2746D01*
X459Y2745D02*
X614Y2745D01*
X1548Y2745D02*
X1584Y2745D01*
X449Y2744D02*
X611Y2744D01*
X1547Y2744D02*
X1582Y2744D01*
X439Y2743D02*
X607Y2743D01*
X1546Y2743D02*
X1581Y2743D01*
X430Y2742D02*
X603Y2742D01*
X1544Y2742D02*
X1580Y2742D01*
X421Y2741D02*
X598Y2741D01*
X1543Y2741D02*
X1579Y2741D01*
X413Y2740D02*
X594Y2740D01*
X1542Y2740D02*
X1578Y2740D01*
X404Y2739D02*
X590Y2739D01*
X1541Y2739D02*
X1576Y2739D01*
X397Y2738D02*
X585Y2738D01*
X1540Y2738D02*
X1575Y2738D01*
X390Y2737D02*
X580Y2737D01*
X1539Y2737D02*
X1574Y2737D01*
X382Y2736D02*
X576Y2736D01*
X1538Y2736D02*
X1573Y2736D01*
X376Y2735D02*
X571Y2735D01*
X1537Y2735D02*
X1572Y2735D01*
X369Y2734D02*
X565Y2734D01*
X1536Y2734D02*
X1571Y2734D01*
X363Y2733D02*
X559Y2733D01*
X1535Y2733D02*
X1569Y2733D01*
X357Y2732D02*
X553Y2732D01*
X1534Y2732D02*
X1568Y2732D01*
X351Y2731D02*
X547Y2731D01*
X1533Y2731D02*
X1567Y2731D01*
X345Y2730D02*
X540Y2730D01*
X1532Y2730D02*
X1566Y2730D01*
X340Y2729D02*
X533Y2729D01*
X1531Y2729D02*
X1565Y2729D01*
X334Y2728D02*
X525Y2728D01*
X1530Y2728D02*
X1564Y2728D01*
X329Y2727D02*
X517Y2727D01*
X1529Y2727D02*
X1563Y2727D01*
X324Y2726D02*
X508Y2726D01*
X1528Y2726D02*
X1561Y2726D01*
X319Y2725D02*
X499Y2725D01*
X1527Y2725D02*
X1560Y2725D01*
X314Y2724D02*
X490Y2724D01*
X1526Y2724D02*
X1559Y2724D01*
X309Y2723D02*
X479Y2723D01*
X1525Y2723D02*
X1558Y2723D01*
X304Y2722D02*
X469Y2722D01*
X815Y2722D02*
X943Y2722D01*
X1524Y2722D02*
X1557Y2722D01*
X300Y2721D02*
X459Y2721D01*
X777Y2721D02*
X977Y2721D01*
X1523Y2721D02*
X1556Y2721D01*
X295Y2720D02*
X449Y2720D01*
X750Y2720D02*
X1002Y2720D01*
X1522Y2720D02*
X1555Y2720D01*
X291Y2719D02*
X440Y2719D01*
X727Y2719D02*
X1021Y2719D01*
X1521Y2719D02*
X1554Y2719D01*
X287Y2718D02*
X430Y2718D01*
X708Y2718D02*
X1040Y2718D01*
X1520Y2718D02*
X1553Y2718D01*
X282Y2717D02*
X422Y2717D01*
X690Y2717D02*
X1044Y2717D01*
X1519Y2717D02*
X1552Y2717D01*
X278Y2716D02*
X413Y2716D01*
X674Y2716D02*
X1046Y2716D01*
X1518Y2716D02*
X1551Y2716D01*
X274Y2715D02*
X405Y2715D01*
X659Y2715D02*
X1047Y2715D01*
X1517Y2715D02*
X1550Y2715D01*
X270Y2714D02*
X398Y2714D01*
X645Y2714D02*
X1048Y2714D01*
X1516Y2714D02*
X1548Y2714D01*
X266Y2713D02*
X390Y2713D01*
X633Y2713D02*
X1049Y2713D01*
X1515Y2713D02*
X1547Y2713D01*
X262Y2712D02*
X383Y2712D01*
X620Y2712D02*
X1050Y2712D01*
X1514Y2712D02*
X1546Y2712D01*
X258Y2711D02*
X377Y2711D01*
X608Y2711D02*
X1050Y2711D01*
X1513Y2711D02*
X1545Y2711D01*
X254Y2710D02*
X370Y2710D01*
X597Y2710D02*
X1051Y2710D01*
X1512Y2710D02*
X1544Y2710D01*
X250Y2709D02*
X364Y2709D01*
X586Y2709D02*
X1051Y2709D01*
X1511Y2709D02*
X1543Y2709D01*
X246Y2708D02*
X358Y2708D01*
X576Y2708D02*
X1051Y2708D01*
X1510Y2708D02*
X1542Y2708D01*
X243Y2707D02*
X352Y2707D01*
X566Y2707D02*
X1051Y2707D01*
X1509Y2707D02*
X1541Y2707D01*
X239Y2706D02*
X346Y2706D01*
X556Y2706D02*
X1051Y2706D01*
X1508Y2706D02*
X1540Y2706D01*
X235Y2705D02*
X341Y2705D01*
X547Y2705D02*
X1051Y2705D01*
X1508Y2705D02*
X1539Y2705D01*
X232Y2704D02*
X335Y2704D01*
X538Y2704D02*
X1051Y2704D01*
X1507Y2704D02*
X1538Y2704D01*
X228Y2703D02*
X330Y2703D01*
X530Y2703D02*
X1051Y2703D01*
X1506Y2703D02*
X1537Y2703D01*
X225Y2702D02*
X325Y2702D01*
X521Y2702D02*
X1051Y2702D01*
X1505Y2702D02*
X1536Y2702D01*
X221Y2701D02*
X320Y2701D01*
X513Y2701D02*
X1050Y2701D01*
X1504Y2701D02*
X1535Y2701D01*
X218Y2700D02*
X315Y2700D01*
X505Y2700D02*
X1050Y2700D01*
X1503Y2700D02*
X1534Y2700D01*
X214Y2699D02*
X311Y2699D01*
X497Y2699D02*
X1049Y2699D01*
X1502Y2699D02*
X1534Y2699D01*
X211Y2698D02*
X306Y2698D01*
X490Y2698D02*
X813Y2698D01*
X943Y2698D02*
X1048Y2698D01*
X1501Y2698D02*
X1533Y2698D01*
X207Y2697D02*
X301Y2697D01*
X482Y2697D02*
X776Y2697D01*
X978Y2697D02*
X1047Y2697D01*
X1500Y2697D02*
X1532Y2697D01*
X204Y2696D02*
X297Y2696D01*
X475Y2696D02*
X749Y2696D01*
X1002Y2696D02*
X1046Y2696D01*
X1500Y2696D02*
X1531Y2696D01*
X201Y2695D02*
X293Y2695D01*
X468Y2695D02*
X726Y2695D01*
X1022Y2695D02*
X1044Y2695D01*
X1499Y2695D02*
X1530Y2695D01*
X197Y2694D02*
X288Y2694D01*
X462Y2694D02*
X707Y2694D01*
X1498Y2694D02*
X1529Y2694D01*
X194Y2693D02*
X284Y2693D01*
X455Y2693D02*
X689Y2693D01*
X1497Y2693D02*
X1528Y2693D01*
X191Y2692D02*
X280Y2692D01*
X448Y2692D02*
X674Y2692D01*
X1496Y2692D02*
X1527Y2692D01*
X188Y2691D02*
X275Y2691D01*
X442Y2691D02*
X659Y2691D01*
X1495Y2691D02*
X1526Y2691D01*
X185Y2690D02*
X272Y2690D01*
X436Y2690D02*
X645Y2690D01*
X1495Y2690D02*
X1525Y2690D01*
X181Y2689D02*
X268Y2689D01*
X430Y2689D02*
X632Y2689D01*
X1494Y2689D02*
X1524Y2689D01*
X178Y2688D02*
X264Y2688D01*
X423Y2688D02*
X619Y2688D01*
X1493Y2688D02*
X1523Y2688D01*
X175Y2687D02*
X260Y2687D01*
X418Y2687D02*
X608Y2687D01*
X1492Y2687D02*
X1522Y2687D01*
X172Y2686D02*
X256Y2686D01*
X412Y2686D02*
X597Y2686D01*
X1491Y2686D02*
X1522Y2686D01*
X169Y2685D02*
X252Y2685D01*
X407Y2685D02*
X586Y2685D01*
X1490Y2685D02*
X1521Y2685D01*
X166Y2684D02*
X248Y2684D01*
X401Y2684D02*
X576Y2684D01*
X1490Y2684D02*
X1520Y2684D01*
X165Y2683D02*
X245Y2683D01*
X396Y2683D02*
X566Y2683D01*
X1489Y2683D02*
X1519Y2683D01*
X164Y2682D02*
X241Y2682D01*
X390Y2682D02*
X557Y2682D01*
X1488Y2682D02*
X1518Y2682D01*
X163Y2681D02*
X237Y2681D01*
X385Y2681D02*
X547Y2681D01*
X1487Y2681D02*
X1517Y2681D01*
X162Y2680D02*
X234Y2680D01*
X380Y2680D02*
X539Y2680D01*
X1487Y2680D02*
X1516Y2680D01*
X161Y2679D02*
X230Y2679D01*
X375Y2679D02*
X530Y2679D01*
X1486Y2679D02*
X1516Y2679D01*
X161Y2678D02*
X227Y2678D01*
X370Y2678D02*
X521Y2678D01*
X1485Y2678D02*
X1515Y2678D01*
X160Y2677D02*
X223Y2677D01*
X365Y2677D02*
X513Y2677D01*
X1484Y2677D02*
X1514Y2677D01*
X160Y2676D02*
X220Y2676D01*
X361Y2676D02*
X506Y2676D01*
X1483Y2676D02*
X1513Y2676D01*
X160Y2675D02*
X216Y2675D01*
X356Y2675D02*
X498Y2675D01*
X1483Y2675D02*
X1512Y2675D01*
X160Y2674D02*
X213Y2674D01*
X352Y2674D02*
X490Y2674D01*
X1482Y2674D02*
X1511Y2674D01*
X160Y2673D02*
X210Y2673D01*
X347Y2673D02*
X483Y2673D01*
X1481Y2673D02*
X1511Y2673D01*
X160Y2672D02*
X206Y2672D01*
X343Y2672D02*
X476Y2672D01*
X1480Y2672D02*
X1510Y2672D01*
X160Y2671D02*
X203Y2671D01*
X338Y2671D02*
X469Y2671D01*
X1480Y2671D02*
X1509Y2671D01*
X160Y2670D02*
X200Y2670D01*
X334Y2670D02*
X462Y2670D01*
X1479Y2670D02*
X1508Y2670D01*
X161Y2669D02*
X197Y2669D01*
X330Y2669D02*
X455Y2669D01*
X1478Y2669D02*
X1507Y2669D01*
X161Y2668D02*
X194Y2668D01*
X326Y2668D02*
X449Y2668D01*
X1477Y2668D02*
X1507Y2668D01*
X162Y2667D02*
X190Y2667D01*
X322Y2667D02*
X443Y2667D01*
X1477Y2667D02*
X1506Y2667D01*
X163Y2666D02*
X187Y2666D01*
X318Y2666D02*
X437Y2666D01*
X1476Y2666D02*
X1505Y2666D01*
X163Y2665D02*
X184Y2665D01*
X314Y2665D02*
X431Y2665D01*
X1475Y2665D02*
X1504Y2665D01*
X165Y2664D02*
X181Y2664D01*
X310Y2664D02*
X424Y2664D01*
X1475Y2664D02*
X1503Y2664D01*
X166Y2663D02*
X178Y2663D01*
X307Y2663D02*
X419Y2663D01*
X1474Y2663D02*
X1503Y2663D01*
X169Y2662D02*
X174Y2662D01*
X303Y2662D02*
X413Y2662D01*
X1473Y2662D02*
X1502Y2662D01*
X300Y2661D02*
X408Y2661D01*
X1472Y2661D02*
X1501Y2661D01*
X296Y2660D02*
X402Y2660D01*
X1472Y2660D02*
X1500Y2660D01*
X292Y2659D02*
X397Y2659D01*
X1471Y2659D02*
X1500Y2659D01*
X289Y2658D02*
X391Y2658D01*
X1470Y2658D02*
X1499Y2658D01*
X286Y2657D02*
X386Y2657D01*
X1470Y2657D02*
X1498Y2657D01*
X283Y2656D02*
X381Y2656D01*
X1469Y2656D02*
X1497Y2656D01*
X279Y2655D02*
X376Y2655D01*
X1468Y2655D02*
X1497Y2655D01*
X276Y2654D02*
X371Y2654D01*
X1468Y2654D02*
X1496Y2654D01*
X273Y2653D02*
X367Y2653D01*
X1467Y2653D02*
X1495Y2653D01*
X270Y2652D02*
X362Y2652D01*
X1466Y2652D02*
X1494Y2652D01*
X267Y2651D02*
X358Y2651D01*
X1466Y2651D02*
X1494Y2651D01*
X264Y2650D02*
X353Y2650D01*
X1465Y2650D02*
X1493Y2650D01*
X261Y2649D02*
X349Y2649D01*
X1464Y2649D02*
X1492Y2649D01*
X258Y2648D02*
X344Y2648D01*
X1464Y2648D02*
X1492Y2648D01*
X255Y2647D02*
X340Y2647D01*
X1463Y2647D02*
X1491Y2647D01*
X253Y2646D02*
X336Y2646D01*
X1462Y2646D02*
X1490Y2646D01*
X250Y2645D02*
X332Y2645D01*
X1462Y2645D02*
X1489Y2645D01*
X247Y2644D02*
X328Y2644D01*
X1461Y2644D02*
X1489Y2644D01*
X245Y2643D02*
X324Y2643D01*
X1460Y2643D02*
X1488Y2643D01*
X242Y2642D02*
X320Y2642D01*
X1460Y2642D02*
X1487Y2642D01*
X240Y2641D02*
X316Y2641D01*
X1459Y2641D02*
X1487Y2641D01*
X237Y2640D02*
X313Y2640D01*
X1459Y2640D02*
X1486Y2640D01*
X235Y2639D02*
X309Y2639D01*
X1458Y2639D02*
X1485Y2639D01*
X233Y2638D02*
X305Y2638D01*
X1457Y2638D02*
X1485Y2638D01*
X230Y2637D02*
X302Y2637D01*
X1457Y2637D02*
X1484Y2637D01*
X228Y2636D02*
X298Y2636D01*
X1456Y2636D02*
X1483Y2636D01*
X226Y2635D02*
X295Y2635D01*
X1456Y2635D02*
X1483Y2635D01*
X224Y2634D02*
X292Y2634D01*
X1455Y2634D02*
X1482Y2634D01*
X222Y2633D02*
X288Y2633D01*
X1454Y2633D02*
X1482Y2633D01*
X220Y2632D02*
X285Y2632D01*
X1454Y2632D02*
X1481Y2632D01*
X218Y2631D02*
X282Y2631D01*
X1453Y2631D02*
X1480Y2631D01*
X216Y2630D02*
X279Y2630D01*
X1453Y2630D02*
X1480Y2630D01*
X214Y2629D02*
X276Y2629D01*
X1452Y2629D02*
X1479Y2629D01*
X212Y2628D02*
X273Y2628D01*
X1452Y2628D02*
X1478Y2628D01*
X210Y2627D02*
X270Y2627D01*
X1451Y2627D02*
X1478Y2627D01*
X208Y2626D02*
X267Y2626D01*
X1450Y2626D02*
X1477Y2626D01*
X206Y2625D02*
X264Y2625D01*
X1450Y2625D02*
X1477Y2625D01*
X205Y2624D02*
X262Y2624D01*
X1449Y2624D02*
X1476Y2624D01*
X203Y2623D02*
X259Y2623D01*
X1449Y2623D02*
X1475Y2623D01*
X201Y2622D02*
X256Y2622D01*
X1448Y2622D02*
X1475Y2622D01*
X200Y2621D02*
X253Y2621D01*
X1448Y2621D02*
X1474Y2621D01*
X198Y2620D02*
X251Y2620D01*
X1447Y2620D02*
X1474Y2620D01*
X196Y2619D02*
X248Y2619D01*
X1447Y2619D02*
X1473Y2619D01*
X195Y2618D02*
X246Y2618D01*
X1446Y2618D02*
X1473Y2618D01*
X193Y2617D02*
X244Y2617D01*
X1445Y2617D02*
X1472Y2617D01*
X192Y2616D02*
X241Y2616D01*
X1445Y2616D02*
X1471Y2616D01*
X191Y2615D02*
X239Y2615D01*
X1444Y2615D02*
X1471Y2615D01*
X189Y2614D02*
X237Y2614D01*
X1444Y2614D02*
X1470Y2614D01*
X188Y2613D02*
X234Y2613D01*
X1443Y2613D02*
X1470Y2613D01*
X187Y2612D02*
X232Y2612D01*
X1443Y2612D02*
X1469Y2612D01*
X185Y2611D02*
X230Y2611D01*
X1442Y2611D02*
X1469Y2611D01*
X184Y2610D02*
X228Y2610D01*
X1442Y2610D02*
X1468Y2610D01*
X183Y2609D02*
X226Y2609D01*
X1441Y2609D02*
X1467Y2609D01*
X182Y2608D02*
X224Y2608D01*
X1441Y2608D02*
X1467Y2608D01*
X181Y2607D02*
X222Y2607D01*
X1440Y2607D02*
X1466Y2607D01*
X180Y2606D02*
X220Y2606D01*
X1440Y2606D02*
X1466Y2606D01*
X179Y2605D02*
X219Y2605D01*
X1439Y2605D02*
X1465Y2605D01*
X178Y2604D02*
X217Y2604D01*
X1439Y2604D02*
X1465Y2604D01*
X177Y2603D02*
X215Y2603D01*
X1438Y2603D02*
X1464Y2603D01*
X176Y2602D02*
X213Y2602D01*
X1438Y2602D02*
X1464Y2602D01*
X175Y2601D02*
X212Y2601D01*
X1437Y2601D02*
X1463Y2601D01*
X174Y2600D02*
X210Y2600D01*
X1437Y2600D02*
X1463Y2600D01*
X173Y2599D02*
X209Y2599D01*
X1437Y2599D02*
X1462Y2599D01*
X172Y2598D02*
X207Y2598D01*
X1436Y2598D02*
X1462Y2598D01*
X171Y2597D02*
X206Y2597D01*
X1436Y2597D02*
X1461Y2597D01*
X171Y2596D02*
X204Y2596D01*
X1435Y2596D02*
X1461Y2596D01*
X170Y2595D02*
X203Y2595D01*
X1435Y2595D02*
X1460Y2595D01*
X169Y2594D02*
X201Y2594D01*
X1434Y2594D02*
X1460Y2594D01*
X168Y2593D02*
X200Y2593D01*
X1434Y2593D02*
X1459Y2593D01*
X168Y2592D02*
X199Y2592D01*
X1433Y2592D02*
X1459Y2592D01*
X167Y2591D02*
X198Y2591D01*
X1433Y2591D02*
X1458Y2591D01*
X166Y2590D02*
X196Y2590D01*
X1433Y2590D02*
X1458Y2590D01*
X166Y2589D02*
X195Y2589D01*
X1432Y2589D02*
X1457Y2589D01*
X165Y2588D02*
X194Y2588D01*
X1432Y2588D02*
X1457Y2588D01*
X165Y2587D02*
X193Y2587D01*
X1431Y2587D02*
X1456Y2587D01*
X164Y2586D02*
X192Y2586D01*
X1431Y2586D02*
X1456Y2586D01*
X164Y2585D02*
X191Y2585D01*
X1430Y2585D02*
X1456Y2585D01*
X163Y2584D02*
X190Y2584D01*
X1430Y2584D02*
X1455Y2584D01*
X163Y2583D02*
X189Y2583D01*
X1429Y2583D02*
X1455Y2583D01*
X162Y2582D02*
X189Y2582D01*
X1429Y2582D02*
X1454Y2582D01*
X162Y2581D02*
X188Y2581D01*
X1429Y2581D02*
X1454Y2581D01*
X161Y2580D02*
X187Y2580D01*
X1166Y2580D02*
X1172Y2580D01*
X1428Y2580D02*
X1453Y2580D01*
X161Y2579D02*
X186Y2579D01*
X1162Y2579D02*
X1175Y2579D01*
X1428Y2579D02*
X1453Y2579D01*
X161Y2578D02*
X186Y2578D01*
X1158Y2578D02*
X1176Y2578D01*
X1428Y2578D02*
X1452Y2578D01*
X160Y2577D02*
X185Y2577D01*
X1154Y2577D02*
X1177Y2577D01*
X1427Y2577D02*
X1452Y2577D01*
X160Y2576D02*
X185Y2576D01*
X1150Y2576D02*
X1178Y2576D01*
X1427Y2576D02*
X1451Y2576D01*
X160Y2575D02*
X184Y2575D01*
X1146Y2575D02*
X1179Y2575D01*
X1426Y2575D02*
X1451Y2575D01*
X160Y2574D02*
X184Y2574D01*
X1142Y2574D02*
X1179Y2574D01*
X1426Y2574D02*
X1451Y2574D01*
X160Y2573D02*
X183Y2573D01*
X1137Y2573D02*
X1180Y2573D01*
X1426Y2573D02*
X1450Y2573D01*
X160Y2572D02*
X183Y2572D01*
X1133Y2572D02*
X1180Y2572D01*
X1425Y2572D02*
X1450Y2572D01*
X160Y2571D02*
X183Y2571D01*
X1129Y2571D02*
X1180Y2571D01*
X1425Y2571D02*
X1449Y2571D01*
X160Y2570D02*
X182Y2570D01*
X1125Y2570D02*
X1180Y2570D01*
X1424Y2570D02*
X1449Y2570D01*
X161Y2569D02*
X182Y2569D01*
X1121Y2569D02*
X1180Y2569D01*
X1424Y2569D02*
X1449Y2569D01*
X161Y2568D02*
X182Y2568D01*
X1117Y2568D02*
X1180Y2568D01*
X1424Y2568D02*
X1448Y2568D01*
X162Y2567D02*
X181Y2567D01*
X1113Y2567D02*
X1180Y2567D01*
X1423Y2567D02*
X1448Y2567D01*
X163Y2566D02*
X180Y2566D01*
X1108Y2566D02*
X1180Y2566D01*
X1423Y2566D02*
X1448Y2566D01*
X163Y2565D02*
X179Y2565D01*
X1104Y2565D02*
X1180Y2565D01*
X1422Y2565D02*
X1447Y2565D01*
X165Y2564D02*
X178Y2564D01*
X1100Y2564D02*
X1180Y2564D01*
X1422Y2564D02*
X1447Y2564D01*
X166Y2563D02*
X177Y2563D01*
X1095Y2563D02*
X1179Y2563D01*
X1422Y2563D02*
X1446Y2563D01*
X168Y2562D02*
X174Y2562D01*
X1091Y2562D02*
X1178Y2562D01*
X1421Y2562D02*
X1446Y2562D01*
X1086Y2561D02*
X1178Y2561D01*
X1421Y2561D02*
X1446Y2561D01*
X1082Y2560D02*
X1177Y2560D01*
X1421Y2560D02*
X1445Y2560D01*
X1078Y2559D02*
X1176Y2559D01*
X1420Y2559D02*
X1445Y2559D01*
X1073Y2558D02*
X1174Y2558D01*
X1420Y2558D02*
X1444Y2558D01*
X1069Y2557D02*
X1171Y2557D01*
X1420Y2557D02*
X1444Y2557D01*
X1065Y2556D02*
X1167Y2556D01*
X1419Y2556D02*
X1444Y2556D01*
X1060Y2555D02*
X1163Y2555D01*
X1419Y2555D02*
X1443Y2555D01*
X1056Y2554D02*
X1159Y2554D01*
X1419Y2554D02*
X1443Y2554D01*
X1051Y2553D02*
X1155Y2553D01*
X1418Y2553D02*
X1443Y2553D01*
X1047Y2552D02*
X1151Y2552D01*
X1418Y2552D02*
X1442Y2552D01*
X1042Y2551D02*
X1147Y2551D01*
X1418Y2551D02*
X1442Y2551D01*
X1037Y2550D02*
X1143Y2550D01*
X1417Y2550D02*
X1442Y2550D01*
X1032Y2549D02*
X1139Y2549D01*
X1417Y2549D02*
X1441Y2549D01*
X1028Y2548D02*
X1135Y2548D01*
X1417Y2548D02*
X1441Y2548D01*
X1023Y2547D02*
X1131Y2547D01*
X1416Y2547D02*
X1441Y2547D01*
X1018Y2546D02*
X1127Y2546D01*
X1416Y2546D02*
X1440Y2546D01*
X1014Y2545D02*
X1123Y2545D01*
X1416Y2545D02*
X1440Y2545D01*
X1009Y2544D02*
X1119Y2544D01*
X1416Y2544D02*
X1440Y2544D01*
X1004Y2543D02*
X1114Y2543D01*
X1415Y2543D02*
X1439Y2543D01*
X1000Y2542D02*
X1110Y2542D01*
X1415Y2542D02*
X1439Y2542D01*
X995Y2541D02*
X1106Y2541D01*
X1415Y2541D02*
X1439Y2541D01*
X990Y2540D02*
X1101Y2540D01*
X1414Y2540D02*
X1438Y2540D01*
X984Y2539D02*
X1097Y2539D01*
X1414Y2539D02*
X1438Y2539D01*
X979Y2538D02*
X1093Y2538D01*
X1414Y2538D02*
X1438Y2538D01*
X974Y2537D02*
X1088Y2537D01*
X1414Y2537D02*
X1437Y2537D01*
X969Y2536D02*
X1084Y2536D01*
X1413Y2536D02*
X1437Y2536D01*
X964Y2535D02*
X1079Y2535D01*
X1413Y2535D02*
X1437Y2535D01*
X959Y2534D02*
X1075Y2534D01*
X1413Y2534D02*
X1437Y2534D01*
X954Y2533D02*
X1071Y2533D01*
X1412Y2533D02*
X1436Y2533D01*
X949Y2532D02*
X1066Y2532D01*
X1412Y2532D02*
X1436Y2532D01*
X944Y2531D02*
X1062Y2531D01*
X1412Y2531D02*
X1436Y2531D01*
X938Y2530D02*
X1058Y2530D01*
X1412Y2530D02*
X1435Y2530D01*
X933Y2529D02*
X1053Y2529D01*
X1411Y2529D02*
X1435Y2529D01*
X928Y2528D02*
X1048Y2528D01*
X1411Y2528D02*
X1435Y2528D01*
X922Y2527D02*
X1043Y2527D01*
X1411Y2527D02*
X1435Y2527D01*
X917Y2526D02*
X1039Y2526D01*
X1411Y2526D02*
X1434Y2526D01*
X911Y2525D02*
X1034Y2525D01*
X1410Y2525D02*
X1434Y2525D01*
X906Y2524D02*
X1029Y2524D01*
X1410Y2524D02*
X1434Y2524D01*
X901Y2523D02*
X1025Y2523D01*
X1410Y2523D02*
X1434Y2523D01*
X895Y2522D02*
X1020Y2522D01*
X1410Y2522D02*
X1433Y2522D01*
X889Y2521D02*
X1015Y2521D01*
X1409Y2521D02*
X1433Y2521D01*
X883Y2520D02*
X1011Y2520D01*
X1409Y2520D02*
X1433Y2520D01*
X878Y2519D02*
X1006Y2519D01*
X1409Y2519D02*
X1433Y2519D01*
X872Y2518D02*
X1001Y2518D01*
X1409Y2518D02*
X1432Y2518D01*
X866Y2517D02*
X996Y2517D01*
X1408Y2517D02*
X1432Y2517D01*
X860Y2516D02*
X991Y2516D01*
X1408Y2516D02*
X1432Y2516D01*
X854Y2515D02*
X986Y2515D01*
X1408Y2515D02*
X1432Y2515D01*
X849Y2514D02*
X981Y2514D01*
X1408Y2514D02*
X1431Y2514D01*
X842Y2513D02*
X976Y2513D01*
X1408Y2513D02*
X1431Y2513D01*
X836Y2512D02*
X971Y2512D01*
X1407Y2512D02*
X1431Y2512D01*
X830Y2511D02*
X966Y2511D01*
X1407Y2511D02*
X1431Y2511D01*
X824Y2510D02*
X961Y2510D01*
X1407Y2510D02*
X1430Y2510D01*
X817Y2509D02*
X956Y2509D01*
X1407Y2509D02*
X1430Y2509D01*
X811Y2508D02*
X950Y2508D01*
X1407Y2508D02*
X1430Y2508D01*
X805Y2507D02*
X945Y2507D01*
X1406Y2507D02*
X1430Y2507D01*
X798Y2506D02*
X940Y2506D01*
X1406Y2506D02*
X1430Y2506D01*
X791Y2505D02*
X934Y2505D01*
X1406Y2505D02*
X1429Y2505D01*
X785Y2504D02*
X929Y2504D01*
X1406Y2504D02*
X1429Y2504D01*
X778Y2503D02*
X923Y2503D01*
X1406Y2503D02*
X1429Y2503D01*
X771Y2502D02*
X918Y2502D01*
X1405Y2502D02*
X1429Y2502D01*
X765Y2501D02*
X913Y2501D01*
X1405Y2501D02*
X1429Y2501D01*
X757Y2500D02*
X907Y2500D01*
X1405Y2500D02*
X1428Y2500D01*
X750Y2499D02*
X902Y2499D01*
X1405Y2499D02*
X1428Y2499D01*
X743Y2498D02*
X896Y2498D01*
X1405Y2498D02*
X1428Y2498D01*
X736Y2497D02*
X890Y2497D01*
X1404Y2497D02*
X1428Y2497D01*
X729Y2496D02*
X884Y2496D01*
X1404Y2496D02*
X1428Y2496D01*
X721Y2495D02*
X879Y2495D01*
X1404Y2495D02*
X1427Y2495D01*
X713Y2494D02*
X873Y2494D01*
X1404Y2494D02*
X1427Y2494D01*
X706Y2493D02*
X867Y2493D01*
X1404Y2493D02*
X1427Y2493D01*
X698Y2492D02*
X861Y2492D01*
X1404Y2492D02*
X1427Y2492D01*
X690Y2491D02*
X855Y2491D01*
X1403Y2491D02*
X1427Y2491D01*
X682Y2490D02*
X849Y2490D01*
X1403Y2490D02*
X1427Y2490D01*
X673Y2489D02*
X843Y2489D01*
X1403Y2489D02*
X1426Y2489D01*
X665Y2488D02*
X837Y2488D01*
X1403Y2488D02*
X1426Y2488D01*
X656Y2487D02*
X831Y2487D01*
X1403Y2487D02*
X1426Y2487D01*
X647Y2486D02*
X824Y2486D01*
X1403Y2486D02*
X1426Y2486D01*
X637Y2485D02*
X818Y2485D01*
X1402Y2485D02*
X1426Y2485D01*
X627Y2484D02*
X812Y2484D01*
X1402Y2484D02*
X1426Y2484D01*
X618Y2483D02*
X806Y2483D01*
X1402Y2483D02*
X1425Y2483D01*
X607Y2482D02*
X799Y2482D01*
X1402Y2482D02*
X1425Y2482D01*
X597Y2481D02*
X792Y2481D01*
X1402Y2481D02*
X1425Y2481D01*
X594Y2480D02*
X785Y2480D01*
X1402Y2480D02*
X1425Y2480D01*
X593Y2479D02*
X779Y2479D01*
X1402Y2479D02*
X1425Y2479D01*
X591Y2478D02*
X772Y2478D01*
X1401Y2478D02*
X1425Y2478D01*
X590Y2477D02*
X765Y2477D01*
X1401Y2477D02*
X1425Y2477D01*
X590Y2476D02*
X758Y2476D01*
X1401Y2476D02*
X1424Y2476D01*
X589Y2475D02*
X751Y2475D01*
X1401Y2475D02*
X1424Y2475D01*
X589Y2474D02*
X744Y2474D01*
X1401Y2474D02*
X1424Y2474D01*
X588Y2473D02*
X737Y2473D01*
X1401Y2473D02*
X1424Y2473D01*
X588Y2472D02*
X729Y2472D01*
X1401Y2472D02*
X1424Y2472D01*
X588Y2471D02*
X722Y2471D01*
X1401Y2471D02*
X1424Y2471D01*
X588Y2470D02*
X714Y2470D01*
X1401Y2470D02*
X1424Y2470D01*
X588Y2469D02*
X706Y2469D01*
X1400Y2469D02*
X1424Y2469D01*
X588Y2468D02*
X698Y2468D01*
X1400Y2468D02*
X1423Y2468D01*
X588Y2467D02*
X690Y2467D01*
X1400Y2467D02*
X1423Y2467D01*
X588Y2466D02*
X682Y2466D01*
X1400Y2466D02*
X1423Y2466D01*
X169Y2465D02*
X173Y2465D01*
X588Y2465D02*
X674Y2465D01*
X1400Y2465D02*
X1423Y2465D01*
X167Y2464D02*
X176Y2464D01*
X589Y2464D02*
X665Y2464D01*
X1400Y2464D02*
X1423Y2464D01*
X165Y2463D02*
X178Y2463D01*
X589Y2463D02*
X656Y2463D01*
X1400Y2463D02*
X1423Y2463D01*
X164Y2462D02*
X179Y2462D01*
X590Y2462D02*
X647Y2462D01*
X1400Y2462D02*
X1423Y2462D01*
X163Y2461D02*
X180Y2461D01*
X591Y2461D02*
X638Y2461D01*
X1400Y2461D02*
X1423Y2461D01*
X162Y2460D02*
X181Y2460D01*
X592Y2460D02*
X628Y2460D01*
X1399Y2460D02*
X1423Y2460D01*
X161Y2459D02*
X181Y2459D01*
X593Y2459D02*
X618Y2459D01*
X1399Y2459D02*
X1422Y2459D01*
X161Y2458D02*
X182Y2458D01*
X596Y2458D02*
X607Y2458D01*
X1399Y2458D02*
X1422Y2458D01*
X160Y2457D02*
X182Y2457D01*
X1399Y2457D02*
X1422Y2457D01*
X160Y2456D02*
X183Y2456D01*
X1399Y2456D02*
X1422Y2456D01*
X159Y2455D02*
X183Y2455D01*
X1399Y2455D02*
X1422Y2455D01*
X159Y2454D02*
X183Y2454D01*
X1399Y2454D02*
X1422Y2454D01*
X158Y2453D02*
X183Y2453D01*
X1399Y2453D02*
X1422Y2453D01*
X158Y2452D02*
X183Y2452D01*
X1399Y2452D02*
X1422Y2452D01*
X158Y2451D02*
X184Y2451D01*
X1399Y2451D02*
X1422Y2451D01*
X158Y2450D02*
X187Y2450D01*
X1399Y2450D02*
X1422Y2450D01*
X158Y2449D02*
X189Y2449D01*
X1399Y2449D02*
X1422Y2449D01*
X158Y2448D02*
X192Y2448D01*
X1398Y2448D02*
X1422Y2448D01*
X158Y2447D02*
X195Y2447D01*
X1398Y2447D02*
X1421Y2447D01*
X159Y2446D02*
X198Y2446D01*
X1398Y2446D02*
X1421Y2446D01*
X159Y2445D02*
X202Y2445D01*
X1398Y2445D02*
X1421Y2445D01*
X159Y2444D02*
X205Y2444D01*
X1398Y2444D02*
X1421Y2444D01*
X159Y2443D02*
X209Y2443D01*
X1398Y2443D02*
X1421Y2443D01*
X160Y2442D02*
X214Y2442D01*
X1398Y2442D02*
X1421Y2442D01*
X160Y2441D02*
X218Y2441D01*
X1398Y2441D02*
X1421Y2441D01*
X161Y2440D02*
X222Y2440D01*
X1398Y2440D02*
X1421Y2440D01*
X162Y2439D02*
X228Y2439D01*
X1398Y2439D02*
X1421Y2439D01*
X163Y2438D02*
X233Y2438D01*
X1398Y2438D02*
X1421Y2438D01*
X163Y2437D02*
X238Y2437D01*
X1398Y2437D02*
X1421Y2437D01*
X165Y2436D02*
X244Y2436D01*
X1398Y2436D02*
X1421Y2436D01*
X166Y2435D02*
X250Y2435D01*
X1398Y2435D02*
X1421Y2435D01*
X167Y2434D02*
X256Y2434D01*
X1398Y2434D02*
X1421Y2434D01*
X168Y2433D02*
X262Y2433D01*
X1398Y2433D02*
X1421Y2433D01*
X170Y2432D02*
X269Y2432D01*
X1398Y2432D02*
X1421Y2432D01*
X172Y2431D02*
X276Y2431D01*
X1398Y2431D02*
X1421Y2431D01*
X174Y2430D02*
X283Y2430D01*
X1398Y2430D02*
X1421Y2430D01*
X176Y2429D02*
X291Y2429D01*
X1397Y2429D02*
X1421Y2429D01*
X178Y2428D02*
X299Y2428D01*
X1397Y2428D02*
X1421Y2428D01*
X181Y2427D02*
X307Y2427D01*
X1397Y2427D02*
X1421Y2427D01*
X183Y2426D02*
X316Y2426D01*
X1397Y2426D02*
X1420Y2426D01*
X186Y2425D02*
X325Y2425D01*
X1397Y2425D02*
X1420Y2425D01*
X189Y2424D02*
X335Y2424D01*
X1397Y2424D02*
X1420Y2424D01*
X192Y2423D02*
X345Y2423D01*
X1397Y2423D02*
X1420Y2423D01*
X196Y2422D02*
X356Y2422D01*
X1397Y2422D02*
X1420Y2422D01*
X200Y2421D02*
X367Y2421D01*
X806Y2421D02*
X818Y2421D01*
X1397Y2421D02*
X1420Y2421D01*
X203Y2420D02*
X379Y2420D01*
X796Y2420D02*
X820Y2420D01*
X1397Y2420D02*
X1420Y2420D01*
X208Y2419D02*
X392Y2419D01*
X786Y2419D02*
X821Y2419D01*
X1397Y2419D02*
X1420Y2419D01*
X212Y2418D02*
X406Y2418D01*
X775Y2418D02*
X822Y2418D01*
X1397Y2418D02*
X1420Y2418D01*
X216Y2417D02*
X421Y2417D01*
X763Y2417D02*
X823Y2417D01*
X1397Y2417D02*
X1420Y2417D01*
X221Y2416D02*
X437Y2416D01*
X749Y2416D02*
X824Y2416D01*
X1397Y2416D02*
X1420Y2416D01*
X226Y2415D02*
X456Y2415D01*
X734Y2415D02*
X824Y2415D01*
X1397Y2415D02*
X1420Y2415D01*
X231Y2414D02*
X477Y2414D01*
X715Y2414D02*
X825Y2414D01*
X1397Y2414D02*
X1420Y2414D01*
X237Y2413D02*
X503Y2413D01*
X693Y2413D02*
X825Y2413D01*
X1397Y2413D02*
X1420Y2413D01*
X243Y2412D02*
X537Y2412D01*
X661Y2412D02*
X664Y2412D01*
X667Y2412D02*
X825Y2412D01*
X1397Y2412D02*
X1420Y2412D01*
X249Y2411D02*
X825Y2411D01*
X1397Y2411D02*
X1420Y2411D01*
X255Y2410D02*
X825Y2410D01*
X1397Y2410D02*
X1420Y2410D01*
X261Y2409D02*
X825Y2409D01*
X1397Y2409D02*
X1420Y2409D01*
X268Y2408D02*
X825Y2408D01*
X1397Y2408D02*
X1420Y2408D01*
X275Y2407D02*
X825Y2407D01*
X1397Y2407D02*
X1420Y2407D01*
X283Y2406D02*
X825Y2406D01*
X1397Y2406D02*
X1420Y2406D01*
X290Y2405D02*
X824Y2405D01*
X1397Y2405D02*
X1420Y2405D01*
X299Y2404D02*
X824Y2404D01*
X1397Y2404D02*
X1420Y2404D01*
X307Y2403D02*
X823Y2403D01*
X1397Y2403D02*
X1420Y2403D01*
X316Y2402D02*
X822Y2402D01*
X1397Y2402D02*
X1420Y2402D01*
X325Y2401D02*
X822Y2401D01*
X1397Y2401D02*
X1420Y2401D01*
X335Y2400D02*
X820Y2400D01*
X1397Y2400D02*
X1420Y2400D01*
X345Y2399D02*
X819Y2399D01*
X1397Y2399D02*
X1420Y2399D01*
X356Y2398D02*
X815Y2398D01*
X1397Y2398D02*
X1420Y2398D01*
X367Y2397D02*
X806Y2397D01*
X1397Y2397D02*
X1420Y2397D01*
X379Y2396D02*
X797Y2396D01*
X1397Y2396D02*
X1421Y2396D01*
X392Y2395D02*
X786Y2395D01*
X1397Y2395D02*
X1421Y2395D01*
X406Y2394D02*
X775Y2394D01*
X1397Y2394D02*
X1421Y2394D01*
X421Y2393D02*
X763Y2393D01*
X1397Y2393D02*
X1421Y2393D01*
X438Y2392D02*
X749Y2392D01*
X1398Y2392D02*
X1421Y2392D01*
X456Y2391D02*
X733Y2391D01*
X1398Y2391D02*
X1421Y2391D01*
X478Y2390D02*
X715Y2390D01*
X1398Y2390D02*
X1421Y2390D01*
X503Y2389D02*
X692Y2389D01*
X1398Y2389D02*
X1421Y2389D01*
X538Y2388D02*
X660Y2388D01*
X1398Y2388D02*
X1421Y2388D01*
X1398Y2387D02*
X1421Y2387D01*
X1398Y2386D02*
X1421Y2386D01*
X1398Y2385D02*
X1421Y2385D01*
X1398Y2384D02*
X1421Y2384D01*
X1398Y2383D02*
X1421Y2383D01*
X1398Y2382D02*
X1421Y2382D01*
X1398Y2381D02*
X1421Y2381D01*
X1398Y2380D02*
X1421Y2380D01*
X1398Y2379D02*
X1421Y2379D01*
X1398Y2378D02*
X1421Y2378D01*
X1398Y2377D02*
X1421Y2377D01*
X1398Y2376D02*
X1421Y2376D01*
X1398Y2375D02*
X1421Y2375D01*
X1398Y2374D02*
X1421Y2374D01*
X1398Y2373D02*
X1422Y2373D01*
X1398Y2372D02*
X1422Y2372D01*
X1399Y2371D02*
X1422Y2371D01*
X1399Y2370D02*
X1422Y2370D01*
X1399Y2369D02*
X1422Y2369D01*
X1399Y2368D02*
X1422Y2368D01*
X1399Y2367D02*
X1422Y2367D01*
X1399Y2366D02*
X1422Y2366D01*
X170Y2365D02*
X173Y2365D01*
X1399Y2365D02*
X1422Y2365D01*
X167Y2364D02*
X176Y2364D01*
X1399Y2364D02*
X1422Y2364D01*
X165Y2363D02*
X178Y2363D01*
X1399Y2363D02*
X1422Y2363D01*
X164Y2362D02*
X179Y2362D01*
X1399Y2362D02*
X1422Y2362D01*
X163Y2361D02*
X181Y2361D01*
X1399Y2361D02*
X1422Y2361D01*
X162Y2360D02*
X182Y2360D01*
X1399Y2360D02*
X1422Y2360D01*
X161Y2359D02*
X184Y2359D01*
X1399Y2359D02*
X1423Y2359D01*
X161Y2358D02*
X185Y2358D01*
X1399Y2358D02*
X1423Y2358D01*
X161Y2357D02*
X187Y2357D01*
X1399Y2357D02*
X1423Y2357D01*
X160Y2356D02*
X188Y2356D01*
X1400Y2356D02*
X1423Y2356D01*
X160Y2355D02*
X190Y2355D01*
X1400Y2355D02*
X1423Y2355D01*
X160Y2354D02*
X192Y2354D01*
X1400Y2354D02*
X1423Y2354D01*
X160Y2353D02*
X193Y2353D01*
X1400Y2353D02*
X1423Y2353D01*
X160Y2352D02*
X195Y2352D01*
X1400Y2352D02*
X1423Y2352D01*
X160Y2351D02*
X196Y2351D01*
X1400Y2351D02*
X1423Y2351D01*
X160Y2350D02*
X198Y2350D01*
X1400Y2350D02*
X1423Y2350D01*
X161Y2349D02*
X200Y2349D01*
X1400Y2349D02*
X1423Y2349D01*
X161Y2348D02*
X201Y2348D01*
X1400Y2348D02*
X1423Y2348D01*
X162Y2347D02*
X203Y2347D01*
X1400Y2347D02*
X1423Y2347D01*
X162Y2346D02*
X205Y2346D01*
X1400Y2346D02*
X1423Y2346D01*
X163Y2345D02*
X206Y2345D01*
X1400Y2345D02*
X1424Y2345D01*
X164Y2344D02*
X208Y2344D01*
X1400Y2344D02*
X1424Y2344D01*
X166Y2343D02*
X210Y2343D01*
X1401Y2343D02*
X1424Y2343D01*
X167Y2342D02*
X212Y2342D01*
X1401Y2342D02*
X1424Y2342D01*
X169Y2341D02*
X213Y2341D01*
X1401Y2341D02*
X1424Y2341D01*
X170Y2340D02*
X215Y2340D01*
X1401Y2340D02*
X1424Y2340D01*
X172Y2339D02*
X217Y2339D01*
X1401Y2339D02*
X1424Y2339D01*
X173Y2338D02*
X218Y2338D01*
X1401Y2338D02*
X1424Y2338D01*
X175Y2337D02*
X220Y2337D01*
X1401Y2337D02*
X1424Y2337D01*
X176Y2336D02*
X222Y2336D01*
X1401Y2336D02*
X1424Y2336D01*
X178Y2335D02*
X224Y2335D01*
X1401Y2335D02*
X1424Y2335D01*
X179Y2334D02*
X226Y2334D01*
X1401Y2334D02*
X1425Y2334D01*
X181Y2333D02*
X227Y2333D01*
X1401Y2333D02*
X1425Y2333D01*
X183Y2332D02*
X229Y2332D01*
X1402Y2332D02*
X1425Y2332D01*
X184Y2331D02*
X231Y2331D01*
X1402Y2331D02*
X1425Y2331D01*
X186Y2330D02*
X233Y2330D01*
X1402Y2330D02*
X1425Y2330D01*
X187Y2329D02*
X235Y2329D01*
X1402Y2329D02*
X1425Y2329D01*
X189Y2328D02*
X237Y2328D01*
X1402Y2328D02*
X1425Y2328D01*
X191Y2327D02*
X239Y2327D01*
X1402Y2327D02*
X1425Y2327D01*
X192Y2326D02*
X241Y2326D01*
X1402Y2326D02*
X1425Y2326D01*
X194Y2325D02*
X242Y2325D01*
X1402Y2325D02*
X1425Y2325D01*
X196Y2324D02*
X244Y2324D01*
X1402Y2324D02*
X1425Y2324D01*
X197Y2323D02*
X246Y2323D01*
X1402Y2323D02*
X1425Y2323D01*
X199Y2322D02*
X248Y2322D01*
X1402Y2322D02*
X1425Y2322D01*
X201Y2321D02*
X250Y2321D01*
X1402Y2321D02*
X1426Y2321D01*
X203Y2320D02*
X252Y2320D01*
X1403Y2320D02*
X1426Y2320D01*
X204Y2319D02*
X254Y2319D01*
X1403Y2319D02*
X1426Y2319D01*
X206Y2318D02*
X256Y2318D01*
X1403Y2318D02*
X1426Y2318D01*
X208Y2317D02*
X258Y2317D01*
X1403Y2317D02*
X1426Y2317D01*
X210Y2316D02*
X260Y2316D01*
X1403Y2316D02*
X1426Y2316D01*
X211Y2315D02*
X262Y2315D01*
X1403Y2315D02*
X1426Y2315D01*
X213Y2314D02*
X264Y2314D01*
X1403Y2314D02*
X1426Y2314D01*
X215Y2313D02*
X266Y2313D01*
X1403Y2313D02*
X1426Y2313D01*
X217Y2312D02*
X268Y2312D01*
X1403Y2312D02*
X1426Y2312D01*
X219Y2311D02*
X270Y2311D01*
X1403Y2311D02*
X1426Y2311D01*
X221Y2310D02*
X272Y2310D01*
X1403Y2310D02*
X1426Y2310D01*
X222Y2309D02*
X275Y2309D01*
X1403Y2309D02*
X1427Y2309D01*
X224Y2308D02*
X277Y2308D01*
X1404Y2308D02*
X1427Y2308D01*
X226Y2307D02*
X279Y2307D01*
X1404Y2307D02*
X1427Y2307D01*
X228Y2306D02*
X281Y2306D01*
X1404Y2306D02*
X1427Y2306D01*
X230Y2305D02*
X283Y2305D01*
X1404Y2305D02*
X1427Y2305D01*
X232Y2304D02*
X285Y2304D01*
X1404Y2304D02*
X1427Y2304D01*
X234Y2303D02*
X288Y2303D01*
X1404Y2303D02*
X1427Y2303D01*
X236Y2302D02*
X290Y2302D01*
X1404Y2302D02*
X1427Y2302D01*
X237Y2301D02*
X292Y2301D01*
X1404Y2301D02*
X1427Y2301D01*
X239Y2300D02*
X294Y2300D01*
X1404Y2300D02*
X1427Y2300D01*
X241Y2299D02*
X296Y2299D01*
X1404Y2299D02*
X1427Y2299D01*
X243Y2298D02*
X299Y2298D01*
X1404Y2298D02*
X1427Y2298D01*
X245Y2297D02*
X301Y2297D01*
X1404Y2297D02*
X1427Y2297D01*
X247Y2296D02*
X303Y2296D01*
X1404Y2296D02*
X1427Y2296D01*
X249Y2295D02*
X306Y2295D01*
X1404Y2295D02*
X1427Y2295D01*
X251Y2294D02*
X308Y2294D01*
X1404Y2294D02*
X1427Y2294D01*
X253Y2293D02*
X310Y2293D01*
X1404Y2293D02*
X1427Y2293D01*
X255Y2292D02*
X313Y2292D01*
X1404Y2292D02*
X1427Y2292D01*
X258Y2291D02*
X315Y2291D01*
X1404Y2291D02*
X1427Y2291D01*
X260Y2290D02*
X318Y2290D01*
X1404Y2290D02*
X1427Y2290D01*
X262Y2289D02*
X320Y2289D01*
X1405Y2289D02*
X1427Y2289D01*
X264Y2288D02*
X323Y2288D01*
X1405Y2288D02*
X1426Y2288D01*
X266Y2287D02*
X325Y2287D01*
X1405Y2287D02*
X1426Y2287D01*
X268Y2286D02*
X328Y2286D01*
X1406Y2286D02*
X1425Y2286D01*
X270Y2285D02*
X330Y2285D01*
X1407Y2285D02*
X1425Y2285D01*
X272Y2284D02*
X333Y2284D01*
X1408Y2284D02*
X1424Y2284D01*
X275Y2283D02*
X335Y2283D01*
X1409Y2283D02*
X1423Y2283D01*
X277Y2282D02*
X338Y2282D01*
X1410Y2282D02*
X1421Y2282D01*
X279Y2281D02*
X340Y2281D01*
X1412Y2281D02*
X1419Y2281D01*
X281Y2280D02*
X343Y2280D01*
X283Y2279D02*
X346Y2279D01*
X286Y2278D02*
X348Y2278D01*
X288Y2277D02*
X351Y2277D01*
X290Y2276D02*
X354Y2276D01*
X293Y2275D02*
X356Y2275D01*
X295Y2274D02*
X359Y2274D01*
X297Y2273D02*
X362Y2273D01*
X300Y2272D02*
X365Y2272D01*
X302Y2271D02*
X368Y2271D01*
X304Y2270D02*
X371Y2270D01*
X307Y2269D02*
X373Y2269D01*
X309Y2268D02*
X376Y2268D01*
X312Y2267D02*
X379Y2267D01*
X314Y2266D02*
X382Y2266D01*
X317Y2265D02*
X385Y2265D01*
X319Y2264D02*
X389Y2264D01*
X321Y2263D02*
X392Y2263D01*
X324Y2262D02*
X395Y2262D01*
X326Y2261D02*
X398Y2261D01*
X329Y2260D02*
X401Y2260D01*
X332Y2259D02*
X404Y2259D01*
X334Y2258D02*
X408Y2258D01*
X337Y2257D02*
X411Y2257D01*
X340Y2256D02*
X414Y2256D01*
X342Y2255D02*
X418Y2255D01*
X345Y2254D02*
X421Y2254D01*
X348Y2253D02*
X424Y2253D01*
X350Y2252D02*
X428Y2252D01*
X353Y2251D02*
X432Y2251D01*
X356Y2250D02*
X435Y2250D01*
X359Y2249D02*
X439Y2249D01*
X362Y2248D02*
X443Y2248D01*
X365Y2247D02*
X446Y2247D01*
X367Y2246D02*
X450Y2246D01*
X370Y2245D02*
X454Y2245D01*
X374Y2244D02*
X458Y2244D01*
X377Y2243D02*
X463Y2243D01*
X380Y2242D02*
X467Y2242D01*
X383Y2241D02*
X471Y2241D01*
X386Y2240D02*
X475Y2240D01*
X389Y2239D02*
X480Y2239D01*
X392Y2238D02*
X484Y2238D01*
X395Y2237D02*
X489Y2237D01*
X399Y2236D02*
X493Y2236D01*
X402Y2235D02*
X498Y2235D01*
X405Y2234D02*
X503Y2234D01*
X408Y2233D02*
X508Y2233D01*
X412Y2232D02*
X514Y2232D01*
X415Y2231D02*
X519Y2231D01*
X419Y2230D02*
X524Y2230D01*
X422Y2229D02*
X530Y2229D01*
X426Y2228D02*
X536Y2228D01*
X430Y2227D02*
X543Y2227D01*
X433Y2226D02*
X549Y2226D01*
X437Y2225D02*
X555Y2225D01*
X441Y2224D02*
X563Y2224D01*
X445Y2223D02*
X570Y2223D01*
X449Y2222D02*
X578Y2222D01*
X453Y2221D02*
X587Y2221D01*
X806Y2221D02*
X818Y2221D01*
X457Y2220D02*
X596Y2220D01*
X797Y2220D02*
X820Y2220D01*
X461Y2219D02*
X606Y2219D01*
X786Y2219D02*
X821Y2219D01*
X465Y2218D02*
X618Y2218D01*
X775Y2218D02*
X822Y2218D01*
X469Y2217D02*
X632Y2217D01*
X761Y2217D02*
X823Y2217D01*
X474Y2216D02*
X650Y2216D01*
X743Y2216D02*
X824Y2216D01*
X479Y2215D02*
X685Y2215D01*
X710Y2215D02*
X824Y2215D01*
X483Y2214D02*
X825Y2214D01*
X488Y2213D02*
X825Y2213D01*
X492Y2212D02*
X825Y2212D01*
X497Y2211D02*
X825Y2211D01*
X503Y2210D02*
X825Y2210D01*
X508Y2209D02*
X825Y2209D01*
X513Y2208D02*
X825Y2208D01*
X518Y2207D02*
X825Y2207D01*
X524Y2206D02*
X825Y2206D01*
X530Y2205D02*
X824Y2205D01*
X536Y2204D02*
X824Y2204D01*
X543Y2203D02*
X823Y2203D01*
X549Y2202D02*
X822Y2202D01*
X556Y2201D02*
X822Y2201D01*
X563Y2200D02*
X820Y2200D01*
X571Y2199D02*
X819Y2199D01*
X579Y2198D02*
X815Y2198D01*
X588Y2197D02*
X807Y2197D01*
X597Y2196D02*
X797Y2196D01*
X608Y2195D02*
X787Y2195D01*
X620Y2194D02*
X775Y2194D01*
X634Y2193D02*
X761Y2193D01*
X653Y2192D02*
X742Y2192D01*
X692Y2191D02*
X698Y2191D01*
X69Y1878D02*
X74Y1878D01*
X66Y1877D02*
X77Y1877D01*
X65Y1876D02*
X79Y1876D01*
X64Y1875D02*
X82Y1875D01*
X63Y1874D02*
X85Y1874D01*
X62Y1873D02*
X88Y1873D01*
X61Y1872D02*
X90Y1872D01*
X61Y1871D02*
X93Y1871D01*
X61Y1870D02*
X96Y1870D01*
X60Y1869D02*
X99Y1869D01*
X60Y1868D02*
X101Y1868D01*
X60Y1867D02*
X104Y1867D01*
X60Y1866D02*
X107Y1866D01*
X60Y1865D02*
X109Y1865D01*
X60Y1864D02*
X112Y1864D01*
X60Y1863D02*
X114Y1863D01*
X61Y1862D02*
X117Y1862D01*
X61Y1861D02*
X120Y1861D01*
X960Y1861D02*
X965Y1861D01*
X62Y1860D02*
X122Y1860D01*
X948Y1860D02*
X976Y1860D01*
X62Y1859D02*
X125Y1859D01*
X941Y1859D02*
X982Y1859D01*
X63Y1858D02*
X127Y1858D01*
X937Y1858D02*
X986Y1858D01*
X64Y1857D02*
X130Y1857D01*
X933Y1857D02*
X990Y1857D01*
X66Y1856D02*
X133Y1856D01*
X929Y1856D02*
X993Y1856D01*
X68Y1855D02*
X135Y1855D01*
X926Y1855D02*
X996Y1855D01*
X71Y1854D02*
X138Y1854D01*
X923Y1854D02*
X998Y1854D01*
X73Y1853D02*
X140Y1853D01*
X920Y1853D02*
X1001Y1853D01*
X76Y1852D02*
X143Y1852D01*
X917Y1852D02*
X1003Y1852D01*
X79Y1851D02*
X145Y1851D01*
X915Y1851D02*
X1005Y1851D01*
X82Y1850D02*
X147Y1850D01*
X913Y1850D02*
X1008Y1850D01*
X84Y1849D02*
X150Y1849D01*
X910Y1849D02*
X1010Y1849D01*
X87Y1848D02*
X152Y1848D01*
X908Y1848D02*
X1011Y1848D01*
X90Y1847D02*
X155Y1847D01*
X906Y1847D02*
X1013Y1847D01*
X93Y1846D02*
X157Y1846D01*
X904Y1846D02*
X1015Y1846D01*
X95Y1845D02*
X160Y1845D01*
X902Y1845D02*
X1016Y1845D01*
X98Y1844D02*
X162Y1844D01*
X900Y1844D02*
X1018Y1844D01*
X101Y1843D02*
X165Y1843D01*
X898Y1843D02*
X1020Y1843D01*
X103Y1842D02*
X167Y1842D01*
X896Y1842D02*
X1021Y1842D01*
X106Y1841D02*
X169Y1841D01*
X895Y1841D02*
X1022Y1841D01*
X108Y1840D02*
X172Y1840D01*
X893Y1840D02*
X1024Y1840D01*
X111Y1839D02*
X174Y1839D01*
X891Y1839D02*
X1025Y1839D01*
X114Y1838D02*
X177Y1838D01*
X890Y1838D02*
X1026Y1838D01*
X116Y1837D02*
X179Y1837D01*
X888Y1837D02*
X957Y1837D01*
X966Y1837D02*
X1028Y1837D01*
X119Y1836D02*
X182Y1836D01*
X886Y1836D02*
X948Y1836D01*
X975Y1836D02*
X1029Y1836D01*
X121Y1835D02*
X184Y1835D01*
X885Y1835D02*
X943Y1835D01*
X980Y1835D02*
X1030Y1835D01*
X124Y1834D02*
X186Y1834D01*
X883Y1834D02*
X939Y1834D01*
X984Y1834D02*
X1031Y1834D01*
X126Y1833D02*
X189Y1833D01*
X882Y1833D02*
X935Y1833D01*
X987Y1833D02*
X1033Y1833D01*
X129Y1832D02*
X191Y1832D01*
X880Y1832D02*
X932Y1832D01*
X990Y1832D02*
X1034Y1832D01*
X131Y1831D02*
X193Y1831D01*
X879Y1831D02*
X929Y1831D01*
X993Y1831D02*
X1035Y1831D01*
X134Y1830D02*
X196Y1830D01*
X877Y1830D02*
X926Y1830D01*
X995Y1830D02*
X1036Y1830D01*
X136Y1829D02*
X198Y1829D01*
X876Y1829D02*
X923Y1829D01*
X997Y1829D02*
X1037Y1829D01*
X139Y1828D02*
X200Y1828D01*
X874Y1828D02*
X921Y1828D01*
X999Y1828D02*
X1038Y1828D01*
X141Y1827D02*
X203Y1827D01*
X873Y1827D02*
X919Y1827D01*
X1001Y1827D02*
X1039Y1827D01*
X144Y1826D02*
X205Y1826D01*
X872Y1826D02*
X917Y1826D01*
X1003Y1826D02*
X1040Y1826D01*
X146Y1825D02*
X207Y1825D01*
X870Y1825D02*
X915Y1825D01*
X1004Y1825D02*
X1041Y1825D01*
X149Y1824D02*
X210Y1824D01*
X869Y1824D02*
X913Y1824D01*
X1006Y1824D02*
X1042Y1824D01*
X151Y1823D02*
X212Y1823D01*
X868Y1823D02*
X911Y1823D01*
X1007Y1823D02*
X1043Y1823D01*
X154Y1822D02*
X214Y1822D01*
X866Y1822D02*
X909Y1822D01*
X1009Y1822D02*
X1044Y1822D01*
X156Y1821D02*
X217Y1821D01*
X865Y1821D02*
X907Y1821D01*
X1010Y1821D02*
X1045Y1821D01*
X158Y1820D02*
X219Y1820D01*
X864Y1820D02*
X905Y1820D01*
X1012Y1820D02*
X1046Y1820D01*
X161Y1819D02*
X221Y1819D01*
X863Y1819D02*
X904Y1819D01*
X1013Y1819D02*
X1047Y1819D01*
X163Y1818D02*
X223Y1818D01*
X862Y1818D02*
X902Y1818D01*
X1014Y1818D02*
X1047Y1818D01*
X166Y1817D02*
X226Y1817D01*
X860Y1817D02*
X900Y1817D01*
X1015Y1817D02*
X1048Y1817D01*
X168Y1816D02*
X228Y1816D01*
X859Y1816D02*
X899Y1816D01*
X1017Y1816D02*
X1049Y1816D01*
X171Y1815D02*
X230Y1815D01*
X858Y1815D02*
X897Y1815D01*
X1018Y1815D02*
X1050Y1815D01*
X173Y1814D02*
X232Y1814D01*
X857Y1814D02*
X896Y1814D01*
X1019Y1814D02*
X1051Y1814D01*
X175Y1813D02*
X235Y1813D01*
X855Y1813D02*
X894Y1813D01*
X1020Y1813D02*
X1052Y1813D01*
X178Y1812D02*
X237Y1812D01*
X854Y1812D02*
X892Y1812D01*
X1021Y1812D02*
X1052Y1812D01*
X180Y1811D02*
X239Y1811D01*
X853Y1811D02*
X891Y1811D01*
X1022Y1811D02*
X1053Y1811D01*
X182Y1810D02*
X241Y1810D01*
X852Y1810D02*
X890Y1810D01*
X1023Y1810D02*
X1054Y1810D01*
X185Y1809D02*
X244Y1809D01*
X851Y1809D02*
X888Y1809D01*
X1024Y1809D02*
X1055Y1809D01*
X187Y1808D02*
X246Y1808D01*
X850Y1808D02*
X887Y1808D01*
X1025Y1808D02*
X1055Y1808D01*
X190Y1807D02*
X248Y1807D01*
X849Y1807D02*
X885Y1807D01*
X1026Y1807D02*
X1056Y1807D01*
X192Y1806D02*
X250Y1806D01*
X848Y1806D02*
X884Y1806D01*
X1027Y1806D02*
X1057Y1806D01*
X194Y1805D02*
X252Y1805D01*
X846Y1805D02*
X883Y1805D01*
X1028Y1805D02*
X1058Y1805D01*
X197Y1804D02*
X255Y1804D01*
X845Y1804D02*
X881Y1804D01*
X1029Y1804D02*
X1058Y1804D01*
X199Y1803D02*
X257Y1803D01*
X844Y1803D02*
X880Y1803D01*
X1030Y1803D02*
X1059Y1803D01*
X201Y1802D02*
X259Y1802D01*
X843Y1802D02*
X879Y1802D01*
X1031Y1802D02*
X1060Y1802D01*
X203Y1801D02*
X261Y1801D01*
X842Y1801D02*
X878Y1801D01*
X1031Y1801D02*
X1060Y1801D01*
X206Y1800D02*
X263Y1800D01*
X841Y1800D02*
X876Y1800D01*
X1032Y1800D02*
X1061Y1800D01*
X208Y1799D02*
X266Y1799D01*
X840Y1799D02*
X875Y1799D01*
X1033Y1799D02*
X1061Y1799D01*
X210Y1798D02*
X268Y1798D01*
X839Y1798D02*
X874Y1798D01*
X1034Y1798D02*
X1062Y1798D01*
X213Y1797D02*
X270Y1797D01*
X838Y1797D02*
X873Y1797D01*
X1035Y1797D02*
X1063Y1797D01*
X215Y1796D02*
X272Y1796D01*
X837Y1796D02*
X871Y1796D01*
X1035Y1796D02*
X1063Y1796D01*
X217Y1795D02*
X274Y1795D01*
X836Y1795D02*
X870Y1795D01*
X1036Y1795D02*
X1064Y1795D01*
X219Y1794D02*
X276Y1794D01*
X835Y1794D02*
X869Y1794D01*
X1037Y1794D02*
X1065Y1794D01*
X222Y1793D02*
X278Y1793D01*
X834Y1793D02*
X868Y1793D01*
X1038Y1793D02*
X1065Y1793D01*
X224Y1792D02*
X281Y1792D01*
X833Y1792D02*
X867Y1792D01*
X1038Y1792D02*
X1066Y1792D01*
X226Y1791D02*
X283Y1791D01*
X832Y1791D02*
X866Y1791D01*
X1039Y1791D02*
X1066Y1791D01*
X228Y1790D02*
X285Y1790D01*
X831Y1790D02*
X865Y1790D01*
X1040Y1790D02*
X1067Y1790D01*
X231Y1789D02*
X287Y1789D01*
X830Y1789D02*
X863Y1789D01*
X1040Y1789D02*
X1067Y1789D01*
X233Y1788D02*
X289Y1788D01*
X829Y1788D02*
X862Y1788D01*
X1041Y1788D02*
X1068Y1788D01*
X235Y1787D02*
X291Y1787D01*
X828Y1787D02*
X861Y1787D01*
X1042Y1787D02*
X1069Y1787D01*
X237Y1786D02*
X293Y1786D01*
X827Y1786D02*
X860Y1786D01*
X1042Y1786D02*
X1069Y1786D01*
X239Y1785D02*
X296Y1785D01*
X826Y1785D02*
X859Y1785D01*
X1043Y1785D02*
X1070Y1785D01*
X242Y1784D02*
X298Y1784D01*
X825Y1784D02*
X858Y1784D01*
X1044Y1784D02*
X1070Y1784D01*
X244Y1783D02*
X300Y1783D01*
X824Y1783D02*
X857Y1783D01*
X1044Y1783D02*
X1071Y1783D01*
X246Y1782D02*
X302Y1782D01*
X823Y1782D02*
X856Y1782D01*
X1045Y1782D02*
X1071Y1782D01*
X248Y1781D02*
X304Y1781D01*
X822Y1781D02*
X855Y1781D01*
X1045Y1781D02*
X1072Y1781D01*
X251Y1780D02*
X306Y1780D01*
X822Y1780D02*
X854Y1780D01*
X1046Y1780D02*
X1072Y1780D01*
X253Y1779D02*
X308Y1779D01*
X821Y1779D02*
X853Y1779D01*
X1047Y1779D02*
X1072Y1779D01*
X255Y1778D02*
X310Y1778D01*
X821Y1778D02*
X852Y1778D01*
X1047Y1778D02*
X1073Y1778D01*
X257Y1777D02*
X312Y1777D01*
X821Y1777D02*
X851Y1777D01*
X1048Y1777D02*
X1073Y1777D01*
X259Y1776D02*
X314Y1776D01*
X821Y1776D02*
X850Y1776D01*
X1048Y1776D02*
X1073Y1776D01*
X261Y1775D02*
X316Y1775D01*
X821Y1775D02*
X849Y1775D01*
X1049Y1775D02*
X1073Y1775D01*
X263Y1774D02*
X318Y1774D01*
X820Y1774D02*
X848Y1774D01*
X1049Y1774D02*
X1073Y1774D01*
X266Y1773D02*
X320Y1773D01*
X821Y1773D02*
X847Y1773D01*
X1050Y1773D02*
X1072Y1773D01*
X268Y1772D02*
X323Y1772D01*
X821Y1772D02*
X846Y1772D01*
X1050Y1772D02*
X1072Y1772D01*
X270Y1771D02*
X325Y1771D01*
X821Y1771D02*
X845Y1771D01*
X1051Y1771D02*
X1072Y1771D01*
X272Y1770D02*
X327Y1770D01*
X821Y1770D02*
X844Y1770D01*
X1051Y1770D02*
X1071Y1770D01*
X274Y1769D02*
X329Y1769D01*
X822Y1769D02*
X843Y1769D01*
X1052Y1769D02*
X1071Y1769D01*
X276Y1768D02*
X331Y1768D01*
X822Y1768D02*
X842Y1768D01*
X1053Y1768D02*
X1070Y1768D01*
X278Y1767D02*
X333Y1767D01*
X823Y1767D02*
X841Y1767D01*
X1054Y1767D02*
X1069Y1767D01*
X281Y1766D02*
X335Y1766D01*
X824Y1766D02*
X840Y1766D01*
X1055Y1766D02*
X1068Y1766D01*
X283Y1765D02*
X337Y1765D01*
X825Y1765D02*
X839Y1765D01*
X1057Y1765D02*
X1066Y1765D01*
X285Y1764D02*
X339Y1764D01*
X827Y1764D02*
X837Y1764D01*
X1060Y1764D02*
X1063Y1764D01*
X287Y1763D02*
X341Y1763D01*
X829Y1763D02*
X835Y1763D01*
X289Y1762D02*
X343Y1762D01*
X291Y1761D02*
X345Y1761D01*
X293Y1760D02*
X347Y1760D01*
X295Y1759D02*
X349Y1759D01*
X297Y1758D02*
X351Y1758D01*
X299Y1757D02*
X353Y1757D01*
X301Y1756D02*
X355Y1756D01*
X304Y1755D02*
X357Y1755D01*
X306Y1754D02*
X359Y1754D01*
X308Y1753D02*
X361Y1753D01*
X310Y1752D02*
X363Y1752D01*
X312Y1751D02*
X365Y1751D01*
X314Y1750D02*
X367Y1750D01*
X316Y1749D02*
X368Y1749D01*
X318Y1748D02*
X370Y1748D01*
X320Y1747D02*
X372Y1747D01*
X322Y1746D02*
X374Y1746D01*
X324Y1745D02*
X376Y1745D01*
X326Y1744D02*
X378Y1744D01*
X328Y1743D02*
X380Y1743D01*
X330Y1742D02*
X382Y1742D01*
X332Y1741D02*
X384Y1741D01*
X334Y1740D02*
X386Y1740D01*
X336Y1739D02*
X388Y1739D01*
X338Y1738D02*
X390Y1738D01*
X340Y1737D02*
X392Y1737D01*
X342Y1736D02*
X394Y1736D01*
X344Y1735D02*
X396Y1735D01*
X346Y1734D02*
X397Y1734D01*
X348Y1733D02*
X399Y1733D01*
X350Y1732D02*
X401Y1732D01*
X352Y1731D02*
X403Y1731D01*
X354Y1730D02*
X405Y1730D01*
X356Y1729D02*
X407Y1729D01*
X358Y1728D02*
X409Y1728D01*
X360Y1727D02*
X411Y1727D01*
X362Y1726D02*
X412Y1726D01*
X364Y1725D02*
X414Y1725D01*
X366Y1724D02*
X416Y1724D01*
X368Y1723D02*
X418Y1723D01*
X369Y1722D02*
X420Y1722D01*
X371Y1721D02*
X422Y1721D01*
X373Y1720D02*
X424Y1720D01*
X375Y1719D02*
X426Y1719D01*
X377Y1718D02*
X427Y1718D01*
X379Y1717D02*
X429Y1717D01*
X381Y1716D02*
X431Y1716D01*
X383Y1715D02*
X433Y1715D01*
X385Y1714D02*
X435Y1714D01*
X387Y1713D02*
X436Y1713D01*
X389Y1712D02*
X438Y1712D01*
X391Y1711D02*
X440Y1711D01*
X392Y1710D02*
X442Y1710D01*
X394Y1709D02*
X444Y1709D01*
X396Y1708D02*
X445Y1708D01*
X398Y1707D02*
X447Y1707D01*
X400Y1706D02*
X449Y1706D01*
X402Y1705D02*
X451Y1705D01*
X404Y1704D02*
X453Y1704D01*
X406Y1703D02*
X455Y1703D01*
X407Y1702D02*
X456Y1702D01*
X409Y1701D02*
X458Y1701D01*
X411Y1700D02*
X460Y1700D01*
X413Y1699D02*
X462Y1699D01*
X415Y1698D02*
X464Y1698D01*
X417Y1697D02*
X465Y1697D01*
X419Y1696D02*
X467Y1696D01*
X420Y1695D02*
X469Y1695D01*
X422Y1694D02*
X471Y1694D01*
X424Y1693D02*
X472Y1693D01*
X426Y1692D02*
X474Y1692D01*
X428Y1691D02*
X476Y1691D01*
X429Y1690D02*
X477Y1690D01*
X431Y1689D02*
X479Y1689D01*
X433Y1688D02*
X481Y1688D01*
X435Y1687D02*
X483Y1687D01*
X437Y1686D02*
X484Y1686D01*
X438Y1685D02*
X486Y1685D01*
X440Y1684D02*
X488Y1684D01*
X442Y1683D02*
X490Y1683D01*
X444Y1682D02*
X491Y1682D01*
X446Y1681D02*
X493Y1681D01*
X448Y1680D02*
X495Y1680D01*
X449Y1679D02*
X497Y1679D01*
X451Y1678D02*
X498Y1678D01*
X453Y1677D02*
X500Y1677D01*
X455Y1676D02*
X502Y1676D01*
X456Y1675D02*
X503Y1675D01*
X458Y1674D02*
X505Y1674D01*
X460Y1673D02*
X507Y1673D01*
X462Y1672D02*
X508Y1672D01*
X463Y1671D02*
X510Y1671D01*
X465Y1670D02*
X512Y1670D01*
X467Y1669D02*
X513Y1669D01*
X469Y1668D02*
X515Y1668D01*
X470Y1667D02*
X517Y1667D01*
X472Y1666D02*
X518Y1666D01*
X474Y1665D02*
X520Y1665D01*
X476Y1664D02*
X522Y1664D01*
X477Y1663D02*
X523Y1663D01*
X479Y1662D02*
X525Y1662D01*
X481Y1661D02*
X527Y1661D01*
X482Y1660D02*
X528Y1660D01*
X484Y1659D02*
X530Y1659D01*
X486Y1658D02*
X532Y1658D01*
X488Y1657D02*
X533Y1657D01*
X489Y1656D02*
X535Y1656D01*
X491Y1655D02*
X537Y1655D01*
X493Y1654D02*
X538Y1654D01*
X494Y1653D02*
X540Y1653D01*
X496Y1652D02*
X542Y1652D01*
X498Y1651D02*
X543Y1651D01*
X499Y1650D02*
X545Y1650D01*
X501Y1649D02*
X546Y1649D01*
X503Y1648D02*
X548Y1648D01*
X504Y1647D02*
X550Y1647D01*
X506Y1646D02*
X551Y1646D01*
X508Y1645D02*
X553Y1645D01*
X509Y1644D02*
X554Y1644D01*
X511Y1643D02*
X556Y1643D01*
X513Y1642D02*
X558Y1642D01*
X515Y1641D02*
X559Y1641D01*
X516Y1640D02*
X561Y1640D01*
X518Y1639D02*
X562Y1639D01*
X520Y1638D02*
X564Y1638D01*
X521Y1637D02*
X566Y1637D01*
X523Y1636D02*
X567Y1636D01*
X525Y1635D02*
X569Y1635D01*
X526Y1634D02*
X570Y1634D01*
X528Y1633D02*
X572Y1633D01*
X529Y1632D02*
X574Y1632D01*
X531Y1631D02*
X575Y1631D01*
X533Y1630D02*
X577Y1630D01*
X534Y1629D02*
X578Y1629D01*
X536Y1628D02*
X580Y1628D01*
X537Y1627D02*
X581Y1627D01*
X539Y1626D02*
X583Y1626D01*
X541Y1625D02*
X584Y1625D01*
X542Y1624D02*
X586Y1624D01*
X544Y1623D02*
X587Y1623D01*
X545Y1622D02*
X589Y1622D01*
X547Y1621D02*
X591Y1621D01*
X549Y1620D02*
X592Y1620D01*
X550Y1619D02*
X594Y1619D01*
X552Y1618D02*
X595Y1618D01*
X553Y1617D02*
X597Y1617D01*
X555Y1616D02*
X598Y1616D01*
X557Y1615D02*
X600Y1615D01*
X558Y1614D02*
X601Y1614D01*
X560Y1613D02*
X603Y1613D01*
X561Y1612D02*
X604Y1612D01*
X563Y1611D02*
X606Y1611D01*
X565Y1610D02*
X607Y1610D01*
X566Y1609D02*
X609Y1609D01*
X568Y1608D02*
X610Y1608D01*
X569Y1607D02*
X612Y1607D01*
X571Y1606D02*
X613Y1606D01*
X572Y1605D02*
X615Y1605D01*
X574Y1604D02*
X616Y1604D01*
X575Y1603D02*
X618Y1603D01*
X577Y1602D02*
X619Y1602D01*
X578Y1601D02*
X621Y1601D01*
X580Y1600D02*
X622Y1600D01*
X581Y1599D02*
X624Y1599D01*
X583Y1598D02*
X625Y1598D01*
X585Y1597D02*
X627Y1597D01*
X586Y1596D02*
X628Y1596D01*
X588Y1595D02*
X630Y1595D01*
X589Y1594D02*
X631Y1594D01*
X591Y1593D02*
X633Y1593D01*
X592Y1592D02*
X634Y1592D01*
X594Y1591D02*
X636Y1591D01*
X595Y1590D02*
X637Y1590D01*
X597Y1589D02*
X639Y1589D01*
X598Y1588D02*
X640Y1588D01*
X600Y1587D02*
X641Y1587D01*
X601Y1586D02*
X643Y1586D01*
X603Y1585D02*
X644Y1585D01*
X604Y1584D02*
X646Y1584D01*
X606Y1583D02*
X647Y1583D01*
X607Y1582D02*
X649Y1582D01*
X609Y1581D02*
X650Y1581D01*
X610Y1580D02*
X651Y1580D01*
X612Y1579D02*
X653Y1579D01*
X613Y1578D02*
X654Y1578D01*
X615Y1577D02*
X656Y1577D01*
X616Y1576D02*
X657Y1576D01*
X617Y1575D02*
X659Y1575D01*
X619Y1574D02*
X660Y1574D01*
X620Y1573D02*
X661Y1573D01*
X622Y1572D02*
X663Y1572D01*
X623Y1571D02*
X664Y1571D01*
X625Y1570D02*
X666Y1570D01*
X626Y1569D02*
X667Y1569D01*
X628Y1568D02*
X668Y1568D01*
X629Y1567D02*
X670Y1567D01*
X631Y1566D02*
X671Y1566D01*
X632Y1565D02*
X673Y1565D01*
X634Y1564D02*
X674Y1564D01*
X635Y1563D02*
X675Y1563D01*
X636Y1562D02*
X677Y1562D01*
X638Y1561D02*
X678Y1561D01*
X639Y1560D02*
X679Y1560D01*
X641Y1559D02*
X681Y1559D01*
X642Y1558D02*
X682Y1558D01*
X644Y1557D02*
X684Y1557D01*
X645Y1556D02*
X685Y1556D01*
X646Y1555D02*
X686Y1555D01*
X648Y1554D02*
X688Y1554D01*
X649Y1553D02*
X689Y1553D01*
X651Y1552D02*
X690Y1552D01*
X652Y1551D02*
X692Y1551D01*
X653Y1550D02*
X693Y1550D01*
X655Y1549D02*
X694Y1549D01*
X656Y1548D02*
X696Y1548D01*
X658Y1547D02*
X697Y1547D01*
X659Y1546D02*
X698Y1546D01*
X660Y1545D02*
X700Y1545D01*
X662Y1544D02*
X701Y1544D01*
X663Y1543D02*
X702Y1543D01*
X665Y1542D02*
X704Y1542D01*
X666Y1541D02*
X705Y1541D01*
X667Y1540D02*
X706Y1540D01*
X669Y1539D02*
X708Y1539D01*
X670Y1538D02*
X709Y1538D01*
X671Y1537D02*
X710Y1537D01*
X673Y1536D02*
X712Y1536D01*
X674Y1535D02*
X713Y1535D01*
X676Y1534D02*
X714Y1534D01*
X677Y1533D02*
X716Y1533D01*
X678Y1532D02*
X717Y1532D01*
X680Y1531D02*
X718Y1531D01*
X681Y1530D02*
X720Y1530D01*
X682Y1529D02*
X721Y1529D01*
X684Y1528D02*
X722Y1528D01*
X685Y1527D02*
X723Y1527D01*
X686Y1526D02*
X725Y1526D01*
X688Y1525D02*
X726Y1525D01*
X689Y1524D02*
X727Y1524D01*
X690Y1523D02*
X729Y1523D01*
X692Y1522D02*
X730Y1522D01*
X693Y1521D02*
X731Y1521D01*
X694Y1520D02*
X733Y1520D01*
X696Y1519D02*
X734Y1519D01*
X697Y1518D02*
X735Y1518D01*
X698Y1517D02*
X736Y1517D01*
X700Y1516D02*
X738Y1516D01*
X701Y1515D02*
X739Y1515D01*
X702Y1514D02*
X740Y1514D01*
X704Y1513D02*
X741Y1513D01*
X705Y1512D02*
X743Y1512D01*
X706Y1511D02*
X744Y1511D01*
X707Y1510D02*
X745Y1510D01*
X709Y1509D02*
X746Y1509D01*
X710Y1508D02*
X748Y1508D01*
X711Y1507D02*
X749Y1507D01*
X713Y1506D02*
X750Y1506D01*
X714Y1505D02*
X751Y1505D01*
X715Y1504D02*
X753Y1504D01*
X717Y1503D02*
X754Y1503D01*
X718Y1502D02*
X755Y1502D01*
X719Y1501D02*
X756Y1501D01*
X720Y1500D02*
X758Y1500D01*
X722Y1499D02*
X759Y1499D01*
X723Y1498D02*
X760Y1498D01*
X724Y1497D02*
X761Y1497D01*
X725Y1496D02*
X762Y1496D01*
X727Y1495D02*
X764Y1495D01*
X728Y1494D02*
X765Y1494D01*
X729Y1493D02*
X766Y1493D01*
X730Y1492D02*
X767Y1492D01*
X732Y1491D02*
X769Y1491D01*
X733Y1490D02*
X770Y1490D01*
X734Y1489D02*
X771Y1489D01*
X735Y1488D02*
X772Y1488D01*
X737Y1487D02*
X773Y1487D01*
X738Y1486D02*
X775Y1486D01*
X739Y1485D02*
X776Y1485D01*
X740Y1484D02*
X777Y1484D01*
X742Y1483D02*
X778Y1483D01*
X743Y1482D02*
X779Y1482D01*
X744Y1481D02*
X780Y1481D01*
X745Y1480D02*
X782Y1480D01*
X747Y1479D02*
X783Y1479D01*
X748Y1478D02*
X784Y1478D01*
X749Y1477D02*
X785Y1477D01*
X750Y1476D02*
X786Y1476D01*
X751Y1475D02*
X788Y1475D01*
X753Y1474D02*
X789Y1474D01*
X754Y1473D02*
X790Y1473D01*
X755Y1472D02*
X791Y1472D01*
X756Y1471D02*
X792Y1471D01*
X757Y1470D02*
X793Y1470D01*
X759Y1469D02*
X795Y1469D01*
X760Y1468D02*
X796Y1468D01*
X761Y1467D02*
X797Y1467D01*
X762Y1466D02*
X798Y1466D01*
X763Y1465D02*
X799Y1465D01*
X765Y1464D02*
X800Y1464D01*
X766Y1463D02*
X801Y1463D01*
X767Y1462D02*
X803Y1462D01*
X768Y1461D02*
X804Y1461D01*
X769Y1460D02*
X805Y1460D01*
X771Y1459D02*
X806Y1459D01*
X772Y1458D02*
X807Y1458D01*
X773Y1457D02*
X808Y1457D01*
X774Y1456D02*
X809Y1456D01*
X775Y1455D02*
X810Y1455D01*
X776Y1454D02*
X812Y1454D01*
X778Y1453D02*
X813Y1453D01*
X779Y1452D02*
X814Y1452D01*
X780Y1451D02*
X815Y1451D01*
X781Y1450D02*
X816Y1450D01*
X782Y1449D02*
X817Y1449D01*
X783Y1448D02*
X818Y1448D01*
X784Y1447D02*
X819Y1447D01*
X786Y1446D02*
X821Y1446D01*
X787Y1445D02*
X822Y1445D01*
X788Y1444D02*
X823Y1444D01*
X789Y1443D02*
X824Y1443D01*
X790Y1442D02*
X825Y1442D01*
X791Y1441D02*
X826Y1441D01*
X792Y1440D02*
X827Y1440D01*
X794Y1439D02*
X828Y1439D01*
X795Y1438D02*
X829Y1438D01*
X796Y1437D02*
X830Y1437D01*
X797Y1436D02*
X831Y1436D01*
X798Y1435D02*
X833Y1435D01*
X799Y1434D02*
X834Y1434D01*
X800Y1433D02*
X835Y1433D01*
X801Y1432D02*
X836Y1432D01*
X803Y1431D02*
X837Y1431D01*
X804Y1430D02*
X838Y1430D01*
X805Y1429D02*
X839Y1429D01*
X1717Y1429D02*
X1717Y1429D01*
X806Y1428D02*
X840Y1428D01*
X1713Y1428D02*
X1721Y1428D01*
X807Y1427D02*
X841Y1427D01*
X1711Y1427D02*
X1723Y1427D01*
X808Y1426D02*
X842Y1426D01*
X1710Y1426D02*
X1724Y1426D01*
X809Y1425D02*
X843Y1425D01*
X1708Y1425D02*
X1725Y1425D01*
X810Y1424D02*
X844Y1424D01*
X1707Y1424D02*
X1726Y1424D01*
X811Y1423D02*
X845Y1423D01*
X1706Y1423D02*
X1727Y1423D01*
X812Y1422D02*
X846Y1422D01*
X1705Y1422D02*
X1727Y1422D01*
X813Y1421D02*
X847Y1421D01*
X1704Y1421D02*
X1728Y1421D01*
X815Y1420D02*
X849Y1420D01*
X1703Y1420D02*
X1728Y1420D01*
X816Y1419D02*
X850Y1419D01*
X1702Y1419D02*
X1728Y1419D01*
X817Y1418D02*
X851Y1418D01*
X1700Y1418D02*
X1728Y1418D01*
X818Y1417D02*
X852Y1417D01*
X1699Y1417D02*
X1728Y1417D01*
X819Y1416D02*
X853Y1416D01*
X1698Y1416D02*
X1728Y1416D01*
X820Y1415D02*
X854Y1415D01*
X1697Y1415D02*
X1728Y1415D01*
X821Y1414D02*
X855Y1414D01*
X1696Y1414D02*
X1728Y1414D01*
X822Y1413D02*
X856Y1413D01*
X1695Y1413D02*
X1728Y1413D01*
X823Y1412D02*
X857Y1412D01*
X1694Y1412D02*
X1727Y1412D01*
X824Y1411D02*
X858Y1411D01*
X1693Y1411D02*
X1727Y1411D01*
X825Y1410D02*
X859Y1410D01*
X1692Y1410D02*
X1726Y1410D01*
X826Y1409D02*
X860Y1409D01*
X1691Y1409D02*
X1725Y1409D01*
X827Y1408D02*
X861Y1408D01*
X1690Y1408D02*
X1724Y1408D01*
X829Y1407D02*
X862Y1407D01*
X1688Y1407D02*
X1723Y1407D01*
X830Y1406D02*
X863Y1406D01*
X1687Y1406D02*
X1722Y1406D01*
X831Y1405D02*
X864Y1405D01*
X1686Y1405D02*
X1721Y1405D01*
X832Y1404D02*
X865Y1404D01*
X1685Y1404D02*
X1720Y1404D01*
X833Y1403D02*
X866Y1403D01*
X1684Y1403D02*
X1719Y1403D01*
X834Y1402D02*
X867Y1402D01*
X1683Y1402D02*
X1718Y1402D01*
X835Y1401D02*
X868Y1401D01*
X1682Y1401D02*
X1716Y1401D01*
X836Y1400D02*
X869Y1400D01*
X1681Y1400D02*
X1715Y1400D01*
X837Y1399D02*
X870Y1399D01*
X1680Y1399D02*
X1714Y1399D01*
X838Y1398D02*
X871Y1398D01*
X1679Y1398D02*
X1713Y1398D01*
X839Y1397D02*
X872Y1397D01*
X1678Y1397D02*
X1712Y1397D01*
X840Y1396D02*
X873Y1396D01*
X1677Y1396D02*
X1711Y1396D01*
X841Y1395D02*
X874Y1395D01*
X1676Y1395D02*
X1710Y1395D01*
X842Y1394D02*
X875Y1394D01*
X1675Y1394D02*
X1709Y1394D01*
X843Y1393D02*
X876Y1393D01*
X1674Y1393D02*
X1708Y1393D01*
X844Y1392D02*
X877Y1392D01*
X1673Y1392D02*
X1707Y1392D01*
X845Y1391D02*
X878Y1391D01*
X1672Y1391D02*
X1705Y1391D01*
X846Y1390D02*
X879Y1390D01*
X1671Y1390D02*
X1704Y1390D01*
X847Y1389D02*
X880Y1389D01*
X1670Y1389D02*
X1703Y1389D01*
X848Y1388D02*
X881Y1388D01*
X1669Y1388D02*
X1702Y1388D01*
X849Y1387D02*
X882Y1387D01*
X1668Y1387D02*
X1701Y1387D01*
X850Y1386D02*
X883Y1386D01*
X1667Y1386D02*
X1700Y1386D01*
X851Y1385D02*
X884Y1385D01*
X1666Y1385D02*
X1699Y1385D01*
X852Y1384D02*
X885Y1384D01*
X1665Y1384D02*
X1698Y1384D01*
X853Y1383D02*
X886Y1383D01*
X1664Y1383D02*
X1697Y1383D01*
X854Y1382D02*
X887Y1382D01*
X1663Y1382D02*
X1696Y1382D01*
X855Y1381D02*
X888Y1381D01*
X1662Y1381D02*
X1695Y1381D01*
X856Y1380D02*
X889Y1380D01*
X1661Y1380D02*
X1694Y1380D01*
X857Y1379D02*
X890Y1379D01*
X1660Y1379D02*
X1693Y1379D01*
X858Y1378D02*
X891Y1378D01*
X1659Y1378D02*
X1692Y1378D01*
X859Y1377D02*
X892Y1377D01*
X1658Y1377D02*
X1691Y1377D01*
X860Y1376D02*
X893Y1376D01*
X1658Y1376D02*
X1690Y1376D01*
X861Y1375D02*
X894Y1375D01*
X1657Y1375D02*
X1689Y1375D01*
X862Y1374D02*
X895Y1374D01*
X1656Y1374D02*
X1688Y1374D01*
X863Y1373D02*
X895Y1373D01*
X1655Y1373D02*
X1687Y1373D01*
X864Y1372D02*
X896Y1372D01*
X1654Y1372D02*
X1686Y1372D01*
X865Y1371D02*
X897Y1371D01*
X1653Y1371D02*
X1685Y1371D01*
X866Y1370D02*
X898Y1370D01*
X1652Y1370D02*
X1684Y1370D01*
X867Y1369D02*
X899Y1369D01*
X1651Y1369D02*
X1683Y1369D01*
X868Y1368D02*
X900Y1368D01*
X1650Y1368D02*
X1682Y1368D01*
X869Y1367D02*
X901Y1367D01*
X1649Y1367D02*
X1681Y1367D01*
X870Y1366D02*
X902Y1366D01*
X1648Y1366D02*
X1680Y1366D01*
X871Y1365D02*
X903Y1365D01*
X1648Y1365D02*
X1679Y1365D01*
X872Y1364D02*
X904Y1364D01*
X1647Y1364D02*
X1678Y1364D01*
X873Y1363D02*
X905Y1363D01*
X1646Y1363D02*
X1677Y1363D01*
X874Y1362D02*
X906Y1362D01*
X1645Y1362D02*
X1676Y1362D01*
X875Y1361D02*
X907Y1361D01*
X1644Y1361D02*
X1675Y1361D01*
X876Y1360D02*
X908Y1360D01*
X1643Y1360D02*
X1674Y1360D01*
X877Y1359D02*
X909Y1359D01*
X1642Y1359D02*
X1673Y1359D01*
X878Y1358D02*
X909Y1358D01*
X1641Y1358D02*
X1672Y1358D01*
X879Y1357D02*
X910Y1357D01*
X1641Y1357D02*
X1672Y1357D01*
X880Y1356D02*
X911Y1356D01*
X1640Y1356D02*
X1671Y1356D01*
X881Y1355D02*
X912Y1355D01*
X1639Y1355D02*
X1670Y1355D01*
X881Y1354D02*
X913Y1354D01*
X1638Y1354D02*
X1669Y1354D01*
X882Y1353D02*
X914Y1353D01*
X1637Y1353D02*
X1668Y1353D01*
X883Y1352D02*
X915Y1352D01*
X1636Y1352D02*
X1667Y1352D01*
X884Y1351D02*
X916Y1351D01*
X1636Y1351D02*
X1666Y1351D01*
X885Y1350D02*
X917Y1350D01*
X1635Y1350D02*
X1665Y1350D01*
X886Y1349D02*
X918Y1349D01*
X1634Y1349D02*
X1664Y1349D01*
X887Y1348D02*
X919Y1348D01*
X1633Y1348D02*
X1663Y1348D01*
X888Y1347D02*
X919Y1347D01*
X1632Y1347D02*
X1663Y1347D01*
X889Y1346D02*
X920Y1346D01*
X1631Y1346D02*
X1662Y1346D01*
X890Y1345D02*
X921Y1345D01*
X1631Y1345D02*
X1661Y1345D01*
X891Y1344D02*
X922Y1344D01*
X1630Y1344D02*
X1660Y1344D01*
X892Y1343D02*
X923Y1343D01*
X1629Y1343D02*
X1659Y1343D01*
X893Y1342D02*
X924Y1342D01*
X1628Y1342D02*
X1658Y1342D01*
X894Y1341D02*
X925Y1341D01*
X1628Y1341D02*
X1657Y1341D01*
X894Y1340D02*
X926Y1340D01*
X1627Y1340D02*
X1657Y1340D01*
X895Y1339D02*
X927Y1339D01*
X1626Y1339D02*
X1656Y1339D01*
X896Y1338D02*
X927Y1338D01*
X1625Y1338D02*
X1655Y1338D01*
X897Y1337D02*
X928Y1337D01*
X1624Y1337D02*
X1654Y1337D01*
X898Y1336D02*
X929Y1336D01*
X1624Y1336D02*
X1653Y1336D01*
X899Y1335D02*
X930Y1335D01*
X1623Y1335D02*
X1652Y1335D01*
X900Y1334D02*
X931Y1334D01*
X1622Y1334D02*
X1652Y1334D01*
X901Y1333D02*
X932Y1333D01*
X1621Y1333D02*
X1651Y1333D01*
X902Y1332D02*
X933Y1332D01*
X1621Y1332D02*
X1650Y1332D01*
X903Y1331D02*
X934Y1331D01*
X1620Y1331D02*
X1649Y1331D01*
X904Y1330D02*
X934Y1330D01*
X1619Y1330D02*
X1648Y1330D01*
X904Y1329D02*
X935Y1329D01*
X1618Y1329D02*
X1647Y1329D01*
X905Y1328D02*
X936Y1328D01*
X1618Y1328D02*
X1647Y1328D01*
X906Y1327D02*
X937Y1327D01*
X1617Y1327D02*
X1646Y1327D01*
X907Y1326D02*
X938Y1326D01*
X1616Y1326D02*
X1645Y1326D01*
X908Y1325D02*
X939Y1325D01*
X1615Y1325D02*
X1644Y1325D01*
X909Y1324D02*
X940Y1324D01*
X1615Y1324D02*
X1643Y1324D01*
X910Y1323D02*
X940Y1323D01*
X1614Y1323D02*
X1643Y1323D01*
X911Y1322D02*
X941Y1322D01*
X1613Y1322D02*
X1642Y1322D01*
X911Y1321D02*
X942Y1321D01*
X1612Y1321D02*
X1641Y1321D01*
X912Y1320D02*
X943Y1320D01*
X1612Y1320D02*
X1640Y1320D01*
X913Y1319D02*
X944Y1319D01*
X1611Y1319D02*
X1640Y1319D01*
X914Y1318D02*
X945Y1318D01*
X1610Y1318D02*
X1639Y1318D01*
X915Y1317D02*
X945Y1317D01*
X1610Y1317D02*
X1638Y1317D01*
X916Y1316D02*
X946Y1316D01*
X1609Y1316D02*
X1637Y1316D01*
X917Y1315D02*
X947Y1315D01*
X1608Y1315D02*
X1637Y1315D01*
X918Y1314D02*
X948Y1314D01*
X1608Y1314D02*
X1636Y1314D01*
X918Y1313D02*
X949Y1313D01*
X1607Y1313D02*
X1635Y1313D01*
X68Y1312D02*
X74Y1312D01*
X919Y1312D02*
X950Y1312D01*
X1606Y1312D02*
X1634Y1312D01*
X66Y1311D02*
X77Y1311D01*
X920Y1311D02*
X950Y1311D01*
X1605Y1311D02*
X1634Y1311D01*
X65Y1310D02*
X78Y1310D01*
X921Y1310D02*
X951Y1310D01*
X1605Y1310D02*
X1633Y1310D01*
X63Y1309D02*
X80Y1309D01*
X922Y1309D02*
X952Y1309D01*
X1604Y1309D02*
X1632Y1309D01*
X63Y1308D02*
X81Y1308D01*
X923Y1308D02*
X953Y1308D01*
X1603Y1308D02*
X1631Y1308D01*
X62Y1307D02*
X83Y1307D01*
X924Y1307D02*
X954Y1307D01*
X1603Y1307D02*
X1631Y1307D01*
X61Y1306D02*
X84Y1306D01*
X924Y1306D02*
X955Y1306D01*
X1602Y1306D02*
X1630Y1306D01*
X61Y1305D02*
X86Y1305D01*
X925Y1305D02*
X955Y1305D01*
X1601Y1305D02*
X1629Y1305D01*
X60Y1304D02*
X87Y1304D01*
X926Y1304D02*
X956Y1304D01*
X1601Y1304D02*
X1629Y1304D01*
X60Y1303D02*
X89Y1303D01*
X927Y1303D02*
X957Y1303D01*
X1600Y1303D02*
X1628Y1303D01*
X60Y1302D02*
X90Y1302D01*
X928Y1302D02*
X958Y1302D01*
X1599Y1302D02*
X1627Y1302D01*
X60Y1301D02*
X92Y1301D01*
X929Y1301D02*
X959Y1301D01*
X1599Y1301D02*
X1627Y1301D01*
X60Y1300D02*
X93Y1300D01*
X929Y1300D02*
X959Y1300D01*
X1598Y1300D02*
X1626Y1300D01*
X60Y1299D02*
X94Y1299D01*
X930Y1299D02*
X960Y1299D01*
X1598Y1299D02*
X1625Y1299D01*
X60Y1298D02*
X96Y1298D01*
X931Y1298D02*
X961Y1298D01*
X1597Y1298D02*
X1624Y1298D01*
X61Y1297D02*
X97Y1297D01*
X932Y1297D02*
X962Y1297D01*
X1596Y1297D02*
X1624Y1297D01*
X61Y1296D02*
X99Y1296D01*
X933Y1296D02*
X963Y1296D01*
X1596Y1296D02*
X1623Y1296D01*
X61Y1295D02*
X100Y1295D01*
X934Y1295D02*
X963Y1295D01*
X1595Y1295D02*
X1622Y1295D01*
X62Y1294D02*
X102Y1294D01*
X934Y1294D02*
X964Y1294D01*
X1594Y1294D02*
X1622Y1294D01*
X63Y1293D02*
X103Y1293D01*
X935Y1293D02*
X965Y1293D01*
X1594Y1293D02*
X1621Y1293D01*
X64Y1292D02*
X105Y1292D01*
X936Y1292D02*
X966Y1292D01*
X1593Y1292D02*
X1620Y1292D01*
X65Y1291D02*
X107Y1291D01*
X937Y1291D02*
X966Y1291D01*
X1593Y1291D02*
X1620Y1291D01*
X66Y1290D02*
X108Y1290D01*
X938Y1290D02*
X967Y1290D01*
X1592Y1290D02*
X1619Y1290D01*
X68Y1289D02*
X110Y1289D01*
X938Y1289D02*
X968Y1289D01*
X1591Y1289D02*
X1618Y1289D01*
X69Y1288D02*
X111Y1288D01*
X939Y1288D02*
X969Y1288D01*
X1591Y1288D02*
X1618Y1288D01*
X71Y1287D02*
X113Y1287D01*
X940Y1287D02*
X970Y1287D01*
X1590Y1287D02*
X1617Y1287D01*
X72Y1286D02*
X114Y1286D01*
X941Y1286D02*
X970Y1286D01*
X1590Y1286D02*
X1617Y1286D01*
X73Y1285D02*
X116Y1285D01*
X942Y1285D02*
X971Y1285D01*
X1589Y1285D02*
X1616Y1285D01*
X75Y1284D02*
X117Y1284D01*
X942Y1284D02*
X972Y1284D01*
X1588Y1284D02*
X1615Y1284D01*
X76Y1283D02*
X119Y1283D01*
X943Y1283D02*
X973Y1283D01*
X1588Y1283D02*
X1615Y1283D01*
X78Y1282D02*
X121Y1282D01*
X944Y1282D02*
X973Y1282D01*
X1587Y1282D02*
X1614Y1282D01*
X79Y1281D02*
X122Y1281D01*
X945Y1281D02*
X974Y1281D01*
X1587Y1281D02*
X1613Y1281D01*
X81Y1280D02*
X124Y1280D01*
X946Y1280D02*
X975Y1280D01*
X1586Y1280D02*
X1613Y1280D01*
X82Y1279D02*
X125Y1279D01*
X946Y1279D02*
X976Y1279D01*
X1585Y1279D02*
X1612Y1279D01*
X84Y1278D02*
X127Y1278D01*
X947Y1278D02*
X976Y1278D01*
X1585Y1278D02*
X1612Y1278D01*
X85Y1277D02*
X128Y1277D01*
X948Y1277D02*
X977Y1277D01*
X1584Y1277D02*
X1611Y1277D01*
X87Y1276D02*
X130Y1276D01*
X949Y1276D02*
X978Y1276D01*
X1584Y1276D02*
X1610Y1276D01*
X88Y1275D02*
X132Y1275D01*
X950Y1275D02*
X979Y1275D01*
X1583Y1275D02*
X1610Y1275D01*
X90Y1274D02*
X133Y1274D01*
X950Y1274D02*
X980Y1274D01*
X1583Y1274D02*
X1609Y1274D01*
X91Y1273D02*
X135Y1273D01*
X951Y1273D02*
X980Y1273D01*
X1582Y1273D02*
X1609Y1273D01*
X93Y1272D02*
X136Y1272D01*
X952Y1272D02*
X981Y1272D01*
X1582Y1272D02*
X1608Y1272D01*
X94Y1271D02*
X138Y1271D01*
X953Y1271D02*
X982Y1271D01*
X1581Y1271D02*
X1607Y1271D01*
X96Y1270D02*
X140Y1270D01*
X953Y1270D02*
X983Y1270D01*
X1580Y1270D02*
X1607Y1270D01*
X97Y1269D02*
X141Y1269D01*
X954Y1269D02*
X983Y1269D01*
X1580Y1269D02*
X1606Y1269D01*
X99Y1268D02*
X143Y1268D01*
X955Y1268D02*
X984Y1268D01*
X1579Y1268D02*
X1606Y1268D01*
X101Y1267D02*
X145Y1267D01*
X956Y1267D02*
X985Y1267D01*
X1579Y1267D02*
X1605Y1267D01*
X102Y1266D02*
X146Y1266D01*
X956Y1266D02*
X986Y1266D01*
X1578Y1266D02*
X1605Y1266D01*
X104Y1265D02*
X148Y1265D01*
X957Y1265D02*
X986Y1265D01*
X1578Y1265D02*
X1604Y1265D01*
X105Y1264D02*
X150Y1264D01*
X958Y1264D02*
X987Y1264D01*
X1577Y1264D02*
X1603Y1264D01*
X107Y1263D02*
X151Y1263D01*
X959Y1263D02*
X988Y1263D01*
X1577Y1263D02*
X1603Y1263D01*
X108Y1262D02*
X153Y1262D01*
X960Y1262D02*
X988Y1262D01*
X1576Y1262D02*
X1602Y1262D01*
X110Y1261D02*
X155Y1261D01*
X960Y1261D02*
X989Y1261D01*
X1576Y1261D02*
X1602Y1261D01*
X111Y1260D02*
X156Y1260D01*
X961Y1260D02*
X990Y1260D01*
X1575Y1260D02*
X1601Y1260D01*
X113Y1259D02*
X158Y1259D01*
X962Y1259D02*
X991Y1259D01*
X1575Y1259D02*
X1601Y1259D01*
X114Y1258D02*
X160Y1258D01*
X963Y1258D02*
X991Y1258D01*
X1574Y1258D02*
X1600Y1258D01*
X116Y1257D02*
X161Y1257D01*
X963Y1257D02*
X992Y1257D01*
X1574Y1257D02*
X1600Y1257D01*
X118Y1256D02*
X163Y1256D01*
X964Y1256D02*
X993Y1256D01*
X1573Y1256D02*
X1599Y1256D01*
X119Y1255D02*
X165Y1255D01*
X965Y1255D02*
X993Y1255D01*
X1573Y1255D02*
X1599Y1255D01*
X121Y1254D02*
X166Y1254D01*
X966Y1254D02*
X994Y1254D01*
X1572Y1254D02*
X1598Y1254D01*
X123Y1253D02*
X168Y1253D01*
X966Y1253D02*
X995Y1253D01*
X1572Y1253D02*
X1598Y1253D01*
X124Y1252D02*
X170Y1252D01*
X967Y1252D02*
X996Y1252D01*
X1571Y1252D02*
X1597Y1252D01*
X126Y1251D02*
X171Y1251D01*
X968Y1251D02*
X996Y1251D01*
X1571Y1251D02*
X1597Y1251D01*
X127Y1250D02*
X173Y1250D01*
X968Y1250D02*
X997Y1250D01*
X1570Y1250D02*
X1596Y1250D01*
X129Y1249D02*
X175Y1249D01*
X969Y1249D02*
X998Y1249D01*
X1570Y1249D02*
X1595Y1249D01*
X131Y1248D02*
X177Y1248D01*
X970Y1248D02*
X998Y1248D01*
X1569Y1248D02*
X1595Y1248D01*
X132Y1247D02*
X178Y1247D01*
X971Y1247D02*
X999Y1247D01*
X1569Y1247D02*
X1594Y1247D01*
X134Y1246D02*
X180Y1246D01*
X971Y1246D02*
X999Y1246D01*
X1568Y1246D02*
X1594Y1246D01*
X136Y1245D02*
X182Y1245D01*
X972Y1245D02*
X999Y1245D01*
X1568Y1245D02*
X1593Y1245D01*
X137Y1244D02*
X183Y1244D01*
X973Y1244D02*
X1000Y1244D01*
X1567Y1244D02*
X1593Y1244D01*
X139Y1243D02*
X185Y1243D01*
X974Y1243D02*
X1000Y1243D01*
X1567Y1243D02*
X1593Y1243D01*
X141Y1242D02*
X187Y1242D01*
X974Y1242D02*
X1000Y1242D01*
X1567Y1242D02*
X1592Y1242D01*
X142Y1241D02*
X189Y1241D01*
X975Y1241D02*
X1000Y1241D01*
X1566Y1241D02*
X1592Y1241D01*
X144Y1240D02*
X190Y1240D01*
X976Y1240D02*
X999Y1240D01*
X1566Y1240D02*
X1591Y1240D01*
X146Y1239D02*
X192Y1239D01*
X976Y1239D02*
X999Y1239D01*
X1565Y1239D02*
X1591Y1239D01*
X147Y1238D02*
X194Y1238D01*
X977Y1238D02*
X999Y1238D01*
X1565Y1238D02*
X1590Y1238D01*
X149Y1237D02*
X196Y1237D01*
X978Y1237D02*
X998Y1237D01*
X1564Y1237D02*
X1590Y1237D01*
X150Y1236D02*
X198Y1236D01*
X979Y1236D02*
X998Y1236D01*
X1564Y1236D02*
X1589Y1236D01*
X152Y1235D02*
X199Y1235D01*
X979Y1235D02*
X997Y1235D01*
X1563Y1235D02*
X1589Y1235D01*
X154Y1234D02*
X201Y1234D01*
X980Y1234D02*
X996Y1234D01*
X1563Y1234D02*
X1588Y1234D01*
X156Y1233D02*
X203Y1233D01*
X981Y1233D02*
X995Y1233D01*
X1563Y1233D02*
X1588Y1233D01*
X157Y1232D02*
X205Y1232D01*
X983Y1232D02*
X993Y1232D01*
X1562Y1232D02*
X1587Y1232D01*
X159Y1231D02*
X206Y1231D01*
X985Y1231D02*
X991Y1231D01*
X1562Y1231D02*
X1587Y1231D01*
X161Y1230D02*
X208Y1230D01*
X1561Y1230D02*
X1586Y1230D01*
X162Y1229D02*
X210Y1229D01*
X1561Y1229D02*
X1586Y1229D01*
X164Y1228D02*
X212Y1228D01*
X1560Y1228D02*
X1586Y1228D01*
X166Y1227D02*
X214Y1227D01*
X1560Y1227D02*
X1585Y1227D01*
X168Y1226D02*
X215Y1226D01*
X1560Y1226D02*
X1585Y1226D01*
X169Y1225D02*
X217Y1225D01*
X1559Y1225D02*
X1584Y1225D01*
X171Y1224D02*
X219Y1224D01*
X1559Y1224D02*
X1584Y1224D01*
X173Y1223D02*
X221Y1223D01*
X1558Y1223D02*
X1583Y1223D01*
X174Y1222D02*
X223Y1222D01*
X1558Y1222D02*
X1583Y1222D01*
X176Y1221D02*
X225Y1221D01*
X1558Y1221D02*
X1583Y1221D01*
X178Y1220D02*
X226Y1220D01*
X1557Y1220D02*
X1582Y1220D01*
X180Y1219D02*
X228Y1219D01*
X1557Y1219D02*
X1582Y1219D01*
X182Y1218D02*
X230Y1218D01*
X1557Y1218D02*
X1581Y1218D01*
X183Y1217D02*
X232Y1217D01*
X1556Y1217D02*
X1581Y1217D01*
X185Y1216D02*
X234Y1216D01*
X1556Y1216D02*
X1580Y1216D01*
X187Y1215D02*
X236Y1215D01*
X1555Y1215D02*
X1580Y1215D01*
X189Y1214D02*
X237Y1214D01*
X1555Y1214D02*
X1580Y1214D01*
X190Y1213D02*
X239Y1213D01*
X1555Y1213D02*
X1579Y1213D01*
X192Y1212D02*
X241Y1212D01*
X1554Y1212D02*
X1579Y1212D01*
X194Y1211D02*
X243Y1211D01*
X1554Y1211D02*
X1579Y1211D01*
X196Y1210D02*
X245Y1210D01*
X1554Y1210D02*
X1578Y1210D01*
X198Y1209D02*
X247Y1209D01*
X1553Y1209D02*
X1578Y1209D01*
X199Y1208D02*
X249Y1208D01*
X1553Y1208D02*
X1577Y1208D01*
X201Y1207D02*
X251Y1207D01*
X1553Y1207D02*
X1577Y1207D01*
X203Y1206D02*
X253Y1206D01*
X1552Y1206D02*
X1577Y1206D01*
X205Y1205D02*
X255Y1205D01*
X1552Y1205D02*
X1576Y1205D01*
X207Y1204D02*
X256Y1204D01*
X1551Y1204D02*
X1576Y1204D01*
X208Y1203D02*
X258Y1203D01*
X1551Y1203D02*
X1576Y1203D01*
X210Y1202D02*
X260Y1202D01*
X1551Y1202D02*
X1575Y1202D01*
X212Y1201D02*
X262Y1201D01*
X1550Y1201D02*
X1575Y1201D01*
X214Y1200D02*
X264Y1200D01*
X1550Y1200D02*
X1574Y1200D01*
X216Y1199D02*
X266Y1199D01*
X1550Y1199D02*
X1574Y1199D01*
X218Y1198D02*
X268Y1198D01*
X1550Y1198D02*
X1574Y1198D01*
X219Y1197D02*
X270Y1197D01*
X1549Y1197D02*
X1573Y1197D01*
X221Y1196D02*
X272Y1196D01*
X1549Y1196D02*
X1573Y1196D01*
X223Y1195D02*
X274Y1195D01*
X1549Y1195D02*
X1573Y1195D01*
X225Y1194D02*
X276Y1194D01*
X1548Y1194D02*
X1572Y1194D01*
X227Y1193D02*
X278Y1193D01*
X1548Y1193D02*
X1572Y1193D01*
X229Y1192D02*
X280Y1192D01*
X1548Y1192D02*
X1572Y1192D01*
X231Y1191D02*
X282Y1191D01*
X1547Y1191D02*
X1571Y1191D01*
X233Y1190D02*
X284Y1190D01*
X1547Y1190D02*
X1571Y1190D01*
X234Y1189D02*
X286Y1189D01*
X1547Y1189D02*
X1571Y1189D01*
X236Y1188D02*
X288Y1188D01*
X1546Y1188D02*
X1570Y1188D01*
X238Y1187D02*
X290Y1187D01*
X1546Y1187D02*
X1570Y1187D01*
X240Y1186D02*
X292Y1186D01*
X1546Y1186D02*
X1570Y1186D01*
X242Y1185D02*
X294Y1185D01*
X1546Y1185D02*
X1569Y1185D01*
X244Y1184D02*
X296Y1184D01*
X1545Y1184D02*
X1569Y1184D01*
X246Y1183D02*
X298Y1183D01*
X1545Y1183D02*
X1569Y1183D01*
X248Y1182D02*
X300Y1182D01*
X1545Y1182D02*
X1569Y1182D01*
X250Y1181D02*
X302Y1181D01*
X1544Y1181D02*
X1568Y1181D01*
X252Y1180D02*
X304Y1180D01*
X1544Y1180D02*
X1568Y1180D01*
X253Y1179D02*
X306Y1179D01*
X1544Y1179D02*
X1568Y1179D01*
X255Y1178D02*
X308Y1178D01*
X1544Y1178D02*
X1567Y1178D01*
X257Y1177D02*
X310Y1177D01*
X1543Y1177D02*
X1567Y1177D01*
X259Y1176D02*
X312Y1176D01*
X1543Y1176D02*
X1567Y1176D01*
X261Y1175D02*
X314Y1175D01*
X1543Y1175D02*
X1567Y1175D01*
X263Y1174D02*
X316Y1174D01*
X1543Y1174D02*
X1566Y1174D01*
X265Y1173D02*
X318Y1173D01*
X1542Y1173D02*
X1566Y1173D01*
X267Y1172D02*
X320Y1172D01*
X1542Y1172D02*
X1566Y1172D01*
X269Y1171D02*
X322Y1171D01*
X1542Y1171D02*
X1565Y1171D01*
X271Y1170D02*
X325Y1170D01*
X1542Y1170D02*
X1565Y1170D01*
X273Y1169D02*
X327Y1169D01*
X1541Y1169D02*
X1565Y1169D01*
X275Y1168D02*
X329Y1168D01*
X1541Y1168D02*
X1565Y1168D01*
X277Y1167D02*
X331Y1167D01*
X1541Y1167D02*
X1564Y1167D01*
X279Y1166D02*
X333Y1166D01*
X1541Y1166D02*
X1564Y1166D01*
X281Y1165D02*
X335Y1165D01*
X1540Y1165D02*
X1564Y1165D01*
X283Y1164D02*
X337Y1164D01*
X1540Y1164D02*
X1564Y1164D01*
X285Y1163D02*
X339Y1163D01*
X1540Y1163D02*
X1563Y1163D01*
X287Y1162D02*
X342Y1162D01*
X1540Y1162D02*
X1563Y1162D01*
X289Y1161D02*
X344Y1161D01*
X1539Y1161D02*
X1563Y1161D01*
X291Y1160D02*
X346Y1160D01*
X1539Y1160D02*
X1563Y1160D01*
X293Y1159D02*
X348Y1159D01*
X1539Y1159D02*
X1563Y1159D01*
X295Y1158D02*
X350Y1158D01*
X1539Y1158D02*
X1562Y1158D01*
X297Y1157D02*
X352Y1157D01*
X1539Y1157D02*
X1562Y1157D01*
X299Y1156D02*
X355Y1156D01*
X1538Y1156D02*
X1562Y1156D01*
X302Y1155D02*
X357Y1155D01*
X1538Y1155D02*
X1562Y1155D01*
X304Y1154D02*
X359Y1154D01*
X1538Y1154D02*
X1561Y1154D01*
X306Y1153D02*
X361Y1153D01*
X1538Y1153D02*
X1561Y1153D01*
X308Y1152D02*
X363Y1152D01*
X1538Y1152D02*
X1561Y1152D01*
X310Y1151D02*
X365Y1151D01*
X1537Y1151D02*
X1561Y1151D01*
X312Y1150D02*
X368Y1150D01*
X1537Y1150D02*
X1561Y1150D01*
X314Y1149D02*
X370Y1149D01*
X1537Y1149D02*
X1560Y1149D01*
X316Y1148D02*
X372Y1148D01*
X1537Y1148D02*
X1560Y1148D01*
X318Y1147D02*
X374Y1147D01*
X1537Y1147D02*
X1560Y1147D01*
X320Y1146D02*
X377Y1146D01*
X1536Y1146D02*
X1560Y1146D01*
X322Y1145D02*
X379Y1145D01*
X1536Y1145D02*
X1560Y1145D01*
X324Y1144D02*
X381Y1144D01*
X1536Y1144D02*
X1559Y1144D01*
X327Y1143D02*
X383Y1143D01*
X1536Y1143D02*
X1559Y1143D01*
X329Y1142D02*
X386Y1142D01*
X1536Y1142D02*
X1559Y1142D01*
X331Y1141D02*
X388Y1141D01*
X1536Y1141D02*
X1559Y1141D01*
X333Y1140D02*
X390Y1140D01*
X1535Y1140D02*
X1559Y1140D01*
X335Y1139D02*
X392Y1139D01*
X1535Y1139D02*
X1558Y1139D01*
X337Y1138D02*
X395Y1138D01*
X1535Y1138D02*
X1558Y1138D01*
X339Y1137D02*
X397Y1137D01*
X1535Y1137D02*
X1558Y1137D01*
X342Y1136D02*
X399Y1136D01*
X1535Y1136D02*
X1558Y1136D01*
X344Y1135D02*
X402Y1135D01*
X1535Y1135D02*
X1558Y1135D01*
X346Y1134D02*
X404Y1134D01*
X1534Y1134D02*
X1558Y1134D01*
X348Y1133D02*
X406Y1133D01*
X1534Y1133D02*
X1558Y1133D01*
X350Y1132D02*
X409Y1132D01*
X1534Y1132D02*
X1557Y1132D01*
X352Y1131D02*
X411Y1131D01*
X1534Y1131D02*
X1557Y1131D01*
X355Y1130D02*
X413Y1130D01*
X1534Y1130D02*
X1557Y1130D01*
X357Y1129D02*
X416Y1129D01*
X1534Y1129D02*
X1557Y1129D01*
X359Y1128D02*
X418Y1128D01*
X1534Y1128D02*
X1557Y1128D01*
X361Y1127D02*
X420Y1127D01*
X1533Y1127D02*
X1557Y1127D01*
X364Y1126D02*
X423Y1126D01*
X1533Y1126D02*
X1556Y1126D01*
X366Y1125D02*
X425Y1125D01*
X1533Y1125D02*
X1556Y1125D01*
X368Y1124D02*
X428Y1124D01*
X1533Y1124D02*
X1556Y1124D01*
X370Y1123D02*
X430Y1123D01*
X1533Y1123D02*
X1556Y1123D01*
X373Y1122D02*
X432Y1122D01*
X1533Y1122D02*
X1556Y1122D01*
X375Y1121D02*
X435Y1121D01*
X1533Y1121D02*
X1556Y1121D01*
X377Y1120D02*
X437Y1120D01*
X1533Y1120D02*
X1556Y1120D01*
X379Y1119D02*
X440Y1119D01*
X1533Y1119D02*
X1556Y1119D01*
X382Y1118D02*
X442Y1118D01*
X1532Y1118D02*
X1555Y1118D01*
X384Y1117D02*
X445Y1117D01*
X1532Y1117D02*
X1555Y1117D01*
X386Y1116D02*
X447Y1116D01*
X1532Y1116D02*
X1555Y1116D01*
X388Y1115D02*
X450Y1115D01*
X1532Y1115D02*
X1555Y1115D01*
X391Y1114D02*
X452Y1114D01*
X1532Y1114D02*
X1555Y1114D01*
X393Y1113D02*
X455Y1113D01*
X1532Y1113D02*
X1555Y1113D01*
X395Y1112D02*
X457Y1112D01*
X1532Y1112D02*
X1555Y1112D01*
X398Y1111D02*
X460Y1111D01*
X1532Y1111D02*
X1555Y1111D01*
X400Y1110D02*
X462Y1110D01*
X1532Y1110D02*
X1555Y1110D01*
X402Y1109D02*
X465Y1109D01*
X1532Y1109D02*
X1555Y1109D01*
X405Y1108D02*
X467Y1108D01*
X1531Y1108D02*
X1554Y1108D01*
X407Y1107D02*
X470Y1107D01*
X1531Y1107D02*
X1554Y1107D01*
X410Y1106D02*
X472Y1106D01*
X1531Y1106D02*
X1554Y1106D01*
X412Y1105D02*
X475Y1105D01*
X1531Y1105D02*
X1554Y1105D01*
X414Y1104D02*
X477Y1104D01*
X1531Y1104D02*
X1554Y1104D01*
X417Y1103D02*
X480Y1103D01*
X1531Y1103D02*
X1554Y1103D01*
X419Y1102D02*
X482Y1102D01*
X1531Y1102D02*
X1554Y1102D01*
X421Y1101D02*
X485Y1101D01*
X1531Y1101D02*
X1554Y1101D01*
X424Y1100D02*
X488Y1100D01*
X1531Y1100D02*
X1554Y1100D01*
X426Y1099D02*
X490Y1099D01*
X1531Y1099D02*
X1554Y1099D01*
X429Y1098D02*
X493Y1098D01*
X1531Y1098D02*
X1554Y1098D01*
X431Y1097D02*
X495Y1097D01*
X1531Y1097D02*
X1554Y1097D01*
X433Y1096D02*
X498Y1096D01*
X1531Y1096D02*
X1554Y1096D01*
X436Y1095D02*
X501Y1095D01*
X1531Y1095D02*
X1554Y1095D01*
X438Y1094D02*
X503Y1094D01*
X1531Y1094D02*
X1554Y1094D01*
X441Y1093D02*
X506Y1093D01*
X1530Y1093D02*
X1553Y1093D01*
X443Y1092D02*
X509Y1092D01*
X1530Y1092D02*
X1553Y1092D01*
X446Y1091D02*
X511Y1091D01*
X1530Y1091D02*
X1553Y1091D01*
X448Y1090D02*
X514Y1090D01*
X1530Y1090D02*
X1553Y1090D01*
X451Y1089D02*
X517Y1089D01*
X1530Y1089D02*
X1553Y1089D01*
X453Y1088D02*
X519Y1088D01*
X1530Y1088D02*
X1553Y1088D01*
X456Y1087D02*
X522Y1087D01*
X1530Y1087D02*
X1553Y1087D01*
X458Y1086D02*
X525Y1086D01*
X1530Y1086D02*
X1553Y1086D01*
X461Y1085D02*
X528Y1085D01*
X1530Y1085D02*
X1553Y1085D01*
X463Y1084D02*
X530Y1084D01*
X1530Y1084D02*
X1553Y1084D01*
X466Y1083D02*
X533Y1083D01*
X1530Y1083D02*
X1553Y1083D01*
X468Y1082D02*
X536Y1082D01*
X1530Y1082D02*
X1553Y1082D01*
X471Y1081D02*
X539Y1081D01*
X1530Y1081D02*
X1553Y1081D01*
X474Y1080D02*
X542Y1080D01*
X1530Y1080D02*
X1553Y1080D01*
X476Y1079D02*
X544Y1079D01*
X1530Y1079D02*
X1553Y1079D01*
X479Y1078D02*
X547Y1078D01*
X1530Y1078D02*
X1553Y1078D01*
X482Y1077D02*
X550Y1077D01*
X1530Y1077D02*
X1553Y1077D01*
X484Y1076D02*
X553Y1076D01*
X1530Y1076D02*
X1553Y1076D01*
X487Y1075D02*
X556Y1075D01*
X1530Y1075D02*
X1553Y1075D01*
X490Y1074D02*
X559Y1074D01*
X1530Y1074D02*
X1553Y1074D01*
X492Y1073D02*
X562Y1073D01*
X1530Y1073D02*
X1553Y1073D01*
X495Y1072D02*
X565Y1072D01*
X1530Y1072D02*
X1553Y1072D01*
X498Y1071D02*
X567Y1071D01*
X1530Y1071D02*
X1553Y1071D01*
X500Y1070D02*
X570Y1070D01*
X1530Y1070D02*
X1553Y1070D01*
X503Y1069D02*
X573Y1069D01*
X1530Y1069D02*
X1553Y1069D01*
X505Y1068D02*
X576Y1068D01*
X1530Y1068D02*
X1553Y1068D01*
X508Y1067D02*
X579Y1067D01*
X1530Y1067D02*
X1553Y1067D01*
X511Y1066D02*
X582Y1066D01*
X1530Y1066D02*
X1553Y1066D01*
X513Y1065D02*
X585Y1065D01*
X1530Y1065D02*
X1553Y1065D01*
X516Y1064D02*
X588Y1064D01*
X1530Y1064D02*
X1553Y1064D01*
X519Y1063D02*
X591Y1063D01*
X1530Y1063D02*
X1553Y1063D01*
X522Y1062D02*
X594Y1062D01*
X1530Y1062D02*
X1553Y1062D01*
X525Y1061D02*
X598Y1061D01*
X1530Y1061D02*
X1553Y1061D01*
X527Y1060D02*
X601Y1060D01*
X1531Y1060D02*
X1554Y1060D01*
X530Y1059D02*
X604Y1059D01*
X1531Y1059D02*
X1554Y1059D01*
X533Y1058D02*
X607Y1058D01*
X1531Y1058D02*
X1554Y1058D01*
X536Y1057D02*
X610Y1057D01*
X1531Y1057D02*
X1554Y1057D01*
X539Y1056D02*
X613Y1056D01*
X1531Y1056D02*
X1554Y1056D01*
X541Y1055D02*
X616Y1055D01*
X1531Y1055D02*
X1554Y1055D01*
X544Y1054D02*
X620Y1054D01*
X1531Y1054D02*
X1554Y1054D01*
X547Y1053D02*
X623Y1053D01*
X1531Y1053D02*
X1554Y1053D01*
X550Y1052D02*
X626Y1052D01*
X1531Y1052D02*
X1554Y1052D01*
X553Y1051D02*
X629Y1051D01*
X1531Y1051D02*
X1554Y1051D01*
X556Y1050D02*
X632Y1050D01*
X1531Y1050D02*
X1554Y1050D01*
X559Y1049D02*
X636Y1049D01*
X1531Y1049D02*
X1554Y1049D01*
X562Y1048D02*
X639Y1048D01*
X1531Y1048D02*
X1554Y1048D01*
X565Y1047D02*
X642Y1047D01*
X1531Y1047D02*
X1554Y1047D01*
X568Y1046D02*
X646Y1046D01*
X1531Y1046D02*
X1554Y1046D01*
X571Y1045D02*
X649Y1045D01*
X1531Y1045D02*
X1554Y1045D01*
X574Y1044D02*
X652Y1044D01*
X1531Y1044D02*
X1555Y1044D01*
X577Y1043D02*
X656Y1043D01*
X1532Y1043D02*
X1555Y1043D01*
X580Y1042D02*
X659Y1042D01*
X1532Y1042D02*
X1555Y1042D01*
X583Y1041D02*
X663Y1041D01*
X1532Y1041D02*
X1555Y1041D01*
X586Y1040D02*
X666Y1040D01*
X1532Y1040D02*
X1555Y1040D01*
X589Y1039D02*
X670Y1039D01*
X1532Y1039D02*
X1555Y1039D01*
X592Y1038D02*
X673Y1038D01*
X1532Y1038D02*
X1555Y1038D01*
X595Y1037D02*
X677Y1037D01*
X1532Y1037D02*
X1555Y1037D01*
X598Y1036D02*
X680Y1036D01*
X1532Y1036D02*
X1555Y1036D01*
X601Y1035D02*
X684Y1035D01*
X1532Y1035D02*
X1555Y1035D01*
X604Y1034D02*
X687Y1034D01*
X1532Y1034D02*
X1555Y1034D01*
X607Y1033D02*
X691Y1033D01*
X1532Y1033D02*
X1556Y1033D01*
X611Y1032D02*
X694Y1032D01*
X1533Y1032D02*
X1556Y1032D01*
X614Y1031D02*
X698Y1031D01*
X1533Y1031D02*
X1556Y1031D01*
X617Y1030D02*
X702Y1030D01*
X1533Y1030D02*
X1556Y1030D01*
X620Y1029D02*
X705Y1029D01*
X1533Y1029D02*
X1556Y1029D01*
X624Y1028D02*
X709Y1028D01*
X1533Y1028D02*
X1556Y1028D01*
X627Y1027D02*
X713Y1027D01*
X1533Y1027D02*
X1556Y1027D01*
X630Y1026D02*
X717Y1026D01*
X1533Y1026D02*
X1556Y1026D01*
X633Y1025D02*
X721Y1025D01*
X1533Y1025D02*
X1557Y1025D01*
X637Y1024D02*
X725Y1024D01*
X1534Y1024D02*
X1557Y1024D01*
X640Y1023D02*
X728Y1023D01*
X1534Y1023D02*
X1557Y1023D01*
X643Y1022D02*
X732Y1022D01*
X1534Y1022D02*
X1557Y1022D01*
X647Y1021D02*
X736Y1021D01*
X1534Y1021D02*
X1557Y1021D01*
X650Y1020D02*
X740Y1020D01*
X1534Y1020D02*
X1557Y1020D01*
X654Y1019D02*
X744Y1019D01*
X1534Y1019D02*
X1558Y1019D01*
X657Y1018D02*
X748Y1018D01*
X1534Y1018D02*
X1558Y1018D01*
X660Y1017D02*
X752Y1017D01*
X1535Y1017D02*
X1558Y1017D01*
X664Y1016D02*
X757Y1016D01*
X1535Y1016D02*
X1558Y1016D01*
X668Y1015D02*
X761Y1015D01*
X1535Y1015D02*
X1558Y1015D01*
X671Y1014D02*
X765Y1014D01*
X1535Y1014D02*
X1558Y1014D01*
X675Y1013D02*
X769Y1013D01*
X1535Y1013D02*
X1558Y1013D01*
X678Y1012D02*
X773Y1012D01*
X1535Y1012D02*
X1559Y1012D01*
X682Y1011D02*
X778Y1011D01*
X1536Y1011D02*
X1559Y1011D01*
X685Y1010D02*
X782Y1010D01*
X1536Y1010D02*
X1559Y1010D01*
X689Y1009D02*
X786Y1009D01*
X1536Y1009D02*
X1559Y1009D01*
X693Y1008D02*
X791Y1008D01*
X1536Y1008D02*
X1559Y1008D01*
X696Y1007D02*
X795Y1007D01*
X1536Y1007D02*
X1560Y1007D01*
X700Y1006D02*
X800Y1006D01*
X1536Y1006D02*
X1560Y1006D01*
X704Y1005D02*
X805Y1005D01*
X1537Y1005D02*
X1560Y1005D01*
X708Y1004D02*
X809Y1004D01*
X1537Y1004D02*
X1560Y1004D01*
X711Y1003D02*
X814Y1003D01*
X1537Y1003D02*
X1560Y1003D01*
X715Y1002D02*
X819Y1002D01*
X1537Y1002D02*
X1561Y1002D01*
X719Y1001D02*
X824Y1001D01*
X1537Y1001D02*
X1561Y1001D01*
X723Y1000D02*
X828Y1000D01*
X1538Y1000D02*
X1561Y1000D01*
X727Y999D02*
X833Y999D01*
X1538Y999D02*
X1561Y999D01*
X731Y998D02*
X838Y998D01*
X1538Y998D02*
X1561Y998D01*
X735Y997D02*
X843Y997D01*
X1538Y997D02*
X1562Y997D01*
X739Y996D02*
X848Y996D01*
X1538Y996D02*
X1562Y996D01*
X743Y995D02*
X854Y995D01*
X1539Y995D02*
X1562Y995D01*
X747Y994D02*
X859Y994D01*
X1539Y994D02*
X1562Y994D01*
X751Y993D02*
X864Y993D01*
X1539Y993D02*
X1563Y993D01*
X755Y992D02*
X870Y992D01*
X1539Y992D02*
X1563Y992D01*
X759Y991D02*
X875Y991D01*
X1539Y991D02*
X1563Y991D01*
X764Y990D02*
X881Y990D01*
X1540Y990D02*
X1563Y990D01*
X768Y989D02*
X886Y989D01*
X1540Y989D02*
X1563Y989D01*
X772Y988D02*
X892Y988D01*
X1540Y988D02*
X1564Y988D01*
X776Y987D02*
X898Y987D01*
X1540Y987D02*
X1564Y987D01*
X781Y986D02*
X904Y986D01*
X1541Y986D02*
X1564Y986D01*
X785Y985D02*
X910Y985D01*
X1541Y985D02*
X1564Y985D01*
X790Y984D02*
X916Y984D01*
X1541Y984D02*
X1565Y984D01*
X794Y983D02*
X923Y983D01*
X1541Y983D02*
X1565Y983D01*
X799Y982D02*
X929Y982D01*
X1541Y982D02*
X1565Y982D01*
X803Y981D02*
X936Y981D01*
X1542Y981D02*
X1566Y981D01*
X808Y980D02*
X943Y980D01*
X1542Y980D02*
X1566Y980D01*
X813Y979D02*
X949Y979D01*
X1542Y979D02*
X1566Y979D01*
X818Y978D02*
X957Y978D01*
X1542Y978D02*
X1566Y978D01*
X823Y977D02*
X964Y977D01*
X1543Y977D02*
X1567Y977D01*
X827Y976D02*
X972Y976D01*
X1543Y976D02*
X1567Y976D01*
X832Y975D02*
X979Y975D01*
X1543Y975D02*
X1567Y975D01*
X837Y974D02*
X988Y974D01*
X1544Y974D02*
X1567Y974D01*
X842Y973D02*
X996Y973D01*
X1544Y973D02*
X1568Y973D01*
X848Y972D02*
X1004Y972D01*
X1544Y972D02*
X1568Y972D01*
X853Y971D02*
X1014Y971D01*
X1544Y971D02*
X1568Y971D01*
X858Y970D02*
X1023Y970D01*
X1545Y970D02*
X1569Y970D01*
X863Y969D02*
X1033Y969D01*
X1545Y969D02*
X1569Y969D01*
X869Y968D02*
X1043Y968D01*
X1545Y968D02*
X1569Y968D01*
X875Y967D02*
X1055Y967D01*
X1545Y967D02*
X1570Y967D01*
X880Y966D02*
X1066Y966D01*
X1546Y966D02*
X1570Y966D01*
X886Y965D02*
X1080Y965D01*
X1546Y965D02*
X1570Y965D01*
X892Y964D02*
X1093Y964D01*
X1546Y964D02*
X1571Y964D01*
X898Y963D02*
X1110Y963D01*
X1547Y963D02*
X1571Y963D01*
X904Y962D02*
X1128Y962D01*
X1547Y962D02*
X1571Y962D01*
X910Y961D02*
X1152Y961D01*
X1547Y961D02*
X1572Y961D01*
X916Y960D02*
X1193Y960D01*
X1548Y960D02*
X1572Y960D01*
X922Y959D02*
X1219Y959D01*
X1548Y959D02*
X1572Y959D01*
X929Y958D02*
X1221Y958D01*
X1548Y958D02*
X1573Y958D01*
X936Y957D02*
X1223Y957D01*
X1549Y957D02*
X1573Y957D01*
X942Y956D02*
X1224Y956D01*
X1549Y956D02*
X1573Y956D01*
X949Y955D02*
X1225Y955D01*
X1549Y955D02*
X1574Y955D01*
X957Y954D02*
X1225Y954D01*
X1550Y954D02*
X1574Y954D01*
X964Y953D02*
X1226Y953D01*
X1550Y953D02*
X1574Y953D01*
X972Y952D02*
X1226Y952D01*
X1550Y952D02*
X1575Y952D01*
X979Y951D02*
X1227Y951D01*
X1551Y951D02*
X1575Y951D01*
X988Y950D02*
X1227Y950D01*
X1551Y950D02*
X1576Y950D01*
X996Y949D02*
X1227Y949D01*
X1551Y949D02*
X1576Y949D01*
X1004Y948D02*
X1227Y948D01*
X1552Y948D02*
X1576Y948D01*
X1014Y947D02*
X1227Y947D01*
X1552Y947D02*
X1577Y947D01*
X1023Y946D02*
X1227Y946D01*
X1552Y946D02*
X1577Y946D01*
X1033Y945D02*
X1227Y945D01*
X1553Y945D02*
X1577Y945D01*
X1044Y944D02*
X1227Y944D01*
X1553Y944D02*
X1578Y944D01*
X1055Y943D02*
X1226Y943D01*
X1554Y943D02*
X1578Y943D01*
X1066Y942D02*
X1226Y942D01*
X1554Y942D02*
X1579Y942D01*
X1080Y941D02*
X1225Y941D01*
X1554Y941D02*
X1579Y941D01*
X1093Y940D02*
X1224Y940D01*
X1555Y940D02*
X1580Y940D01*
X1110Y939D02*
X1223Y939D01*
X1555Y939D02*
X1580Y939D01*
X1129Y938D02*
X1222Y938D01*
X1555Y938D02*
X1580Y938D01*
X1152Y937D02*
X1220Y937D01*
X1556Y937D02*
X1581Y937D01*
X1194Y936D02*
X1218Y936D01*
X1556Y936D02*
X1581Y936D01*
X1557Y935D02*
X1582Y935D01*
X1557Y934D02*
X1582Y934D01*
X1557Y933D02*
X1583Y933D01*
X1558Y932D02*
X1583Y932D01*
X1558Y931D02*
X1583Y931D01*
X1559Y930D02*
X1583Y930D01*
X1559Y929D02*
X1583Y929D01*
X1560Y928D02*
X1583Y928D01*
X1560Y927D02*
X1583Y927D01*
X1561Y926D02*
X1583Y926D01*
X1561Y925D02*
X1582Y925D01*
X1561Y924D02*
X1582Y924D01*
X1562Y923D02*
X1581Y923D01*
X1563Y922D02*
X1581Y922D01*
X1564Y921D02*
X1580Y921D01*
X1565Y920D02*
X1578Y920D01*
X1566Y919D02*
X1577Y919D01*
X1569Y918D02*
X1575Y918D01*
X167Y597D02*
X175Y597D01*
X165Y596D02*
X178Y596D01*
X164Y595D02*
X180Y595D01*
X163Y594D02*
X182Y594D01*
X162Y593D02*
X184Y593D01*
X162Y592D02*
X186Y592D01*
X161Y591D02*
X188Y591D01*
X161Y590D02*
X190Y590D01*
X160Y589D02*
X192Y589D01*
X160Y588D02*
X194Y588D01*
X160Y587D02*
X196Y587D01*
X160Y586D02*
X198Y586D01*
X160Y585D02*
X199Y585D01*
X160Y584D02*
X201Y584D01*
X160Y583D02*
X203Y583D01*
X161Y582D02*
X205Y582D01*
X161Y581D02*
X207Y581D01*
X161Y580D02*
X209Y580D01*
X162Y579D02*
X211Y579D01*
X163Y578D02*
X213Y578D01*
X164Y577D02*
X215Y577D01*
X165Y576D02*
X217Y576D01*
X167Y575D02*
X219Y575D01*
X169Y574D02*
X222Y574D01*
X171Y573D02*
X224Y573D01*
X173Y572D02*
X226Y572D01*
X175Y571D02*
X228Y571D01*
X177Y570D02*
X230Y570D01*
X179Y569D02*
X232Y569D01*
X181Y568D02*
X234Y568D01*
X183Y567D02*
X236Y567D01*
X185Y566D02*
X238Y566D01*
X187Y565D02*
X240Y565D01*
X189Y564D02*
X242Y564D01*
X191Y563D02*
X244Y563D01*
X193Y562D02*
X247Y562D01*
X195Y561D02*
X249Y561D01*
X197Y560D02*
X251Y560D01*
X199Y559D02*
X253Y559D01*
X201Y558D02*
X255Y558D01*
X203Y557D02*
X257Y557D01*
X205Y556D02*
X259Y556D01*
X207Y555D02*
X261Y555D01*
X209Y554D02*
X263Y554D01*
X211Y553D02*
X266Y553D01*
X213Y552D02*
X268Y552D01*
X215Y551D02*
X270Y551D01*
X217Y550D02*
X272Y550D01*
X219Y549D02*
X274Y549D01*
X221Y548D02*
X276Y548D01*
X223Y547D02*
X279Y547D01*
X225Y546D02*
X281Y546D01*
X228Y545D02*
X283Y545D01*
X230Y544D02*
X285Y544D01*
X232Y543D02*
X287Y543D01*
X234Y542D02*
X290Y542D01*
X236Y541D02*
X292Y541D01*
X238Y540D02*
X294Y540D01*
X240Y539D02*
X296Y539D01*
X242Y538D02*
X298Y538D01*
X244Y537D02*
X300Y537D01*
X246Y536D02*
X303Y536D01*
X248Y535D02*
X305Y535D01*
X250Y534D02*
X307Y534D01*
X253Y533D02*
X310Y533D01*
X255Y532D02*
X312Y532D01*
X257Y531D02*
X314Y531D01*
X259Y530D02*
X316Y530D01*
X261Y529D02*
X319Y529D01*
X264Y528D02*
X321Y528D01*
X266Y527D02*
X323Y527D01*
X268Y526D02*
X326Y526D01*
X270Y525D02*
X328Y525D01*
X272Y524D02*
X330Y524D01*
X274Y523D02*
X333Y523D01*
X277Y522D02*
X335Y522D01*
X279Y521D02*
X337Y521D01*
X281Y520D02*
X339Y520D01*
X283Y519D02*
X342Y519D01*
X285Y518D02*
X344Y518D01*
X288Y517D02*
X347Y517D01*
X290Y516D02*
X349Y516D01*
X292Y515D02*
X351Y515D01*
X294Y514D02*
X354Y514D01*
X296Y513D02*
X356Y513D01*
X299Y512D02*
X359Y512D01*
X301Y511D02*
X361Y511D01*
X303Y510D02*
X364Y510D01*
X306Y509D02*
X366Y509D01*
X308Y508D02*
X368Y508D01*
X310Y507D02*
X371Y507D01*
X313Y506D02*
X373Y506D01*
X315Y505D02*
X376Y505D01*
X317Y504D02*
X378Y504D01*
X319Y503D02*
X380Y503D01*
X322Y502D02*
X383Y502D01*
X324Y501D02*
X386Y501D01*
X326Y500D02*
X388Y500D01*
X329Y499D02*
X391Y499D01*
X331Y498D02*
X393Y498D01*
X333Y497D02*
X396Y497D01*
X336Y496D02*
X398Y496D01*
X338Y495D02*
X401Y495D01*
X341Y494D02*
X403Y494D01*
X343Y493D02*
X406Y493D01*
X345Y492D02*
X409Y492D01*
X348Y491D02*
X411Y491D01*
X350Y490D02*
X414Y490D01*
X353Y489D02*
X416Y489D01*
X355Y488D02*
X419Y488D01*
X357Y487D02*
X421Y487D01*
X360Y486D02*
X424Y486D01*
X362Y485D02*
X427Y485D01*
X365Y484D02*
X430Y484D01*
X367Y483D02*
X432Y483D01*
X370Y482D02*
X435Y482D01*
X372Y481D02*
X438Y481D01*
X374Y480D02*
X440Y480D01*
X377Y479D02*
X443Y479D01*
X1533Y479D02*
X1554Y479D01*
X380Y478D02*
X446Y478D01*
X1527Y478D02*
X1559Y478D01*
X382Y477D02*
X449Y477D01*
X1522Y477D02*
X1562Y477D01*
X385Y476D02*
X451Y476D01*
X1517Y476D02*
X1564Y476D01*
X387Y475D02*
X454Y475D01*
X1513Y475D02*
X1566Y475D01*
X390Y474D02*
X457Y474D01*
X1509Y474D02*
X1568Y474D01*
X392Y473D02*
X459Y473D01*
X1505Y473D02*
X1569Y473D01*
X395Y472D02*
X462Y472D01*
X1501Y472D02*
X1571Y472D01*
X398Y471D02*
X465Y471D01*
X1498Y471D02*
X1572Y471D01*
X400Y470D02*
X468Y470D01*
X1494Y470D02*
X1573Y470D01*
X403Y469D02*
X471Y469D01*
X1491Y469D02*
X1574Y469D01*
X405Y468D02*
X474Y468D01*
X1488Y468D02*
X1575Y468D01*
X408Y467D02*
X477Y467D01*
X1484Y467D02*
X1576Y467D01*
X410Y466D02*
X480Y466D01*
X1481Y466D02*
X1577Y466D01*
X413Y465D02*
X483Y465D01*
X1478Y465D02*
X1578Y465D01*
X416Y464D02*
X485Y464D01*
X1475Y464D02*
X1578Y464D01*
X418Y463D02*
X488Y463D01*
X1472Y463D02*
X1579Y463D01*
X421Y462D02*
X491Y462D01*
X1469Y462D02*
X1580Y462D01*
X424Y461D02*
X494Y461D01*
X1465Y461D02*
X1580Y461D01*
X426Y460D02*
X497Y460D01*
X1462Y460D02*
X1581Y460D01*
X429Y459D02*
X500Y459D01*
X1459Y459D02*
X1581Y459D01*
X432Y458D02*
X503Y458D01*
X1456Y458D02*
X1581Y458D01*
X435Y457D02*
X506Y457D01*
X1453Y457D02*
X1582Y457D01*
X437Y456D02*
X509Y456D01*
X1450Y456D02*
X1582Y456D01*
X440Y455D02*
X512Y455D01*
X1447Y455D02*
X1534Y455D01*
X1553Y455D02*
X1582Y455D01*
X443Y454D02*
X515Y454D01*
X1444Y454D02*
X1528Y454D01*
X1556Y454D02*
X1582Y454D01*
X445Y453D02*
X519Y453D01*
X1441Y453D02*
X1523Y453D01*
X1558Y453D02*
X1581Y453D01*
X448Y452D02*
X522Y452D01*
X1438Y452D02*
X1519Y452D01*
X1559Y452D02*
X1581Y452D01*
X451Y451D02*
X525Y451D01*
X1435Y451D02*
X1515Y451D01*
X1559Y451D02*
X1581Y451D01*
X454Y450D02*
X528Y450D01*
X1432Y450D02*
X1511Y450D01*
X1560Y450D02*
X1581Y450D01*
X457Y449D02*
X531Y449D01*
X1429Y449D02*
X1507Y449D01*
X1561Y449D02*
X1580Y449D01*
X459Y448D02*
X534Y448D01*
X1426Y448D02*
X1503Y448D01*
X1561Y448D02*
X1579Y448D01*
X462Y447D02*
X537Y447D01*
X1423Y447D02*
X1500Y447D01*
X1562Y447D02*
X1578Y447D01*
X465Y446D02*
X541Y446D01*
X1420Y446D02*
X1497Y446D01*
X1563Y446D02*
X1577Y446D01*
X468Y445D02*
X544Y445D01*
X1417Y445D02*
X1494Y445D01*
X1565Y445D02*
X1576Y445D01*
X471Y444D02*
X547Y444D01*
X1413Y444D02*
X1490Y444D01*
X1567Y444D02*
X1574Y444D01*
X474Y443D02*
X551Y443D01*
X1410Y443D02*
X1487Y443D01*
X477Y442D02*
X554Y442D01*
X1407Y442D02*
X1484Y442D01*
X480Y441D02*
X557Y441D01*
X1404Y441D02*
X1481Y441D01*
X483Y440D02*
X561Y440D01*
X1401Y440D02*
X1478Y440D01*
X485Y439D02*
X564Y439D01*
X1398Y439D02*
X1474Y439D01*
X488Y438D02*
X567Y438D01*
X1395Y438D02*
X1471Y438D01*
X491Y437D02*
X571Y437D01*
X1391Y437D02*
X1468Y437D01*
X494Y436D02*
X574Y436D01*
X1388Y436D02*
X1465Y436D01*
X498Y435D02*
X578Y435D01*
X1385Y435D02*
X1462Y435D01*
X501Y434D02*
X581Y434D01*
X1382Y434D02*
X1459Y434D01*
X504Y433D02*
X585Y433D01*
X1379Y433D02*
X1456Y433D01*
X507Y432D02*
X588Y432D01*
X1375Y432D02*
X1453Y432D01*
X510Y431D02*
X592Y431D01*
X1372Y431D02*
X1450Y431D01*
X513Y430D02*
X596Y430D01*
X1369Y430D02*
X1447Y430D01*
X516Y429D02*
X599Y429D01*
X1365Y429D02*
X1444Y429D01*
X519Y428D02*
X603Y428D01*
X1362Y428D02*
X1441Y428D01*
X522Y427D02*
X607Y427D01*
X1358Y427D02*
X1438Y427D01*
X525Y426D02*
X610Y426D01*
X1355Y426D02*
X1435Y426D01*
X528Y425D02*
X614Y425D01*
X1352Y425D02*
X1432Y425D01*
X532Y424D02*
X618Y424D01*
X1348Y424D02*
X1428Y424D01*
X535Y423D02*
X622Y423D01*
X1345Y423D02*
X1425Y423D01*
X538Y422D02*
X626Y422D01*
X1341Y422D02*
X1422Y422D01*
X542Y421D02*
X630Y421D01*
X1337Y421D02*
X1419Y421D01*
X545Y420D02*
X634Y420D01*
X1334Y420D02*
X1416Y420D01*
X548Y419D02*
X637Y419D01*
X1330Y419D02*
X1413Y419D01*
X552Y418D02*
X642Y418D01*
X1326Y418D02*
X1410Y418D01*
X555Y417D02*
X646Y417D01*
X1323Y417D02*
X1407Y417D01*
X558Y416D02*
X650Y416D01*
X1319Y416D02*
X1404Y416D01*
X562Y415D02*
X654Y415D01*
X1315Y415D02*
X1401Y415D01*
X565Y414D02*
X658Y414D01*
X1312Y414D02*
X1397Y414D01*
X569Y413D02*
X663Y413D01*
X1308Y413D02*
X1394Y413D01*
X572Y412D02*
X667Y412D01*
X1304Y412D02*
X1391Y412D01*
X576Y411D02*
X671Y411D01*
X1300Y411D02*
X1388Y411D01*
X579Y410D02*
X676Y410D01*
X1296Y410D02*
X1385Y410D01*
X583Y409D02*
X680Y409D01*
X1292Y409D02*
X1381Y409D01*
X586Y408D02*
X685Y408D01*
X1287Y408D02*
X1378Y408D01*
X590Y407D02*
X690Y407D01*
X1283Y407D02*
X1374Y407D01*
X593Y406D02*
X694Y406D01*
X1279Y406D02*
X1371Y406D01*
X597Y405D02*
X699Y405D01*
X1275Y405D02*
X1368Y405D01*
X601Y404D02*
X704Y404D01*
X1270Y404D02*
X1364Y404D01*
X605Y403D02*
X709Y403D01*
X1265Y403D02*
X1361Y403D01*
X608Y402D02*
X714Y402D01*
X1261Y402D02*
X1358Y402D01*
X612Y401D02*
X719Y401D01*
X1256Y401D02*
X1354Y401D01*
X616Y400D02*
X724Y400D01*
X1252Y400D02*
X1351Y400D01*
X620Y399D02*
X729Y399D01*
X1247Y399D02*
X1347Y399D01*
X624Y398D02*
X734Y398D01*
X1242Y398D02*
X1343Y398D01*
X628Y397D02*
X740Y397D01*
X1237Y397D02*
X1340Y397D01*
X632Y396D02*
X746Y396D01*
X1232Y396D02*
X1336Y396D01*
X636Y395D02*
X751Y395D01*
X1226Y395D02*
X1332Y395D01*
X640Y394D02*
X757Y394D01*
X1221Y394D02*
X1329Y394D01*
X644Y393D02*
X763Y393D01*
X1216Y393D02*
X1325Y393D01*
X648Y392D02*
X769Y392D01*
X1210Y392D02*
X1321Y392D01*
X653Y391D02*
X775Y391D01*
X1204Y391D02*
X1318Y391D01*
X657Y390D02*
X782Y390D01*
X1198Y390D02*
X1314Y390D01*
X661Y389D02*
X789Y389D01*
X1192Y389D02*
X1310Y389D01*
X665Y388D02*
X795Y388D01*
X1185Y388D02*
X1306Y388D01*
X670Y387D02*
X802Y387D01*
X1179Y387D02*
X1302Y387D01*
X674Y386D02*
X810Y386D01*
X1172Y386D02*
X1298Y386D01*
X679Y385D02*
X818Y385D01*
X1165Y385D02*
X1293Y385D01*
X684Y384D02*
X825Y384D01*
X1157Y384D02*
X1289Y384D01*
X688Y383D02*
X833Y383D01*
X1149Y383D02*
X1285Y383D01*
X693Y382D02*
X842Y382D01*
X1141Y382D02*
X1281Y382D01*
X697Y381D02*
X852Y381D01*
X1132Y381D02*
X1276Y381D01*
X702Y380D02*
X861Y380D01*
X1123Y380D02*
X1272Y380D01*
X707Y379D02*
X872Y379D01*
X1113Y379D02*
X1267Y379D01*
X712Y378D02*
X884Y378D01*
X1102Y378D02*
X1263Y378D01*
X718Y377D02*
X897Y377D01*
X1089Y377D02*
X1258Y377D01*
X723Y376D02*
X912Y376D01*
X1074Y376D02*
X1253Y376D01*
X728Y375D02*
X930Y375D01*
X1057Y375D02*
X1248Y375D01*
X733Y374D02*
X956Y374D01*
X1032Y374D02*
X1243Y374D01*
X739Y373D02*
X1238Y373D01*
X745Y372D02*
X1233Y372D01*
X750Y371D02*
X1228Y371D01*
X756Y370D02*
X1222Y370D01*
X762Y369D02*
X1217Y369D01*
X768Y368D02*
X1211Y368D01*
X774Y367D02*
X1205Y367D01*
X781Y366D02*
X1199Y366D01*
X788Y365D02*
X1193Y365D01*
X795Y364D02*
X1186Y364D01*
X801Y363D02*
X1180Y363D01*
X809Y362D02*
X1173Y362D01*
X817Y361D02*
X1165Y361D01*
X825Y360D02*
X1158Y360D01*
X833Y359D02*
X1150Y359D01*
X842Y358D02*
X1141Y358D01*
X852Y357D02*
X1133Y357D01*
X861Y356D02*
X1123Y356D01*
X873Y355D02*
X1112Y355D01*
X884Y354D02*
X1101Y354D01*
X897Y353D02*
X1088Y353D01*
X913Y352D02*
X1073Y352D01*
X932Y351D02*
X1056Y351D01*
X960Y350D02*
X1029Y350D01*
D02*
G04 End of Copper0*
M02*