; NON-PLATED HOLES START AT T1
; THROUGH (PLATED) HOLES START AT T100
M48
INCH
T1C0.125984
T100C0.040000
T101C0.060020
T102C0.031497
T103C0.038000
T104C0.030000
T105C0.039370
T106C0.100000
T107C0.043307
T108C0.023622
T109C0.088356
T110C0.041361
T111C0.042000
T112C0.032000
T113C0.035000
T114C0.041333
%
T1
X018810Y038496
X000875Y000797
X000898Y038466
X018787Y000827
T100
X012155Y009472
X009879Y011350
X013495Y034610
X009879Y012420
X012155Y010542
X012155Y008402
X013495Y035680
X013495Y036750
X009879Y013490
T101
X015715Y009622
X016265Y010612
X016313Y030071
X017525Y013472
X015763Y029081
X018805Y011552
X017573Y032931
X014623Y032731
X014575Y013272
X018853Y031011
T102
X003483Y031223
X004959Y027997
X011688Y026665
X003483Y030239
X011688Y025681
X003483Y033339
X003483Y034323
X004959Y028982
T103
X013237Y030579
X001709Y002325
X001060Y035973
X000709Y004325
X002060Y033076
X000709Y010547
X010234Y024537
X001709Y010547
X001060Y036973
X017169Y014498
X001709Y004325
X000709Y002325
X012237Y031579
X015027Y037706
X000709Y016339
X000709Y014339
X002060Y030951
X013237Y031579
X002060Y034076
X000709Y022043
X001709Y026729
X001709Y020043
X001060Y029951
X000709Y009547
X015027Y038706
X000709Y021043
X000709Y020043
X000709Y026729
X001709Y022043
X001709Y021043
X011234Y023537
X001709Y009547
X018889Y008626
X001709Y014339
X012237Y030579
X001709Y016339
X010234Y023537
X000709Y025729
X002060Y036973
X017889Y008626
X001709Y025729
X002060Y035973
X001060Y033076
X000709Y008547
X000709Y003325
X011234Y024537
X001709Y015339
X002060Y029951
X001060Y034076
X018169Y014498
X000709Y015339
X001709Y008547
X001060Y030951
X001709Y003325
T104
X003411Y036885
X009655Y021656
X011655Y021656
X011681Y013719
X008316Y019740
X008136Y022093
X008136Y024093
X011681Y015719
X008316Y017740
X003411Y038885
T105
X007577Y038213
X006577Y038213
X005577Y038213
T106
X018134Y035417
X016934Y037317
X015734Y035417
T107
X000709Y018658
X013497Y038605
X001709Y006929
X004987Y024687
X000709Y024527
X000709Y017658
X000709Y012001
X005987Y024687
X013708Y008812
X001709Y005854
X000709Y013001
X001709Y027837
X008134Y016408
X001709Y023527
X000709Y027837
X000709Y005854
X000709Y023527
X010949Y032764
X000709Y006929
X001709Y024527
T108
X013201Y004547
X015701Y004547
T109
X018959Y016709
X015076Y016709
X005984Y013444
X005996Y019162
X005984Y001444
X005984Y017327
X015064Y024770
X005996Y023045
X005984Y011438
X005984Y005327
X018947Y024770
X005984Y007555
T110
X003043Y020103
X016006Y027723
X003031Y002385
X003031Y014385
X016018Y019662
X003031Y008497
T111
X012061Y038716
X009081Y038716
T112
X012610Y017752
X011610Y020752
X009610Y017752
X010610Y017752
X012610Y020752
X011610Y017752
X010610Y020752
X009610Y020752
T113
X009679Y016688
X018797Y021840
X000519Y028803
X010839Y034594
X003516Y035055
X010840Y037024
X014500Y021825
X012839Y012771
X010398Y030054
X013414Y026557
X013762Y019880
X017797Y021840
X006636Y026125
X013762Y016880
X000496Y031933
X011840Y037024
X003519Y028803
X010398Y027054
X003496Y031933
X013414Y023557
X012839Y015771
X009679Y015688
X009636Y026125
X000516Y035055
X011839Y034594
X015500Y021825
T114
X003043Y022103
X003031Y016386
X017006Y027723
X003043Y021103
X003031Y003385
X018006Y027723
X003031Y009497
X003031Y004385
X003031Y010497
X017018Y019662
X018018Y019662
X003031Y015386
T00
M30
