G04 MADE WITH FRITZING*
G04 WWW.FRITZING.ORG*
G04 DOUBLE SIDED*
G04 HOLES PLATED*
G04 CONTOUR ON CENTER OF CONTOUR VECTOR*
%ASAXBY*%
%FSLAX23Y23*%
%MOIN*%
%OFA0B0*%
%SFA1.0B1.0*%
%ADD10C,0.291417X-0.0085826*%
%ADD11C,0.650000X0.35*%
%ADD12C,0.043622*%
%ADD13C,0.068000*%
%ADD14C,0.078000*%
%ADD15C,0.070000*%
%ADD16C,0.075000*%
%ADD17C,0.074000*%
%ADD18C,0.082000*%
%ADD19C,0.140000*%
%ADD20C,0.083307*%
%ADD21C,0.062992*%
%ADD22C,0.074667*%
%ADD23C,0.074695*%
%ADD24C,0.124033*%
%ADD25C,0.090020*%
%ADD26R,0.078000X0.078000*%
%ADD27R,0.075000X0.075000*%
%ADD28R,0.082000X0.082000*%
%ADD29R,0.062992X0.062992*%
%ADD30C,0.024000*%
%ADD31R,0.001000X0.001000*%
%LNCOPPER1*%
G90*
G70*
G54D10*
X1570Y455D03*
G54D11*
X1570Y455D03*
G54D10*
X1570Y455D03*
G54D11*
X1570Y455D03*
G54D12*
X1320Y455D03*
X1570Y455D03*
X1320Y455D03*
X1570Y455D03*
G54D13*
X1261Y2075D03*
X1161Y2075D03*
X1061Y2075D03*
X961Y2075D03*
X961Y1775D03*
X1061Y1775D03*
X1161Y1775D03*
X1261Y1775D03*
X1261Y2075D03*
X1161Y2075D03*
X1061Y2075D03*
X961Y2075D03*
X961Y1775D03*
X1061Y1775D03*
X1161Y1775D03*
X1261Y1775D03*
G54D14*
X1789Y829D03*
X1889Y829D03*
G54D15*
X814Y2409D03*
X814Y2209D03*
X1168Y1572D03*
X1168Y1372D03*
X966Y2166D03*
X1166Y2166D03*
X832Y1774D03*
X832Y1974D03*
X341Y3689D03*
X341Y3889D03*
G54D16*
X968Y1569D03*
X968Y1669D03*
X1880Y2184D03*
X1780Y2184D03*
X1450Y2183D03*
X1550Y2183D03*
X1184Y3459D03*
X1084Y3459D03*
G54D17*
X758Y3821D03*
X658Y3821D03*
X558Y3821D03*
X758Y3821D03*
X658Y3821D03*
X558Y3821D03*
G54D16*
X1184Y3702D03*
X1084Y3702D03*
G54D18*
X908Y3872D03*
X1206Y3872D03*
G54D19*
X1573Y3542D03*
X1813Y3542D03*
X1693Y3732D03*
G54D14*
X1503Y3771D03*
X1503Y3771D03*
X1503Y3871D03*
X206Y3408D03*
X106Y3408D03*
X206Y3408D03*
X106Y3408D03*
X106Y3308D03*
X206Y3308D03*
G54D20*
X1350Y3861D03*
X1095Y3276D03*
X813Y1641D03*
X1371Y881D03*
X599Y2469D03*
X499Y2469D03*
X171Y2784D03*
X71Y2784D03*
G54D14*
X1123Y2454D03*
X1023Y2454D03*
X1123Y2454D03*
X1023Y2454D03*
X1023Y2354D03*
X1123Y2354D03*
X171Y2673D03*
X71Y2673D03*
X171Y2673D03*
X71Y2673D03*
X71Y2573D03*
X171Y2573D03*
G54D20*
X71Y1200D03*
X71Y1300D03*
X71Y693D03*
X171Y693D03*
X71Y585D03*
X171Y585D03*
X71Y1766D03*
X71Y1866D03*
G54D14*
X1817Y1417D03*
X1817Y1417D03*
X1717Y1417D03*
X1324Y3158D03*
X1224Y3158D03*
X1324Y3158D03*
X1224Y3158D03*
X1224Y3058D03*
X1324Y3058D03*
X206Y3095D03*
X106Y3095D03*
X206Y3095D03*
X106Y3095D03*
X106Y2995D03*
X206Y2995D03*
X206Y3697D03*
X106Y3697D03*
X206Y3697D03*
X106Y3697D03*
X106Y3597D03*
X206Y3597D03*
G54D17*
X988Y1135D03*
X988Y1242D03*
X988Y1349D03*
X988Y1135D03*
X988Y1242D03*
X988Y1349D03*
X1216Y840D03*
X1216Y947D03*
X1216Y1054D03*
X1216Y840D03*
X1216Y947D03*
X1216Y1054D03*
X1350Y3461D03*
X1350Y3568D03*
X1350Y3675D03*
X1350Y3461D03*
X1350Y3568D03*
X1350Y3675D03*
G54D16*
X1341Y2356D03*
X1341Y2656D03*
X1040Y2705D03*
X1040Y3005D03*
G54D21*
X1169Y2568D03*
X1169Y2667D03*
X496Y2800D03*
X496Y2898D03*
X348Y3024D03*
X348Y3122D03*
X348Y3334D03*
X348Y3432D03*
G54D14*
X171Y233D03*
X171Y333D03*
X171Y433D03*
X171Y233D03*
X171Y333D03*
X171Y433D03*
X71Y433D03*
X71Y333D03*
X71Y233D03*
G54D20*
X171Y2453D03*
X71Y2453D03*
X171Y2453D03*
X71Y2453D03*
X71Y2353D03*
X171Y2353D03*
G54D14*
X171Y855D03*
X171Y955D03*
X171Y1055D03*
X171Y855D03*
X171Y955D03*
X171Y1055D03*
X71Y1055D03*
X71Y955D03*
X71Y855D03*
X171Y1434D03*
X171Y1534D03*
X171Y1634D03*
X171Y1434D03*
X171Y1534D03*
X171Y1634D03*
X71Y1634D03*
X71Y1534D03*
X71Y1434D03*
X171Y2004D03*
X171Y2104D03*
X171Y2204D03*
X171Y2004D03*
X171Y2104D03*
X171Y2204D03*
X71Y2204D03*
X71Y2104D03*
X71Y2004D03*
G54D22*
X303Y439D03*
X303Y339D03*
G54D23*
X303Y239D03*
G54D24*
X598Y533D03*
X598Y144D03*
G54D22*
X303Y1050D03*
X303Y950D03*
G54D23*
X303Y850D03*
G54D24*
X598Y1144D03*
X598Y756D03*
G54D22*
X1802Y1966D03*
X1702Y1966D03*
G54D23*
X1602Y1966D03*
G54D24*
X1896Y1671D03*
X1508Y1671D03*
G54D22*
X1801Y2772D03*
X1701Y2772D03*
G54D23*
X1601Y2772D03*
G54D24*
X1895Y2477D03*
X1506Y2477D03*
G54D22*
X303Y1639D03*
X303Y1539D03*
G54D23*
X303Y1439D03*
G54D24*
X598Y1733D03*
X598Y1344D03*
G54D22*
X304Y2210D03*
X304Y2110D03*
G54D23*
X304Y2010D03*
G54D24*
X600Y2305D03*
X600Y1916D03*
G54D25*
X1572Y929D03*
X1627Y1028D03*
X1458Y1294D03*
X1753Y1314D03*
X1881Y1122D03*
X1576Y2908D03*
X1631Y3007D03*
X1462Y3273D03*
X1757Y3293D03*
X1885Y3101D03*
G54D16*
X964Y2613D03*
X664Y2613D03*
X352Y2880D03*
X52Y2880D03*
X350Y3193D03*
X50Y3193D03*
X352Y3506D03*
X52Y3506D03*
X1284Y1577D03*
X1284Y1277D03*
X1376Y1688D03*
X1376Y1988D03*
G54D26*
X1789Y829D03*
G54D27*
X968Y1569D03*
X1880Y2184D03*
X1450Y2183D03*
X1184Y3459D03*
X1184Y3702D03*
G54D28*
X907Y3872D03*
G54D29*
X1169Y2568D03*
X496Y2800D03*
X348Y3024D03*
X348Y3334D03*
G54D30*
X149Y2353D02*
X93Y2353D01*
D02*
X152Y2573D02*
X90Y2573D01*
D02*
X1805Y2792D02*
X1885Y3123D01*
D02*
X1885Y3123D02*
X1885Y3123D01*
D02*
X1324Y2356D02*
X1142Y2354D01*
D02*
X1332Y1872D02*
X1666Y1878D01*
D02*
X1666Y1878D02*
X1694Y1947D01*
D02*
X1266Y2060D02*
X1332Y1872D01*
D02*
X1414Y2058D02*
X1385Y2004D01*
D02*
X1773Y2168D02*
X1734Y2070D01*
D02*
X1734Y2070D02*
X1414Y2058D01*
D02*
X1777Y1689D02*
X1896Y1938D01*
D02*
X1896Y1938D02*
X1881Y2167D01*
D02*
X1814Y1435D02*
X1777Y1689D01*
D02*
X90Y1634D02*
X152Y1634D01*
D02*
X90Y2004D02*
X152Y2004D01*
D02*
X90Y233D02*
X152Y233D01*
D02*
X90Y333D02*
X152Y333D01*
D02*
X90Y433D02*
X152Y433D01*
D02*
X90Y855D02*
X152Y855D01*
D02*
X90Y955D02*
X152Y955D01*
D02*
X90Y1055D02*
X152Y1055D01*
D02*
X90Y1434D02*
X152Y1434D01*
D02*
X90Y1534D02*
X152Y1534D01*
D02*
X93Y2353D02*
X149Y2353D01*
D02*
X93Y2453D02*
X149Y2453D01*
D02*
X1723Y1399D02*
X1743Y1342D01*
D02*
X1882Y1453D02*
X1834Y1426D01*
D02*
X1881Y1152D02*
X1882Y1453D01*
D02*
X1777Y844D02*
X1646Y1005D01*
D02*
X92Y1194D02*
X1196Y846D01*
D02*
X149Y585D02*
X93Y585D01*
D02*
X149Y693D02*
X93Y693D01*
D02*
X577Y2469D02*
X520Y2469D01*
D02*
X1058Y1970D02*
X1061Y1791D01*
D02*
X869Y2041D02*
X1058Y1970D01*
D02*
X1112Y3289D02*
X1333Y3449D01*
D02*
X825Y1622D02*
X978Y1366D01*
D02*
X1229Y1039D02*
X1356Y897D01*
D02*
X1104Y2354D02*
X1042Y2354D01*
D02*
X1104Y2454D02*
X1042Y2454D01*
D02*
X1162Y2091D02*
X1165Y2151D01*
D02*
X962Y2091D02*
X965Y2151D01*
D02*
X1194Y1687D02*
X1167Y1760D01*
D02*
X1359Y1688D02*
X1194Y1687D01*
D02*
X967Y1686D02*
X962Y1759D01*
D02*
X1183Y1573D02*
X1267Y1576D01*
D02*
X1852Y1130D02*
X1301Y1273D01*
D02*
X1096Y2276D02*
X1064Y2091D01*
D02*
X1596Y2305D02*
X1096Y2276D01*
D02*
X1696Y2752D02*
X1596Y2305D01*
D02*
X90Y1534D02*
X152Y1534D01*
D02*
X90Y1634D02*
X152Y1634D01*
D02*
X90Y2004D02*
X152Y2004D01*
D02*
X90Y2204D02*
X152Y2204D01*
D02*
X90Y233D02*
X152Y233D01*
D02*
X90Y333D02*
X152Y333D01*
D02*
X90Y433D02*
X152Y433D01*
D02*
X90Y855D02*
X152Y855D01*
D02*
X90Y955D02*
X152Y955D01*
D02*
X90Y1055D02*
X152Y1055D01*
D02*
X90Y1434D02*
X152Y1434D01*
D02*
X283Y3252D02*
X214Y3112D01*
D02*
X90Y2004D02*
X152Y2004D01*
D02*
X90Y2104D02*
X152Y2104D01*
D02*
X90Y2204D02*
X152Y2204D01*
D02*
X90Y855D02*
X152Y855D01*
D02*
X90Y955D02*
X152Y955D01*
D02*
X90Y1055D02*
X152Y1055D01*
D02*
X90Y233D02*
X152Y233D01*
D02*
X90Y333D02*
X152Y333D01*
D02*
X190Y433D02*
X282Y438D01*
D02*
X90Y1434D02*
X152Y1434D01*
D02*
X190Y1435D02*
X282Y1438D01*
D02*
X90Y1534D02*
X152Y1534D01*
D02*
X190Y1535D02*
X282Y1538D01*
D02*
X90Y1634D02*
X152Y1634D01*
D02*
X190Y1635D02*
X282Y1638D01*
D02*
X1720Y3689D02*
X1787Y3584D01*
D02*
X1727Y3291D02*
X1492Y3275D01*
D02*
X1617Y2981D02*
X1591Y2934D01*
D02*
X225Y2999D02*
X333Y3021D01*
D02*
X96Y3581D02*
X61Y3521D01*
D02*
X90Y2573D02*
X152Y2573D01*
D02*
X90Y2673D02*
X152Y2673D01*
D02*
X93Y2784D02*
X149Y2784D01*
D02*
X190Y2005D02*
X284Y2009D01*
D02*
X190Y2105D02*
X284Y2109D01*
D02*
X190Y2205D02*
X284Y2209D01*
D02*
X190Y854D02*
X282Y850D01*
D02*
X190Y954D02*
X282Y951D01*
D02*
X190Y1054D02*
X282Y1051D01*
D02*
X90Y433D02*
X152Y433D01*
D02*
X190Y233D02*
X282Y238D01*
D02*
X190Y333D02*
X282Y338D01*
D02*
X1653Y3761D02*
X1518Y3859D01*
D02*
X1559Y3590D02*
X1508Y3753D01*
D02*
X1184Y3685D02*
X1184Y3477D01*
D02*
X776Y3828D02*
X888Y3865D01*
D02*
X923Y3857D02*
X1071Y3715D01*
D02*
X1071Y3715D02*
X923Y3857D01*
D02*
X125Y3308D02*
X187Y3308D01*
D02*
X335Y3675D02*
X214Y3425D01*
D02*
X106Y3014D02*
X106Y3076D01*
D02*
X187Y2995D02*
X125Y2995D01*
D02*
X332Y3876D02*
X217Y3713D01*
G54D31*
X1502Y3883D02*
X1504Y3883D01*
X1498Y3882D02*
X1507Y3882D01*
X1497Y3881D02*
X1509Y3881D01*
X1495Y3880D02*
X1510Y3880D01*
X1494Y3879D02*
X1511Y3879D01*
X1493Y3878D02*
X1512Y3878D01*
X1492Y3877D02*
X1513Y3877D01*
X1490Y3876D02*
X1513Y3876D01*
X1489Y3875D02*
X1514Y3875D01*
X1488Y3874D02*
X1514Y3874D01*
X1487Y3873D02*
X1514Y3873D01*
X1485Y3872D02*
X1514Y3872D01*
X1484Y3871D02*
X1514Y3871D01*
X1483Y3870D02*
X1514Y3870D01*
X1482Y3869D02*
X1514Y3869D01*
X1480Y3868D02*
X1514Y3868D01*
X1479Y3867D02*
X1514Y3867D01*
X1478Y3866D02*
X1513Y3866D01*
X1477Y3865D02*
X1513Y3865D01*
X1476Y3864D02*
X1512Y3864D01*
X1474Y3863D02*
X1511Y3863D01*
X1473Y3862D02*
X1510Y3862D01*
X1472Y3861D02*
X1509Y3861D01*
X1470Y3860D02*
X1508Y3860D01*
X1469Y3859D02*
X1506Y3859D01*
X722Y3858D02*
X795Y3858D01*
X1468Y3858D02*
X1505Y3858D01*
X722Y3857D02*
X795Y3857D01*
X1467Y3857D02*
X1504Y3857D01*
X722Y3856D02*
X795Y3856D01*
X1465Y3856D02*
X1503Y3856D01*
X722Y3855D02*
X795Y3855D01*
X1464Y3855D02*
X1502Y3855D01*
X722Y3854D02*
X795Y3854D01*
X1463Y3854D02*
X1500Y3854D01*
X722Y3853D02*
X795Y3853D01*
X1462Y3853D02*
X1499Y3853D01*
X722Y3852D02*
X795Y3852D01*
X1460Y3852D02*
X1498Y3852D01*
X722Y3851D02*
X795Y3851D01*
X1459Y3851D02*
X1497Y3851D01*
X722Y3850D02*
X795Y3850D01*
X1458Y3850D02*
X1495Y3850D01*
X722Y3849D02*
X795Y3849D01*
X1456Y3849D02*
X1494Y3849D01*
X722Y3848D02*
X795Y3848D01*
X1455Y3848D02*
X1493Y3848D01*
X722Y3847D02*
X795Y3847D01*
X1454Y3847D02*
X1492Y3847D01*
X722Y3846D02*
X795Y3846D01*
X1453Y3846D02*
X1490Y3846D01*
X722Y3845D02*
X795Y3845D01*
X1451Y3845D02*
X1489Y3845D01*
X722Y3844D02*
X795Y3844D01*
X1450Y3844D02*
X1488Y3844D01*
X722Y3843D02*
X795Y3843D01*
X1449Y3843D02*
X1487Y3843D01*
X722Y3842D02*
X795Y3842D01*
X1447Y3842D02*
X1485Y3842D01*
X722Y3841D02*
X753Y3841D01*
X763Y3841D02*
X795Y3841D01*
X1446Y3841D02*
X1484Y3841D01*
X722Y3840D02*
X750Y3840D01*
X766Y3840D02*
X795Y3840D01*
X1445Y3840D02*
X1483Y3840D01*
X722Y3839D02*
X748Y3839D01*
X768Y3839D02*
X795Y3839D01*
X1443Y3839D02*
X1482Y3839D01*
X722Y3838D02*
X746Y3838D01*
X770Y3838D02*
X795Y3838D01*
X1442Y3838D02*
X1480Y3838D01*
X722Y3837D02*
X745Y3837D01*
X771Y3837D02*
X795Y3837D01*
X1441Y3837D02*
X1479Y3837D01*
X722Y3836D02*
X744Y3836D01*
X772Y3836D02*
X795Y3836D01*
X1439Y3836D02*
X1478Y3836D01*
X722Y3835D02*
X743Y3835D01*
X773Y3835D02*
X795Y3835D01*
X1438Y3835D02*
X1476Y3835D01*
X722Y3834D02*
X742Y3834D01*
X774Y3834D02*
X795Y3834D01*
X1437Y3834D02*
X1475Y3834D01*
X722Y3833D02*
X741Y3833D01*
X754Y3833D02*
X762Y3833D01*
X775Y3833D02*
X795Y3833D01*
X1435Y3833D02*
X1474Y3833D01*
X722Y3832D02*
X741Y3832D01*
X752Y3832D02*
X764Y3832D01*
X775Y3832D02*
X795Y3832D01*
X1434Y3832D02*
X1473Y3832D01*
X722Y3831D02*
X740Y3831D01*
X751Y3831D02*
X765Y3831D01*
X776Y3831D02*
X795Y3831D01*
X1433Y3831D02*
X1471Y3831D01*
X722Y3830D02*
X740Y3830D01*
X750Y3830D02*
X766Y3830D01*
X776Y3830D02*
X795Y3830D01*
X1431Y3830D02*
X1470Y3830D01*
X722Y3829D02*
X739Y3829D01*
X749Y3829D02*
X767Y3829D01*
X777Y3829D02*
X795Y3829D01*
X1430Y3829D02*
X1469Y3829D01*
X722Y3828D02*
X739Y3828D01*
X748Y3828D02*
X768Y3828D01*
X777Y3828D02*
X795Y3828D01*
X1429Y3828D02*
X1468Y3828D01*
X722Y3827D02*
X739Y3827D01*
X748Y3827D02*
X768Y3827D01*
X777Y3827D02*
X795Y3827D01*
X1427Y3827D02*
X1466Y3827D01*
X722Y3826D02*
X738Y3826D01*
X747Y3826D02*
X769Y3826D01*
X778Y3826D02*
X795Y3826D01*
X1426Y3826D02*
X1465Y3826D01*
X722Y3825D02*
X738Y3825D01*
X747Y3825D02*
X769Y3825D01*
X778Y3825D02*
X795Y3825D01*
X1425Y3825D02*
X1464Y3825D01*
X722Y3824D02*
X738Y3824D01*
X747Y3824D02*
X769Y3824D01*
X778Y3824D02*
X795Y3824D01*
X1423Y3824D02*
X1462Y3824D01*
X722Y3823D02*
X738Y3823D01*
X746Y3823D02*
X769Y3823D01*
X778Y3823D02*
X795Y3823D01*
X1422Y3823D02*
X1461Y3823D01*
X722Y3822D02*
X738Y3822D01*
X746Y3822D02*
X769Y3822D01*
X778Y3822D02*
X795Y3822D01*
X1420Y3822D02*
X1460Y3822D01*
X722Y3821D02*
X738Y3821D01*
X745Y3821D02*
X769Y3821D01*
X778Y3821D02*
X795Y3821D01*
X1419Y3821D02*
X1458Y3821D01*
X722Y3820D02*
X738Y3820D01*
X745Y3820D02*
X769Y3820D01*
X778Y3820D02*
X795Y3820D01*
X1418Y3820D02*
X1457Y3820D01*
X722Y3819D02*
X738Y3819D01*
X745Y3819D02*
X769Y3819D01*
X778Y3819D02*
X795Y3819D01*
X1416Y3819D02*
X1456Y3819D01*
X722Y3818D02*
X738Y3818D01*
X744Y3818D02*
X769Y3818D01*
X778Y3818D02*
X795Y3818D01*
X1415Y3818D02*
X1454Y3818D01*
X722Y3817D02*
X739Y3817D01*
X744Y3817D02*
X769Y3817D01*
X778Y3817D02*
X795Y3817D01*
X1413Y3817D02*
X1453Y3817D01*
X722Y3816D02*
X739Y3816D01*
X743Y3816D02*
X768Y3816D01*
X777Y3816D02*
X795Y3816D01*
X1412Y3816D02*
X1452Y3816D01*
X722Y3815D02*
X739Y3815D01*
X743Y3815D02*
X768Y3815D01*
X777Y3815D02*
X795Y3815D01*
X1411Y3815D02*
X1450Y3815D01*
X722Y3814D02*
X740Y3814D01*
X743Y3814D02*
X767Y3814D01*
X777Y3814D02*
X795Y3814D01*
X1409Y3814D02*
X1449Y3814D01*
X722Y3813D02*
X740Y3813D01*
X742Y3813D02*
X767Y3813D01*
X776Y3813D02*
X795Y3813D01*
X1408Y3813D02*
X1448Y3813D01*
X722Y3812D02*
X767Y3812D01*
X775Y3812D02*
X795Y3812D01*
X1406Y3812D02*
X1446Y3812D01*
X722Y3811D02*
X766Y3811D01*
X775Y3811D02*
X795Y3811D01*
X1405Y3811D02*
X1445Y3811D01*
X722Y3810D02*
X766Y3810D01*
X774Y3810D02*
X795Y3810D01*
X1404Y3810D02*
X1444Y3810D01*
X722Y3809D02*
X765Y3809D01*
X773Y3809D02*
X795Y3809D01*
X1402Y3809D02*
X1442Y3809D01*
X722Y3808D02*
X765Y3808D01*
X772Y3808D02*
X795Y3808D01*
X1401Y3808D02*
X1441Y3808D01*
X722Y3807D02*
X765Y3807D01*
X771Y3807D02*
X795Y3807D01*
X1399Y3807D02*
X1439Y3807D01*
X722Y3806D02*
X764Y3806D01*
X770Y3806D02*
X795Y3806D01*
X1398Y3806D02*
X1438Y3806D01*
X722Y3805D02*
X764Y3805D01*
X769Y3805D02*
X795Y3805D01*
X1396Y3805D02*
X1437Y3805D01*
X722Y3804D02*
X764Y3804D01*
X767Y3804D02*
X795Y3804D01*
X1395Y3804D02*
X1435Y3804D01*
X722Y3803D02*
X795Y3803D01*
X1393Y3803D02*
X1434Y3803D01*
X722Y3802D02*
X795Y3802D01*
X1392Y3802D02*
X1433Y3802D01*
X722Y3801D02*
X795Y3801D01*
X1390Y3801D02*
X1431Y3801D01*
X722Y3800D02*
X795Y3800D01*
X1389Y3800D02*
X1430Y3800D01*
X722Y3799D02*
X795Y3799D01*
X1387Y3799D02*
X1428Y3799D01*
X722Y3798D02*
X795Y3798D01*
X1386Y3798D02*
X1427Y3798D01*
X722Y3797D02*
X795Y3797D01*
X1384Y3797D02*
X1426Y3797D01*
X722Y3796D02*
X795Y3796D01*
X1383Y3796D02*
X1424Y3796D01*
X722Y3795D02*
X795Y3795D01*
X1381Y3795D02*
X1423Y3795D01*
X722Y3794D02*
X795Y3794D01*
X1380Y3794D02*
X1421Y3794D01*
X722Y3793D02*
X795Y3793D01*
X1378Y3793D02*
X1420Y3793D01*
X722Y3792D02*
X795Y3792D01*
X1377Y3792D02*
X1419Y3792D01*
X722Y3791D02*
X795Y3791D01*
X1375Y3791D02*
X1417Y3791D01*
X722Y3790D02*
X795Y3790D01*
X1374Y3790D02*
X1416Y3790D01*
X722Y3789D02*
X795Y3789D01*
X1372Y3789D02*
X1414Y3789D01*
X722Y3788D02*
X795Y3788D01*
X1371Y3788D02*
X1413Y3788D01*
X722Y3787D02*
X795Y3787D01*
X1369Y3787D02*
X1411Y3787D01*
X722Y3786D02*
X795Y3786D01*
X1368Y3786D02*
X1410Y3786D01*
X722Y3785D02*
X794Y3785D01*
X1366Y3785D02*
X1408Y3785D01*
X731Y3784D02*
X756Y3784D01*
X1364Y3784D02*
X1407Y3784D01*
X730Y3783D02*
X755Y3783D01*
X1363Y3783D02*
X1405Y3783D01*
X1502Y3783D02*
X1504Y3783D01*
X730Y3782D02*
X755Y3782D01*
X1361Y3782D02*
X1404Y3782D01*
X1498Y3782D02*
X1507Y3782D01*
X730Y3781D02*
X754Y3781D01*
X1360Y3781D02*
X1403Y3781D01*
X1497Y3781D02*
X1509Y3781D01*
X729Y3780D02*
X754Y3780D01*
X1358Y3780D02*
X1401Y3780D01*
X1495Y3780D02*
X1510Y3780D01*
X729Y3779D02*
X754Y3779D01*
X1356Y3779D02*
X1400Y3779D01*
X1494Y3779D02*
X1511Y3779D01*
X728Y3778D02*
X753Y3778D01*
X1355Y3778D02*
X1398Y3778D01*
X1494Y3778D02*
X1512Y3778D01*
X728Y3777D02*
X753Y3777D01*
X1353Y3777D02*
X1397Y3777D01*
X1493Y3777D02*
X1513Y3777D01*
X727Y3776D02*
X752Y3776D01*
X1351Y3776D02*
X1395Y3776D01*
X1492Y3776D02*
X1513Y3776D01*
X727Y3775D02*
X752Y3775D01*
X1350Y3775D02*
X1394Y3775D01*
X1492Y3775D02*
X1514Y3775D01*
X727Y3774D02*
X752Y3774D01*
X1348Y3774D02*
X1392Y3774D01*
X1492Y3774D02*
X1514Y3774D01*
X726Y3773D02*
X751Y3773D01*
X1346Y3773D02*
X1390Y3773D01*
X1491Y3773D02*
X1514Y3773D01*
X726Y3772D02*
X751Y3772D01*
X1345Y3772D02*
X1389Y3772D01*
X1491Y3772D02*
X1514Y3772D01*
X725Y3771D02*
X750Y3771D01*
X1343Y3771D02*
X1387Y3771D01*
X1491Y3771D02*
X1514Y3771D01*
X725Y3770D02*
X750Y3770D01*
X1341Y3770D02*
X1386Y3770D01*
X1491Y3770D02*
X1514Y3770D01*
X725Y3769D02*
X750Y3769D01*
X1340Y3769D02*
X1384Y3769D01*
X1491Y3769D02*
X1514Y3769D01*
X724Y3768D02*
X749Y3768D01*
X1338Y3768D02*
X1383Y3768D01*
X1490Y3768D02*
X1514Y3768D01*
X724Y3767D02*
X749Y3767D01*
X1336Y3767D02*
X1381Y3767D01*
X1490Y3767D02*
X1514Y3767D01*
X723Y3766D02*
X748Y3766D01*
X1334Y3766D02*
X1380Y3766D01*
X1490Y3766D02*
X1514Y3766D01*
X723Y3765D02*
X748Y3765D01*
X1333Y3765D02*
X1378Y3765D01*
X1490Y3765D02*
X1513Y3765D01*
X722Y3764D02*
X748Y3764D01*
X1331Y3764D02*
X1377Y3764D01*
X1490Y3764D02*
X1513Y3764D01*
X722Y3763D02*
X747Y3763D01*
X1329Y3763D02*
X1375Y3763D01*
X1489Y3763D02*
X1513Y3763D01*
X722Y3762D02*
X747Y3762D01*
X1327Y3762D02*
X1373Y3762D01*
X1489Y3762D02*
X1513Y3762D01*
X721Y3761D02*
X746Y3761D01*
X1326Y3761D02*
X1372Y3761D01*
X1489Y3761D02*
X1512Y3761D01*
X721Y3760D02*
X746Y3760D01*
X1324Y3760D02*
X1370Y3760D01*
X1489Y3760D02*
X1512Y3760D01*
X720Y3759D02*
X745Y3759D01*
X1322Y3759D02*
X1368Y3759D01*
X1489Y3759D02*
X1512Y3759D01*
X720Y3758D02*
X745Y3758D01*
X1320Y3758D02*
X1367Y3758D01*
X1488Y3758D02*
X1512Y3758D01*
X719Y3757D02*
X745Y3757D01*
X1318Y3757D02*
X1365Y3757D01*
X1488Y3757D02*
X1512Y3757D01*
X719Y3756D02*
X744Y3756D01*
X1316Y3756D02*
X1364Y3756D01*
X1488Y3756D02*
X1511Y3756D01*
X719Y3755D02*
X744Y3755D01*
X1314Y3755D02*
X1362Y3755D01*
X1488Y3755D02*
X1511Y3755D01*
X718Y3754D02*
X743Y3754D01*
X1313Y3754D02*
X1360Y3754D01*
X1488Y3754D02*
X1511Y3754D01*
X718Y3753D02*
X743Y3753D01*
X1311Y3753D02*
X1359Y3753D01*
X1487Y3753D02*
X1511Y3753D01*
X717Y3752D02*
X742Y3752D01*
X1309Y3752D02*
X1357Y3752D01*
X1487Y3752D02*
X1511Y3752D01*
X717Y3751D02*
X742Y3751D01*
X1307Y3751D02*
X1355Y3751D01*
X1487Y3751D02*
X1510Y3751D01*
X716Y3750D02*
X742Y3750D01*
X1305Y3750D02*
X1353Y3750D01*
X1487Y3750D02*
X1510Y3750D01*
X716Y3749D02*
X741Y3749D01*
X1303Y3749D02*
X1352Y3749D01*
X1486Y3749D02*
X1510Y3749D01*
X716Y3748D02*
X741Y3748D01*
X1301Y3748D02*
X1350Y3748D01*
X1486Y3748D02*
X1510Y3748D01*
X715Y3747D02*
X740Y3747D01*
X1299Y3747D02*
X1348Y3747D01*
X1486Y3747D02*
X1509Y3747D01*
X715Y3746D02*
X740Y3746D01*
X1297Y3746D02*
X1347Y3746D01*
X1486Y3746D02*
X1509Y3746D01*
X714Y3745D02*
X739Y3745D01*
X1295Y3745D02*
X1345Y3745D01*
X1485Y3745D02*
X1509Y3745D01*
X714Y3744D02*
X739Y3744D01*
X1293Y3744D02*
X1343Y3744D01*
X1485Y3744D02*
X1509Y3744D01*
X713Y3743D02*
X739Y3743D01*
X1290Y3743D02*
X1341Y3743D01*
X1485Y3743D02*
X1508Y3743D01*
X713Y3742D02*
X738Y3742D01*
X1288Y3742D02*
X1340Y3742D01*
X1485Y3742D02*
X1508Y3742D01*
X713Y3741D02*
X738Y3741D01*
X1286Y3741D02*
X1338Y3741D01*
X1484Y3741D02*
X1508Y3741D01*
X712Y3740D02*
X737Y3740D01*
X1284Y3740D02*
X1336Y3740D01*
X1484Y3740D02*
X1508Y3740D01*
X712Y3739D02*
X737Y3739D01*
X1282Y3739D02*
X1334Y3739D01*
X1484Y3739D02*
X1507Y3739D01*
X711Y3738D02*
X736Y3738D01*
X1279Y3738D02*
X1332Y3738D01*
X1484Y3738D02*
X1507Y3738D01*
X711Y3737D02*
X736Y3737D01*
X1277Y3737D02*
X1331Y3737D01*
X1483Y3737D02*
X1507Y3737D01*
X710Y3736D02*
X736Y3736D01*
X1275Y3736D02*
X1329Y3736D01*
X1483Y3736D02*
X1507Y3736D01*
X710Y3735D02*
X735Y3735D01*
X1272Y3735D02*
X1327Y3735D01*
X1483Y3735D02*
X1507Y3735D01*
X710Y3734D02*
X735Y3734D01*
X1270Y3734D02*
X1325Y3734D01*
X1482Y3734D02*
X1506Y3734D01*
X709Y3733D02*
X734Y3733D01*
X1268Y3733D02*
X1323Y3733D01*
X1482Y3733D02*
X1506Y3733D01*
X709Y3732D02*
X734Y3732D01*
X1265Y3732D02*
X1321Y3732D01*
X1482Y3732D02*
X1506Y3732D01*
X708Y3731D02*
X733Y3731D01*
X1262Y3731D02*
X1319Y3731D01*
X1482Y3731D02*
X1505Y3731D01*
X708Y3730D02*
X733Y3730D01*
X1260Y3730D02*
X1317Y3730D01*
X1481Y3730D02*
X1505Y3730D01*
X707Y3729D02*
X733Y3729D01*
X1257Y3729D02*
X1315Y3729D01*
X1481Y3729D02*
X1505Y3729D01*
X707Y3728D02*
X732Y3728D01*
X1255Y3728D02*
X1313Y3728D01*
X1481Y3728D02*
X1505Y3728D01*
X707Y3727D02*
X732Y3727D01*
X1252Y3727D02*
X1311Y3727D01*
X1480Y3727D02*
X1504Y3727D01*
X706Y3726D02*
X731Y3726D01*
X1249Y3726D02*
X1309Y3726D01*
X1480Y3726D02*
X1504Y3726D01*
X706Y3725D02*
X731Y3725D01*
X1246Y3725D02*
X1307Y3725D01*
X1480Y3725D02*
X1504Y3725D01*
X705Y3724D02*
X730Y3724D01*
X1243Y3724D02*
X1305Y3724D01*
X1480Y3724D02*
X1503Y3724D01*
X705Y3723D02*
X730Y3723D01*
X1240Y3723D02*
X1303Y3723D01*
X1479Y3723D02*
X1503Y3723D01*
X704Y3722D02*
X730Y3722D01*
X1236Y3722D02*
X1301Y3722D01*
X1479Y3722D02*
X1503Y3722D01*
X704Y3721D02*
X729Y3721D01*
X1233Y3721D02*
X1299Y3721D01*
X1479Y3721D02*
X1503Y3721D01*
X703Y3720D02*
X729Y3720D01*
X1229Y3720D02*
X1297Y3720D01*
X1478Y3720D02*
X1502Y3720D01*
X703Y3719D02*
X728Y3719D01*
X1225Y3719D02*
X1295Y3719D01*
X1478Y3719D02*
X1502Y3719D01*
X703Y3718D02*
X728Y3718D01*
X1221Y3718D02*
X1292Y3718D01*
X1478Y3718D02*
X1502Y3718D01*
X702Y3717D02*
X727Y3717D01*
X1216Y3717D02*
X1290Y3717D01*
X1477Y3717D02*
X1501Y3717D01*
X702Y3716D02*
X727Y3716D01*
X1210Y3716D02*
X1288Y3716D01*
X1477Y3716D02*
X1501Y3716D01*
X701Y3715D02*
X726Y3715D01*
X1203Y3715D02*
X1286Y3715D01*
X1477Y3715D02*
X1501Y3715D01*
X701Y3714D02*
X726Y3714D01*
X1180Y3714D02*
X1283Y3714D01*
X1476Y3714D02*
X1501Y3714D01*
X700Y3713D02*
X726Y3713D01*
X1178Y3713D02*
X1281Y3713D01*
X1476Y3713D02*
X1500Y3713D01*
X700Y3712D02*
X725Y3712D01*
X1177Y3712D02*
X1279Y3712D01*
X1476Y3712D02*
X1500Y3712D01*
X699Y3711D02*
X725Y3711D01*
X1176Y3711D02*
X1276Y3711D01*
X1475Y3711D02*
X1500Y3711D01*
X699Y3710D02*
X724Y3710D01*
X1175Y3710D02*
X1274Y3710D01*
X1475Y3710D02*
X1499Y3710D01*
X699Y3709D02*
X724Y3709D01*
X1174Y3709D02*
X1271Y3709D01*
X1475Y3709D02*
X1499Y3709D01*
X698Y3708D02*
X723Y3708D01*
X1174Y3708D02*
X1269Y3708D01*
X1474Y3708D02*
X1499Y3708D01*
X698Y3707D02*
X723Y3707D01*
X1173Y3707D02*
X1266Y3707D01*
X1474Y3707D02*
X1498Y3707D01*
X697Y3706D02*
X722Y3706D01*
X1173Y3706D02*
X1263Y3706D01*
X1474Y3706D02*
X1498Y3706D01*
X697Y3705D02*
X722Y3705D01*
X1173Y3705D02*
X1260Y3705D01*
X1473Y3705D02*
X1498Y3705D01*
X696Y3704D02*
X722Y3704D01*
X1173Y3704D02*
X1258Y3704D01*
X1473Y3704D02*
X1497Y3704D01*
X696Y3703D02*
X721Y3703D01*
X1173Y3703D02*
X1255Y3703D01*
X1473Y3703D02*
X1497Y3703D01*
X695Y3702D02*
X721Y3702D01*
X1173Y3702D02*
X1252Y3702D01*
X1472Y3702D02*
X1497Y3702D01*
X695Y3701D02*
X720Y3701D01*
X1173Y3701D02*
X1249Y3701D01*
X1472Y3701D02*
X1496Y3701D01*
X694Y3700D02*
X720Y3700D01*
X1173Y3700D02*
X1245Y3700D01*
X1471Y3700D02*
X1496Y3700D01*
X694Y3699D02*
X719Y3699D01*
X1173Y3699D02*
X1242Y3699D01*
X1471Y3699D02*
X1496Y3699D01*
X693Y3698D02*
X719Y3698D01*
X1174Y3698D02*
X1239Y3698D01*
X1471Y3698D02*
X1495Y3698D01*
X693Y3697D02*
X718Y3697D01*
X1174Y3697D02*
X1235Y3697D01*
X1470Y3697D02*
X1495Y3697D01*
X693Y3696D02*
X718Y3696D01*
X1175Y3696D02*
X1231Y3696D01*
X1470Y3696D02*
X1494Y3696D01*
X692Y3695D02*
X717Y3695D01*
X1176Y3695D02*
X1227Y3695D01*
X1470Y3695D02*
X1494Y3695D01*
X692Y3694D02*
X717Y3694D01*
X1177Y3694D02*
X1222Y3694D01*
X1469Y3694D02*
X1494Y3694D01*
X691Y3693D02*
X717Y3693D01*
X1178Y3693D02*
X1217Y3693D01*
X1469Y3693D02*
X1493Y3693D01*
X691Y3692D02*
X716Y3692D01*
X1180Y3692D02*
X1211Y3692D01*
X1468Y3692D02*
X1493Y3692D01*
X690Y3691D02*
X716Y3691D01*
X1183Y3691D02*
X1203Y3691D01*
X1468Y3691D02*
X1493Y3691D01*
X690Y3690D02*
X715Y3690D01*
X1467Y3690D02*
X1492Y3690D01*
X689Y3689D02*
X715Y3689D01*
X1467Y3689D02*
X1492Y3689D01*
X689Y3688D02*
X714Y3688D01*
X1467Y3688D02*
X1491Y3688D01*
X688Y3687D02*
X714Y3687D01*
X1466Y3687D02*
X1491Y3687D01*
X688Y3686D02*
X713Y3686D01*
X1466Y3686D02*
X1491Y3686D01*
X687Y3685D02*
X713Y3685D01*
X1465Y3685D02*
X1490Y3685D01*
X687Y3684D02*
X712Y3684D01*
X1465Y3684D02*
X1490Y3684D01*
X687Y3683D02*
X712Y3683D01*
X1465Y3683D02*
X1490Y3683D01*
X686Y3682D02*
X712Y3682D01*
X1464Y3682D02*
X1489Y3682D01*
X686Y3681D02*
X711Y3681D01*
X1464Y3681D02*
X1489Y3681D01*
X685Y3680D02*
X711Y3680D01*
X1463Y3680D02*
X1488Y3680D01*
X685Y3679D02*
X710Y3679D01*
X1463Y3679D02*
X1488Y3679D01*
X684Y3678D02*
X710Y3678D01*
X1462Y3678D02*
X1487Y3678D01*
X684Y3677D02*
X709Y3677D01*
X1462Y3677D02*
X1487Y3677D01*
X683Y3676D02*
X709Y3676D01*
X1461Y3676D02*
X1487Y3676D01*
X683Y3675D02*
X708Y3675D01*
X1461Y3675D02*
X1486Y3675D01*
X682Y3674D02*
X708Y3674D01*
X1460Y3674D02*
X1486Y3674D01*
X682Y3673D02*
X707Y3673D01*
X1460Y3673D02*
X1485Y3673D01*
X681Y3672D02*
X707Y3672D01*
X1459Y3672D02*
X1485Y3672D01*
X681Y3671D02*
X706Y3671D01*
X1459Y3671D02*
X1484Y3671D01*
X680Y3670D02*
X706Y3670D01*
X1458Y3670D02*
X1484Y3670D01*
X680Y3669D02*
X705Y3669D01*
X1458Y3669D02*
X1483Y3669D01*
X679Y3668D02*
X705Y3668D01*
X1457Y3668D02*
X1483Y3668D01*
X679Y3667D02*
X704Y3667D01*
X1457Y3667D02*
X1483Y3667D01*
X678Y3666D02*
X704Y3666D01*
X1456Y3666D02*
X1482Y3666D01*
X678Y3665D02*
X704Y3665D01*
X1456Y3665D02*
X1482Y3665D01*
X677Y3664D02*
X703Y3664D01*
X1455Y3664D02*
X1481Y3664D01*
X677Y3663D02*
X703Y3663D01*
X1455Y3663D02*
X1481Y3663D01*
X677Y3662D02*
X702Y3662D01*
X1454Y3662D02*
X1480Y3662D01*
X676Y3661D02*
X702Y3661D01*
X1454Y3661D02*
X1480Y3661D01*
X676Y3660D02*
X701Y3660D01*
X1453Y3660D02*
X1479Y3660D01*
X675Y3659D02*
X701Y3659D01*
X1452Y3659D02*
X1479Y3659D01*
X675Y3658D02*
X700Y3658D01*
X1452Y3658D02*
X1478Y3658D01*
X674Y3657D02*
X700Y3657D01*
X1451Y3657D02*
X1478Y3657D01*
X674Y3656D02*
X699Y3656D01*
X1451Y3656D02*
X1477Y3656D01*
X673Y3655D02*
X699Y3655D01*
X1450Y3655D02*
X1477Y3655D01*
X673Y3654D02*
X698Y3654D01*
X1449Y3654D02*
X1476Y3654D01*
X672Y3653D02*
X698Y3653D01*
X1449Y3653D02*
X1475Y3653D01*
X672Y3652D02*
X697Y3652D01*
X1448Y3652D02*
X1475Y3652D01*
X671Y3651D02*
X697Y3651D01*
X1448Y3651D02*
X1474Y3651D01*
X671Y3650D02*
X696Y3650D01*
X1447Y3650D02*
X1474Y3650D01*
X670Y3649D02*
X696Y3649D01*
X1446Y3649D02*
X1473Y3649D01*
X670Y3648D02*
X695Y3648D01*
X1446Y3648D02*
X1473Y3648D01*
X669Y3647D02*
X695Y3647D01*
X1445Y3647D02*
X1472Y3647D01*
X669Y3646D02*
X694Y3646D01*
X1445Y3646D02*
X1472Y3646D01*
X668Y3645D02*
X694Y3645D01*
X1444Y3645D02*
X1471Y3645D01*
X668Y3644D02*
X693Y3644D01*
X1443Y3644D02*
X1470Y3644D01*
X667Y3643D02*
X693Y3643D01*
X1443Y3643D02*
X1470Y3643D01*
X667Y3642D02*
X692Y3642D01*
X1442Y3642D02*
X1469Y3642D01*
X666Y3641D02*
X692Y3641D01*
X1441Y3641D02*
X1469Y3641D01*
X666Y3640D02*
X691Y3640D01*
X1440Y3640D02*
X1468Y3640D01*
X665Y3639D02*
X691Y3639D01*
X1440Y3639D02*
X1467Y3639D01*
X665Y3638D02*
X690Y3638D01*
X1439Y3638D02*
X1467Y3638D01*
X664Y3637D02*
X690Y3637D01*
X1438Y3637D02*
X1466Y3637D01*
X664Y3636D02*
X689Y3636D01*
X1438Y3636D02*
X1466Y3636D01*
X663Y3635D02*
X689Y3635D01*
X1437Y3635D02*
X1465Y3635D01*
X663Y3634D02*
X689Y3634D01*
X1436Y3634D02*
X1464Y3634D01*
X662Y3633D02*
X688Y3633D01*
X1435Y3633D02*
X1464Y3633D01*
X662Y3632D02*
X688Y3632D01*
X1435Y3632D02*
X1463Y3632D01*
X661Y3631D02*
X687Y3631D01*
X1434Y3631D02*
X1462Y3631D01*
X661Y3630D02*
X687Y3630D01*
X1433Y3630D02*
X1462Y3630D01*
X660Y3629D02*
X686Y3629D01*
X1432Y3629D02*
X1461Y3629D01*
X660Y3628D02*
X686Y3628D01*
X1431Y3628D02*
X1460Y3628D01*
X659Y3627D02*
X685Y3627D01*
X1430Y3627D02*
X1460Y3627D01*
X659Y3626D02*
X685Y3626D01*
X1430Y3626D02*
X1459Y3626D01*
X658Y3625D02*
X684Y3625D01*
X1429Y3625D02*
X1458Y3625D01*
X658Y3624D02*
X684Y3624D01*
X1428Y3624D02*
X1457Y3624D01*
X657Y3623D02*
X683Y3623D01*
X1427Y3623D02*
X1457Y3623D01*
X657Y3622D02*
X683Y3622D01*
X1426Y3622D02*
X1456Y3622D01*
X656Y3621D02*
X682Y3621D01*
X1425Y3621D02*
X1455Y3621D01*
X656Y3620D02*
X682Y3620D01*
X1424Y3620D02*
X1454Y3620D01*
X655Y3619D02*
X681Y3619D01*
X1423Y3619D02*
X1454Y3619D01*
X655Y3618D02*
X681Y3618D01*
X1422Y3618D02*
X1453Y3618D01*
X654Y3617D02*
X680Y3617D01*
X1421Y3617D02*
X1452Y3617D01*
X654Y3616D02*
X679Y3616D01*
X1420Y3616D02*
X1451Y3616D01*
X653Y3615D02*
X679Y3615D01*
X1419Y3615D02*
X1450Y3615D01*
X653Y3614D02*
X678Y3614D01*
X1418Y3614D02*
X1450Y3614D01*
X652Y3613D02*
X678Y3613D01*
X1417Y3613D02*
X1449Y3613D01*
X652Y3612D02*
X677Y3612D01*
X1416Y3612D02*
X1448Y3612D01*
X651Y3611D02*
X677Y3611D01*
X1415Y3611D02*
X1447Y3611D01*
X651Y3610D02*
X676Y3610D01*
X1414Y3610D02*
X1446Y3610D01*
X650Y3609D02*
X676Y3609D01*
X1413Y3609D02*
X1445Y3609D01*
X649Y3608D02*
X675Y3608D01*
X1412Y3608D02*
X1445Y3608D01*
X649Y3607D02*
X675Y3607D01*
X1410Y3607D02*
X1444Y3607D01*
X648Y3606D02*
X674Y3606D01*
X1409Y3606D02*
X1443Y3606D01*
X648Y3605D02*
X674Y3605D01*
X1408Y3605D02*
X1442Y3605D01*
X647Y3604D02*
X673Y3604D01*
X1407Y3604D02*
X1441Y3604D01*
X647Y3603D02*
X673Y3603D01*
X1405Y3603D02*
X1440Y3603D01*
X646Y3602D02*
X672Y3602D01*
X1404Y3602D02*
X1439Y3602D01*
X646Y3601D02*
X672Y3601D01*
X1402Y3601D02*
X1438Y3601D01*
X645Y3600D02*
X671Y3600D01*
X1401Y3600D02*
X1437Y3600D01*
X645Y3599D02*
X671Y3599D01*
X1400Y3599D02*
X1436Y3599D01*
X644Y3598D02*
X670Y3598D01*
X1398Y3598D02*
X1435Y3598D01*
X644Y3597D02*
X670Y3597D01*
X1397Y3597D02*
X1434Y3597D01*
X643Y3596D02*
X669Y3596D01*
X1395Y3596D02*
X1433Y3596D01*
X643Y3595D02*
X669Y3595D01*
X1393Y3595D02*
X1432Y3595D01*
X642Y3594D02*
X668Y3594D01*
X1392Y3594D02*
X1431Y3594D01*
X641Y3593D02*
X668Y3593D01*
X1390Y3593D02*
X1430Y3593D01*
X641Y3592D02*
X667Y3592D01*
X1388Y3592D02*
X1429Y3592D01*
X640Y3591D02*
X667Y3591D01*
X1386Y3591D02*
X1427Y3591D01*
X640Y3590D02*
X666Y3590D01*
X1384Y3590D02*
X1426Y3590D01*
X639Y3589D02*
X666Y3589D01*
X1382Y3589D02*
X1425Y3589D01*
X639Y3588D02*
X665Y3588D01*
X1380Y3588D02*
X1424Y3588D01*
X638Y3587D02*
X664Y3587D01*
X1377Y3587D02*
X1423Y3587D01*
X638Y3586D02*
X664Y3586D01*
X1375Y3586D02*
X1421Y3586D01*
X637Y3585D02*
X663Y3585D01*
X1372Y3585D02*
X1420Y3585D01*
X637Y3584D02*
X663Y3584D01*
X1369Y3584D02*
X1419Y3584D01*
X636Y3583D02*
X662Y3583D01*
X1365Y3583D02*
X1418Y3583D01*
X636Y3582D02*
X662Y3582D01*
X1361Y3582D02*
X1416Y3582D01*
X635Y3581D02*
X661Y3581D01*
X1355Y3581D02*
X1415Y3581D01*
X635Y3580D02*
X661Y3580D01*
X1347Y3580D02*
X1413Y3580D01*
X634Y3579D02*
X660Y3579D01*
X1344Y3579D02*
X1412Y3579D01*
X633Y3578D02*
X660Y3578D01*
X1343Y3578D02*
X1410Y3578D01*
X633Y3577D02*
X659Y3577D01*
X1342Y3577D02*
X1409Y3577D01*
X632Y3576D02*
X659Y3576D01*
X1341Y3576D02*
X1407Y3576D01*
X632Y3575D02*
X658Y3575D01*
X1340Y3575D02*
X1406Y3575D01*
X631Y3574D02*
X658Y3574D01*
X1340Y3574D02*
X1404Y3574D01*
X631Y3573D02*
X657Y3573D01*
X1339Y3573D02*
X1402Y3573D01*
X630Y3572D02*
X657Y3572D01*
X1339Y3572D02*
X1400Y3572D01*
X630Y3571D02*
X656Y3571D01*
X1339Y3571D02*
X1399Y3571D01*
X629Y3570D02*
X655Y3570D01*
X1338Y3570D02*
X1397Y3570D01*
X628Y3569D02*
X655Y3569D01*
X1338Y3569D02*
X1395Y3569D01*
X628Y3568D02*
X654Y3568D01*
X1338Y3568D02*
X1393Y3568D01*
X627Y3567D02*
X654Y3567D01*
X1338Y3567D02*
X1390Y3567D01*
X627Y3566D02*
X653Y3566D01*
X1339Y3566D02*
X1388Y3566D01*
X626Y3565D02*
X653Y3565D01*
X1339Y3565D02*
X1386Y3565D01*
X626Y3564D02*
X652Y3564D01*
X1339Y3564D02*
X1383Y3564D01*
X625Y3563D02*
X652Y3563D01*
X1340Y3563D02*
X1381Y3563D01*
X625Y3562D02*
X651Y3562D01*
X1340Y3562D02*
X1377Y3562D01*
X624Y3561D02*
X650Y3561D01*
X1341Y3561D02*
X1374Y3561D01*
X623Y3560D02*
X650Y3560D01*
X1342Y3560D02*
X1371Y3560D01*
X623Y3559D02*
X649Y3559D01*
X1343Y3559D02*
X1367Y3559D01*
X622Y3558D02*
X649Y3558D01*
X1345Y3558D02*
X1362Y3558D01*
X622Y3557D02*
X648Y3557D01*
X1347Y3557D02*
X1356Y3557D01*
X621Y3556D02*
X648Y3556D01*
X621Y3555D02*
X647Y3555D01*
X620Y3554D02*
X647Y3554D01*
X620Y3553D02*
X646Y3553D01*
X619Y3552D02*
X645Y3552D01*
X618Y3551D02*
X645Y3551D01*
X618Y3550D02*
X644Y3550D01*
X617Y3549D02*
X644Y3549D01*
X617Y3548D02*
X643Y3548D01*
X616Y3547D02*
X643Y3547D01*
X615Y3546D02*
X642Y3546D01*
X615Y3545D02*
X642Y3545D01*
X614Y3544D02*
X641Y3544D01*
X614Y3543D02*
X640Y3543D01*
X613Y3542D02*
X640Y3542D01*
X613Y3541D02*
X639Y3541D01*
X612Y3540D02*
X639Y3540D01*
X611Y3539D02*
X638Y3539D01*
X611Y3538D02*
X638Y3538D01*
X610Y3537D02*
X637Y3537D01*
X610Y3536D02*
X636Y3536D01*
X609Y3535D02*
X636Y3535D01*
X609Y3534D02*
X635Y3534D01*
X608Y3533D02*
X635Y3533D01*
X607Y3532D02*
X634Y3532D01*
X607Y3531D02*
X634Y3531D01*
X606Y3530D02*
X633Y3530D01*
X606Y3529D02*
X632Y3529D01*
X605Y3528D02*
X632Y3528D01*
X604Y3527D02*
X631Y3527D01*
X604Y3526D02*
X631Y3526D01*
X603Y3525D02*
X630Y3525D01*
X603Y3524D02*
X629Y3524D01*
X602Y3523D02*
X629Y3523D01*
X601Y3522D02*
X628Y3522D01*
X601Y3521D02*
X628Y3521D01*
X600Y3520D02*
X627Y3520D01*
X600Y3519D02*
X627Y3519D01*
X599Y3518D02*
X626Y3518D01*
X598Y3517D02*
X625Y3517D01*
X598Y3516D02*
X625Y3516D01*
X597Y3515D02*
X624Y3515D01*
X597Y3514D02*
X624Y3514D01*
X596Y3513D02*
X623Y3513D01*
X595Y3512D02*
X622Y3512D01*
X595Y3511D02*
X622Y3511D01*
X594Y3510D02*
X621Y3510D01*
X593Y3509D02*
X621Y3509D01*
X593Y3508D02*
X620Y3508D01*
X592Y3507D02*
X619Y3507D01*
X592Y3506D02*
X619Y3506D01*
X591Y3505D02*
X618Y3505D01*
X590Y3504D02*
X618Y3504D01*
X590Y3503D02*
X617Y3503D01*
X589Y3502D02*
X616Y3502D01*
X589Y3501D02*
X616Y3501D01*
X588Y3500D02*
X615Y3500D01*
X587Y3499D02*
X614Y3499D01*
X587Y3498D02*
X614Y3498D01*
X586Y3497D02*
X613Y3497D01*
X585Y3496D02*
X613Y3496D01*
X585Y3495D02*
X612Y3495D01*
X584Y3494D02*
X611Y3494D01*
X583Y3493D02*
X611Y3493D01*
X583Y3492D02*
X610Y3492D01*
X582Y3491D02*
X610Y3491D01*
X582Y3490D02*
X609Y3490D01*
X581Y3489D02*
X608Y3489D01*
X580Y3488D02*
X608Y3488D01*
X580Y3487D02*
X607Y3487D01*
X579Y3486D02*
X606Y3486D01*
X578Y3485D02*
X606Y3485D01*
X578Y3484D02*
X605Y3484D01*
X577Y3483D02*
X605Y3483D01*
X576Y3482D02*
X604Y3482D01*
X576Y3481D02*
X603Y3481D01*
X575Y3480D02*
X603Y3480D01*
X575Y3479D02*
X602Y3479D01*
X574Y3478D02*
X601Y3478D01*
X573Y3477D02*
X601Y3477D01*
X573Y3476D02*
X600Y3476D01*
X572Y3475D02*
X599Y3475D01*
X571Y3474D02*
X599Y3474D01*
X571Y3473D02*
X598Y3473D01*
X570Y3472D02*
X598Y3472D01*
X569Y3471D02*
X597Y3471D01*
X569Y3470D02*
X596Y3470D01*
X568Y3469D02*
X596Y3469D01*
X567Y3468D02*
X595Y3468D01*
X567Y3467D02*
X594Y3467D01*
X566Y3466D02*
X594Y3466D01*
X565Y3465D02*
X593Y3465D01*
X564Y3464D02*
X592Y3464D01*
X564Y3463D02*
X592Y3463D01*
X563Y3462D02*
X591Y3462D01*
X562Y3461D02*
X590Y3461D01*
X562Y3460D02*
X590Y3460D01*
X561Y3459D02*
X589Y3459D01*
X560Y3458D02*
X588Y3458D01*
X560Y3457D02*
X588Y3457D01*
X559Y3456D02*
X587Y3456D01*
X558Y3455D02*
X586Y3455D01*
X558Y3454D02*
X586Y3454D01*
X557Y3453D02*
X585Y3453D01*
X556Y3452D02*
X584Y3452D01*
X556Y3451D02*
X584Y3451D01*
X555Y3450D02*
X583Y3450D01*
X554Y3449D02*
X582Y3449D01*
X554Y3448D02*
X582Y3448D01*
X553Y3447D02*
X581Y3447D01*
X552Y3446D02*
X580Y3446D01*
X551Y3445D02*
X580Y3445D01*
X551Y3444D02*
X579Y3444D01*
X550Y3443D02*
X578Y3443D01*
X549Y3442D02*
X577Y3442D01*
X548Y3441D02*
X577Y3441D01*
X548Y3440D02*
X576Y3440D01*
X547Y3439D02*
X575Y3439D01*
X546Y3438D02*
X575Y3438D01*
X546Y3437D02*
X574Y3437D01*
X545Y3436D02*
X573Y3436D01*
X544Y3435D02*
X573Y3435D01*
X543Y3434D02*
X572Y3434D01*
X543Y3433D02*
X571Y3433D01*
X542Y3432D02*
X571Y3432D01*
X541Y3431D02*
X570Y3431D01*
X541Y3430D02*
X569Y3430D01*
X540Y3429D02*
X568Y3429D01*
X539Y3428D02*
X568Y3428D01*
X538Y3427D02*
X567Y3427D01*
X538Y3426D02*
X566Y3426D01*
X537Y3425D02*
X566Y3425D01*
X536Y3424D02*
X565Y3424D01*
X535Y3423D02*
X564Y3423D01*
X535Y3422D02*
X563Y3422D01*
X534Y3421D02*
X563Y3421D01*
X533Y3420D02*
X562Y3420D01*
X532Y3419D02*
X561Y3419D01*
X532Y3418D02*
X560Y3418D01*
X531Y3417D02*
X560Y3417D01*
X530Y3416D02*
X559Y3416D01*
X529Y3415D02*
X558Y3415D01*
X529Y3414D02*
X558Y3414D01*
X528Y3413D02*
X557Y3413D01*
X527Y3412D02*
X556Y3412D01*
X526Y3411D02*
X555Y3411D01*
X525Y3410D02*
X555Y3410D01*
X525Y3409D02*
X554Y3409D01*
X524Y3408D02*
X553Y3408D01*
X523Y3407D02*
X552Y3407D01*
X522Y3406D02*
X552Y3406D01*
X521Y3405D02*
X551Y3405D01*
X521Y3404D02*
X550Y3404D01*
X520Y3403D02*
X549Y3403D01*
X519Y3402D02*
X548Y3402D01*
X518Y3401D02*
X548Y3401D01*
X517Y3400D02*
X547Y3400D01*
X517Y3399D02*
X546Y3399D01*
X516Y3398D02*
X545Y3398D01*
X515Y3397D02*
X545Y3397D01*
X514Y3396D02*
X544Y3396D01*
X513Y3395D02*
X543Y3395D01*
X513Y3394D02*
X542Y3394D01*
X512Y3393D02*
X542Y3393D01*
X511Y3392D02*
X541Y3392D01*
X510Y3391D02*
X540Y3391D01*
X509Y3390D02*
X539Y3390D01*
X508Y3389D02*
X538Y3389D01*
X508Y3388D02*
X538Y3388D01*
X507Y3387D02*
X537Y3387D01*
X506Y3386D02*
X536Y3386D01*
X505Y3385D02*
X535Y3385D01*
X504Y3384D02*
X534Y3384D01*
X503Y3383D02*
X534Y3383D01*
X502Y3382D02*
X533Y3382D01*
X502Y3381D02*
X532Y3381D01*
X501Y3380D02*
X531Y3380D01*
X500Y3379D02*
X530Y3379D01*
X499Y3378D02*
X529Y3378D01*
X498Y3377D02*
X529Y3377D01*
X497Y3376D02*
X528Y3376D01*
X496Y3375D02*
X527Y3375D01*
X495Y3374D02*
X526Y3374D01*
X495Y3373D02*
X525Y3373D01*
X494Y3372D02*
X524Y3372D01*
X493Y3371D02*
X524Y3371D01*
X492Y3370D02*
X523Y3370D01*
X491Y3369D02*
X522Y3369D01*
X490Y3368D02*
X521Y3368D01*
X489Y3367D02*
X520Y3367D01*
X488Y3366D02*
X519Y3366D01*
X487Y3365D02*
X518Y3365D01*
X486Y3364D02*
X518Y3364D01*
X485Y3363D02*
X517Y3363D01*
X484Y3362D02*
X516Y3362D01*
X483Y3361D02*
X515Y3361D01*
X483Y3360D02*
X514Y3360D01*
X482Y3359D02*
X513Y3359D01*
X481Y3358D02*
X512Y3358D01*
X480Y3357D02*
X511Y3357D01*
X479Y3356D02*
X510Y3356D01*
X478Y3355D02*
X510Y3355D01*
X477Y3354D02*
X509Y3354D01*
X476Y3353D02*
X508Y3353D01*
X475Y3352D02*
X507Y3352D01*
X474Y3351D02*
X506Y3351D01*
X473Y3350D02*
X505Y3350D01*
X472Y3349D02*
X504Y3349D01*
X471Y3348D02*
X503Y3348D01*
X470Y3347D02*
X502Y3347D01*
X469Y3346D02*
X501Y3346D01*
X468Y3345D02*
X500Y3345D01*
X467Y3344D02*
X499Y3344D01*
X466Y3343D02*
X498Y3343D01*
X465Y3342D02*
X497Y3342D01*
X464Y3341D02*
X497Y3341D01*
X463Y3340D02*
X496Y3340D01*
X461Y3339D02*
X495Y3339D01*
X460Y3338D02*
X494Y3338D01*
X459Y3337D02*
X493Y3337D01*
X458Y3336D02*
X492Y3336D01*
X457Y3335D02*
X491Y3335D01*
X456Y3334D02*
X490Y3334D01*
X455Y3333D02*
X489Y3333D01*
X454Y3332D02*
X488Y3332D01*
X453Y3331D02*
X487Y3331D01*
X452Y3330D02*
X486Y3330D01*
X451Y3329D02*
X485Y3329D01*
X449Y3328D02*
X484Y3328D01*
X448Y3327D02*
X483Y3327D01*
X447Y3326D02*
X482Y3326D01*
X446Y3325D02*
X481Y3325D01*
X445Y3324D02*
X480Y3324D01*
X444Y3323D02*
X478Y3323D01*
X442Y3322D02*
X477Y3322D01*
X441Y3321D02*
X476Y3321D01*
X440Y3320D02*
X475Y3320D01*
X439Y3319D02*
X474Y3319D01*
X438Y3318D02*
X473Y3318D01*
X436Y3317D02*
X472Y3317D01*
X435Y3316D02*
X471Y3316D01*
X434Y3315D02*
X470Y3315D01*
X433Y3314D02*
X469Y3314D01*
X431Y3313D02*
X468Y3313D01*
X430Y3312D02*
X467Y3312D01*
X429Y3311D02*
X465Y3311D01*
X427Y3310D02*
X464Y3310D01*
X426Y3309D02*
X463Y3309D01*
X425Y3308D02*
X462Y3308D01*
X423Y3307D02*
X461Y3307D01*
X422Y3306D02*
X460Y3306D01*
X421Y3305D02*
X458Y3305D01*
X419Y3304D02*
X457Y3304D01*
X418Y3303D02*
X456Y3303D01*
X416Y3302D02*
X455Y3302D01*
X415Y3301D02*
X454Y3301D01*
X413Y3300D02*
X452Y3300D01*
X412Y3299D02*
X451Y3299D01*
X410Y3298D02*
X450Y3298D01*
X409Y3297D02*
X449Y3297D01*
X407Y3296D02*
X447Y3296D01*
X406Y3295D02*
X446Y3295D01*
X404Y3294D02*
X445Y3294D01*
X403Y3293D02*
X444Y3293D01*
X401Y3292D02*
X442Y3292D01*
X399Y3291D02*
X441Y3291D01*
X397Y3290D02*
X440Y3290D01*
X396Y3289D02*
X438Y3289D01*
X394Y3288D02*
X437Y3288D01*
X392Y3287D02*
X436Y3287D01*
X390Y3286D02*
X434Y3286D01*
X388Y3285D02*
X433Y3285D01*
X386Y3284D02*
X431Y3284D01*
X385Y3283D02*
X430Y3283D01*
X383Y3282D02*
X428Y3282D01*
X380Y3281D02*
X427Y3281D01*
X378Y3280D02*
X426Y3280D01*
X376Y3279D02*
X424Y3279D01*
X374Y3278D02*
X422Y3278D01*
X372Y3277D02*
X421Y3277D01*
X369Y3276D02*
X419Y3276D01*
X367Y3275D02*
X418Y3275D01*
X364Y3274D02*
X416Y3274D01*
X362Y3273D02*
X415Y3273D01*
X359Y3272D02*
X413Y3272D01*
X356Y3271D02*
X411Y3271D01*
X353Y3270D02*
X410Y3270D01*
X350Y3269D02*
X408Y3269D01*
X346Y3268D02*
X406Y3268D01*
X342Y3267D02*
X405Y3267D01*
X338Y3266D02*
X403Y3266D01*
X333Y3265D02*
X401Y3265D01*
X281Y3264D02*
X286Y3264D01*
X326Y3264D02*
X399Y3264D01*
X278Y3263D02*
X295Y3263D01*
X318Y3263D02*
X397Y3263D01*
X277Y3262D02*
X395Y3262D01*
X276Y3261D02*
X393Y3261D01*
X275Y3260D02*
X391Y3260D01*
X274Y3259D02*
X389Y3259D01*
X273Y3258D02*
X387Y3258D01*
X273Y3257D02*
X385Y3257D01*
X272Y3256D02*
X383Y3256D01*
X272Y3255D02*
X380Y3255D01*
X272Y3254D02*
X378Y3254D01*
X272Y3253D02*
X375Y3253D01*
X272Y3252D02*
X373Y3252D01*
X272Y3251D02*
X370Y3251D01*
X272Y3250D02*
X368Y3250D01*
X272Y3249D02*
X365Y3249D01*
X273Y3248D02*
X361Y3248D01*
X273Y3247D02*
X358Y3247D01*
X273Y3246D02*
X355Y3246D01*
X274Y3245D02*
X351Y3245D01*
X275Y3244D02*
X347Y3244D01*
X276Y3243D02*
X343Y3243D01*
X278Y3242D02*
X338Y3242D01*
X280Y3241D02*
X333Y3241D01*
X285Y3240D02*
X326Y3240D01*
X296Y3239D02*
X315Y3239D01*
X46Y3205D02*
X54Y3205D01*
X44Y3204D02*
X56Y3204D01*
X43Y3203D02*
X57Y3203D01*
X42Y3202D02*
X58Y3202D01*
X41Y3201D02*
X59Y3201D01*
X40Y3200D02*
X60Y3200D01*
X40Y3199D02*
X60Y3199D01*
X39Y3198D02*
X61Y3198D01*
X39Y3197D02*
X61Y3197D01*
X39Y3196D02*
X61Y3196D01*
X38Y3195D02*
X62Y3195D01*
X38Y3194D02*
X62Y3194D01*
X37Y3193D02*
X62Y3193D01*
X37Y3192D02*
X61Y3192D01*
X37Y3191D02*
X61Y3191D01*
X36Y3190D02*
X61Y3190D01*
X36Y3189D02*
X61Y3189D01*
X36Y3188D02*
X60Y3188D01*
X35Y3187D02*
X60Y3187D01*
X35Y3186D02*
X60Y3186D01*
X35Y3185D02*
X59Y3185D01*
X35Y3184D02*
X59Y3184D01*
X34Y3183D02*
X58Y3183D01*
X34Y3182D02*
X58Y3182D01*
X34Y3181D02*
X58Y3181D01*
X33Y3180D02*
X57Y3180D01*
X33Y3179D02*
X57Y3179D01*
X33Y3178D02*
X57Y3178D01*
X33Y3177D02*
X57Y3177D01*
X32Y3176D02*
X56Y3176D01*
X32Y3175D02*
X56Y3175D01*
X32Y3174D02*
X56Y3174D01*
X32Y3173D02*
X55Y3173D01*
X31Y3172D02*
X55Y3172D01*
X31Y3171D02*
X55Y3171D01*
X31Y3170D02*
X55Y3170D01*
X31Y3169D02*
X54Y3169D01*
X30Y3168D02*
X54Y3168D01*
X30Y3167D02*
X54Y3167D01*
X30Y3166D02*
X54Y3166D01*
X30Y3165D02*
X53Y3165D01*
X30Y3164D02*
X53Y3164D01*
X29Y3163D02*
X53Y3163D01*
X29Y3162D02*
X53Y3162D01*
X29Y3161D02*
X52Y3161D01*
X29Y3160D02*
X52Y3160D01*
X29Y3159D02*
X52Y3159D01*
X28Y3158D02*
X52Y3158D01*
X28Y3157D02*
X52Y3157D01*
X28Y3156D02*
X51Y3156D01*
X28Y3155D02*
X51Y3155D01*
X28Y3154D02*
X51Y3154D01*
X27Y3153D02*
X51Y3153D01*
X27Y3152D02*
X51Y3152D01*
X27Y3151D02*
X50Y3151D01*
X27Y3150D02*
X50Y3150D01*
X27Y3149D02*
X50Y3149D01*
X27Y3148D02*
X50Y3148D01*
X26Y3147D02*
X50Y3147D01*
X26Y3146D02*
X50Y3146D01*
X26Y3145D02*
X49Y3145D01*
X26Y3144D02*
X49Y3144D01*
X26Y3143D02*
X49Y3143D01*
X26Y3142D02*
X49Y3142D01*
X25Y3141D02*
X49Y3141D01*
X25Y3140D02*
X49Y3140D01*
X25Y3139D02*
X48Y3139D01*
X25Y3138D02*
X48Y3138D01*
X25Y3137D02*
X48Y3137D01*
X25Y3136D02*
X48Y3136D01*
X25Y3135D02*
X48Y3135D01*
X24Y3134D02*
X48Y3134D01*
X24Y3133D02*
X47Y3133D01*
X24Y3132D02*
X47Y3132D01*
X24Y3131D02*
X47Y3131D01*
X24Y3130D02*
X47Y3130D01*
X24Y3129D02*
X47Y3129D01*
X24Y3128D02*
X47Y3128D01*
X24Y3127D02*
X47Y3127D01*
X23Y3126D02*
X47Y3126D01*
X23Y3125D02*
X46Y3125D01*
X23Y3124D02*
X46Y3124D01*
X23Y3123D02*
X46Y3123D01*
X23Y3122D02*
X46Y3122D01*
X23Y3121D02*
X46Y3121D01*
X23Y3120D02*
X46Y3120D01*
X23Y3119D02*
X46Y3119D01*
X23Y3118D02*
X46Y3118D01*
X22Y3117D02*
X46Y3117D01*
X22Y3116D02*
X45Y3116D01*
X22Y3115D02*
X45Y3115D01*
X22Y3114D02*
X45Y3114D01*
X22Y3113D02*
X45Y3113D01*
X22Y3112D02*
X45Y3112D01*
X22Y3111D02*
X45Y3111D01*
X22Y3110D02*
X45Y3110D01*
X22Y3109D02*
X45Y3109D01*
X22Y3108D02*
X45Y3108D01*
X22Y3107D02*
X45Y3107D01*
X22Y3106D02*
X45Y3106D01*
X21Y3105D02*
X45Y3105D01*
X21Y3104D02*
X44Y3104D01*
X21Y3103D02*
X44Y3103D01*
X21Y3102D02*
X44Y3102D01*
X21Y3101D02*
X44Y3101D01*
X21Y3100D02*
X44Y3100D01*
X21Y3099D02*
X44Y3099D01*
X21Y3098D02*
X44Y3098D01*
X21Y3097D02*
X44Y3097D01*
X21Y3096D02*
X44Y3096D01*
X21Y3095D02*
X44Y3095D01*
X21Y3094D02*
X44Y3094D01*
X21Y3093D02*
X44Y3093D01*
X21Y3092D02*
X44Y3092D01*
X21Y3091D02*
X44Y3091D01*
X21Y3090D02*
X44Y3090D01*
X21Y3089D02*
X44Y3089D01*
X20Y3088D02*
X44Y3088D01*
X20Y3087D02*
X43Y3087D01*
X20Y3086D02*
X43Y3086D01*
X20Y3085D02*
X43Y3085D01*
X20Y3084D02*
X43Y3084D01*
X20Y3083D02*
X43Y3083D01*
X20Y3082D02*
X43Y3082D01*
X20Y3081D02*
X43Y3081D01*
X20Y3080D02*
X43Y3080D01*
X20Y3079D02*
X43Y3079D01*
X20Y3078D02*
X43Y3078D01*
X20Y3077D02*
X43Y3077D01*
X20Y3076D02*
X43Y3076D01*
X20Y3075D02*
X43Y3075D01*
X20Y3074D02*
X43Y3074D01*
X20Y3073D02*
X43Y3073D01*
X20Y3072D02*
X43Y3072D01*
X20Y3071D02*
X43Y3071D01*
X20Y3070D02*
X43Y3070D01*
X20Y3069D02*
X43Y3069D01*
X20Y3068D02*
X43Y3068D01*
X20Y3067D02*
X43Y3067D01*
X20Y3066D02*
X43Y3066D01*
X20Y3065D02*
X43Y3065D01*
X20Y3064D02*
X43Y3064D01*
X20Y3063D02*
X43Y3063D01*
X20Y3062D02*
X43Y3062D01*
X20Y3061D02*
X43Y3061D01*
X20Y3060D02*
X43Y3060D01*
X20Y3059D02*
X43Y3059D01*
X20Y3058D02*
X43Y3058D01*
X20Y3057D02*
X43Y3057D01*
X20Y3056D02*
X43Y3056D01*
X20Y3055D02*
X43Y3055D01*
X20Y3054D02*
X43Y3054D01*
X20Y3053D02*
X43Y3053D01*
X20Y3052D02*
X43Y3052D01*
X20Y3051D02*
X43Y3051D01*
X20Y3050D02*
X43Y3050D01*
X20Y3049D02*
X43Y3049D01*
X20Y3048D02*
X43Y3048D01*
X20Y3047D02*
X43Y3047D01*
X20Y3046D02*
X43Y3046D01*
X20Y3045D02*
X43Y3045D01*
X20Y3044D02*
X43Y3044D01*
X20Y3043D02*
X43Y3043D01*
X20Y3042D02*
X43Y3042D01*
X20Y3041D02*
X43Y3041D01*
X20Y3040D02*
X43Y3040D01*
X20Y3039D02*
X43Y3039D01*
X20Y3038D02*
X43Y3038D01*
X21Y3037D02*
X43Y3037D01*
X21Y3036D02*
X43Y3036D01*
X346Y3036D02*
X351Y3036D01*
X21Y3035D02*
X44Y3035D01*
X344Y3035D02*
X355Y3035D01*
X21Y3034D02*
X44Y3034D01*
X342Y3034D02*
X359Y3034D01*
X21Y3033D02*
X44Y3033D01*
X341Y3033D02*
X362Y3033D01*
X21Y3032D02*
X44Y3032D01*
X340Y3032D02*
X366Y3032D01*
X21Y3031D02*
X44Y3031D01*
X339Y3031D02*
X369Y3031D01*
X21Y3030D02*
X44Y3030D01*
X339Y3030D02*
X373Y3030D01*
X21Y3029D02*
X44Y3029D01*
X338Y3029D02*
X376Y3029D01*
X21Y3028D02*
X44Y3028D01*
X338Y3028D02*
X379Y3028D01*
X21Y3027D02*
X44Y3027D01*
X338Y3027D02*
X382Y3027D01*
X21Y3026D02*
X44Y3026D01*
X337Y3026D02*
X385Y3026D01*
X21Y3025D02*
X44Y3025D01*
X337Y3025D02*
X388Y3025D01*
X21Y3024D02*
X44Y3024D01*
X337Y3024D02*
X391Y3024D01*
X21Y3023D02*
X44Y3023D01*
X337Y3023D02*
X394Y3023D01*
X21Y3022D02*
X44Y3022D01*
X337Y3022D02*
X397Y3022D01*
X21Y3021D02*
X44Y3021D01*
X338Y3021D02*
X400Y3021D01*
X21Y3020D02*
X44Y3020D01*
X338Y3020D02*
X402Y3020D01*
X21Y3019D02*
X44Y3019D01*
X339Y3019D02*
X405Y3019D01*
X21Y3018D02*
X44Y3018D01*
X339Y3018D02*
X408Y3018D01*
X22Y3017D02*
X45Y3017D01*
X340Y3017D02*
X410Y3017D01*
X22Y3016D02*
X45Y3016D01*
X341Y3016D02*
X413Y3016D01*
X22Y3015D02*
X45Y3015D01*
X342Y3015D02*
X416Y3015D01*
X22Y3014D02*
X45Y3014D01*
X343Y3014D02*
X418Y3014D01*
X22Y3013D02*
X45Y3013D01*
X346Y3013D02*
X421Y3013D01*
X22Y3012D02*
X45Y3012D01*
X349Y3012D02*
X423Y3012D01*
X22Y3011D02*
X45Y3011D01*
X353Y3011D02*
X426Y3011D01*
X22Y3010D02*
X45Y3010D01*
X357Y3010D02*
X428Y3010D01*
X22Y3009D02*
X45Y3009D01*
X360Y3009D02*
X431Y3009D01*
X22Y3008D02*
X45Y3008D01*
X363Y3008D02*
X433Y3008D01*
X22Y3007D02*
X45Y3007D01*
X367Y3007D02*
X436Y3007D01*
X22Y3006D02*
X45Y3006D01*
X370Y3006D02*
X438Y3006D01*
X22Y3005D02*
X45Y3005D01*
X373Y3005D02*
X440Y3005D01*
X22Y3004D02*
X45Y3004D01*
X376Y3004D02*
X443Y3004D01*
X23Y3003D02*
X46Y3003D01*
X379Y3003D02*
X445Y3003D01*
X23Y3002D02*
X46Y3002D01*
X382Y3002D02*
X447Y3002D01*
X23Y3001D02*
X46Y3001D01*
X385Y3001D02*
X450Y3001D01*
X23Y3000D02*
X46Y3000D01*
X388Y3000D02*
X452Y3000D01*
X23Y2999D02*
X46Y2999D01*
X391Y2999D02*
X454Y2999D01*
X23Y2998D02*
X46Y2998D01*
X394Y2998D02*
X457Y2998D01*
X23Y2997D02*
X46Y2997D01*
X396Y2997D02*
X459Y2997D01*
X23Y2996D02*
X46Y2996D01*
X399Y2996D02*
X461Y2996D01*
X23Y2995D02*
X46Y2995D01*
X402Y2995D02*
X463Y2995D01*
X23Y2994D02*
X46Y2994D01*
X404Y2994D02*
X465Y2994D01*
X23Y2993D02*
X46Y2993D01*
X407Y2993D02*
X467Y2993D01*
X24Y2992D02*
X47Y2992D01*
X410Y2992D02*
X470Y2992D01*
X24Y2991D02*
X47Y2991D01*
X412Y2991D02*
X472Y2991D01*
X24Y2990D02*
X47Y2990D01*
X415Y2990D02*
X474Y2990D01*
X24Y2989D02*
X47Y2989D01*
X417Y2989D02*
X476Y2989D01*
X24Y2988D02*
X47Y2988D01*
X420Y2988D02*
X478Y2988D01*
X24Y2987D02*
X47Y2987D01*
X422Y2987D02*
X480Y2987D01*
X24Y2986D02*
X47Y2986D01*
X425Y2986D02*
X482Y2986D01*
X24Y2985D02*
X47Y2985D01*
X427Y2985D02*
X484Y2985D01*
X24Y2984D02*
X47Y2984D01*
X430Y2984D02*
X486Y2984D01*
X24Y2983D02*
X48Y2983D01*
X432Y2983D02*
X488Y2983D01*
X25Y2982D02*
X48Y2982D01*
X434Y2982D02*
X490Y2982D01*
X25Y2981D02*
X48Y2981D01*
X436Y2981D02*
X492Y2981D01*
X25Y2980D02*
X48Y2980D01*
X439Y2980D02*
X494Y2980D01*
X25Y2979D02*
X48Y2979D01*
X441Y2979D02*
X496Y2979D01*
X25Y2978D02*
X48Y2978D01*
X443Y2978D02*
X498Y2978D01*
X25Y2977D02*
X48Y2977D01*
X446Y2977D02*
X500Y2977D01*
X25Y2976D02*
X48Y2976D01*
X448Y2976D02*
X502Y2976D01*
X25Y2975D02*
X48Y2975D01*
X450Y2975D02*
X504Y2975D01*
X25Y2974D02*
X49Y2974D01*
X452Y2974D02*
X506Y2974D01*
X26Y2973D02*
X49Y2973D01*
X455Y2973D02*
X508Y2973D01*
X26Y2972D02*
X49Y2972D01*
X457Y2972D02*
X510Y2972D01*
X26Y2971D02*
X49Y2971D01*
X459Y2971D02*
X511Y2971D01*
X26Y2970D02*
X49Y2970D01*
X461Y2970D02*
X513Y2970D01*
X26Y2969D02*
X49Y2969D01*
X463Y2969D02*
X515Y2969D01*
X26Y2968D02*
X49Y2968D01*
X465Y2968D02*
X517Y2968D01*
X26Y2967D02*
X49Y2967D01*
X467Y2967D02*
X519Y2967D01*
X26Y2966D02*
X50Y2966D01*
X469Y2966D02*
X521Y2966D01*
X27Y2965D02*
X50Y2965D01*
X472Y2965D02*
X522Y2965D01*
X27Y2964D02*
X50Y2964D01*
X474Y2964D02*
X524Y2964D01*
X27Y2963D02*
X50Y2963D01*
X476Y2963D02*
X526Y2963D01*
X27Y2962D02*
X50Y2962D01*
X478Y2962D02*
X528Y2962D01*
X27Y2961D02*
X50Y2961D01*
X480Y2961D02*
X529Y2961D01*
X27Y2960D02*
X50Y2960D01*
X481Y2960D02*
X531Y2960D01*
X27Y2959D02*
X50Y2959D01*
X483Y2959D02*
X533Y2959D01*
X27Y2958D02*
X51Y2958D01*
X485Y2958D02*
X535Y2958D01*
X28Y2957D02*
X51Y2957D01*
X487Y2957D02*
X536Y2957D01*
X28Y2956D02*
X51Y2956D01*
X489Y2956D02*
X538Y2956D01*
X28Y2955D02*
X51Y2955D01*
X491Y2955D02*
X540Y2955D01*
X28Y2954D02*
X51Y2954D01*
X493Y2954D02*
X541Y2954D01*
X28Y2953D02*
X51Y2953D01*
X495Y2953D02*
X543Y2953D01*
X28Y2952D02*
X51Y2952D01*
X497Y2952D02*
X545Y2952D01*
X28Y2951D02*
X52Y2951D01*
X499Y2951D02*
X546Y2951D01*
X29Y2950D02*
X52Y2950D01*
X501Y2950D02*
X548Y2950D01*
X29Y2949D02*
X52Y2949D01*
X503Y2949D02*
X550Y2949D01*
X29Y2948D02*
X52Y2948D01*
X505Y2948D02*
X551Y2948D01*
X29Y2947D02*
X52Y2947D01*
X506Y2947D02*
X553Y2947D01*
X29Y2946D02*
X52Y2946D01*
X508Y2946D02*
X555Y2946D01*
X29Y2945D02*
X52Y2945D01*
X510Y2945D02*
X556Y2945D01*
X29Y2944D02*
X53Y2944D01*
X512Y2944D02*
X558Y2944D01*
X30Y2943D02*
X53Y2943D01*
X514Y2943D02*
X559Y2943D01*
X30Y2942D02*
X53Y2942D01*
X515Y2942D02*
X561Y2942D01*
X30Y2941D02*
X53Y2941D01*
X517Y2941D02*
X563Y2941D01*
X30Y2940D02*
X53Y2940D01*
X519Y2940D02*
X564Y2940D01*
X30Y2939D02*
X53Y2939D01*
X521Y2939D02*
X566Y2939D01*
X30Y2938D02*
X54Y2938D01*
X522Y2938D02*
X567Y2938D01*
X30Y2937D02*
X54Y2937D01*
X524Y2937D02*
X569Y2937D01*
X31Y2936D02*
X54Y2936D01*
X526Y2936D02*
X570Y2936D01*
X31Y2935D02*
X54Y2935D01*
X528Y2935D02*
X572Y2935D01*
X31Y2934D02*
X54Y2934D01*
X529Y2934D02*
X573Y2934D01*
X31Y2933D02*
X54Y2933D01*
X531Y2933D02*
X575Y2933D01*
X31Y2932D02*
X55Y2932D01*
X533Y2932D02*
X576Y2932D01*
X31Y2931D02*
X55Y2931D01*
X534Y2931D02*
X578Y2931D01*
X32Y2930D02*
X55Y2930D01*
X536Y2930D02*
X580Y2930D01*
X32Y2929D02*
X55Y2929D01*
X538Y2929D02*
X581Y2929D01*
X32Y2928D02*
X55Y2928D01*
X539Y2928D02*
X582Y2928D01*
X32Y2927D02*
X55Y2927D01*
X541Y2927D02*
X584Y2927D01*
X32Y2926D02*
X56Y2926D01*
X542Y2926D02*
X585Y2926D01*
X32Y2925D02*
X56Y2925D01*
X544Y2925D02*
X587Y2925D01*
X33Y2924D02*
X56Y2924D01*
X546Y2924D02*
X588Y2924D01*
X33Y2923D02*
X56Y2923D01*
X547Y2923D02*
X590Y2923D01*
X33Y2922D02*
X56Y2922D01*
X549Y2922D02*
X591Y2922D01*
X33Y2921D02*
X56Y2921D01*
X550Y2921D02*
X593Y2921D01*
X33Y2920D02*
X57Y2920D01*
X552Y2920D02*
X594Y2920D01*
X33Y2919D02*
X57Y2919D01*
X554Y2919D02*
X596Y2919D01*
X34Y2918D02*
X57Y2918D01*
X555Y2918D02*
X597Y2918D01*
X34Y2917D02*
X78Y2917D01*
X557Y2917D02*
X598Y2917D01*
X34Y2916D02*
X85Y2916D01*
X558Y2916D02*
X600Y2916D01*
X34Y2915D02*
X91Y2915D01*
X560Y2915D02*
X601Y2915D01*
X34Y2914D02*
X96Y2914D01*
X561Y2914D02*
X602Y2914D01*
X34Y2913D02*
X100Y2913D01*
X563Y2913D02*
X604Y2913D01*
X35Y2912D02*
X104Y2912D01*
X564Y2912D02*
X605Y2912D01*
X35Y2911D02*
X108Y2911D01*
X566Y2911D02*
X607Y2911D01*
X35Y2910D02*
X112Y2910D01*
X567Y2910D02*
X608Y2910D01*
X35Y2909D02*
X116Y2909D01*
X569Y2909D02*
X609Y2909D01*
X35Y2908D02*
X119Y2908D01*
X570Y2908D02*
X611Y2908D01*
X36Y2907D02*
X123Y2907D01*
X572Y2907D02*
X612Y2907D01*
X35Y2906D02*
X126Y2906D01*
X573Y2906D02*
X613Y2906D01*
X34Y2905D02*
X129Y2905D01*
X575Y2905D02*
X615Y2905D01*
X34Y2904D02*
X132Y2904D01*
X576Y2904D02*
X616Y2904D01*
X33Y2903D02*
X135Y2903D01*
X578Y2903D02*
X617Y2903D01*
X32Y2902D02*
X138Y2902D01*
X579Y2902D02*
X619Y2902D01*
X32Y2901D02*
X141Y2901D01*
X581Y2901D02*
X620Y2901D01*
X32Y2900D02*
X144Y2900D01*
X582Y2900D02*
X621Y2900D01*
X31Y2899D02*
X147Y2899D01*
X583Y2899D02*
X623Y2899D01*
X31Y2898D02*
X150Y2898D01*
X585Y2898D02*
X624Y2898D01*
X31Y2897D02*
X153Y2897D01*
X586Y2897D02*
X625Y2897D01*
X31Y2896D02*
X155Y2896D01*
X587Y2896D02*
X626Y2896D01*
X31Y2895D02*
X158Y2895D01*
X589Y2895D02*
X628Y2895D01*
X31Y2894D02*
X161Y2894D01*
X590Y2894D02*
X629Y2894D01*
X31Y2893D02*
X62Y2893D01*
X77Y2893D02*
X164Y2893D01*
X592Y2893D02*
X630Y2893D01*
X31Y2892D02*
X62Y2892D01*
X84Y2892D02*
X166Y2892D01*
X593Y2892D02*
X632Y2892D01*
X31Y2891D02*
X62Y2891D01*
X89Y2891D02*
X169Y2891D01*
X594Y2891D02*
X633Y2891D01*
X31Y2890D02*
X62Y2890D01*
X94Y2890D02*
X171Y2890D01*
X596Y2890D02*
X634Y2890D01*
X31Y2889D02*
X62Y2889D01*
X98Y2889D02*
X174Y2889D01*
X597Y2889D02*
X635Y2889D01*
X31Y2888D02*
X63Y2888D01*
X102Y2888D02*
X176Y2888D01*
X598Y2888D02*
X637Y2888D01*
X32Y2887D02*
X63Y2887D01*
X107Y2887D02*
X179Y2887D01*
X600Y2887D02*
X638Y2887D01*
X32Y2886D02*
X63Y2886D01*
X110Y2886D02*
X181Y2886D01*
X601Y2886D02*
X639Y2886D01*
X32Y2885D02*
X63Y2885D01*
X113Y2885D02*
X184Y2885D01*
X602Y2885D02*
X640Y2885D01*
X33Y2884D02*
X63Y2884D01*
X117Y2884D02*
X186Y2884D01*
X604Y2884D02*
X641Y2884D01*
X33Y2883D02*
X64Y2883D01*
X120Y2883D02*
X189Y2883D01*
X605Y2883D02*
X643Y2883D01*
X34Y2882D02*
X64Y2882D01*
X124Y2882D02*
X191Y2882D01*
X606Y2882D02*
X644Y2882D01*
X34Y2881D02*
X64Y2881D01*
X127Y2881D02*
X194Y2881D01*
X608Y2881D02*
X645Y2881D01*
X35Y2880D02*
X64Y2880D01*
X130Y2880D02*
X196Y2880D01*
X609Y2880D02*
X646Y2880D01*
X35Y2879D02*
X64Y2879D01*
X133Y2879D02*
X198Y2879D01*
X610Y2879D02*
X647Y2879D01*
X36Y2878D02*
X64Y2878D01*
X136Y2878D02*
X201Y2878D01*
X612Y2878D02*
X649Y2878D01*
X37Y2877D02*
X63Y2877D01*
X139Y2877D02*
X203Y2877D01*
X613Y2877D02*
X650Y2877D01*
X38Y2876D02*
X63Y2876D01*
X141Y2876D02*
X205Y2876D01*
X614Y2876D02*
X651Y2876D01*
X39Y2875D02*
X62Y2875D01*
X144Y2875D02*
X208Y2875D01*
X615Y2875D02*
X652Y2875D01*
X40Y2874D02*
X62Y2874D01*
X147Y2874D02*
X210Y2874D01*
X617Y2874D02*
X653Y2874D01*
X41Y2873D02*
X61Y2873D01*
X150Y2873D02*
X212Y2873D01*
X618Y2873D02*
X655Y2873D01*
X43Y2872D02*
X60Y2872D01*
X152Y2872D02*
X215Y2872D01*
X619Y2872D02*
X656Y2872D01*
X44Y2871D02*
X59Y2871D01*
X155Y2871D02*
X217Y2871D01*
X620Y2871D02*
X657Y2871D01*
X47Y2870D02*
X57Y2870D01*
X158Y2870D02*
X219Y2870D01*
X622Y2870D02*
X658Y2870D01*
X51Y2869D02*
X54Y2869D01*
X160Y2869D02*
X222Y2869D01*
X623Y2869D02*
X659Y2869D01*
X163Y2868D02*
X224Y2868D01*
X624Y2868D02*
X660Y2868D01*
X165Y2867D02*
X226Y2867D01*
X625Y2867D02*
X661Y2867D01*
X168Y2866D02*
X228Y2866D01*
X627Y2866D02*
X663Y2866D01*
X170Y2865D02*
X230Y2865D01*
X628Y2865D02*
X664Y2865D01*
X173Y2864D02*
X233Y2864D01*
X629Y2864D02*
X665Y2864D01*
X175Y2863D02*
X235Y2863D01*
X630Y2863D02*
X666Y2863D01*
X178Y2862D02*
X237Y2862D01*
X631Y2862D02*
X667Y2862D01*
X180Y2861D02*
X239Y2861D01*
X633Y2861D02*
X668Y2861D01*
X183Y2860D02*
X241Y2860D01*
X634Y2860D02*
X669Y2860D01*
X185Y2859D02*
X244Y2859D01*
X635Y2859D02*
X670Y2859D01*
X188Y2858D02*
X246Y2858D01*
X636Y2858D02*
X671Y2858D01*
X190Y2857D02*
X248Y2857D01*
X637Y2857D02*
X673Y2857D01*
X192Y2856D02*
X250Y2856D01*
X639Y2856D02*
X674Y2856D01*
X195Y2855D02*
X252Y2855D01*
X640Y2855D02*
X675Y2855D01*
X197Y2854D02*
X254Y2854D01*
X641Y2854D02*
X676Y2854D01*
X199Y2853D02*
X256Y2853D01*
X642Y2853D02*
X677Y2853D01*
X202Y2852D02*
X259Y2852D01*
X643Y2852D02*
X678Y2852D01*
X204Y2851D02*
X261Y2851D01*
X644Y2851D02*
X679Y2851D01*
X206Y2850D02*
X263Y2850D01*
X645Y2850D02*
X680Y2850D01*
X208Y2849D02*
X265Y2849D01*
X647Y2849D02*
X681Y2849D01*
X211Y2848D02*
X267Y2848D01*
X648Y2848D02*
X682Y2848D01*
X213Y2847D02*
X269Y2847D01*
X649Y2847D02*
X683Y2847D01*
X215Y2846D02*
X271Y2846D01*
X650Y2846D02*
X684Y2846D01*
X217Y2845D02*
X273Y2845D01*
X651Y2845D02*
X685Y2845D01*
X220Y2844D02*
X275Y2844D01*
X652Y2844D02*
X686Y2844D01*
X222Y2843D02*
X277Y2843D01*
X653Y2843D02*
X687Y2843D01*
X224Y2842D02*
X279Y2842D01*
X654Y2842D02*
X688Y2842D01*
X226Y2841D02*
X281Y2841D01*
X656Y2841D02*
X689Y2841D01*
X228Y2840D02*
X284Y2840D01*
X657Y2840D02*
X691Y2840D01*
X231Y2839D02*
X286Y2839D01*
X658Y2839D02*
X692Y2839D01*
X233Y2838D02*
X288Y2838D01*
X659Y2838D02*
X693Y2838D01*
X235Y2837D02*
X290Y2837D01*
X660Y2837D02*
X694Y2837D01*
X237Y2836D02*
X292Y2836D01*
X661Y2836D02*
X695Y2836D01*
X239Y2835D02*
X294Y2835D01*
X662Y2835D02*
X696Y2835D01*
X242Y2834D02*
X296Y2834D01*
X663Y2834D02*
X697Y2834D01*
X244Y2833D02*
X298Y2833D01*
X664Y2833D02*
X698Y2833D01*
X246Y2832D02*
X300Y2832D01*
X665Y2832D02*
X699Y2832D01*
X248Y2831D02*
X302Y2831D01*
X666Y2831D02*
X700Y2831D01*
X250Y2830D02*
X304Y2830D01*
X667Y2830D02*
X701Y2830D01*
X252Y2829D02*
X306Y2829D01*
X668Y2829D02*
X701Y2829D01*
X254Y2828D02*
X308Y2828D01*
X669Y2828D02*
X702Y2828D01*
X256Y2827D02*
X310Y2827D01*
X670Y2827D02*
X703Y2827D01*
X258Y2826D02*
X312Y2826D01*
X671Y2826D02*
X704Y2826D01*
X260Y2825D02*
X314Y2825D01*
X673Y2825D02*
X705Y2825D01*
X262Y2824D02*
X316Y2824D01*
X674Y2824D02*
X706Y2824D01*
X264Y2823D02*
X318Y2823D01*
X675Y2823D02*
X707Y2823D01*
X267Y2822D02*
X320Y2822D01*
X676Y2822D02*
X708Y2822D01*
X269Y2821D02*
X322Y2821D01*
X677Y2821D02*
X709Y2821D01*
X271Y2820D02*
X323Y2820D01*
X678Y2820D02*
X710Y2820D01*
X273Y2819D02*
X325Y2819D01*
X679Y2819D02*
X711Y2819D01*
X275Y2818D02*
X327Y2818D01*
X680Y2818D02*
X712Y2818D01*
X277Y2817D02*
X329Y2817D01*
X681Y2817D02*
X713Y2817D01*
X279Y2816D02*
X331Y2816D01*
X682Y2816D02*
X714Y2816D01*
X281Y2815D02*
X333Y2815D01*
X683Y2815D02*
X715Y2815D01*
X283Y2814D02*
X335Y2814D01*
X684Y2814D02*
X716Y2814D01*
X285Y2813D02*
X337Y2813D01*
X685Y2813D02*
X717Y2813D01*
X287Y2812D02*
X339Y2812D01*
X686Y2812D02*
X718Y2812D01*
X289Y2811D02*
X341Y2811D01*
X687Y2811D02*
X718Y2811D01*
X291Y2810D02*
X343Y2810D01*
X688Y2810D02*
X719Y2810D01*
X293Y2809D02*
X345Y2809D01*
X689Y2809D02*
X720Y2809D01*
X295Y2808D02*
X347Y2808D01*
X689Y2808D02*
X721Y2808D01*
X297Y2807D02*
X349Y2807D01*
X690Y2807D02*
X722Y2807D01*
X299Y2806D02*
X350Y2806D01*
X691Y2806D02*
X723Y2806D01*
X301Y2805D02*
X352Y2805D01*
X692Y2805D02*
X724Y2805D01*
X303Y2804D02*
X354Y2804D01*
X693Y2804D02*
X725Y2804D01*
X305Y2803D02*
X356Y2803D01*
X694Y2803D02*
X726Y2803D01*
X307Y2802D02*
X358Y2802D01*
X695Y2802D02*
X727Y2802D01*
X309Y2801D02*
X360Y2801D01*
X696Y2801D02*
X727Y2801D01*
X311Y2800D02*
X362Y2800D01*
X697Y2800D02*
X728Y2800D01*
X313Y2799D02*
X364Y2799D01*
X698Y2799D02*
X729Y2799D01*
X315Y2798D02*
X366Y2798D01*
X699Y2798D02*
X730Y2798D01*
X317Y2797D02*
X368Y2797D01*
X700Y2797D02*
X731Y2797D01*
X319Y2796D02*
X369Y2796D01*
X701Y2796D02*
X732Y2796D01*
X321Y2795D02*
X371Y2795D01*
X702Y2795D02*
X733Y2795D01*
X322Y2794D02*
X373Y2794D01*
X703Y2794D02*
X734Y2794D01*
X324Y2793D02*
X375Y2793D01*
X704Y2793D02*
X734Y2793D01*
X326Y2792D02*
X377Y2792D01*
X704Y2792D02*
X735Y2792D01*
X328Y2791D02*
X379Y2791D01*
X705Y2791D02*
X736Y2791D01*
X330Y2790D02*
X381Y2790D01*
X706Y2790D02*
X737Y2790D01*
X332Y2789D02*
X382Y2789D01*
X707Y2789D02*
X738Y2789D01*
X334Y2788D02*
X384Y2788D01*
X708Y2788D02*
X739Y2788D01*
X336Y2787D02*
X386Y2787D01*
X709Y2787D02*
X739Y2787D01*
X338Y2786D02*
X388Y2786D01*
X710Y2786D02*
X740Y2786D01*
X340Y2785D02*
X390Y2785D01*
X711Y2785D02*
X741Y2785D01*
X342Y2784D02*
X392Y2784D01*
X712Y2784D02*
X742Y2784D01*
X344Y2783D02*
X394Y2783D01*
X712Y2783D02*
X743Y2783D01*
X346Y2782D02*
X396Y2782D01*
X713Y2782D02*
X744Y2782D01*
X348Y2781D02*
X397Y2781D01*
X714Y2781D02*
X744Y2781D01*
X349Y2780D02*
X399Y2780D01*
X715Y2780D02*
X745Y2780D01*
X351Y2779D02*
X401Y2779D01*
X716Y2779D02*
X746Y2779D01*
X353Y2778D02*
X403Y2778D01*
X717Y2778D02*
X747Y2778D01*
X355Y2777D02*
X405Y2777D01*
X718Y2777D02*
X748Y2777D01*
X357Y2776D02*
X407Y2776D01*
X718Y2776D02*
X748Y2776D01*
X359Y2775D02*
X408Y2775D01*
X719Y2775D02*
X749Y2775D01*
X361Y2774D02*
X410Y2774D01*
X720Y2774D02*
X750Y2774D01*
X363Y2773D02*
X412Y2773D01*
X721Y2773D02*
X751Y2773D01*
X364Y2772D02*
X414Y2772D01*
X722Y2772D02*
X752Y2772D01*
X366Y2771D02*
X416Y2771D01*
X723Y2771D02*
X752Y2771D01*
X368Y2770D02*
X417Y2770D01*
X723Y2770D02*
X753Y2770D01*
X370Y2769D02*
X419Y2769D01*
X724Y2769D02*
X754Y2769D01*
X372Y2768D02*
X421Y2768D01*
X725Y2768D02*
X755Y2768D01*
X374Y2767D02*
X423Y2767D01*
X726Y2767D02*
X755Y2767D01*
X376Y2766D02*
X425Y2766D01*
X727Y2766D02*
X756Y2766D01*
X377Y2765D02*
X427Y2765D01*
X728Y2765D02*
X757Y2765D01*
X379Y2764D02*
X428Y2764D01*
X728Y2764D02*
X758Y2764D01*
X381Y2763D02*
X430Y2763D01*
X729Y2763D02*
X759Y2763D01*
X383Y2762D02*
X432Y2762D01*
X730Y2762D02*
X759Y2762D01*
X385Y2761D02*
X434Y2761D01*
X731Y2761D02*
X760Y2761D01*
X387Y2760D02*
X436Y2760D01*
X732Y2760D02*
X761Y2760D01*
X389Y2759D02*
X437Y2759D01*
X732Y2759D02*
X762Y2759D01*
X391Y2758D02*
X439Y2758D01*
X733Y2758D02*
X762Y2758D01*
X392Y2757D02*
X441Y2757D01*
X734Y2757D02*
X763Y2757D01*
X394Y2756D02*
X443Y2756D01*
X735Y2756D02*
X764Y2756D01*
X396Y2755D02*
X445Y2755D01*
X736Y2755D02*
X765Y2755D01*
X398Y2754D02*
X447Y2754D01*
X736Y2754D02*
X765Y2754D01*
X400Y2753D02*
X448Y2753D01*
X737Y2753D02*
X766Y2753D01*
X401Y2752D02*
X450Y2752D01*
X738Y2752D02*
X767Y2752D01*
X403Y2751D02*
X452Y2751D01*
X739Y2751D02*
X767Y2751D01*
X405Y2750D02*
X454Y2750D01*
X739Y2750D02*
X768Y2750D01*
X407Y2749D02*
X455Y2749D01*
X740Y2749D02*
X769Y2749D01*
X409Y2748D02*
X457Y2748D01*
X741Y2748D02*
X770Y2748D01*
X411Y2747D02*
X459Y2747D01*
X742Y2747D02*
X770Y2747D01*
X412Y2746D02*
X461Y2746D01*
X743Y2746D02*
X771Y2746D01*
X414Y2745D02*
X462Y2745D01*
X743Y2745D02*
X772Y2745D01*
X416Y2744D02*
X464Y2744D01*
X744Y2744D02*
X773Y2744D01*
X418Y2743D02*
X466Y2743D01*
X745Y2743D02*
X773Y2743D01*
X420Y2742D02*
X468Y2742D01*
X746Y2742D02*
X774Y2742D01*
X421Y2741D02*
X470Y2741D01*
X746Y2741D02*
X775Y2741D01*
X423Y2740D02*
X471Y2740D01*
X747Y2740D02*
X775Y2740D01*
X425Y2739D02*
X473Y2739D01*
X748Y2739D02*
X776Y2739D01*
X427Y2738D02*
X475Y2738D01*
X748Y2738D02*
X777Y2738D01*
X429Y2737D02*
X477Y2737D01*
X749Y2737D02*
X777Y2737D01*
X430Y2736D02*
X478Y2736D01*
X750Y2736D02*
X778Y2736D01*
X432Y2735D02*
X480Y2735D01*
X751Y2735D02*
X779Y2735D01*
X434Y2734D02*
X482Y2734D01*
X751Y2734D02*
X780Y2734D01*
X436Y2733D02*
X484Y2733D01*
X752Y2733D02*
X780Y2733D01*
X438Y2732D02*
X485Y2732D01*
X753Y2732D02*
X781Y2732D01*
X439Y2731D02*
X487Y2731D01*
X754Y2731D02*
X782Y2731D01*
X441Y2730D02*
X489Y2730D01*
X754Y2730D02*
X782Y2730D01*
X443Y2729D02*
X491Y2729D01*
X755Y2729D02*
X783Y2729D01*
X445Y2728D02*
X493Y2728D01*
X756Y2728D02*
X784Y2728D01*
X447Y2727D02*
X494Y2727D01*
X756Y2727D02*
X784Y2727D01*
X448Y2726D02*
X496Y2726D01*
X757Y2726D02*
X785Y2726D01*
X450Y2725D02*
X498Y2725D01*
X758Y2725D02*
X786Y2725D01*
X452Y2724D02*
X500Y2724D01*
X759Y2724D02*
X786Y2724D01*
X454Y2723D02*
X501Y2723D01*
X759Y2723D02*
X787Y2723D01*
X455Y2722D02*
X503Y2722D01*
X760Y2722D02*
X788Y2722D01*
X457Y2721D02*
X505Y2721D01*
X761Y2721D02*
X788Y2721D01*
X459Y2720D02*
X506Y2720D01*
X761Y2720D02*
X789Y2720D01*
X461Y2719D02*
X508Y2719D01*
X762Y2719D02*
X790Y2719D01*
X462Y2718D02*
X510Y2718D01*
X763Y2718D02*
X790Y2718D01*
X464Y2717D02*
X512Y2717D01*
X763Y2717D02*
X791Y2717D01*
X466Y2716D02*
X513Y2716D01*
X764Y2716D02*
X791Y2716D01*
X468Y2715D02*
X515Y2715D01*
X765Y2715D02*
X792Y2715D01*
X470Y2714D02*
X517Y2714D01*
X765Y2714D02*
X793Y2714D01*
X471Y2713D02*
X519Y2713D01*
X766Y2713D02*
X793Y2713D01*
X473Y2712D02*
X520Y2712D01*
X767Y2712D02*
X794Y2712D01*
X475Y2711D02*
X522Y2711D01*
X767Y2711D02*
X795Y2711D01*
X477Y2710D02*
X524Y2710D01*
X768Y2710D02*
X795Y2710D01*
X478Y2709D02*
X525Y2709D01*
X769Y2709D02*
X796Y2709D01*
X480Y2708D02*
X527Y2708D01*
X769Y2708D02*
X796Y2708D01*
X482Y2707D02*
X529Y2707D01*
X770Y2707D02*
X797Y2707D01*
X484Y2706D02*
X531Y2706D01*
X771Y2706D02*
X798Y2706D01*
X485Y2705D02*
X532Y2705D01*
X771Y2705D02*
X798Y2705D01*
X487Y2704D02*
X534Y2704D01*
X772Y2704D02*
X799Y2704D01*
X489Y2703D02*
X536Y2703D01*
X772Y2703D02*
X800Y2703D01*
X491Y2702D02*
X538Y2702D01*
X773Y2702D02*
X800Y2702D01*
X492Y2701D02*
X539Y2701D01*
X774Y2701D02*
X801Y2701D01*
X494Y2700D02*
X541Y2700D01*
X774Y2700D02*
X801Y2700D01*
X496Y2699D02*
X543Y2699D01*
X775Y2699D02*
X802Y2699D01*
X498Y2698D02*
X544Y2698D01*
X776Y2698D02*
X803Y2698D01*
X499Y2697D02*
X546Y2697D01*
X776Y2697D02*
X803Y2697D01*
X501Y2696D02*
X548Y2696D01*
X777Y2696D02*
X804Y2696D01*
X503Y2695D02*
X550Y2695D01*
X777Y2695D02*
X804Y2695D01*
X504Y2694D02*
X551Y2694D01*
X778Y2694D02*
X805Y2694D01*
X506Y2693D02*
X553Y2693D01*
X779Y2693D02*
X806Y2693D01*
X508Y2692D02*
X555Y2692D01*
X779Y2692D02*
X806Y2692D01*
X510Y2691D02*
X556Y2691D01*
X780Y2691D02*
X807Y2691D01*
X511Y2690D02*
X558Y2690D01*
X781Y2690D02*
X807Y2690D01*
X513Y2689D02*
X560Y2689D01*
X781Y2689D02*
X808Y2689D01*
X515Y2688D02*
X562Y2688D01*
X782Y2688D02*
X808Y2688D01*
X517Y2687D02*
X563Y2687D01*
X782Y2687D02*
X809Y2687D01*
X518Y2686D02*
X565Y2686D01*
X783Y2686D02*
X810Y2686D01*
X520Y2685D02*
X567Y2685D01*
X784Y2685D02*
X810Y2685D01*
X522Y2684D02*
X568Y2684D01*
X784Y2684D02*
X811Y2684D01*
X523Y2683D02*
X570Y2683D01*
X785Y2683D02*
X811Y2683D01*
X525Y2682D02*
X572Y2682D01*
X785Y2682D02*
X812Y2682D01*
X527Y2681D02*
X573Y2681D01*
X786Y2681D02*
X813Y2681D01*
X529Y2680D02*
X575Y2680D01*
X787Y2680D02*
X813Y2680D01*
X530Y2679D02*
X577Y2679D01*
X787Y2679D02*
X814Y2679D01*
X532Y2678D02*
X578Y2678D01*
X788Y2678D02*
X814Y2678D01*
X534Y2677D02*
X580Y2677D01*
X788Y2677D02*
X815Y2677D01*
X536Y2676D02*
X582Y2676D01*
X789Y2676D02*
X815Y2676D01*
X537Y2675D02*
X584Y2675D01*
X789Y2675D02*
X816Y2675D01*
X539Y2674D02*
X585Y2674D01*
X790Y2674D02*
X816Y2674D01*
X541Y2673D02*
X587Y2673D01*
X791Y2673D02*
X817Y2673D01*
X542Y2672D02*
X589Y2672D01*
X791Y2672D02*
X817Y2672D01*
X544Y2671D02*
X590Y2671D01*
X792Y2671D02*
X818Y2671D01*
X546Y2670D02*
X592Y2670D01*
X792Y2670D02*
X818Y2670D01*
X548Y2669D02*
X594Y2669D01*
X793Y2669D02*
X819Y2669D01*
X549Y2668D02*
X595Y2668D01*
X793Y2668D02*
X820Y2668D01*
X1340Y2668D02*
X1343Y2668D01*
X551Y2667D02*
X597Y2667D01*
X794Y2667D02*
X820Y2667D01*
X1337Y2667D02*
X1346Y2667D01*
X553Y2666D02*
X599Y2666D01*
X795Y2666D02*
X821Y2666D01*
X1335Y2666D02*
X1348Y2666D01*
X554Y2665D02*
X600Y2665D01*
X795Y2665D02*
X821Y2665D01*
X1334Y2665D02*
X1349Y2665D01*
X556Y2664D02*
X602Y2664D01*
X796Y2664D02*
X822Y2664D01*
X1333Y2664D02*
X1350Y2664D01*
X558Y2663D02*
X604Y2663D01*
X796Y2663D02*
X822Y2663D01*
X1332Y2663D02*
X1351Y2663D01*
X559Y2662D02*
X606Y2662D01*
X797Y2662D02*
X823Y2662D01*
X1332Y2662D02*
X1352Y2662D01*
X561Y2661D02*
X607Y2661D01*
X797Y2661D02*
X823Y2661D01*
X1331Y2661D02*
X1352Y2661D01*
X563Y2660D02*
X609Y2660D01*
X798Y2660D02*
X824Y2660D01*
X1331Y2660D02*
X1352Y2660D01*
X564Y2659D02*
X611Y2659D01*
X798Y2659D02*
X824Y2659D01*
X1330Y2659D02*
X1353Y2659D01*
X566Y2658D02*
X612Y2658D01*
X799Y2658D02*
X825Y2658D01*
X1330Y2658D02*
X1353Y2658D01*
X568Y2657D02*
X614Y2657D01*
X799Y2657D02*
X825Y2657D01*
X1330Y2657D02*
X1353Y2657D01*
X569Y2656D02*
X616Y2656D01*
X800Y2656D02*
X826Y2656D01*
X1329Y2656D02*
X1353Y2656D01*
X571Y2655D02*
X617Y2655D01*
X800Y2655D02*
X826Y2655D01*
X1329Y2655D02*
X1353Y2655D01*
X573Y2654D02*
X619Y2654D01*
X801Y2654D02*
X827Y2654D01*
X1328Y2654D02*
X1353Y2654D01*
X575Y2653D02*
X620Y2653D01*
X802Y2653D02*
X827Y2653D01*
X1328Y2653D02*
X1353Y2653D01*
X576Y2652D02*
X622Y2652D01*
X802Y2652D02*
X828Y2652D01*
X1328Y2652D02*
X1352Y2652D01*
X578Y2651D02*
X624Y2651D01*
X803Y2651D02*
X828Y2651D01*
X1327Y2651D02*
X1352Y2651D01*
X580Y2650D02*
X625Y2650D01*
X803Y2650D02*
X829Y2650D01*
X1327Y2650D02*
X1352Y2650D01*
X581Y2649D02*
X627Y2649D01*
X804Y2649D02*
X829Y2649D01*
X1327Y2649D02*
X1351Y2649D01*
X583Y2648D02*
X629Y2648D01*
X804Y2648D02*
X830Y2648D01*
X1326Y2648D02*
X1351Y2648D01*
X585Y2647D02*
X630Y2647D01*
X805Y2647D02*
X830Y2647D01*
X1326Y2647D02*
X1350Y2647D01*
X586Y2646D02*
X632Y2646D01*
X805Y2646D02*
X831Y2646D01*
X1326Y2646D02*
X1350Y2646D01*
X588Y2645D02*
X634Y2645D01*
X806Y2645D02*
X831Y2645D01*
X1325Y2645D02*
X1350Y2645D01*
X590Y2644D02*
X635Y2644D01*
X806Y2644D02*
X832Y2644D01*
X1325Y2644D02*
X1349Y2644D01*
X591Y2643D02*
X637Y2643D01*
X807Y2643D02*
X832Y2643D01*
X1324Y2643D02*
X1349Y2643D01*
X593Y2642D02*
X639Y2642D01*
X807Y2642D02*
X833Y2642D01*
X1324Y2642D02*
X1349Y2642D01*
X595Y2641D02*
X640Y2641D01*
X808Y2641D02*
X833Y2641D01*
X1323Y2641D02*
X1348Y2641D01*
X597Y2640D02*
X642Y2640D01*
X808Y2640D02*
X834Y2640D01*
X1323Y2640D02*
X1348Y2640D01*
X598Y2639D02*
X644Y2639D01*
X809Y2639D02*
X834Y2639D01*
X1323Y2639D02*
X1348Y2639D01*
X600Y2638D02*
X645Y2638D01*
X809Y2638D02*
X835Y2638D01*
X1322Y2638D02*
X1347Y2638D01*
X602Y2637D02*
X647Y2637D01*
X810Y2637D02*
X835Y2637D01*
X1322Y2637D02*
X1347Y2637D01*
X603Y2636D02*
X649Y2636D01*
X810Y2636D02*
X836Y2636D01*
X1321Y2636D02*
X1346Y2636D01*
X605Y2635D02*
X650Y2635D01*
X811Y2635D02*
X836Y2635D01*
X1321Y2635D02*
X1346Y2635D01*
X607Y2634D02*
X652Y2634D01*
X811Y2634D02*
X837Y2634D01*
X1320Y2634D02*
X1346Y2634D01*
X608Y2633D02*
X654Y2633D01*
X812Y2633D02*
X837Y2633D01*
X1320Y2633D02*
X1345Y2633D01*
X610Y2632D02*
X655Y2632D01*
X812Y2632D02*
X837Y2632D01*
X1320Y2632D02*
X1345Y2632D01*
X611Y2631D02*
X657Y2631D01*
X813Y2631D02*
X838Y2631D01*
X1319Y2631D02*
X1344Y2631D01*
X613Y2630D02*
X659Y2630D01*
X813Y2630D02*
X838Y2630D01*
X1319Y2630D02*
X1344Y2630D01*
X615Y2629D02*
X660Y2629D01*
X814Y2629D02*
X839Y2629D01*
X1318Y2629D02*
X1343Y2629D01*
X616Y2628D02*
X662Y2628D01*
X814Y2628D02*
X839Y2628D01*
X1318Y2628D02*
X1343Y2628D01*
X618Y2627D02*
X664Y2627D01*
X814Y2627D02*
X840Y2627D01*
X1317Y2627D02*
X1343Y2627D01*
X620Y2626D02*
X665Y2626D01*
X815Y2626D02*
X840Y2626D01*
X1317Y2626D02*
X1342Y2626D01*
X621Y2625D02*
X667Y2625D01*
X815Y2625D02*
X841Y2625D01*
X1316Y2625D02*
X1342Y2625D01*
X623Y2624D02*
X669Y2624D01*
X816Y2624D02*
X841Y2624D01*
X1316Y2624D02*
X1341Y2624D01*
X625Y2623D02*
X670Y2623D01*
X816Y2623D02*
X842Y2623D01*
X1315Y2623D02*
X1341Y2623D01*
X626Y2622D02*
X671Y2622D01*
X817Y2622D02*
X842Y2622D01*
X1315Y2622D02*
X1340Y2622D01*
X628Y2621D02*
X672Y2621D01*
X817Y2621D02*
X842Y2621D01*
X1314Y2621D02*
X1340Y2621D01*
X630Y2620D02*
X673Y2620D01*
X818Y2620D02*
X843Y2620D01*
X1314Y2620D02*
X1340Y2620D01*
X631Y2619D02*
X674Y2619D01*
X818Y2619D02*
X843Y2619D01*
X1313Y2619D02*
X1339Y2619D01*
X633Y2618D02*
X674Y2618D01*
X819Y2618D02*
X844Y2618D01*
X1313Y2618D02*
X1339Y2618D01*
X635Y2617D02*
X675Y2617D01*
X819Y2617D02*
X844Y2617D01*
X1312Y2617D02*
X1338Y2617D01*
X636Y2616D02*
X675Y2616D01*
X819Y2616D02*
X845Y2616D01*
X1312Y2616D02*
X1338Y2616D01*
X638Y2615D02*
X675Y2615D01*
X820Y2615D02*
X845Y2615D01*
X1311Y2615D02*
X1337Y2615D01*
X640Y2614D02*
X675Y2614D01*
X820Y2614D02*
X846Y2614D01*
X1311Y2614D02*
X1337Y2614D01*
X641Y2613D02*
X675Y2613D01*
X821Y2613D02*
X846Y2613D01*
X1310Y2613D02*
X1336Y2613D01*
X643Y2612D02*
X675Y2612D01*
X821Y2612D02*
X846Y2612D01*
X1310Y2612D02*
X1336Y2612D01*
X645Y2611D02*
X675Y2611D01*
X822Y2611D02*
X847Y2611D01*
X1309Y2611D02*
X1335Y2611D01*
X646Y2610D02*
X675Y2610D01*
X822Y2610D02*
X847Y2610D01*
X1309Y2610D02*
X1335Y2610D01*
X648Y2609D02*
X675Y2609D01*
X823Y2609D02*
X848Y2609D01*
X1308Y2609D02*
X1334Y2609D01*
X650Y2608D02*
X674Y2608D01*
X823Y2608D02*
X848Y2608D01*
X1308Y2608D02*
X1334Y2608D01*
X651Y2607D02*
X674Y2607D01*
X824Y2607D02*
X848Y2607D01*
X1307Y2607D02*
X1333Y2607D01*
X653Y2606D02*
X673Y2606D01*
X824Y2606D02*
X849Y2606D01*
X1306Y2606D02*
X1333Y2606D01*
X655Y2605D02*
X672Y2605D01*
X824Y2605D02*
X849Y2605D01*
X1306Y2605D02*
X1332Y2605D01*
X656Y2604D02*
X671Y2604D01*
X825Y2604D02*
X850Y2604D01*
X1305Y2604D02*
X1332Y2604D01*
X658Y2603D02*
X670Y2603D01*
X825Y2603D02*
X850Y2603D01*
X1305Y2603D02*
X1331Y2603D01*
X660Y2602D02*
X668Y2602D01*
X826Y2602D02*
X850Y2602D01*
X1304Y2602D02*
X1331Y2602D01*
X826Y2601D02*
X851Y2601D01*
X1304Y2601D02*
X1330Y2601D01*
X826Y2600D02*
X851Y2600D01*
X1303Y2600D02*
X1329Y2600D01*
X827Y2599D02*
X852Y2599D01*
X1302Y2599D02*
X1329Y2599D01*
X827Y2598D02*
X852Y2598D01*
X1302Y2598D02*
X1328Y2598D01*
X828Y2597D02*
X853Y2597D01*
X1301Y2597D02*
X1328Y2597D01*
X828Y2596D02*
X853Y2596D01*
X1300Y2596D02*
X1327Y2596D01*
X828Y2595D02*
X853Y2595D01*
X1300Y2595D02*
X1327Y2595D01*
X829Y2594D02*
X854Y2594D01*
X1299Y2594D02*
X1326Y2594D01*
X829Y2593D02*
X854Y2593D01*
X1299Y2593D02*
X1326Y2593D01*
X830Y2592D02*
X855Y2592D01*
X1298Y2592D02*
X1325Y2592D01*
X830Y2591D02*
X855Y2591D01*
X1297Y2591D02*
X1324Y2591D01*
X831Y2590D02*
X855Y2590D01*
X1297Y2590D02*
X1324Y2590D01*
X831Y2589D02*
X856Y2589D01*
X1296Y2589D02*
X1323Y2589D01*
X831Y2588D02*
X856Y2588D01*
X1295Y2588D02*
X1323Y2588D01*
X832Y2587D02*
X856Y2587D01*
X1295Y2587D02*
X1322Y2587D01*
X832Y2586D02*
X857Y2586D01*
X1294Y2586D02*
X1321Y2586D01*
X833Y2585D02*
X857Y2585D01*
X1293Y2585D02*
X1321Y2585D01*
X833Y2584D02*
X858Y2584D01*
X1293Y2584D02*
X1320Y2584D01*
X833Y2583D02*
X858Y2583D01*
X1292Y2583D02*
X1320Y2583D01*
X834Y2582D02*
X858Y2582D01*
X1291Y2582D02*
X1319Y2582D01*
X834Y2581D02*
X859Y2581D01*
X1291Y2581D02*
X1318Y2581D01*
X834Y2580D02*
X859Y2580D01*
X1290Y2580D02*
X1318Y2580D01*
X835Y2579D02*
X859Y2579D01*
X1289Y2579D02*
X1317Y2579D01*
X835Y2578D02*
X860Y2578D01*
X1288Y2578D02*
X1316Y2578D01*
X836Y2577D02*
X860Y2577D01*
X1288Y2577D02*
X1316Y2577D01*
X836Y2576D02*
X860Y2576D01*
X1287Y2576D02*
X1315Y2576D01*
X836Y2575D02*
X861Y2575D01*
X1286Y2575D02*
X1314Y2575D01*
X837Y2574D02*
X861Y2574D01*
X1285Y2574D02*
X1314Y2574D01*
X837Y2573D02*
X862Y2573D01*
X1285Y2573D02*
X1313Y2573D01*
X837Y2572D02*
X862Y2572D01*
X1284Y2572D02*
X1312Y2572D01*
X838Y2571D02*
X862Y2571D01*
X1283Y2571D02*
X1312Y2571D01*
X838Y2570D02*
X863Y2570D01*
X1282Y2570D02*
X1311Y2570D01*
X839Y2569D02*
X863Y2569D01*
X1282Y2569D02*
X1310Y2569D01*
X839Y2568D02*
X863Y2568D01*
X1281Y2568D02*
X1310Y2568D01*
X839Y2567D02*
X864Y2567D01*
X1280Y2567D02*
X1309Y2567D01*
X840Y2566D02*
X864Y2566D01*
X1279Y2566D02*
X1308Y2566D01*
X840Y2565D02*
X864Y2565D01*
X1278Y2565D02*
X1308Y2565D01*
X840Y2564D02*
X865Y2564D01*
X1277Y2564D02*
X1307Y2564D01*
X841Y2563D02*
X865Y2563D01*
X1277Y2563D02*
X1306Y2563D01*
X841Y2562D02*
X865Y2562D01*
X1276Y2562D02*
X1305Y2562D01*
X841Y2561D02*
X866Y2561D01*
X1275Y2561D02*
X1305Y2561D01*
X842Y2560D02*
X866Y2560D01*
X1274Y2560D02*
X1304Y2560D01*
X842Y2559D02*
X866Y2559D01*
X1273Y2559D02*
X1303Y2559D01*
X842Y2558D02*
X867Y2558D01*
X1272Y2558D02*
X1302Y2558D01*
X843Y2557D02*
X867Y2557D01*
X1271Y2557D02*
X1302Y2557D01*
X843Y2556D02*
X867Y2556D01*
X1271Y2556D02*
X1301Y2556D01*
X843Y2555D02*
X868Y2555D01*
X1270Y2555D02*
X1300Y2555D01*
X844Y2554D02*
X868Y2554D01*
X1269Y2554D02*
X1299Y2554D01*
X844Y2553D02*
X868Y2553D01*
X1268Y2553D02*
X1298Y2553D01*
X844Y2552D02*
X869Y2552D01*
X1267Y2552D02*
X1298Y2552D01*
X845Y2551D02*
X869Y2551D01*
X1266Y2551D02*
X1297Y2551D01*
X845Y2550D02*
X869Y2550D01*
X1265Y2550D02*
X1296Y2550D01*
X845Y2549D02*
X870Y2549D01*
X1264Y2549D02*
X1295Y2549D01*
X846Y2548D02*
X870Y2548D01*
X1263Y2548D02*
X1294Y2548D01*
X846Y2547D02*
X870Y2547D01*
X1262Y2547D02*
X1294Y2547D01*
X846Y2546D02*
X871Y2546D01*
X1261Y2546D02*
X1293Y2546D01*
X847Y2545D02*
X871Y2545D01*
X1260Y2545D02*
X1292Y2545D01*
X847Y2544D02*
X871Y2544D01*
X1259Y2544D02*
X1291Y2544D01*
X847Y2543D02*
X872Y2543D01*
X1258Y2543D02*
X1290Y2543D01*
X848Y2542D02*
X872Y2542D01*
X1257Y2542D02*
X1289Y2542D01*
X848Y2541D02*
X872Y2541D01*
X1256Y2541D02*
X1288Y2541D01*
X848Y2540D02*
X873Y2540D01*
X1255Y2540D02*
X1287Y2540D01*
X849Y2539D02*
X873Y2539D01*
X1254Y2539D02*
X1287Y2539D01*
X849Y2538D02*
X873Y2538D01*
X1253Y2538D02*
X1286Y2538D01*
X849Y2537D02*
X873Y2537D01*
X1252Y2537D02*
X1285Y2537D01*
X850Y2536D02*
X874Y2536D01*
X1251Y2536D02*
X1284Y2536D01*
X850Y2535D02*
X874Y2535D01*
X1250Y2535D02*
X1283Y2535D01*
X850Y2534D02*
X874Y2534D01*
X1249Y2534D02*
X1282Y2534D01*
X851Y2533D02*
X875Y2533D01*
X1248Y2533D02*
X1281Y2533D01*
X851Y2532D02*
X875Y2532D01*
X1247Y2532D02*
X1280Y2532D01*
X851Y2531D02*
X875Y2531D01*
X1245Y2531D02*
X1279Y2531D01*
X851Y2530D02*
X875Y2530D01*
X1244Y2530D02*
X1278Y2530D01*
X852Y2529D02*
X876Y2529D01*
X1243Y2529D02*
X1277Y2529D01*
X852Y2528D02*
X876Y2528D01*
X1242Y2528D02*
X1276Y2528D01*
X852Y2527D02*
X876Y2527D01*
X1241Y2527D02*
X1275Y2527D01*
X853Y2526D02*
X877Y2526D01*
X1240Y2526D02*
X1274Y2526D01*
X853Y2525D02*
X877Y2525D01*
X1238Y2525D02*
X1273Y2525D01*
X853Y2524D02*
X877Y2524D01*
X1237Y2524D02*
X1272Y2524D01*
X853Y2523D02*
X878Y2523D01*
X1236Y2523D02*
X1271Y2523D01*
X854Y2522D02*
X878Y2522D01*
X1235Y2522D02*
X1270Y2522D01*
X854Y2521D02*
X878Y2521D01*
X1233Y2521D02*
X1269Y2521D01*
X854Y2520D02*
X878Y2520D01*
X1232Y2520D02*
X1268Y2520D01*
X855Y2519D02*
X879Y2519D01*
X1231Y2519D02*
X1267Y2519D01*
X855Y2518D02*
X879Y2518D01*
X1230Y2518D02*
X1266Y2518D01*
X855Y2517D02*
X879Y2517D01*
X1228Y2517D02*
X1265Y2517D01*
X856Y2516D02*
X879Y2516D01*
X1227Y2516D02*
X1264Y2516D01*
X856Y2515D02*
X880Y2515D01*
X1226Y2515D02*
X1262Y2515D01*
X856Y2514D02*
X880Y2514D01*
X1224Y2514D02*
X1261Y2514D01*
X856Y2513D02*
X880Y2513D01*
X1223Y2513D02*
X1260Y2513D01*
X857Y2512D02*
X881Y2512D01*
X1221Y2512D02*
X1259Y2512D01*
X857Y2511D02*
X881Y2511D01*
X1220Y2511D02*
X1258Y2511D01*
X857Y2510D02*
X881Y2510D01*
X1219Y2510D02*
X1257Y2510D01*
X857Y2509D02*
X881Y2509D01*
X1217Y2509D02*
X1256Y2509D01*
X858Y2508D02*
X882Y2508D01*
X1216Y2508D02*
X1254Y2508D01*
X858Y2507D02*
X882Y2507D01*
X1214Y2507D02*
X1253Y2507D01*
X858Y2506D02*
X882Y2506D01*
X1213Y2506D02*
X1252Y2506D01*
X858Y2505D02*
X882Y2505D01*
X1211Y2505D02*
X1251Y2505D01*
X859Y2504D02*
X883Y2504D01*
X1209Y2504D02*
X1249Y2504D01*
X859Y2503D02*
X883Y2503D01*
X1208Y2503D02*
X1248Y2503D01*
X859Y2502D02*
X883Y2502D01*
X1206Y2502D02*
X1247Y2502D01*
X860Y2501D02*
X883Y2501D01*
X1205Y2501D02*
X1246Y2501D01*
X860Y2500D02*
X884Y2500D01*
X1203Y2500D02*
X1244Y2500D01*
X860Y2499D02*
X884Y2499D01*
X1201Y2499D02*
X1243Y2499D01*
X860Y2498D02*
X884Y2498D01*
X1200Y2498D02*
X1242Y2498D01*
X861Y2497D02*
X884Y2497D01*
X1198Y2497D02*
X1240Y2497D01*
X861Y2496D02*
X885Y2496D01*
X1196Y2496D02*
X1239Y2496D01*
X861Y2495D02*
X885Y2495D01*
X1195Y2495D02*
X1238Y2495D01*
X861Y2494D02*
X885Y2494D01*
X1193Y2494D02*
X1236Y2494D01*
X862Y2493D02*
X885Y2493D01*
X1191Y2493D02*
X1235Y2493D01*
X862Y2492D02*
X886Y2492D01*
X1189Y2492D02*
X1234Y2492D01*
X862Y2491D02*
X886Y2491D01*
X1187Y2491D02*
X1232Y2491D01*
X862Y2490D02*
X886Y2490D01*
X1185Y2490D02*
X1231Y2490D01*
X863Y2489D02*
X886Y2489D01*
X1183Y2489D02*
X1229Y2489D01*
X863Y2488D02*
X886Y2488D01*
X1181Y2488D02*
X1228Y2488D01*
X863Y2487D02*
X887Y2487D01*
X1179Y2487D02*
X1226Y2487D01*
X863Y2486D02*
X887Y2486D01*
X1177Y2486D02*
X1225Y2486D01*
X864Y2485D02*
X887Y2485D01*
X1175Y2485D02*
X1223Y2485D01*
X864Y2484D02*
X887Y2484D01*
X1173Y2484D02*
X1222Y2484D01*
X864Y2483D02*
X888Y2483D01*
X1171Y2483D02*
X1220Y2483D01*
X864Y2482D02*
X888Y2482D01*
X1169Y2482D02*
X1219Y2482D01*
X864Y2481D02*
X888Y2481D01*
X1166Y2481D02*
X1217Y2481D01*
X865Y2480D02*
X888Y2480D01*
X1164Y2480D02*
X1215Y2480D01*
X865Y2479D02*
X888Y2479D01*
X1162Y2479D02*
X1214Y2479D01*
X865Y2478D02*
X889Y2478D01*
X1159Y2478D02*
X1212Y2478D01*
X865Y2477D02*
X889Y2477D01*
X1157Y2477D02*
X1210Y2477D01*
X866Y2476D02*
X889Y2476D01*
X1154Y2476D02*
X1209Y2476D01*
X866Y2475D02*
X889Y2475D01*
X1151Y2475D02*
X1207Y2475D01*
X866Y2474D02*
X890Y2474D01*
X1149Y2474D02*
X1205Y2474D01*
X866Y2473D02*
X890Y2473D01*
X1146Y2473D02*
X1203Y2473D01*
X866Y2472D02*
X890Y2472D01*
X1143Y2472D02*
X1202Y2472D01*
X867Y2471D02*
X890Y2471D01*
X1140Y2471D02*
X1200Y2471D01*
X867Y2470D02*
X890Y2470D01*
X1137Y2470D02*
X1198Y2470D01*
X867Y2469D02*
X891Y2469D01*
X1133Y2469D02*
X1196Y2469D01*
X867Y2468D02*
X891Y2468D01*
X1130Y2468D02*
X1194Y2468D01*
X868Y2467D02*
X891Y2467D01*
X1126Y2467D02*
X1192Y2467D01*
X868Y2466D02*
X891Y2466D01*
X1122Y2466D02*
X1190Y2466D01*
X868Y2465D02*
X891Y2465D01*
X1119Y2465D02*
X1188Y2465D01*
X868Y2464D02*
X892Y2464D01*
X1117Y2464D02*
X1186Y2464D01*
X868Y2463D02*
X892Y2463D01*
X1116Y2463D02*
X1184Y2463D01*
X869Y2462D02*
X892Y2462D01*
X1115Y2462D02*
X1182Y2462D01*
X869Y2461D02*
X892Y2461D01*
X1114Y2461D02*
X1179Y2461D01*
X869Y2460D02*
X892Y2460D01*
X1114Y2460D02*
X1177Y2460D01*
X869Y2459D02*
X893Y2459D01*
X1113Y2459D02*
X1175Y2459D01*
X869Y2458D02*
X893Y2458D01*
X1113Y2458D02*
X1172Y2458D01*
X870Y2457D02*
X893Y2457D01*
X1112Y2457D02*
X1170Y2457D01*
X870Y2456D02*
X893Y2456D01*
X1112Y2456D02*
X1168Y2456D01*
X870Y2455D02*
X893Y2455D01*
X1112Y2455D02*
X1165Y2455D01*
X870Y2454D02*
X893Y2454D01*
X1112Y2454D02*
X1163Y2454D01*
X870Y2453D02*
X894Y2453D01*
X1112Y2453D02*
X1160Y2453D01*
X871Y2452D02*
X894Y2452D01*
X1112Y2452D02*
X1157Y2452D01*
X871Y2451D02*
X894Y2451D01*
X1113Y2451D02*
X1155Y2451D01*
X871Y2450D02*
X894Y2450D01*
X1113Y2450D02*
X1152Y2450D01*
X871Y2449D02*
X894Y2449D01*
X1113Y2449D02*
X1149Y2449D01*
X871Y2448D02*
X895Y2448D01*
X1114Y2448D02*
X1146Y2448D01*
X871Y2447D02*
X895Y2447D01*
X1115Y2447D02*
X1143Y2447D01*
X872Y2446D02*
X895Y2446D01*
X1115Y2446D02*
X1139Y2446D01*
X872Y2445D02*
X895Y2445D01*
X1117Y2445D02*
X1136Y2445D01*
X872Y2444D02*
X895Y2444D01*
X1118Y2444D02*
X1132Y2444D01*
X872Y2443D02*
X895Y2443D01*
X1120Y2443D02*
X1128Y2443D01*
X872Y2442D02*
X896Y2442D01*
X873Y2441D02*
X896Y2441D01*
X873Y2440D02*
X896Y2440D01*
X873Y2439D02*
X896Y2439D01*
X873Y2438D02*
X896Y2438D01*
X873Y2437D02*
X896Y2437D01*
X873Y2436D02*
X897Y2436D01*
X874Y2435D02*
X897Y2435D01*
X874Y2434D02*
X897Y2434D01*
X874Y2433D02*
X897Y2433D01*
X874Y2432D02*
X897Y2432D01*
X874Y2431D02*
X897Y2431D01*
X874Y2430D02*
X898Y2430D01*
X875Y2429D02*
X898Y2429D01*
X875Y2428D02*
X898Y2428D01*
X875Y2427D02*
X898Y2427D01*
X875Y2426D02*
X898Y2426D01*
X875Y2425D02*
X898Y2425D01*
X875Y2424D02*
X898Y2424D01*
X875Y2423D02*
X899Y2423D01*
X876Y2422D02*
X899Y2422D01*
X876Y2421D02*
X899Y2421D01*
X876Y2420D02*
X899Y2420D01*
X876Y2419D02*
X899Y2419D01*
X876Y2418D02*
X899Y2418D01*
X876Y2417D02*
X899Y2417D01*
X876Y2416D02*
X900Y2416D01*
X877Y2415D02*
X900Y2415D01*
X877Y2414D02*
X900Y2414D01*
X877Y2413D02*
X900Y2413D01*
X877Y2412D02*
X900Y2412D01*
X877Y2411D02*
X900Y2411D01*
X877Y2410D02*
X900Y2410D01*
X877Y2409D02*
X901Y2409D01*
X878Y2408D02*
X901Y2408D01*
X878Y2407D02*
X901Y2407D01*
X878Y2406D02*
X901Y2406D01*
X878Y2405D02*
X901Y2405D01*
X878Y2404D02*
X901Y2404D01*
X878Y2403D02*
X901Y2403D01*
X878Y2402D02*
X901Y2402D01*
X878Y2401D02*
X902Y2401D01*
X879Y2400D02*
X902Y2400D01*
X879Y2399D02*
X902Y2399D01*
X879Y2398D02*
X902Y2398D01*
X879Y2397D02*
X902Y2397D01*
X879Y2396D02*
X902Y2396D01*
X879Y2395D02*
X902Y2395D01*
X879Y2394D02*
X902Y2394D01*
X879Y2393D02*
X902Y2393D01*
X880Y2392D02*
X903Y2392D01*
X880Y2391D02*
X903Y2391D01*
X880Y2390D02*
X903Y2390D01*
X880Y2389D02*
X903Y2389D01*
X880Y2388D02*
X903Y2388D01*
X880Y2387D02*
X903Y2387D01*
X880Y2386D02*
X903Y2386D01*
X880Y2385D02*
X903Y2385D01*
X880Y2384D02*
X903Y2384D01*
X881Y2383D02*
X903Y2383D01*
X881Y2382D02*
X904Y2382D01*
X881Y2381D02*
X904Y2381D01*
X881Y2380D02*
X904Y2380D01*
X881Y2379D02*
X904Y2379D01*
X881Y2378D02*
X904Y2378D01*
X881Y2377D02*
X904Y2377D01*
X881Y2376D02*
X904Y2376D01*
X881Y2375D02*
X904Y2375D01*
X881Y2374D02*
X904Y2374D01*
X881Y2373D02*
X904Y2373D01*
X882Y2372D02*
X905Y2372D01*
X882Y2371D02*
X905Y2371D01*
X882Y2370D02*
X905Y2370D01*
X882Y2369D02*
X905Y2369D01*
X882Y2368D02*
X905Y2368D01*
X882Y2367D02*
X905Y2367D01*
X882Y2366D02*
X905Y2366D01*
X882Y2365D02*
X905Y2365D01*
X882Y2364D02*
X905Y2364D01*
X882Y2363D02*
X905Y2363D01*
X882Y2362D02*
X905Y2362D01*
X883Y2361D02*
X905Y2361D01*
X883Y2360D02*
X905Y2360D01*
X883Y2359D02*
X906Y2359D01*
X883Y2358D02*
X906Y2358D01*
X883Y2357D02*
X906Y2357D01*
X883Y2356D02*
X906Y2356D01*
X883Y2355D02*
X906Y2355D01*
X883Y2354D02*
X906Y2354D01*
X883Y2353D02*
X906Y2353D01*
X883Y2352D02*
X906Y2352D01*
X883Y2351D02*
X906Y2351D01*
X883Y2350D02*
X906Y2350D01*
X883Y2349D02*
X906Y2349D01*
X883Y2348D02*
X906Y2348D01*
X884Y2347D02*
X906Y2347D01*
X884Y2346D02*
X906Y2346D01*
X884Y2345D02*
X906Y2345D01*
X884Y2344D02*
X907Y2344D01*
X884Y2343D02*
X907Y2343D01*
X884Y2342D02*
X907Y2342D01*
X884Y2341D02*
X907Y2341D01*
X884Y2340D02*
X907Y2340D01*
X884Y2339D02*
X907Y2339D01*
X884Y2338D02*
X907Y2338D01*
X884Y2337D02*
X907Y2337D01*
X884Y2336D02*
X907Y2336D01*
X884Y2335D02*
X907Y2335D01*
X884Y2334D02*
X907Y2334D01*
X884Y2333D02*
X907Y2333D01*
X884Y2332D02*
X907Y2332D01*
X884Y2331D02*
X907Y2331D01*
X884Y2330D02*
X907Y2330D01*
X884Y2329D02*
X907Y2329D01*
X884Y2328D02*
X907Y2328D01*
X885Y2327D02*
X907Y2327D01*
X885Y2326D02*
X907Y2326D01*
X885Y2325D02*
X907Y2325D01*
X885Y2324D02*
X907Y2324D01*
X885Y2323D02*
X907Y2323D01*
X885Y2322D02*
X908Y2322D01*
X885Y2321D02*
X908Y2321D01*
X885Y2320D02*
X908Y2320D01*
X885Y2319D02*
X908Y2319D01*
X885Y2318D02*
X908Y2318D01*
X885Y2317D02*
X908Y2317D01*
X885Y2316D02*
X908Y2316D01*
X885Y2315D02*
X908Y2315D01*
X885Y2314D02*
X908Y2314D01*
X885Y2313D02*
X908Y2313D01*
X885Y2312D02*
X908Y2312D01*
X885Y2311D02*
X908Y2311D01*
X885Y2310D02*
X908Y2310D01*
X885Y2309D02*
X908Y2309D01*
X885Y2308D02*
X908Y2308D01*
X885Y2307D02*
X908Y2307D01*
X885Y2306D02*
X908Y2306D01*
X885Y2305D02*
X908Y2305D01*
X885Y2304D02*
X908Y2304D01*
X885Y2303D02*
X908Y2303D01*
X885Y2302D02*
X908Y2302D01*
X885Y2301D02*
X908Y2301D01*
X885Y2300D02*
X908Y2300D01*
X885Y2299D02*
X908Y2299D01*
X885Y2298D02*
X908Y2298D01*
X885Y2297D02*
X908Y2297D01*
X885Y2296D02*
X908Y2296D01*
X885Y2295D02*
X908Y2295D01*
X885Y2294D02*
X908Y2294D01*
X885Y2293D02*
X908Y2293D01*
X885Y2292D02*
X908Y2292D01*
X885Y2291D02*
X908Y2291D01*
X885Y2290D02*
X908Y2290D01*
X885Y2289D02*
X908Y2289D01*
X885Y2288D02*
X908Y2288D01*
X885Y2287D02*
X908Y2287D01*
X885Y2286D02*
X908Y2286D01*
X885Y2285D02*
X908Y2285D01*
X885Y2284D02*
X908Y2284D01*
X885Y2283D02*
X908Y2283D01*
X885Y2282D02*
X908Y2282D01*
X885Y2281D02*
X908Y2281D01*
X885Y2280D02*
X908Y2280D01*
X885Y2279D02*
X908Y2279D01*
X885Y2278D02*
X908Y2278D01*
X885Y2277D02*
X908Y2277D01*
X885Y2276D02*
X908Y2276D01*
X885Y2275D02*
X908Y2275D01*
X885Y2274D02*
X908Y2274D01*
X885Y2273D02*
X908Y2273D01*
X885Y2272D02*
X908Y2272D01*
X885Y2271D02*
X908Y2271D01*
X885Y2270D02*
X908Y2270D01*
X885Y2269D02*
X908Y2269D01*
X885Y2268D02*
X908Y2268D01*
X885Y2267D02*
X908Y2267D01*
X885Y2266D02*
X908Y2266D01*
X885Y2265D02*
X908Y2265D01*
X885Y2264D02*
X908Y2264D01*
X885Y2263D02*
X908Y2263D01*
X885Y2262D02*
X908Y2262D01*
X885Y2261D02*
X908Y2261D01*
X885Y2260D02*
X908Y2260D01*
X885Y2259D02*
X908Y2259D01*
X885Y2258D02*
X908Y2258D01*
X885Y2257D02*
X908Y2257D01*
X885Y2256D02*
X908Y2256D01*
X885Y2255D02*
X908Y2255D01*
X885Y2254D02*
X908Y2254D01*
X885Y2253D02*
X908Y2253D01*
X885Y2252D02*
X907Y2252D01*
X885Y2251D02*
X907Y2251D01*
X885Y2250D02*
X907Y2250D01*
X885Y2249D02*
X907Y2249D01*
X884Y2248D02*
X907Y2248D01*
X884Y2247D02*
X907Y2247D01*
X884Y2246D02*
X907Y2246D01*
X884Y2245D02*
X907Y2245D01*
X884Y2244D02*
X907Y2244D01*
X884Y2243D02*
X907Y2243D01*
X884Y2242D02*
X907Y2242D01*
X884Y2241D02*
X907Y2241D01*
X884Y2240D02*
X907Y2240D01*
X884Y2239D02*
X907Y2239D01*
X884Y2238D02*
X907Y2238D01*
X884Y2237D02*
X907Y2237D01*
X884Y2236D02*
X907Y2236D01*
X884Y2235D02*
X907Y2235D01*
X884Y2234D02*
X907Y2234D01*
X884Y2233D02*
X907Y2233D01*
X884Y2232D02*
X907Y2232D01*
X884Y2231D02*
X907Y2231D01*
X884Y2230D02*
X906Y2230D01*
X884Y2229D02*
X906Y2229D01*
X883Y2228D02*
X906Y2228D01*
X883Y2227D02*
X906Y2227D01*
X883Y2226D02*
X906Y2226D01*
X883Y2225D02*
X906Y2225D01*
X883Y2224D02*
X906Y2224D01*
X883Y2223D02*
X906Y2223D01*
X883Y2222D02*
X906Y2222D01*
X883Y2221D02*
X906Y2221D01*
X883Y2220D02*
X906Y2220D01*
X883Y2219D02*
X906Y2219D01*
X883Y2218D02*
X906Y2218D01*
X883Y2217D02*
X906Y2217D01*
X883Y2216D02*
X906Y2216D01*
X883Y2215D02*
X906Y2215D01*
X883Y2214D02*
X906Y2214D01*
X883Y2213D02*
X905Y2213D01*
X882Y2212D02*
X905Y2212D01*
X882Y2211D02*
X905Y2211D01*
X882Y2210D02*
X905Y2210D01*
X882Y2209D02*
X905Y2209D01*
X882Y2208D02*
X905Y2208D01*
X882Y2207D02*
X905Y2207D01*
X882Y2206D02*
X905Y2206D01*
X882Y2205D02*
X905Y2205D01*
X882Y2204D02*
X905Y2204D01*
X882Y2203D02*
X905Y2203D01*
X882Y2202D02*
X905Y2202D01*
X882Y2201D02*
X905Y2201D01*
X882Y2200D02*
X904Y2200D01*
X881Y2199D02*
X904Y2199D01*
X881Y2198D02*
X904Y2198D01*
X881Y2197D02*
X904Y2197D01*
X881Y2196D02*
X904Y2196D01*
X881Y2195D02*
X904Y2195D01*
X881Y2194D02*
X904Y2194D01*
X881Y2193D02*
X904Y2193D01*
X881Y2192D02*
X904Y2192D01*
X881Y2191D02*
X904Y2191D01*
X881Y2190D02*
X904Y2190D01*
X881Y2189D02*
X904Y2189D01*
X880Y2188D02*
X903Y2188D01*
X880Y2187D02*
X903Y2187D01*
X880Y2186D02*
X903Y2186D01*
X880Y2185D02*
X903Y2185D01*
X880Y2184D02*
X903Y2184D01*
X880Y2183D02*
X903Y2183D01*
X880Y2182D02*
X903Y2182D01*
X880Y2181D02*
X903Y2181D01*
X880Y2180D02*
X903Y2180D01*
X880Y2179D02*
X903Y2179D01*
X879Y2178D02*
X902Y2178D01*
X879Y2177D02*
X902Y2177D01*
X879Y2176D02*
X902Y2176D01*
X879Y2175D02*
X902Y2175D01*
X879Y2174D02*
X902Y2174D01*
X879Y2173D02*
X902Y2173D01*
X879Y2172D02*
X902Y2172D01*
X879Y2171D02*
X902Y2171D01*
X879Y2170D02*
X902Y2170D01*
X879Y2169D02*
X902Y2169D01*
X878Y2168D02*
X901Y2168D01*
X878Y2167D02*
X901Y2167D01*
X878Y2166D02*
X901Y2166D01*
X878Y2165D02*
X901Y2165D01*
X878Y2164D02*
X901Y2164D01*
X878Y2163D02*
X901Y2163D01*
X878Y2162D02*
X901Y2162D01*
X878Y2161D02*
X901Y2161D01*
X877Y2160D02*
X901Y2160D01*
X877Y2159D02*
X900Y2159D01*
X877Y2158D02*
X900Y2158D01*
X877Y2157D02*
X900Y2157D01*
X877Y2156D02*
X900Y2156D01*
X877Y2155D02*
X900Y2155D01*
X877Y2154D02*
X900Y2154D01*
X877Y2153D02*
X900Y2153D01*
X877Y2152D02*
X900Y2152D01*
X876Y2151D02*
X900Y2151D01*
X876Y2150D02*
X899Y2150D01*
X876Y2149D02*
X899Y2149D01*
X876Y2148D02*
X899Y2148D01*
X876Y2147D02*
X899Y2147D01*
X876Y2146D02*
X899Y2146D01*
X876Y2145D02*
X899Y2145D01*
X875Y2144D02*
X899Y2144D01*
X875Y2143D02*
X898Y2143D01*
X875Y2142D02*
X898Y2142D01*
X875Y2141D02*
X898Y2141D01*
X875Y2140D02*
X898Y2140D01*
X875Y2139D02*
X898Y2139D01*
X875Y2138D02*
X898Y2138D01*
X875Y2137D02*
X898Y2137D01*
X874Y2136D02*
X898Y2136D01*
X874Y2135D02*
X897Y2135D01*
X874Y2134D02*
X897Y2134D01*
X874Y2133D02*
X897Y2133D01*
X874Y2132D02*
X897Y2132D01*
X874Y2131D02*
X897Y2131D01*
X874Y2130D02*
X897Y2130D01*
X873Y2129D02*
X897Y2129D01*
X873Y2128D02*
X896Y2128D01*
X873Y2127D02*
X896Y2127D01*
X873Y2126D02*
X896Y2126D01*
X873Y2125D02*
X896Y2125D01*
X873Y2124D02*
X896Y2124D01*
X873Y2123D02*
X896Y2123D01*
X872Y2122D02*
X896Y2122D01*
X872Y2121D02*
X895Y2121D01*
X872Y2120D02*
X895Y2120D01*
X872Y2119D02*
X895Y2119D01*
X872Y2118D02*
X895Y2118D01*
X872Y2117D02*
X895Y2117D01*
X872Y2116D02*
X895Y2116D01*
X871Y2115D02*
X895Y2115D01*
X871Y2114D02*
X894Y2114D01*
X871Y2113D02*
X894Y2113D01*
X871Y2112D02*
X894Y2112D01*
X871Y2111D02*
X894Y2111D01*
X871Y2110D02*
X894Y2110D01*
X870Y2109D02*
X894Y2109D01*
X870Y2108D02*
X894Y2108D01*
X870Y2107D02*
X893Y2107D01*
X870Y2106D02*
X893Y2106D01*
X870Y2105D02*
X893Y2105D01*
X870Y2104D02*
X893Y2104D01*
X869Y2103D02*
X893Y2103D01*
X869Y2102D02*
X893Y2102D01*
X869Y2101D02*
X892Y2101D01*
X869Y2100D02*
X892Y2100D01*
X869Y2099D02*
X892Y2099D01*
X869Y2098D02*
X892Y2098D01*
X868Y2097D02*
X892Y2097D01*
X868Y2096D02*
X892Y2096D01*
X868Y2095D02*
X891Y2095D01*
X868Y2094D02*
X891Y2094D01*
X868Y2093D02*
X891Y2093D01*
X868Y2092D02*
X891Y2092D01*
X867Y2091D02*
X891Y2091D01*
X867Y2090D02*
X891Y2090D01*
X867Y2089D02*
X890Y2089D01*
X867Y2088D02*
X890Y2088D01*
X867Y2087D02*
X890Y2087D01*
X867Y2086D02*
X890Y2086D01*
X866Y2085D02*
X890Y2085D01*
X866Y2084D02*
X890Y2084D01*
X866Y2083D02*
X889Y2083D01*
X866Y2082D02*
X889Y2082D01*
X866Y2081D02*
X889Y2081D01*
X866Y2080D02*
X889Y2080D01*
X865Y2079D02*
X889Y2079D01*
X865Y2078D02*
X889Y2078D01*
X865Y2077D02*
X888Y2077D01*
X865Y2076D02*
X888Y2076D01*
X865Y2075D02*
X888Y2075D01*
X864Y2074D02*
X888Y2074D01*
X864Y2073D02*
X888Y2073D01*
X864Y2072D02*
X887Y2072D01*
X864Y2071D02*
X887Y2071D01*
X864Y2070D02*
X887Y2070D01*
X863Y2069D02*
X887Y2069D01*
X863Y2068D02*
X887Y2068D01*
X863Y2067D02*
X886Y2067D01*
X863Y2066D02*
X886Y2066D01*
X863Y2065D02*
X886Y2065D01*
X863Y2064D02*
X886Y2064D01*
X862Y2063D02*
X886Y2063D01*
X862Y2062D02*
X886Y2062D01*
X862Y2061D02*
X885Y2061D01*
X862Y2060D02*
X885Y2060D01*
X862Y2059D02*
X885Y2059D01*
X861Y2058D02*
X885Y2058D01*
X861Y2057D02*
X885Y2057D01*
X861Y2056D02*
X884Y2056D01*
X861Y2055D02*
X884Y2055D01*
X861Y2054D02*
X884Y2054D01*
X860Y2053D02*
X884Y2053D01*
X860Y2052D02*
X884Y2052D01*
X860Y2051D02*
X883Y2051D01*
X860Y2050D02*
X883Y2050D01*
X860Y2049D02*
X883Y2049D01*
X859Y2048D02*
X883Y2048D01*
X859Y2047D02*
X883Y2047D01*
X859Y2046D02*
X882Y2046D01*
X859Y2045D02*
X882Y2045D01*
X859Y2044D02*
X882Y2044D01*
X858Y2043D02*
X882Y2043D01*
X858Y2042D02*
X882Y2042D01*
X858Y2041D02*
X881Y2041D01*
X858Y2040D02*
X881Y2040D01*
X858Y2039D02*
X881Y2039D01*
X859Y2038D02*
X881Y2038D01*
X859Y2037D02*
X880Y2037D01*
X859Y2036D02*
X880Y2036D01*
X860Y2035D02*
X879Y2035D01*
X861Y2034D02*
X879Y2034D01*
X861Y2033D02*
X878Y2033D01*
X863Y2032D02*
X877Y2032D01*
X864Y2031D02*
X876Y2031D01*
X866Y2030D02*
X874Y2030D01*
X79Y1779D02*
X105Y1779D01*
X69Y1778D02*
X120Y1778D01*
X67Y1777D02*
X130Y1777D01*
X65Y1776D02*
X140Y1776D01*
X64Y1775D02*
X146Y1775D01*
X63Y1774D02*
X153Y1774D01*
X62Y1773D02*
X159Y1773D01*
X61Y1772D02*
X165Y1772D01*
X61Y1771D02*
X170Y1771D01*
X61Y1770D02*
X176Y1770D01*
X60Y1769D02*
X180Y1769D01*
X60Y1768D02*
X185Y1768D01*
X60Y1767D02*
X189Y1767D01*
X60Y1766D02*
X194Y1766D01*
X60Y1765D02*
X198Y1765D01*
X60Y1764D02*
X202Y1764D01*
X60Y1763D02*
X206Y1763D01*
X61Y1762D02*
X210Y1762D01*
X61Y1761D02*
X214Y1761D01*
X62Y1760D02*
X217Y1760D01*
X62Y1759D02*
X221Y1759D01*
X63Y1758D02*
X225Y1758D01*
X64Y1757D02*
X228Y1757D01*
X66Y1756D02*
X232Y1756D01*
X68Y1755D02*
X79Y1755D01*
X105Y1755D02*
X235Y1755D01*
X121Y1754D02*
X238Y1754D01*
X130Y1753D02*
X241Y1753D01*
X139Y1752D02*
X245Y1752D01*
X146Y1751D02*
X248Y1751D01*
X152Y1750D02*
X251Y1750D01*
X158Y1749D02*
X254Y1749D01*
X164Y1748D02*
X257Y1748D01*
X169Y1747D02*
X260Y1747D01*
X174Y1746D02*
X263Y1746D01*
X179Y1745D02*
X265Y1745D01*
X183Y1744D02*
X268Y1744D01*
X188Y1743D02*
X271Y1743D01*
X192Y1742D02*
X274Y1742D01*
X196Y1741D02*
X277Y1741D01*
X200Y1740D02*
X279Y1740D01*
X204Y1739D02*
X282Y1739D01*
X208Y1738D02*
X285Y1738D01*
X212Y1737D02*
X287Y1737D01*
X215Y1736D02*
X290Y1736D01*
X219Y1735D02*
X293Y1735D01*
X222Y1734D02*
X295Y1734D01*
X226Y1733D02*
X298Y1733D01*
X229Y1732D02*
X300Y1732D01*
X232Y1731D02*
X303Y1731D01*
X235Y1730D02*
X305Y1730D01*
X239Y1729D02*
X307Y1729D01*
X242Y1728D02*
X310Y1728D01*
X245Y1727D02*
X312Y1727D01*
X248Y1726D02*
X315Y1726D01*
X251Y1725D02*
X317Y1725D01*
X254Y1724D02*
X319Y1724D01*
X257Y1723D02*
X322Y1723D01*
X260Y1722D02*
X324Y1722D01*
X262Y1721D02*
X326Y1721D01*
X265Y1720D02*
X329Y1720D01*
X268Y1719D02*
X331Y1719D01*
X271Y1718D02*
X333Y1718D01*
X273Y1717D02*
X335Y1717D01*
X276Y1716D02*
X338Y1716D01*
X279Y1715D02*
X340Y1715D01*
X281Y1714D02*
X342Y1714D01*
X284Y1713D02*
X344Y1713D01*
X286Y1712D02*
X346Y1712D01*
X289Y1711D02*
X348Y1711D01*
X292Y1710D02*
X350Y1710D01*
X294Y1709D02*
X353Y1709D01*
X297Y1708D02*
X355Y1708D01*
X299Y1707D02*
X357Y1707D01*
X301Y1706D02*
X359Y1706D01*
X304Y1705D02*
X361Y1705D01*
X306Y1704D02*
X363Y1704D01*
X309Y1703D02*
X365Y1703D01*
X311Y1702D02*
X367Y1702D01*
X313Y1701D02*
X369Y1701D01*
X315Y1700D02*
X371Y1700D01*
X318Y1699D02*
X373Y1699D01*
X320Y1698D02*
X375Y1698D01*
X322Y1697D02*
X377Y1697D01*
X325Y1696D02*
X379Y1696D01*
X327Y1695D02*
X381Y1695D01*
X329Y1694D02*
X383Y1694D01*
X331Y1693D02*
X385Y1693D01*
X333Y1692D02*
X387Y1692D01*
X335Y1691D02*
X389Y1691D01*
X338Y1690D02*
X390Y1690D01*
X340Y1689D02*
X392Y1689D01*
X342Y1688D02*
X394Y1688D01*
X344Y1687D02*
X396Y1687D01*
X346Y1686D02*
X398Y1686D01*
X348Y1685D02*
X400Y1685D01*
X350Y1684D02*
X402Y1684D01*
X352Y1683D02*
X404Y1683D01*
X354Y1682D02*
X405Y1682D01*
X356Y1681D02*
X407Y1681D01*
X966Y1681D02*
X971Y1681D01*
X358Y1680D02*
X409Y1680D01*
X963Y1680D02*
X976Y1680D01*
X360Y1679D02*
X411Y1679D01*
X962Y1679D02*
X979Y1679D01*
X362Y1678D02*
X413Y1678D01*
X960Y1678D02*
X983Y1678D01*
X364Y1677D02*
X415Y1677D01*
X960Y1677D02*
X986Y1677D01*
X366Y1676D02*
X416Y1676D01*
X959Y1676D02*
X988Y1676D01*
X368Y1675D02*
X418Y1675D01*
X958Y1675D02*
X991Y1675D01*
X370Y1674D02*
X420Y1674D01*
X958Y1674D02*
X993Y1674D01*
X372Y1673D02*
X422Y1673D01*
X957Y1673D02*
X995Y1673D01*
X374Y1672D02*
X423Y1672D01*
X957Y1672D02*
X997Y1672D01*
X376Y1671D02*
X425Y1671D01*
X957Y1671D02*
X999Y1671D01*
X378Y1670D02*
X427Y1670D01*
X957Y1670D02*
X1001Y1670D01*
X380Y1669D02*
X429Y1669D01*
X957Y1669D02*
X1003Y1669D01*
X382Y1668D02*
X430Y1668D01*
X957Y1668D02*
X1005Y1668D01*
X384Y1667D02*
X432Y1667D01*
X957Y1667D02*
X1007Y1667D01*
X386Y1666D02*
X434Y1666D01*
X957Y1666D02*
X1008Y1666D01*
X388Y1665D02*
X435Y1665D01*
X958Y1665D02*
X1010Y1665D01*
X389Y1664D02*
X437Y1664D01*
X958Y1664D02*
X1011Y1664D01*
X391Y1663D02*
X439Y1663D01*
X959Y1663D02*
X1013Y1663D01*
X393Y1662D02*
X441Y1662D01*
X959Y1662D02*
X1015Y1662D01*
X395Y1661D02*
X442Y1661D01*
X960Y1661D02*
X1016Y1661D01*
X397Y1660D02*
X444Y1660D01*
X961Y1660D02*
X1017Y1660D01*
X399Y1659D02*
X446Y1659D01*
X963Y1659D02*
X1019Y1659D01*
X400Y1658D02*
X447Y1658D01*
X965Y1658D02*
X1020Y1658D01*
X402Y1657D02*
X449Y1657D01*
X970Y1657D02*
X1022Y1657D01*
X404Y1656D02*
X451Y1656D01*
X974Y1656D02*
X1023Y1656D01*
X406Y1655D02*
X452Y1655D01*
X977Y1655D02*
X1024Y1655D01*
X407Y1654D02*
X454Y1654D01*
X980Y1654D02*
X1026Y1654D01*
X409Y1653D02*
X456Y1653D01*
X982Y1653D02*
X1027Y1653D01*
X411Y1652D02*
X457Y1652D01*
X984Y1652D02*
X1028Y1652D01*
X413Y1651D02*
X459Y1651D01*
X986Y1651D02*
X1029Y1651D01*
X415Y1650D02*
X460Y1650D01*
X989Y1650D02*
X1031Y1650D01*
X416Y1649D02*
X462Y1649D01*
X991Y1649D02*
X1032Y1649D01*
X418Y1648D02*
X464Y1648D01*
X993Y1648D02*
X1033Y1648D01*
X420Y1647D02*
X465Y1647D01*
X994Y1647D02*
X1034Y1647D01*
X422Y1646D02*
X467Y1646D01*
X996Y1646D02*
X1035Y1646D01*
X423Y1645D02*
X468Y1645D01*
X998Y1645D02*
X1036Y1645D01*
X425Y1644D02*
X470Y1644D01*
X999Y1644D02*
X1038Y1644D01*
X427Y1643D02*
X472Y1643D01*
X1001Y1643D02*
X1039Y1643D01*
X428Y1642D02*
X473Y1642D01*
X1002Y1642D02*
X1040Y1642D01*
X430Y1641D02*
X475Y1641D01*
X1004Y1641D02*
X1041Y1641D01*
X432Y1640D02*
X476Y1640D01*
X1005Y1640D02*
X1042Y1640D01*
X433Y1639D02*
X478Y1639D01*
X1007Y1639D02*
X1043Y1639D01*
X435Y1638D02*
X479Y1638D01*
X1008Y1638D02*
X1044Y1638D01*
X437Y1637D02*
X481Y1637D01*
X1009Y1637D02*
X1045Y1637D01*
X438Y1636D02*
X483Y1636D01*
X1011Y1636D02*
X1046Y1636D01*
X440Y1635D02*
X484Y1635D01*
X1012Y1635D02*
X1047Y1635D01*
X442Y1634D02*
X486Y1634D01*
X1013Y1634D02*
X1048Y1634D01*
X443Y1633D02*
X487Y1633D01*
X1015Y1633D02*
X1049Y1633D01*
X445Y1632D02*
X489Y1632D01*
X1016Y1632D02*
X1050Y1632D01*
X447Y1631D02*
X490Y1631D01*
X1017Y1631D02*
X1051Y1631D01*
X448Y1630D02*
X492Y1630D01*
X1018Y1630D02*
X1052Y1630D01*
X450Y1629D02*
X493Y1629D01*
X1019Y1629D02*
X1053Y1629D01*
X451Y1628D02*
X495Y1628D01*
X1020Y1628D02*
X1054Y1628D01*
X453Y1627D02*
X496Y1627D01*
X1022Y1627D02*
X1055Y1627D01*
X455Y1626D02*
X498Y1626D01*
X1023Y1626D02*
X1056Y1626D01*
X456Y1625D02*
X499Y1625D01*
X1024Y1625D02*
X1056Y1625D01*
X458Y1624D02*
X501Y1624D01*
X1025Y1624D02*
X1057Y1624D01*
X459Y1623D02*
X502Y1623D01*
X1026Y1623D02*
X1058Y1623D01*
X461Y1622D02*
X504Y1622D01*
X1027Y1622D02*
X1059Y1622D01*
X463Y1621D02*
X505Y1621D01*
X1028Y1621D02*
X1060Y1621D01*
X464Y1620D02*
X507Y1620D01*
X1029Y1620D02*
X1061Y1620D01*
X466Y1619D02*
X508Y1619D01*
X1030Y1619D02*
X1062Y1619D01*
X467Y1618D02*
X510Y1618D01*
X1031Y1618D02*
X1063Y1618D01*
X469Y1617D02*
X511Y1617D01*
X1032Y1617D02*
X1063Y1617D01*
X470Y1616D02*
X513Y1616D01*
X1033Y1616D02*
X1064Y1616D01*
X472Y1615D02*
X514Y1615D01*
X1034Y1615D02*
X1065Y1615D01*
X474Y1614D02*
X516Y1614D01*
X1035Y1614D02*
X1066Y1614D01*
X475Y1613D02*
X517Y1613D01*
X1036Y1613D02*
X1067Y1613D01*
X477Y1612D02*
X519Y1612D01*
X1037Y1612D02*
X1068Y1612D01*
X478Y1611D02*
X520Y1611D01*
X1038Y1611D02*
X1068Y1611D01*
X480Y1610D02*
X521Y1610D01*
X1039Y1610D02*
X1069Y1610D01*
X481Y1609D02*
X523Y1609D01*
X1040Y1609D02*
X1070Y1609D01*
X483Y1608D02*
X524Y1608D01*
X1041Y1608D02*
X1071Y1608D01*
X484Y1607D02*
X526Y1607D01*
X1041Y1607D02*
X1072Y1607D01*
X486Y1606D02*
X527Y1606D01*
X1042Y1606D02*
X1072Y1606D01*
X487Y1605D02*
X529Y1605D01*
X1043Y1605D02*
X1073Y1605D01*
X489Y1604D02*
X530Y1604D01*
X1044Y1604D02*
X1074Y1604D01*
X490Y1603D02*
X531Y1603D01*
X1045Y1603D02*
X1075Y1603D01*
X492Y1602D02*
X533Y1602D01*
X1046Y1602D02*
X1075Y1602D01*
X493Y1601D02*
X534Y1601D01*
X1047Y1601D02*
X1076Y1601D01*
X495Y1600D02*
X536Y1600D01*
X1047Y1600D02*
X1077Y1600D01*
X496Y1599D02*
X537Y1599D01*
X1048Y1599D02*
X1078Y1599D01*
X498Y1598D02*
X538Y1598D01*
X1049Y1598D02*
X1078Y1598D01*
X499Y1597D02*
X540Y1597D01*
X1050Y1597D02*
X1079Y1597D01*
X500Y1596D02*
X541Y1596D01*
X1051Y1596D02*
X1080Y1596D01*
X502Y1595D02*
X543Y1595D01*
X1052Y1595D02*
X1081Y1595D01*
X503Y1594D02*
X544Y1594D01*
X1052Y1594D02*
X1081Y1594D01*
X505Y1593D02*
X545Y1593D01*
X1053Y1593D02*
X1082Y1593D01*
X506Y1592D02*
X547Y1592D01*
X1054Y1592D02*
X1083Y1592D01*
X508Y1591D02*
X548Y1591D01*
X1055Y1591D02*
X1083Y1591D01*
X509Y1590D02*
X550Y1590D01*
X1055Y1590D02*
X1084Y1590D01*
X511Y1589D02*
X551Y1589D01*
X1056Y1589D02*
X1085Y1589D01*
X512Y1588D02*
X552Y1588D01*
X1057Y1588D02*
X1086Y1588D01*
X514Y1587D02*
X554Y1587D01*
X1058Y1587D02*
X1086Y1587D01*
X515Y1586D02*
X555Y1586D01*
X1059Y1586D02*
X1087Y1586D01*
X516Y1585D02*
X556Y1585D01*
X1059Y1585D02*
X1088Y1585D01*
X518Y1584D02*
X558Y1584D01*
X1060Y1584D02*
X1088Y1584D01*
X519Y1583D02*
X559Y1583D01*
X1061Y1583D02*
X1089Y1583D01*
X521Y1582D02*
X560Y1582D01*
X1061Y1582D02*
X1090Y1582D01*
X522Y1581D02*
X562Y1581D01*
X966Y1581D02*
X970Y1581D01*
X1062Y1581D02*
X1090Y1581D01*
X523Y1580D02*
X563Y1580D01*
X963Y1580D02*
X973Y1580D01*
X1063Y1580D02*
X1091Y1580D01*
X525Y1579D02*
X565Y1579D01*
X962Y1579D02*
X975Y1579D01*
X1064Y1579D02*
X1092Y1579D01*
X526Y1578D02*
X566Y1578D01*
X960Y1578D02*
X976Y1578D01*
X1064Y1578D02*
X1092Y1578D01*
X528Y1577D02*
X567Y1577D01*
X960Y1577D02*
X977Y1577D01*
X1065Y1577D02*
X1093Y1577D01*
X529Y1576D02*
X568Y1576D01*
X959Y1576D02*
X978Y1576D01*
X1066Y1576D02*
X1094Y1576D01*
X530Y1575D02*
X570Y1575D01*
X958Y1575D02*
X978Y1575D01*
X1066Y1575D02*
X1094Y1575D01*
X532Y1574D02*
X571Y1574D01*
X958Y1574D02*
X979Y1574D01*
X1067Y1574D02*
X1095Y1574D01*
X533Y1573D02*
X572Y1573D01*
X957Y1573D02*
X979Y1573D01*
X1068Y1573D02*
X1095Y1573D01*
X535Y1572D02*
X574Y1572D01*
X957Y1572D02*
X980Y1572D01*
X1068Y1572D02*
X1096Y1572D01*
X536Y1571D02*
X575Y1571D01*
X957Y1571D02*
X980Y1571D01*
X1069Y1571D02*
X1097Y1571D01*
X537Y1570D02*
X576Y1570D01*
X957Y1570D02*
X981Y1570D01*
X1070Y1570D02*
X1097Y1570D01*
X539Y1569D02*
X578Y1569D01*
X957Y1569D02*
X981Y1569D01*
X1070Y1569D02*
X1098Y1569D01*
X540Y1568D02*
X579Y1568D01*
X957Y1568D02*
X982Y1568D01*
X1071Y1568D02*
X1098Y1568D01*
X541Y1567D02*
X580Y1567D01*
X957Y1567D02*
X982Y1567D01*
X1072Y1567D02*
X1099Y1567D01*
X543Y1566D02*
X582Y1566D01*
X957Y1566D02*
X983Y1566D01*
X1072Y1566D02*
X1100Y1566D01*
X544Y1565D02*
X583Y1565D01*
X958Y1565D02*
X983Y1565D01*
X1073Y1565D02*
X1100Y1565D01*
X545Y1564D02*
X584Y1564D01*
X958Y1564D02*
X984Y1564D01*
X1074Y1564D02*
X1101Y1564D01*
X547Y1563D02*
X586Y1563D01*
X958Y1563D02*
X984Y1563D01*
X1074Y1563D02*
X1102Y1563D01*
X548Y1562D02*
X587Y1562D01*
X959Y1562D02*
X985Y1562D01*
X1075Y1562D02*
X1102Y1562D01*
X550Y1561D02*
X588Y1561D01*
X959Y1561D02*
X985Y1561D01*
X1076Y1561D02*
X1103Y1561D01*
X551Y1560D02*
X589Y1560D01*
X960Y1560D02*
X986Y1560D01*
X1076Y1560D02*
X1103Y1560D01*
X552Y1559D02*
X591Y1559D01*
X960Y1559D02*
X986Y1559D01*
X1077Y1559D02*
X1104Y1559D01*
X554Y1558D02*
X592Y1558D01*
X961Y1558D02*
X987Y1558D01*
X1077Y1558D02*
X1104Y1558D01*
X555Y1557D02*
X593Y1557D01*
X961Y1557D02*
X987Y1557D01*
X1078Y1557D02*
X1105Y1557D01*
X556Y1556D02*
X594Y1556D01*
X962Y1556D02*
X988Y1556D01*
X1079Y1556D02*
X1106Y1556D01*
X557Y1555D02*
X596Y1555D01*
X962Y1555D02*
X988Y1555D01*
X1079Y1555D02*
X1106Y1555D01*
X559Y1554D02*
X597Y1554D01*
X963Y1554D02*
X989Y1554D01*
X1080Y1554D02*
X1107Y1554D01*
X560Y1553D02*
X598Y1553D01*
X963Y1553D02*
X989Y1553D01*
X1081Y1553D02*
X1107Y1553D01*
X561Y1552D02*
X600Y1552D01*
X964Y1552D02*
X990Y1552D01*
X1081Y1552D02*
X1108Y1552D01*
X563Y1551D02*
X601Y1551D01*
X964Y1551D02*
X990Y1551D01*
X1082Y1551D02*
X1108Y1551D01*
X564Y1550D02*
X602Y1550D01*
X965Y1550D02*
X991Y1550D01*
X1082Y1550D02*
X1109Y1550D01*
X565Y1549D02*
X603Y1549D01*
X965Y1549D02*
X991Y1549D01*
X1083Y1549D02*
X1110Y1549D01*
X567Y1548D02*
X605Y1548D01*
X966Y1548D02*
X992Y1548D01*
X1084Y1548D02*
X1110Y1548D01*
X568Y1547D02*
X606Y1547D01*
X966Y1547D02*
X992Y1547D01*
X1084Y1547D02*
X1111Y1547D01*
X569Y1546D02*
X607Y1546D01*
X967Y1546D02*
X993Y1546D01*
X1085Y1546D02*
X1111Y1546D01*
X571Y1545D02*
X608Y1545D01*
X967Y1545D02*
X993Y1545D01*
X1085Y1545D02*
X1112Y1545D01*
X572Y1544D02*
X610Y1544D01*
X968Y1544D02*
X994Y1544D01*
X1086Y1544D02*
X1112Y1544D01*
X573Y1543D02*
X611Y1543D01*
X968Y1543D02*
X994Y1543D01*
X1086Y1543D02*
X1113Y1543D01*
X574Y1542D02*
X612Y1542D01*
X969Y1542D02*
X995Y1542D01*
X1087Y1542D02*
X1113Y1542D01*
X576Y1541D02*
X613Y1541D01*
X969Y1541D02*
X996Y1541D01*
X1088Y1541D02*
X1114Y1541D01*
X577Y1540D02*
X615Y1540D01*
X970Y1540D02*
X996Y1540D01*
X1088Y1540D02*
X1114Y1540D01*
X578Y1539D02*
X616Y1539D01*
X970Y1539D02*
X997Y1539D01*
X1089Y1539D02*
X1115Y1539D01*
X580Y1538D02*
X617Y1538D01*
X971Y1538D02*
X997Y1538D01*
X1089Y1538D02*
X1115Y1538D01*
X581Y1537D02*
X618Y1537D01*
X972Y1537D02*
X998Y1537D01*
X1090Y1537D02*
X1116Y1537D01*
X582Y1536D02*
X620Y1536D01*
X972Y1536D02*
X998Y1536D01*
X1090Y1536D02*
X1117Y1536D01*
X583Y1535D02*
X621Y1535D01*
X973Y1535D02*
X999Y1535D01*
X1091Y1535D02*
X1117Y1535D01*
X585Y1534D02*
X622Y1534D01*
X973Y1534D02*
X999Y1534D01*
X1091Y1534D02*
X1118Y1534D01*
X586Y1533D02*
X623Y1533D01*
X974Y1533D02*
X1000Y1533D01*
X1092Y1533D02*
X1118Y1533D01*
X587Y1532D02*
X624Y1532D01*
X974Y1532D02*
X1000Y1532D01*
X1093Y1532D02*
X1119Y1532D01*
X589Y1531D02*
X626Y1531D01*
X975Y1531D02*
X1001Y1531D01*
X1093Y1531D02*
X1119Y1531D01*
X590Y1530D02*
X627Y1530D01*
X975Y1530D02*
X1002Y1530D01*
X1094Y1530D02*
X1120Y1530D01*
X591Y1529D02*
X628Y1529D01*
X976Y1529D02*
X1002Y1529D01*
X1094Y1529D02*
X1120Y1529D01*
X592Y1528D02*
X629Y1528D01*
X976Y1528D02*
X1003Y1528D01*
X1095Y1528D02*
X1121Y1528D01*
X593Y1527D02*
X630Y1527D01*
X977Y1527D02*
X1003Y1527D01*
X1095Y1527D02*
X1121Y1527D01*
X595Y1526D02*
X632Y1526D01*
X977Y1526D02*
X1004Y1526D01*
X1096Y1526D02*
X1122Y1526D01*
X596Y1525D02*
X633Y1525D01*
X978Y1525D02*
X1004Y1525D01*
X1096Y1525D02*
X1122Y1525D01*
X597Y1524D02*
X634Y1524D01*
X978Y1524D02*
X1005Y1524D01*
X1097Y1524D02*
X1123Y1524D01*
X598Y1523D02*
X635Y1523D01*
X979Y1523D02*
X1005Y1523D01*
X1097Y1523D02*
X1123Y1523D01*
X600Y1522D02*
X636Y1522D01*
X980Y1522D02*
X1006Y1522D01*
X1098Y1522D02*
X1124Y1522D01*
X601Y1521D02*
X638Y1521D01*
X980Y1521D02*
X1007Y1521D01*
X1098Y1521D02*
X1124Y1521D01*
X602Y1520D02*
X639Y1520D01*
X981Y1520D02*
X1007Y1520D01*
X1099Y1520D02*
X1125Y1520D01*
X603Y1519D02*
X640Y1519D01*
X981Y1519D02*
X1008Y1519D01*
X1099Y1519D02*
X1125Y1519D01*
X605Y1518D02*
X641Y1518D01*
X982Y1518D02*
X1008Y1518D01*
X1100Y1518D02*
X1126Y1518D01*
X606Y1517D02*
X643Y1517D01*
X982Y1517D02*
X1009Y1517D01*
X1100Y1517D02*
X1126Y1517D01*
X607Y1516D02*
X644Y1516D01*
X983Y1516D02*
X1009Y1516D01*
X1101Y1516D02*
X1127Y1516D01*
X608Y1515D02*
X645Y1515D01*
X983Y1515D02*
X1010Y1515D01*
X1101Y1515D02*
X1127Y1515D01*
X610Y1514D02*
X646Y1514D01*
X984Y1514D02*
X1010Y1514D01*
X1102Y1514D02*
X1128Y1514D01*
X611Y1513D02*
X647Y1513D01*
X985Y1513D02*
X1011Y1513D01*
X1102Y1513D02*
X1128Y1513D01*
X612Y1512D02*
X648Y1512D01*
X985Y1512D02*
X1012Y1512D01*
X1103Y1512D02*
X1129Y1512D01*
X613Y1511D02*
X650Y1511D01*
X986Y1511D02*
X1012Y1511D01*
X1103Y1511D02*
X1129Y1511D01*
X614Y1510D02*
X651Y1510D01*
X986Y1510D02*
X1013Y1510D01*
X1104Y1510D02*
X1129Y1510D01*
X616Y1509D02*
X652Y1509D01*
X987Y1509D02*
X1013Y1509D01*
X1104Y1509D02*
X1130Y1509D01*
X617Y1508D02*
X653Y1508D01*
X987Y1508D02*
X1014Y1508D01*
X1105Y1508D02*
X1130Y1508D01*
X618Y1507D02*
X654Y1507D01*
X988Y1507D02*
X1014Y1507D01*
X1105Y1507D02*
X1131Y1507D01*
X619Y1506D02*
X655Y1506D01*
X988Y1506D02*
X1015Y1506D01*
X1106Y1506D02*
X1131Y1506D01*
X620Y1505D02*
X657Y1505D01*
X989Y1505D02*
X1016Y1505D01*
X1106Y1505D02*
X1132Y1505D01*
X622Y1504D02*
X658Y1504D01*
X990Y1504D02*
X1016Y1504D01*
X1107Y1504D02*
X1132Y1504D01*
X623Y1503D02*
X659Y1503D01*
X990Y1503D02*
X1017Y1503D01*
X1107Y1503D02*
X1133Y1503D01*
X624Y1502D02*
X660Y1502D01*
X991Y1502D02*
X1017Y1502D01*
X1108Y1502D02*
X1133Y1502D01*
X625Y1501D02*
X661Y1501D01*
X991Y1501D02*
X1018Y1501D01*
X1108Y1501D02*
X1134Y1501D01*
X626Y1500D02*
X662Y1500D01*
X992Y1500D02*
X1019Y1500D01*
X1109Y1500D02*
X1134Y1500D01*
X628Y1499D02*
X664Y1499D01*
X992Y1499D02*
X1019Y1499D01*
X1109Y1499D02*
X1134Y1499D01*
X629Y1498D02*
X665Y1498D01*
X993Y1498D02*
X1020Y1498D01*
X1110Y1498D02*
X1135Y1498D01*
X630Y1497D02*
X666Y1497D01*
X993Y1497D02*
X1020Y1497D01*
X1110Y1497D02*
X1135Y1497D01*
X631Y1496D02*
X667Y1496D01*
X994Y1496D02*
X1021Y1496D01*
X1110Y1496D02*
X1136Y1496D01*
X632Y1495D02*
X668Y1495D01*
X995Y1495D02*
X1021Y1495D01*
X1111Y1495D02*
X1136Y1495D01*
X634Y1494D02*
X669Y1494D01*
X995Y1494D02*
X1022Y1494D01*
X1111Y1494D02*
X1137Y1494D01*
X635Y1493D02*
X670Y1493D01*
X996Y1493D02*
X1023Y1493D01*
X1112Y1493D02*
X1137Y1493D01*
X636Y1492D02*
X672Y1492D01*
X996Y1492D02*
X1023Y1492D01*
X1112Y1492D02*
X1138Y1492D01*
X637Y1491D02*
X673Y1491D01*
X997Y1491D02*
X1024Y1491D01*
X1113Y1491D02*
X1138Y1491D01*
X638Y1490D02*
X674Y1490D01*
X998Y1490D02*
X1024Y1490D01*
X1113Y1490D02*
X1138Y1490D01*
X639Y1489D02*
X675Y1489D01*
X998Y1489D02*
X1025Y1489D01*
X1114Y1489D02*
X1139Y1489D01*
X641Y1488D02*
X676Y1488D01*
X999Y1488D02*
X1026Y1488D01*
X1114Y1488D02*
X1139Y1488D01*
X642Y1487D02*
X677Y1487D01*
X999Y1487D02*
X1026Y1487D01*
X1115Y1487D02*
X1140Y1487D01*
X643Y1486D02*
X678Y1486D01*
X1000Y1486D02*
X1027Y1486D01*
X1115Y1486D02*
X1140Y1486D01*
X644Y1485D02*
X679Y1485D01*
X1000Y1485D02*
X1027Y1485D01*
X1115Y1485D02*
X1141Y1485D01*
X645Y1484D02*
X681Y1484D01*
X1001Y1484D02*
X1028Y1484D01*
X1116Y1484D02*
X1141Y1484D01*
X646Y1483D02*
X682Y1483D01*
X1002Y1483D02*
X1029Y1483D01*
X1116Y1483D02*
X1141Y1483D01*
X648Y1482D02*
X683Y1482D01*
X1002Y1482D02*
X1029Y1482D01*
X1117Y1482D02*
X1142Y1482D01*
X649Y1481D02*
X684Y1481D01*
X1003Y1481D02*
X1030Y1481D01*
X1117Y1481D02*
X1142Y1481D01*
X650Y1480D02*
X685Y1480D01*
X1003Y1480D02*
X1030Y1480D01*
X1118Y1480D02*
X1143Y1480D01*
X651Y1479D02*
X686Y1479D01*
X1004Y1479D02*
X1031Y1479D01*
X1118Y1479D02*
X1143Y1479D01*
X652Y1478D02*
X687Y1478D01*
X1005Y1478D02*
X1032Y1478D01*
X1118Y1478D02*
X1143Y1478D01*
X653Y1477D02*
X688Y1477D01*
X1005Y1477D02*
X1032Y1477D01*
X1119Y1477D02*
X1144Y1477D01*
X654Y1476D02*
X690Y1476D01*
X1006Y1476D02*
X1033Y1476D01*
X1119Y1476D02*
X1144Y1476D01*
X656Y1475D02*
X691Y1475D01*
X1006Y1475D02*
X1033Y1475D01*
X1120Y1475D02*
X1145Y1475D01*
X657Y1474D02*
X692Y1474D01*
X1007Y1474D02*
X1034Y1474D01*
X1120Y1474D02*
X1145Y1474D01*
X658Y1473D02*
X693Y1473D01*
X1008Y1473D02*
X1035Y1473D01*
X1121Y1473D02*
X1146Y1473D01*
X659Y1472D02*
X694Y1472D01*
X1008Y1472D02*
X1035Y1472D01*
X1121Y1472D02*
X1146Y1472D01*
X660Y1471D02*
X695Y1471D01*
X1009Y1471D02*
X1036Y1471D01*
X1121Y1471D02*
X1146Y1471D01*
X661Y1470D02*
X696Y1470D01*
X1009Y1470D02*
X1037Y1470D01*
X1122Y1470D02*
X1147Y1470D01*
X662Y1469D02*
X697Y1469D01*
X1010Y1469D02*
X1037Y1469D01*
X1122Y1469D02*
X1147Y1469D01*
X663Y1468D02*
X698Y1468D01*
X1011Y1468D02*
X1038Y1468D01*
X1123Y1468D02*
X1148Y1468D01*
X665Y1467D02*
X699Y1467D01*
X1011Y1467D02*
X1038Y1467D01*
X1123Y1467D02*
X1148Y1467D01*
X666Y1466D02*
X701Y1466D01*
X1012Y1466D02*
X1039Y1466D01*
X1124Y1466D02*
X1148Y1466D01*
X667Y1465D02*
X702Y1465D01*
X1012Y1465D02*
X1040Y1465D01*
X1124Y1465D02*
X1149Y1465D01*
X668Y1464D02*
X703Y1464D01*
X1013Y1464D02*
X1040Y1464D01*
X1124Y1464D02*
X1149Y1464D01*
X669Y1463D02*
X704Y1463D01*
X1014Y1463D02*
X1041Y1463D01*
X1125Y1463D02*
X1150Y1463D01*
X670Y1462D02*
X705Y1462D01*
X1014Y1462D02*
X1042Y1462D01*
X1125Y1462D02*
X1150Y1462D01*
X671Y1461D02*
X706Y1461D01*
X1015Y1461D02*
X1042Y1461D01*
X1126Y1461D02*
X1150Y1461D01*
X673Y1460D02*
X707Y1460D01*
X1016Y1460D02*
X1043Y1460D01*
X1126Y1460D02*
X1151Y1460D01*
X674Y1459D02*
X708Y1459D01*
X1016Y1459D02*
X1043Y1459D01*
X1126Y1459D02*
X1151Y1459D01*
X675Y1458D02*
X709Y1458D01*
X1017Y1458D02*
X1044Y1458D01*
X1127Y1458D02*
X1151Y1458D01*
X676Y1457D02*
X710Y1457D01*
X1017Y1457D02*
X1045Y1457D01*
X1127Y1457D02*
X1152Y1457D01*
X677Y1456D02*
X712Y1456D01*
X1018Y1456D02*
X1045Y1456D01*
X1128Y1456D02*
X1152Y1456D01*
X678Y1455D02*
X713Y1455D01*
X1019Y1455D02*
X1046Y1455D01*
X1128Y1455D02*
X1153Y1455D01*
X679Y1454D02*
X714Y1454D01*
X1019Y1454D02*
X1047Y1454D01*
X1128Y1454D02*
X1153Y1454D01*
X680Y1453D02*
X715Y1453D01*
X1020Y1453D02*
X1047Y1453D01*
X1129Y1453D02*
X1153Y1453D01*
X681Y1452D02*
X716Y1452D01*
X1021Y1452D02*
X1048Y1452D01*
X1129Y1452D02*
X1154Y1452D01*
X682Y1451D02*
X717Y1451D01*
X1021Y1451D02*
X1049Y1451D01*
X1129Y1451D02*
X1154Y1451D01*
X684Y1450D02*
X718Y1450D01*
X1022Y1450D02*
X1049Y1450D01*
X1130Y1450D02*
X1155Y1450D01*
X685Y1449D02*
X719Y1449D01*
X1022Y1449D02*
X1050Y1449D01*
X1130Y1449D02*
X1155Y1449D01*
X686Y1448D02*
X720Y1448D01*
X1023Y1448D02*
X1050Y1448D01*
X1131Y1448D02*
X1155Y1448D01*
X687Y1447D02*
X721Y1447D01*
X1024Y1447D02*
X1051Y1447D01*
X1131Y1447D02*
X1156Y1447D01*
X688Y1446D02*
X722Y1446D01*
X1024Y1446D02*
X1052Y1446D01*
X1131Y1446D02*
X1156Y1446D01*
X689Y1445D02*
X723Y1445D01*
X1025Y1445D02*
X1052Y1445D01*
X1132Y1445D02*
X1156Y1445D01*
X690Y1444D02*
X724Y1444D01*
X1026Y1444D02*
X1053Y1444D01*
X1132Y1444D02*
X1157Y1444D01*
X691Y1443D02*
X725Y1443D01*
X1026Y1443D02*
X1054Y1443D01*
X1133Y1443D02*
X1157Y1443D01*
X692Y1442D02*
X726Y1442D01*
X1027Y1442D02*
X1054Y1442D01*
X1133Y1442D02*
X1157Y1442D01*
X693Y1441D02*
X728Y1441D01*
X1027Y1441D02*
X1055Y1441D01*
X1133Y1441D02*
X1158Y1441D01*
X695Y1440D02*
X729Y1440D01*
X1028Y1440D02*
X1056Y1440D01*
X1134Y1440D02*
X1158Y1440D01*
X696Y1439D02*
X730Y1439D01*
X1029Y1439D02*
X1056Y1439D01*
X1134Y1439D02*
X1159Y1439D01*
X697Y1438D02*
X731Y1438D01*
X1029Y1438D02*
X1057Y1438D01*
X1134Y1438D02*
X1159Y1438D01*
X698Y1437D02*
X732Y1437D01*
X1030Y1437D02*
X1058Y1437D01*
X1135Y1437D02*
X1159Y1437D01*
X699Y1436D02*
X733Y1436D01*
X1031Y1436D02*
X1058Y1436D01*
X1135Y1436D02*
X1160Y1436D01*
X700Y1435D02*
X734Y1435D01*
X1031Y1435D02*
X1059Y1435D01*
X1136Y1435D02*
X1160Y1435D01*
X701Y1434D02*
X735Y1434D01*
X1032Y1434D02*
X1060Y1434D01*
X1136Y1434D02*
X1160Y1434D01*
X702Y1433D02*
X736Y1433D01*
X1033Y1433D02*
X1060Y1433D01*
X1136Y1433D02*
X1161Y1433D01*
X703Y1432D02*
X737Y1432D01*
X1033Y1432D02*
X1061Y1432D01*
X1137Y1432D02*
X1161Y1432D01*
X704Y1431D02*
X738Y1431D01*
X1034Y1431D02*
X1062Y1431D01*
X1137Y1431D02*
X1161Y1431D01*
X705Y1430D02*
X739Y1430D01*
X1035Y1430D02*
X1062Y1430D01*
X1137Y1430D02*
X1162Y1430D01*
X706Y1429D02*
X740Y1429D01*
X1035Y1429D02*
X1063Y1429D01*
X1138Y1429D02*
X1162Y1429D01*
X707Y1428D02*
X741Y1428D01*
X1036Y1428D02*
X1064Y1428D01*
X1138Y1428D02*
X1163Y1428D01*
X708Y1427D02*
X742Y1427D01*
X1036Y1427D02*
X1064Y1427D01*
X1138Y1427D02*
X1163Y1427D01*
X709Y1426D02*
X743Y1426D01*
X1037Y1426D02*
X1065Y1426D01*
X1139Y1426D02*
X1163Y1426D01*
X711Y1425D02*
X744Y1425D01*
X1038Y1425D02*
X1066Y1425D01*
X1139Y1425D02*
X1164Y1425D01*
X712Y1424D02*
X745Y1424D01*
X1038Y1424D02*
X1066Y1424D01*
X1139Y1424D02*
X1164Y1424D01*
X713Y1423D02*
X746Y1423D01*
X1039Y1423D02*
X1067Y1423D01*
X1140Y1423D02*
X1164Y1423D01*
X714Y1422D02*
X747Y1422D01*
X1040Y1422D02*
X1068Y1422D01*
X1140Y1422D02*
X1165Y1422D01*
X715Y1421D02*
X748Y1421D01*
X1040Y1421D02*
X1068Y1421D01*
X1141Y1421D02*
X1165Y1421D01*
X716Y1420D02*
X749Y1420D01*
X1041Y1420D02*
X1069Y1420D01*
X1141Y1420D02*
X1165Y1420D01*
X717Y1419D02*
X750Y1419D01*
X1042Y1419D02*
X1070Y1419D01*
X1141Y1419D02*
X1166Y1419D01*
X718Y1418D02*
X752Y1418D01*
X1042Y1418D02*
X1070Y1418D01*
X1142Y1418D02*
X1166Y1418D01*
X719Y1417D02*
X753Y1417D01*
X1043Y1417D02*
X1071Y1417D01*
X1142Y1417D02*
X1166Y1417D01*
X720Y1416D02*
X754Y1416D01*
X1044Y1416D02*
X1072Y1416D01*
X1142Y1416D02*
X1167Y1416D01*
X721Y1415D02*
X755Y1415D01*
X1044Y1415D02*
X1072Y1415D01*
X1143Y1415D02*
X1167Y1415D01*
X722Y1414D02*
X756Y1414D01*
X1045Y1414D02*
X1073Y1414D01*
X1143Y1414D02*
X1167Y1414D01*
X723Y1413D02*
X757Y1413D01*
X1046Y1413D02*
X1074Y1413D01*
X1143Y1413D02*
X1168Y1413D01*
X724Y1412D02*
X758Y1412D01*
X1046Y1412D02*
X1074Y1412D01*
X1144Y1412D02*
X1168Y1412D01*
X725Y1411D02*
X759Y1411D01*
X1047Y1411D02*
X1075Y1411D01*
X1144Y1411D02*
X1168Y1411D01*
X726Y1410D02*
X760Y1410D01*
X1048Y1410D02*
X1076Y1410D01*
X1144Y1410D02*
X1169Y1410D01*
X727Y1409D02*
X761Y1409D01*
X1048Y1409D02*
X1076Y1409D01*
X1145Y1409D02*
X1169Y1409D01*
X728Y1408D02*
X762Y1408D01*
X1049Y1408D02*
X1077Y1408D01*
X1145Y1408D02*
X1169Y1408D01*
X729Y1407D02*
X763Y1407D01*
X1050Y1407D02*
X1078Y1407D01*
X1145Y1407D02*
X1170Y1407D01*
X730Y1406D02*
X764Y1406D01*
X1050Y1406D02*
X1078Y1406D01*
X1146Y1406D02*
X1170Y1406D01*
X731Y1405D02*
X765Y1405D01*
X1051Y1405D02*
X1079Y1405D01*
X1146Y1405D02*
X1170Y1405D01*
X733Y1404D02*
X766Y1404D01*
X1052Y1404D02*
X1080Y1404D01*
X1146Y1404D02*
X1171Y1404D01*
X734Y1403D02*
X767Y1403D01*
X1052Y1403D02*
X1081Y1403D01*
X1147Y1403D02*
X1171Y1403D01*
X735Y1402D02*
X768Y1402D01*
X1053Y1402D02*
X1081Y1402D01*
X1147Y1402D02*
X1171Y1402D01*
X736Y1401D02*
X769Y1401D01*
X1054Y1401D02*
X1082Y1401D01*
X1147Y1401D02*
X1172Y1401D01*
X737Y1400D02*
X770Y1400D01*
X1054Y1400D02*
X1083Y1400D01*
X1148Y1400D02*
X1172Y1400D01*
X738Y1399D02*
X771Y1399D01*
X1055Y1399D02*
X1083Y1399D01*
X1148Y1399D02*
X1172Y1399D01*
X739Y1398D02*
X772Y1398D01*
X1056Y1398D02*
X1084Y1398D01*
X1148Y1398D02*
X1172Y1398D01*
X740Y1397D02*
X773Y1397D01*
X1057Y1397D02*
X1085Y1397D01*
X1149Y1397D02*
X1173Y1397D01*
X741Y1396D02*
X774Y1396D01*
X1057Y1396D02*
X1085Y1396D01*
X1149Y1396D02*
X1173Y1396D01*
X742Y1395D02*
X775Y1395D01*
X1058Y1395D02*
X1086Y1395D01*
X1149Y1395D02*
X1173Y1395D01*
X743Y1394D02*
X776Y1394D01*
X1059Y1394D02*
X1087Y1394D01*
X1150Y1394D02*
X1174Y1394D01*
X744Y1393D02*
X777Y1393D01*
X1059Y1393D02*
X1087Y1393D01*
X1150Y1393D02*
X1174Y1393D01*
X745Y1392D02*
X778Y1392D01*
X1060Y1392D02*
X1088Y1392D01*
X1150Y1392D02*
X1174Y1392D01*
X746Y1391D02*
X779Y1391D01*
X1061Y1391D02*
X1089Y1391D01*
X1151Y1391D02*
X1175Y1391D01*
X747Y1390D02*
X780Y1390D01*
X1061Y1390D02*
X1090Y1390D01*
X1151Y1390D02*
X1175Y1390D01*
X748Y1389D02*
X781Y1389D01*
X1062Y1389D02*
X1090Y1389D01*
X1151Y1389D02*
X1175Y1389D01*
X749Y1388D02*
X782Y1388D01*
X1063Y1388D02*
X1091Y1388D01*
X1151Y1388D02*
X1176Y1388D01*
X750Y1387D02*
X783Y1387D01*
X1063Y1387D02*
X1092Y1387D01*
X1152Y1387D02*
X1176Y1387D01*
X751Y1386D02*
X784Y1386D01*
X1064Y1386D02*
X1092Y1386D01*
X1152Y1386D02*
X1176Y1386D01*
X752Y1385D02*
X785Y1385D01*
X1065Y1385D02*
X1093Y1385D01*
X1152Y1385D02*
X1176Y1385D01*
X753Y1384D02*
X786Y1384D01*
X1066Y1384D02*
X1094Y1384D01*
X1153Y1384D02*
X1177Y1384D01*
X754Y1383D02*
X787Y1383D01*
X1066Y1383D02*
X1095Y1383D01*
X1153Y1383D02*
X1177Y1383D01*
X755Y1382D02*
X788Y1382D01*
X1067Y1382D02*
X1095Y1382D01*
X1153Y1382D02*
X1177Y1382D01*
X756Y1381D02*
X789Y1381D01*
X1068Y1381D02*
X1096Y1381D01*
X1154Y1381D02*
X1178Y1381D01*
X757Y1380D02*
X790Y1380D01*
X1068Y1380D02*
X1097Y1380D01*
X1154Y1380D02*
X1178Y1380D01*
X758Y1379D02*
X791Y1379D01*
X1069Y1379D02*
X1097Y1379D01*
X1154Y1379D02*
X1178Y1379D01*
X759Y1378D02*
X792Y1378D01*
X1070Y1378D02*
X1098Y1378D01*
X1155Y1378D02*
X1179Y1378D01*
X760Y1377D02*
X793Y1377D01*
X1070Y1377D02*
X1099Y1377D01*
X1155Y1377D02*
X1179Y1377D01*
X761Y1376D02*
X794Y1376D01*
X1071Y1376D02*
X1100Y1376D01*
X1155Y1376D02*
X1179Y1376D01*
X762Y1375D02*
X795Y1375D01*
X1072Y1375D02*
X1100Y1375D01*
X1155Y1375D02*
X1179Y1375D01*
X763Y1374D02*
X796Y1374D01*
X1073Y1374D02*
X1101Y1374D01*
X1156Y1374D02*
X1180Y1374D01*
X764Y1373D02*
X797Y1373D01*
X1073Y1373D02*
X1102Y1373D01*
X1156Y1373D02*
X1180Y1373D01*
X765Y1372D02*
X797Y1372D01*
X1074Y1372D02*
X1102Y1372D01*
X1156Y1372D02*
X1180Y1372D01*
X766Y1371D02*
X798Y1371D01*
X1075Y1371D02*
X1103Y1371D01*
X1157Y1371D02*
X1180Y1371D01*
X767Y1370D02*
X799Y1370D01*
X1075Y1370D02*
X1104Y1370D01*
X1157Y1370D02*
X1179Y1370D01*
X768Y1369D02*
X800Y1369D01*
X1076Y1369D02*
X1105Y1369D01*
X1157Y1369D02*
X1179Y1369D01*
X769Y1368D02*
X801Y1368D01*
X1077Y1368D02*
X1105Y1368D01*
X1158Y1368D02*
X1179Y1368D01*
X770Y1367D02*
X802Y1367D01*
X1078Y1367D02*
X1106Y1367D01*
X1158Y1367D02*
X1178Y1367D01*
X771Y1366D02*
X803Y1366D01*
X1078Y1366D02*
X1107Y1366D01*
X1159Y1366D02*
X1178Y1366D01*
X772Y1365D02*
X804Y1365D01*
X1079Y1365D02*
X1108Y1365D01*
X1159Y1365D02*
X1177Y1365D01*
X773Y1364D02*
X805Y1364D01*
X1080Y1364D02*
X1108Y1364D01*
X1160Y1364D02*
X1176Y1364D01*
X774Y1363D02*
X806Y1363D01*
X1080Y1363D02*
X1109Y1363D01*
X1161Y1363D02*
X1175Y1363D01*
X775Y1362D02*
X807Y1362D01*
X1081Y1362D02*
X1110Y1362D01*
X1163Y1362D02*
X1174Y1362D01*
X776Y1361D02*
X808Y1361D01*
X1082Y1361D02*
X1111Y1361D01*
X1165Y1361D02*
X1171Y1361D01*
X777Y1360D02*
X809Y1360D01*
X1083Y1360D02*
X1111Y1360D01*
X778Y1359D02*
X810Y1359D01*
X1083Y1359D02*
X1112Y1359D01*
X779Y1358D02*
X811Y1358D01*
X1084Y1358D02*
X1113Y1358D01*
X780Y1357D02*
X812Y1357D01*
X1085Y1357D02*
X1114Y1357D01*
X781Y1356D02*
X813Y1356D01*
X1085Y1356D02*
X1114Y1356D01*
X782Y1355D02*
X814Y1355D01*
X1086Y1355D02*
X1115Y1355D01*
X783Y1354D02*
X815Y1354D01*
X1087Y1354D02*
X1116Y1354D01*
X784Y1353D02*
X816Y1353D01*
X1088Y1353D02*
X1117Y1353D01*
X785Y1352D02*
X817Y1352D01*
X1088Y1352D02*
X1117Y1352D01*
X786Y1351D02*
X818Y1351D01*
X1089Y1351D02*
X1118Y1351D01*
X786Y1350D02*
X819Y1350D01*
X1090Y1350D02*
X1119Y1350D01*
X787Y1349D02*
X820Y1349D01*
X1091Y1349D02*
X1120Y1349D01*
X788Y1348D02*
X821Y1348D01*
X1091Y1348D02*
X1120Y1348D01*
X789Y1347D02*
X821Y1347D01*
X1092Y1347D02*
X1121Y1347D01*
X790Y1346D02*
X822Y1346D01*
X1093Y1346D02*
X1122Y1346D01*
X791Y1345D02*
X823Y1345D01*
X1094Y1345D02*
X1123Y1345D01*
X792Y1344D02*
X824Y1344D01*
X1094Y1344D02*
X1123Y1344D01*
X793Y1343D02*
X825Y1343D01*
X1095Y1343D02*
X1124Y1343D01*
X794Y1342D02*
X826Y1342D01*
X1096Y1342D02*
X1125Y1342D01*
X795Y1341D02*
X827Y1341D01*
X1097Y1341D02*
X1126Y1341D01*
X796Y1340D02*
X828Y1340D01*
X1097Y1340D02*
X1126Y1340D01*
X797Y1339D02*
X829Y1339D01*
X1098Y1339D02*
X1127Y1339D01*
X798Y1338D02*
X830Y1338D01*
X1099Y1338D02*
X1128Y1338D01*
X799Y1337D02*
X831Y1337D01*
X1100Y1337D02*
X1129Y1337D01*
X800Y1336D02*
X832Y1336D01*
X1100Y1336D02*
X1130Y1336D01*
X801Y1335D02*
X833Y1335D01*
X1101Y1335D02*
X1130Y1335D01*
X802Y1334D02*
X834Y1334D01*
X1102Y1334D02*
X1131Y1334D01*
X803Y1333D02*
X835Y1333D01*
X1103Y1333D02*
X1132Y1333D01*
X804Y1332D02*
X836Y1332D01*
X1103Y1332D02*
X1133Y1332D01*
X805Y1331D02*
X836Y1331D01*
X1104Y1331D02*
X1133Y1331D01*
X806Y1330D02*
X837Y1330D01*
X1105Y1330D02*
X1134Y1330D01*
X807Y1329D02*
X838Y1329D01*
X1106Y1329D02*
X1135Y1329D01*
X807Y1328D02*
X839Y1328D01*
X1106Y1328D02*
X1136Y1328D01*
X808Y1327D02*
X840Y1327D01*
X1107Y1327D02*
X1136Y1327D01*
X809Y1326D02*
X841Y1326D01*
X1108Y1326D02*
X1137Y1326D01*
X810Y1325D02*
X842Y1325D01*
X1109Y1325D02*
X1138Y1325D01*
X811Y1324D02*
X843Y1324D01*
X1109Y1324D02*
X1139Y1324D01*
X812Y1323D02*
X844Y1323D01*
X1110Y1323D02*
X1140Y1323D01*
X813Y1322D02*
X845Y1322D01*
X1111Y1322D02*
X1140Y1322D01*
X814Y1321D02*
X846Y1321D01*
X1112Y1321D02*
X1141Y1321D01*
X815Y1320D02*
X847Y1320D01*
X1113Y1320D02*
X1142Y1320D01*
X816Y1319D02*
X848Y1319D01*
X1113Y1319D02*
X1143Y1319D01*
X817Y1318D02*
X849Y1318D01*
X1114Y1318D02*
X1144Y1318D01*
X818Y1317D02*
X849Y1317D01*
X1115Y1317D02*
X1144Y1317D01*
X819Y1316D02*
X850Y1316D01*
X1116Y1316D02*
X1145Y1316D01*
X820Y1315D02*
X851Y1315D01*
X1116Y1315D02*
X1146Y1315D01*
X821Y1314D02*
X852Y1314D01*
X1117Y1314D02*
X1147Y1314D01*
X821Y1313D02*
X853Y1313D01*
X1118Y1313D02*
X1148Y1313D01*
X822Y1312D02*
X854Y1312D01*
X1119Y1312D02*
X1148Y1312D01*
X823Y1311D02*
X855Y1311D01*
X1120Y1311D02*
X1149Y1311D01*
X824Y1310D02*
X856Y1310D01*
X1120Y1310D02*
X1150Y1310D01*
X825Y1309D02*
X857Y1309D01*
X1121Y1309D02*
X1151Y1309D01*
X826Y1308D02*
X858Y1308D01*
X1122Y1308D02*
X1152Y1308D01*
X827Y1307D02*
X859Y1307D01*
X1123Y1307D02*
X1152Y1307D01*
X828Y1306D02*
X859Y1306D01*
X1123Y1306D02*
X1153Y1306D01*
X829Y1305D02*
X860Y1305D01*
X1124Y1305D02*
X1154Y1305D01*
X830Y1304D02*
X861Y1304D01*
X1125Y1304D02*
X1155Y1304D01*
X831Y1303D02*
X862Y1303D01*
X1126Y1303D02*
X1156Y1303D01*
X832Y1302D02*
X863Y1302D01*
X1127Y1302D02*
X1156Y1302D01*
X833Y1301D02*
X864Y1301D01*
X1127Y1301D02*
X1157Y1301D01*
X834Y1300D02*
X865Y1300D01*
X1128Y1300D02*
X1158Y1300D01*
X834Y1299D02*
X866Y1299D01*
X1129Y1299D02*
X1159Y1299D01*
X835Y1298D02*
X867Y1298D01*
X1130Y1298D02*
X1160Y1298D01*
X836Y1297D02*
X868Y1297D01*
X1131Y1297D02*
X1160Y1297D01*
X837Y1296D02*
X868Y1296D01*
X1131Y1296D02*
X1161Y1296D01*
X838Y1295D02*
X869Y1295D01*
X1132Y1295D02*
X1162Y1295D01*
X839Y1294D02*
X870Y1294D01*
X1133Y1294D02*
X1163Y1294D01*
X840Y1293D02*
X871Y1293D01*
X1134Y1293D02*
X1164Y1293D01*
X841Y1292D02*
X872Y1292D01*
X1135Y1292D02*
X1165Y1292D01*
X842Y1291D02*
X873Y1291D01*
X1135Y1291D02*
X1165Y1291D01*
X843Y1290D02*
X874Y1290D01*
X1136Y1290D02*
X1166Y1290D01*
X843Y1289D02*
X875Y1289D01*
X1137Y1289D02*
X1167Y1289D01*
X844Y1288D02*
X876Y1288D01*
X1138Y1288D02*
X1168Y1288D01*
X845Y1287D02*
X877Y1287D01*
X1139Y1287D02*
X1169Y1287D01*
X846Y1286D02*
X877Y1286D01*
X1139Y1286D02*
X1170Y1286D01*
X847Y1285D02*
X878Y1285D01*
X1140Y1285D02*
X1170Y1285D01*
X848Y1284D02*
X879Y1284D01*
X1141Y1284D02*
X1171Y1284D01*
X849Y1283D02*
X880Y1283D01*
X1142Y1283D02*
X1172Y1283D01*
X850Y1282D02*
X881Y1282D01*
X1143Y1282D02*
X1173Y1282D01*
X851Y1281D02*
X882Y1281D01*
X1144Y1281D02*
X1174Y1281D01*
X852Y1280D02*
X883Y1280D01*
X1144Y1280D02*
X1175Y1280D01*
X853Y1279D02*
X884Y1279D01*
X1145Y1279D02*
X1175Y1279D01*
X853Y1278D02*
X884Y1278D01*
X1146Y1278D02*
X1176Y1278D01*
X854Y1277D02*
X885Y1277D01*
X1147Y1277D02*
X1177Y1277D01*
X855Y1276D02*
X886Y1276D01*
X1148Y1276D02*
X1178Y1276D01*
X856Y1275D02*
X887Y1275D01*
X1149Y1275D02*
X1179Y1275D01*
X857Y1274D02*
X888Y1274D01*
X1149Y1274D02*
X1180Y1274D01*
X858Y1273D02*
X889Y1273D01*
X1150Y1273D02*
X1180Y1273D01*
X859Y1272D02*
X890Y1272D01*
X1151Y1272D02*
X1181Y1272D01*
X860Y1271D02*
X891Y1271D01*
X1152Y1271D02*
X1182Y1271D01*
X861Y1270D02*
X892Y1270D01*
X1153Y1270D02*
X1183Y1270D01*
X861Y1269D02*
X892Y1269D01*
X1154Y1269D02*
X1184Y1269D01*
X862Y1268D02*
X893Y1268D01*
X1154Y1268D02*
X1185Y1268D01*
X863Y1267D02*
X894Y1267D01*
X1155Y1267D02*
X1186Y1267D01*
X864Y1266D02*
X895Y1266D01*
X1156Y1266D02*
X1187Y1266D01*
X865Y1265D02*
X896Y1265D01*
X1157Y1265D02*
X1187Y1265D01*
X866Y1264D02*
X897Y1264D01*
X1158Y1264D02*
X1188Y1264D01*
X867Y1263D02*
X898Y1263D01*
X1159Y1263D02*
X1189Y1263D01*
X868Y1262D02*
X899Y1262D01*
X1159Y1262D02*
X1190Y1262D01*
X869Y1261D02*
X899Y1261D01*
X1160Y1261D02*
X1191Y1261D01*
X869Y1260D02*
X900Y1260D01*
X1161Y1260D02*
X1192Y1260D01*
X870Y1259D02*
X901Y1259D01*
X1162Y1259D02*
X1193Y1259D01*
X871Y1258D02*
X902Y1258D01*
X1163Y1258D02*
X1193Y1258D01*
X872Y1257D02*
X903Y1257D01*
X1164Y1257D02*
X1194Y1257D01*
X873Y1256D02*
X904Y1256D01*
X1164Y1256D02*
X1195Y1256D01*
X874Y1255D02*
X905Y1255D01*
X1165Y1255D02*
X1196Y1255D01*
X875Y1254D02*
X905Y1254D01*
X1166Y1254D02*
X1197Y1254D01*
X876Y1253D02*
X906Y1253D01*
X1167Y1253D02*
X1198Y1253D01*
X876Y1252D02*
X907Y1252D01*
X1168Y1252D02*
X1199Y1252D01*
X877Y1251D02*
X908Y1251D01*
X1169Y1251D02*
X1200Y1251D01*
X878Y1250D02*
X909Y1250D01*
X1170Y1250D02*
X1200Y1250D01*
X879Y1249D02*
X910Y1249D01*
X1171Y1249D02*
X1201Y1249D01*
X880Y1248D02*
X911Y1248D01*
X1171Y1248D02*
X1202Y1248D01*
X881Y1247D02*
X911Y1247D01*
X1172Y1247D02*
X1203Y1247D01*
X882Y1246D02*
X912Y1246D01*
X1173Y1246D02*
X1204Y1246D01*
X883Y1245D02*
X913Y1245D01*
X1174Y1245D02*
X1205Y1245D01*
X883Y1244D02*
X914Y1244D01*
X1175Y1244D02*
X1206Y1244D01*
X884Y1243D02*
X915Y1243D01*
X1176Y1243D02*
X1207Y1243D01*
X885Y1242D02*
X916Y1242D01*
X1177Y1242D02*
X1208Y1242D01*
X886Y1241D02*
X917Y1241D01*
X1178Y1241D02*
X1208Y1241D01*
X887Y1240D02*
X917Y1240D01*
X1178Y1240D02*
X1209Y1240D01*
X888Y1239D02*
X918Y1239D01*
X1179Y1239D02*
X1210Y1239D01*
X889Y1238D02*
X919Y1238D01*
X1180Y1238D02*
X1211Y1238D01*
X889Y1237D02*
X920Y1237D01*
X1181Y1237D02*
X1212Y1237D01*
X890Y1236D02*
X921Y1236D01*
X1182Y1236D02*
X1213Y1236D01*
X891Y1235D02*
X922Y1235D01*
X1183Y1235D02*
X1214Y1235D01*
X892Y1234D02*
X923Y1234D01*
X1184Y1234D02*
X1215Y1234D01*
X893Y1233D02*
X923Y1233D01*
X1184Y1233D02*
X1216Y1233D01*
X894Y1232D02*
X924Y1232D01*
X1185Y1232D02*
X1217Y1232D01*
X895Y1231D02*
X925Y1231D01*
X1186Y1231D02*
X1218Y1231D01*
X895Y1230D02*
X926Y1230D01*
X1187Y1230D02*
X1218Y1230D01*
X896Y1229D02*
X927Y1229D01*
X1188Y1229D02*
X1219Y1229D01*
X897Y1228D02*
X928Y1228D01*
X1189Y1228D02*
X1220Y1228D01*
X898Y1227D02*
X929Y1227D01*
X1190Y1227D02*
X1221Y1227D01*
X899Y1226D02*
X929Y1226D01*
X1191Y1226D02*
X1222Y1226D01*
X900Y1225D02*
X930Y1225D01*
X1192Y1225D02*
X1223Y1225D01*
X901Y1224D02*
X931Y1224D01*
X1193Y1224D02*
X1224Y1224D01*
X901Y1223D02*
X932Y1223D01*
X1193Y1223D02*
X1225Y1223D01*
X902Y1222D02*
X933Y1222D01*
X1194Y1222D02*
X1226Y1222D01*
X903Y1221D02*
X934Y1221D01*
X1195Y1221D02*
X1227Y1221D01*
X904Y1220D02*
X934Y1220D01*
X1196Y1220D02*
X1228Y1220D01*
X905Y1219D02*
X935Y1219D01*
X1197Y1219D02*
X1228Y1219D01*
X906Y1218D02*
X936Y1218D01*
X1198Y1218D02*
X1229Y1218D01*
X907Y1217D02*
X937Y1217D01*
X1199Y1217D02*
X1230Y1217D01*
X907Y1216D02*
X938Y1216D01*
X1200Y1216D02*
X1231Y1216D01*
X908Y1215D02*
X939Y1215D01*
X1201Y1215D02*
X1232Y1215D01*
X909Y1214D02*
X939Y1214D01*
X1202Y1214D02*
X1233Y1214D01*
X910Y1213D02*
X940Y1213D01*
X1203Y1213D02*
X1234Y1213D01*
X911Y1212D02*
X941Y1212D01*
X1203Y1212D02*
X1235Y1212D01*
X912Y1211D02*
X942Y1211D01*
X1204Y1211D02*
X1236Y1211D01*
X912Y1210D02*
X943Y1210D01*
X1205Y1210D02*
X1237Y1210D01*
X913Y1209D02*
X944Y1209D01*
X1206Y1209D02*
X1238Y1209D01*
X914Y1208D02*
X944Y1208D01*
X1207Y1208D02*
X1239Y1208D01*
X915Y1207D02*
X945Y1207D01*
X1208Y1207D02*
X1240Y1207D01*
X916Y1206D02*
X946Y1206D01*
X1209Y1206D02*
X1241Y1206D01*
X917Y1205D02*
X947Y1205D01*
X1210Y1205D02*
X1242Y1205D01*
X917Y1204D02*
X948Y1204D01*
X1211Y1204D02*
X1243Y1204D01*
X918Y1203D02*
X949Y1203D01*
X1212Y1203D02*
X1244Y1203D01*
X919Y1202D02*
X949Y1202D01*
X1213Y1202D02*
X1245Y1202D01*
X920Y1201D02*
X950Y1201D01*
X1214Y1201D02*
X1246Y1201D01*
X921Y1200D02*
X951Y1200D01*
X1215Y1200D02*
X1247Y1200D01*
X922Y1199D02*
X952Y1199D01*
X1215Y1199D02*
X1247Y1199D01*
X923Y1198D02*
X953Y1198D01*
X1216Y1198D02*
X1248Y1198D01*
X923Y1197D02*
X954Y1197D01*
X1217Y1197D02*
X1249Y1197D01*
X924Y1196D02*
X954Y1196D01*
X1218Y1196D02*
X1250Y1196D01*
X925Y1195D02*
X955Y1195D01*
X1219Y1195D02*
X1251Y1195D01*
X926Y1194D02*
X956Y1194D01*
X1220Y1194D02*
X1252Y1194D01*
X927Y1193D02*
X957Y1193D01*
X1221Y1193D02*
X1253Y1193D01*
X928Y1192D02*
X958Y1192D01*
X1222Y1192D02*
X1254Y1192D01*
X928Y1191D02*
X958Y1191D01*
X1223Y1191D02*
X1255Y1191D01*
X929Y1190D02*
X959Y1190D01*
X1224Y1190D02*
X1256Y1190D01*
X930Y1189D02*
X960Y1189D01*
X1225Y1189D02*
X1257Y1189D01*
X931Y1188D02*
X961Y1188D01*
X1226Y1188D02*
X1258Y1188D01*
X932Y1187D02*
X962Y1187D01*
X1227Y1187D02*
X1259Y1187D01*
X933Y1186D02*
X963Y1186D01*
X1228Y1186D02*
X1260Y1186D01*
X933Y1185D02*
X963Y1185D01*
X1229Y1185D02*
X1261Y1185D01*
X934Y1184D02*
X964Y1184D01*
X1230Y1184D02*
X1262Y1184D01*
X935Y1183D02*
X965Y1183D01*
X1231Y1183D02*
X1263Y1183D01*
X936Y1182D02*
X966Y1182D01*
X1232Y1182D02*
X1264Y1182D01*
X937Y1181D02*
X967Y1181D01*
X1233Y1181D02*
X1265Y1181D01*
X937Y1180D02*
X967Y1180D01*
X1234Y1180D02*
X1266Y1180D01*
X938Y1179D02*
X968Y1179D01*
X1235Y1179D02*
X1267Y1179D01*
X939Y1178D02*
X969Y1178D01*
X1235Y1178D02*
X1268Y1178D01*
X940Y1177D02*
X970Y1177D01*
X1236Y1177D02*
X1269Y1177D01*
X941Y1176D02*
X971Y1176D01*
X1237Y1176D02*
X1270Y1176D01*
X942Y1175D02*
X972Y1175D01*
X1238Y1175D02*
X1271Y1175D01*
X942Y1174D02*
X972Y1174D01*
X1239Y1174D02*
X1272Y1174D01*
X943Y1173D02*
X973Y1173D01*
X1240Y1173D02*
X1273Y1173D01*
X944Y1172D02*
X974Y1172D01*
X1241Y1172D02*
X1274Y1172D01*
X945Y1171D02*
X975Y1171D01*
X1242Y1171D02*
X1275Y1171D01*
X946Y1170D02*
X976Y1170D01*
X1243Y1170D02*
X1276Y1170D01*
X946Y1169D02*
X976Y1169D01*
X1244Y1169D02*
X1277Y1169D01*
X947Y1168D02*
X977Y1168D01*
X1245Y1168D02*
X1278Y1168D01*
X948Y1167D02*
X978Y1167D01*
X1246Y1167D02*
X1279Y1167D01*
X949Y1166D02*
X979Y1166D01*
X1247Y1166D02*
X1280Y1166D01*
X950Y1165D02*
X980Y1165D01*
X1248Y1165D02*
X1281Y1165D01*
X951Y1164D02*
X980Y1164D01*
X1249Y1164D02*
X1282Y1164D01*
X951Y1163D02*
X981Y1163D01*
X1250Y1163D02*
X1283Y1163D01*
X952Y1162D02*
X982Y1162D01*
X1251Y1162D02*
X1284Y1162D01*
X953Y1161D02*
X983Y1161D01*
X1252Y1161D02*
X1285Y1161D01*
X954Y1160D02*
X984Y1160D01*
X1253Y1160D02*
X1286Y1160D01*
X955Y1159D02*
X984Y1159D01*
X1254Y1159D02*
X1287Y1159D01*
X955Y1158D02*
X985Y1158D01*
X1255Y1158D02*
X1288Y1158D01*
X956Y1157D02*
X986Y1157D01*
X1256Y1157D02*
X1290Y1157D01*
X957Y1156D02*
X987Y1156D01*
X1257Y1156D02*
X1291Y1156D01*
X958Y1155D02*
X987Y1155D01*
X1258Y1155D02*
X1292Y1155D01*
X959Y1154D02*
X988Y1154D01*
X1259Y1154D02*
X1293Y1154D01*
X959Y1153D02*
X989Y1153D01*
X1260Y1153D02*
X1294Y1153D01*
X960Y1152D02*
X990Y1152D01*
X1261Y1152D02*
X1295Y1152D01*
X961Y1151D02*
X991Y1151D01*
X1262Y1151D02*
X1296Y1151D01*
X962Y1150D02*
X991Y1150D01*
X1263Y1150D02*
X1297Y1150D01*
X963Y1149D02*
X992Y1149D01*
X1264Y1149D02*
X1298Y1149D01*
X963Y1148D02*
X993Y1148D01*
X1265Y1148D02*
X1299Y1148D01*
X964Y1147D02*
X994Y1147D01*
X1266Y1147D02*
X1300Y1147D01*
X965Y1146D02*
X995Y1146D01*
X1267Y1146D02*
X1301Y1146D01*
X966Y1145D02*
X995Y1145D01*
X1269Y1145D02*
X1302Y1145D01*
X967Y1144D02*
X996Y1144D01*
X1270Y1144D02*
X1303Y1144D01*
X967Y1143D02*
X997Y1143D01*
X1271Y1143D02*
X1304Y1143D01*
X968Y1142D02*
X998Y1142D01*
X1272Y1142D02*
X1305Y1142D01*
X969Y1141D02*
X998Y1141D01*
X1273Y1141D02*
X1306Y1141D01*
X970Y1140D02*
X999Y1140D01*
X1274Y1140D02*
X1307Y1140D01*
X971Y1139D02*
X999Y1139D01*
X1275Y1139D02*
X1308Y1139D01*
X971Y1138D02*
X999Y1138D01*
X1276Y1138D02*
X1309Y1138D01*
X972Y1137D02*
X1000Y1137D01*
X1277Y1137D02*
X1311Y1137D01*
X973Y1136D02*
X1000Y1136D01*
X1278Y1136D02*
X1312Y1136D01*
X974Y1135D02*
X1000Y1135D01*
X1279Y1135D02*
X1313Y1135D01*
X975Y1134D02*
X1000Y1134D01*
X1280Y1134D02*
X1314Y1134D01*
X975Y1133D02*
X999Y1133D01*
X1281Y1133D02*
X1315Y1133D01*
X976Y1132D02*
X999Y1132D01*
X1282Y1132D02*
X1316Y1132D01*
X977Y1131D02*
X999Y1131D01*
X1283Y1131D02*
X1317Y1131D01*
X978Y1130D02*
X998Y1130D01*
X1284Y1130D02*
X1318Y1130D01*
X979Y1129D02*
X998Y1129D01*
X1285Y1129D02*
X1319Y1129D01*
X979Y1128D02*
X997Y1128D01*
X1286Y1128D02*
X1320Y1128D01*
X980Y1127D02*
X996Y1127D01*
X1287Y1127D02*
X1322Y1127D01*
X981Y1126D02*
X995Y1126D01*
X1288Y1126D02*
X1323Y1126D01*
X983Y1125D02*
X993Y1125D01*
X1289Y1125D02*
X1324Y1125D01*
X985Y1124D02*
X991Y1124D01*
X1290Y1124D02*
X1325Y1124D01*
X1291Y1123D02*
X1326Y1123D01*
X1293Y1122D02*
X1327Y1122D01*
X1294Y1121D02*
X1328Y1121D01*
X1295Y1120D02*
X1329Y1120D01*
X1296Y1119D02*
X1330Y1119D01*
X1297Y1118D02*
X1331Y1118D01*
X1298Y1117D02*
X1333Y1117D01*
X1299Y1116D02*
X1334Y1116D01*
X1300Y1115D02*
X1335Y1115D01*
X1301Y1114D02*
X1336Y1114D01*
X1302Y1113D02*
X1337Y1113D01*
X1304Y1112D02*
X1338Y1112D01*
X1305Y1111D02*
X1339Y1111D01*
X1306Y1110D02*
X1340Y1110D01*
X1307Y1109D02*
X1342Y1109D01*
X1308Y1108D02*
X1343Y1108D01*
X1309Y1107D02*
X1344Y1107D01*
X1310Y1106D02*
X1345Y1106D01*
X1311Y1105D02*
X1346Y1105D01*
X1312Y1104D02*
X1347Y1104D01*
X1313Y1103D02*
X1348Y1103D01*
X1315Y1102D02*
X1350Y1102D01*
X1316Y1101D02*
X1351Y1101D01*
X1317Y1100D02*
X1352Y1100D01*
X1318Y1099D02*
X1353Y1099D01*
X1319Y1098D02*
X1354Y1098D01*
X1320Y1097D02*
X1355Y1097D01*
X1321Y1096D02*
X1357Y1096D01*
X1322Y1095D02*
X1358Y1095D01*
X1323Y1094D02*
X1359Y1094D01*
X1325Y1093D02*
X1360Y1093D01*
X1326Y1092D02*
X1361Y1092D01*
X1327Y1091D02*
X1362Y1091D01*
X1328Y1090D02*
X1364Y1090D01*
X1329Y1089D02*
X1365Y1089D01*
X1330Y1088D02*
X1366Y1088D01*
X1331Y1087D02*
X1367Y1087D01*
X1333Y1086D02*
X1368Y1086D01*
X1334Y1085D02*
X1370Y1085D01*
X1335Y1084D02*
X1371Y1084D01*
X1336Y1083D02*
X1372Y1083D01*
X1337Y1082D02*
X1373Y1082D01*
X1338Y1081D02*
X1374Y1081D01*
X1339Y1080D02*
X1376Y1080D01*
X1341Y1079D02*
X1377Y1079D01*
X1342Y1078D02*
X1378Y1078D01*
X1343Y1077D02*
X1379Y1077D01*
X1344Y1076D02*
X1380Y1076D01*
X1345Y1075D02*
X1382Y1075D01*
X1346Y1074D02*
X1383Y1074D01*
X1348Y1073D02*
X1384Y1073D01*
X1349Y1072D02*
X1385Y1072D01*
X1350Y1071D02*
X1386Y1071D01*
X1351Y1070D02*
X1388Y1070D01*
X1352Y1069D02*
X1389Y1069D01*
X1354Y1068D02*
X1390Y1068D01*
X1355Y1067D02*
X1391Y1067D01*
X1356Y1066D02*
X1393Y1066D01*
X1357Y1065D02*
X1394Y1065D01*
X1358Y1064D02*
X1395Y1064D01*
X1360Y1063D02*
X1396Y1063D01*
X1361Y1062D02*
X1398Y1062D01*
X1362Y1061D02*
X1399Y1061D01*
X1363Y1060D02*
X1400Y1060D01*
X1364Y1059D02*
X1401Y1059D01*
X1366Y1058D02*
X1403Y1058D01*
X1367Y1057D02*
X1404Y1057D01*
X1368Y1056D02*
X1405Y1056D01*
X1369Y1055D02*
X1407Y1055D01*
X1370Y1054D02*
X1408Y1054D01*
X1372Y1053D02*
X1409Y1053D01*
X1373Y1052D02*
X1410Y1052D01*
X1374Y1051D02*
X1412Y1051D01*
X1375Y1050D02*
X1413Y1050D01*
X1377Y1049D02*
X1414Y1049D01*
X1378Y1048D02*
X1416Y1048D01*
X1379Y1047D02*
X1417Y1047D01*
X1380Y1046D02*
X1418Y1046D01*
X1382Y1045D02*
X1419Y1045D01*
X1383Y1044D02*
X1421Y1044D01*
X1384Y1043D02*
X1422Y1043D01*
X1385Y1042D02*
X1423Y1042D01*
X1387Y1041D02*
X1425Y1041D01*
X1388Y1040D02*
X1426Y1040D01*
X1389Y1039D02*
X1427Y1039D01*
X1390Y1038D02*
X1429Y1038D01*
X1392Y1037D02*
X1430Y1037D01*
X1393Y1036D02*
X1431Y1036D01*
X1394Y1035D02*
X1433Y1035D01*
X1396Y1034D02*
X1434Y1034D01*
X1397Y1033D02*
X1435Y1033D01*
X1398Y1032D02*
X1437Y1032D01*
X1399Y1031D02*
X1438Y1031D01*
X1401Y1030D02*
X1439Y1030D01*
X1402Y1029D02*
X1441Y1029D01*
X1403Y1028D02*
X1442Y1028D01*
X1405Y1027D02*
X1443Y1027D01*
X1406Y1026D02*
X1445Y1026D01*
X1407Y1025D02*
X1446Y1025D01*
X1409Y1024D02*
X1448Y1024D01*
X1410Y1023D02*
X1449Y1023D01*
X1411Y1022D02*
X1450Y1022D01*
X1412Y1021D02*
X1452Y1021D01*
X1414Y1020D02*
X1453Y1020D01*
X1415Y1019D02*
X1454Y1019D01*
X1416Y1018D02*
X1456Y1018D01*
X1418Y1017D02*
X1457Y1017D01*
X1419Y1016D02*
X1459Y1016D01*
X1420Y1015D02*
X1460Y1015D01*
X1422Y1014D02*
X1461Y1014D01*
X1423Y1013D02*
X1463Y1013D01*
X1424Y1012D02*
X1464Y1012D01*
X1426Y1011D02*
X1466Y1011D01*
X1427Y1010D02*
X1467Y1010D01*
X1429Y1009D02*
X1469Y1009D01*
X1430Y1008D02*
X1470Y1008D01*
X1431Y1007D02*
X1471Y1007D01*
X1433Y1006D02*
X1473Y1006D01*
X1434Y1005D02*
X1474Y1005D01*
X1435Y1004D02*
X1476Y1004D01*
X1437Y1003D02*
X1477Y1003D01*
X1438Y1002D02*
X1479Y1002D01*
X1439Y1001D02*
X1480Y1001D01*
X1441Y1000D02*
X1481Y1000D01*
X1442Y999D02*
X1483Y999D01*
X1444Y998D02*
X1484Y998D01*
X1445Y997D02*
X1486Y997D01*
X1446Y996D02*
X1487Y996D01*
X1448Y995D02*
X1489Y995D01*
X1449Y994D02*
X1490Y994D01*
X1451Y993D02*
X1492Y993D01*
X1452Y992D02*
X1493Y992D01*
X1453Y991D02*
X1495Y991D01*
X1455Y990D02*
X1496Y990D01*
X1456Y989D02*
X1498Y989D01*
X1458Y988D02*
X1499Y988D01*
X1459Y987D02*
X1501Y987D01*
X1461Y986D02*
X1502Y986D01*
X1462Y985D02*
X1504Y985D01*
X1464Y984D02*
X1505Y984D01*
X1465Y983D02*
X1507Y983D01*
X1466Y982D02*
X1508Y982D01*
X1468Y981D02*
X1510Y981D01*
X1469Y980D02*
X1512Y980D01*
X1471Y979D02*
X1513Y979D01*
X1472Y978D02*
X1515Y978D01*
X1474Y977D02*
X1516Y977D01*
X1475Y976D02*
X1518Y976D01*
X1477Y975D02*
X1519Y975D01*
X1478Y974D02*
X1521Y974D01*
X1480Y973D02*
X1522Y973D01*
X1481Y972D02*
X1524Y972D01*
X1483Y971D02*
X1526Y971D01*
X1484Y970D02*
X1527Y970D01*
X1486Y969D02*
X1529Y969D01*
X1487Y968D02*
X1530Y968D01*
X1489Y967D02*
X1532Y967D01*
X1490Y966D02*
X1534Y966D01*
X1492Y965D02*
X1535Y965D01*
X1493Y964D02*
X1537Y964D01*
X1495Y963D02*
X1538Y963D01*
X1496Y962D02*
X1540Y962D01*
X1498Y961D02*
X1542Y961D01*
X1499Y960D02*
X1543Y960D01*
X1501Y959D02*
X1545Y959D01*
X1502Y958D02*
X1547Y958D01*
X1504Y957D02*
X1548Y957D01*
X1505Y956D02*
X1550Y956D01*
X1507Y955D02*
X1551Y955D01*
X1509Y954D02*
X1553Y954D01*
X1510Y953D02*
X1555Y953D01*
X1512Y952D02*
X1556Y952D01*
X1513Y951D02*
X1558Y951D01*
X1515Y950D02*
X1560Y950D01*
X1516Y949D02*
X1562Y949D01*
X1518Y948D02*
X1563Y948D01*
X1520Y947D02*
X1565Y947D01*
X1521Y946D02*
X1567Y946D01*
X1523Y945D02*
X1568Y945D01*
X1524Y944D02*
X1570Y944D01*
X1526Y943D02*
X1572Y943D01*
X1528Y942D02*
X1573Y942D01*
X1529Y941D02*
X1575Y941D01*
X1531Y940D02*
X1577Y940D01*
X1533Y939D02*
X1578Y939D01*
X1534Y938D02*
X1580Y938D01*
X1536Y937D02*
X1580Y937D01*
X1538Y936D02*
X1581Y936D01*
X1539Y935D02*
X1582Y935D01*
X1541Y934D02*
X1582Y934D01*
X1542Y933D02*
X1583Y933D01*
X1544Y932D02*
X1583Y932D01*
X1546Y931D02*
X1583Y931D01*
X1547Y930D02*
X1583Y930D01*
X1549Y929D02*
X1583Y929D01*
X1551Y928D02*
X1583Y928D01*
X1553Y927D02*
X1583Y927D01*
X1554Y926D02*
X1583Y926D01*
X1556Y925D02*
X1582Y925D01*
X1558Y924D02*
X1582Y924D01*
X1559Y923D02*
X1581Y923D01*
X1561Y922D02*
X1581Y922D01*
X1563Y921D02*
X1580Y921D01*
X1565Y920D02*
X1578Y920D01*
X1566Y919D02*
X1577Y919D01*
X1569Y918D02*
X1575Y918D01*
X169Y705D02*
X174Y705D01*
X166Y704D02*
X177Y704D01*
X165Y703D02*
X178Y703D01*
X164Y702D02*
X179Y702D01*
X163Y701D02*
X180Y701D01*
X162Y700D02*
X181Y700D01*
X161Y699D02*
X182Y699D01*
X161Y698D02*
X182Y698D01*
X160Y697D02*
X183Y697D01*
X160Y696D02*
X184Y696D01*
X160Y695D02*
X184Y695D01*
X160Y694D02*
X185Y694D01*
X160Y693D02*
X185Y693D01*
X160Y692D02*
X186Y692D01*
X160Y691D02*
X187Y691D01*
X160Y690D02*
X188Y690D01*
X161Y689D02*
X188Y689D01*
X161Y688D02*
X189Y688D01*
X162Y687D02*
X190Y687D01*
X162Y686D02*
X190Y686D01*
X163Y685D02*
X191Y685D01*
X164Y684D02*
X192Y684D01*
X164Y683D02*
X193Y683D01*
X165Y682D02*
X193Y682D01*
X166Y681D02*
X194Y681D01*
X166Y680D02*
X195Y680D01*
X167Y679D02*
X195Y679D01*
X168Y678D02*
X196Y678D01*
X168Y677D02*
X197Y677D01*
X169Y676D02*
X198Y676D01*
X170Y675D02*
X198Y675D01*
X170Y674D02*
X199Y674D01*
X171Y673D02*
X200Y673D01*
X172Y672D02*
X201Y672D01*
X173Y671D02*
X201Y671D01*
X173Y670D02*
X202Y670D01*
X174Y669D02*
X203Y669D01*
X175Y668D02*
X204Y668D01*
X175Y667D02*
X204Y667D01*
X176Y666D02*
X205Y666D01*
X177Y665D02*
X206Y665D01*
X178Y664D02*
X207Y664D01*
X178Y663D02*
X208Y663D01*
X179Y662D02*
X208Y662D01*
X180Y661D02*
X209Y661D01*
X181Y660D02*
X210Y660D01*
X181Y659D02*
X211Y659D01*
X182Y658D02*
X212Y658D01*
X183Y657D02*
X212Y657D01*
X184Y656D02*
X213Y656D01*
X184Y655D02*
X214Y655D01*
X185Y654D02*
X215Y654D01*
X186Y653D02*
X216Y653D01*
X187Y652D02*
X217Y652D01*
X187Y651D02*
X217Y651D01*
X188Y650D02*
X218Y650D01*
X189Y649D02*
X219Y649D01*
X190Y648D02*
X220Y648D01*
X191Y647D02*
X221Y647D01*
X191Y646D02*
X222Y646D01*
X192Y645D02*
X223Y645D01*
X193Y644D02*
X223Y644D01*
X194Y643D02*
X224Y643D01*
X195Y642D02*
X225Y642D01*
X195Y641D02*
X226Y641D01*
X196Y640D02*
X227Y640D01*
X197Y639D02*
X228Y639D01*
X198Y638D02*
X229Y638D01*
X199Y637D02*
X229Y637D01*
X200Y636D02*
X230Y636D01*
X200Y635D02*
X231Y635D01*
X201Y634D02*
X232Y634D01*
X202Y633D02*
X233Y633D01*
X203Y632D02*
X234Y632D01*
X204Y631D02*
X235Y631D01*
X205Y630D02*
X236Y630D01*
X206Y629D02*
X237Y629D01*
X206Y628D02*
X238Y628D01*
X207Y627D02*
X239Y627D01*
X208Y626D02*
X239Y626D01*
X209Y625D02*
X240Y625D01*
X210Y624D02*
X241Y624D01*
X211Y623D02*
X242Y623D01*
X212Y622D02*
X243Y622D01*
X213Y621D02*
X244Y621D01*
X213Y620D02*
X245Y620D01*
X214Y619D02*
X246Y619D01*
X215Y618D02*
X247Y618D01*
X216Y617D02*
X248Y617D01*
X217Y616D02*
X249Y616D01*
X218Y615D02*
X250Y615D01*
X219Y614D02*
X251Y614D01*
X220Y613D02*
X252Y613D01*
X221Y612D02*
X253Y612D01*
X222Y611D02*
X254Y611D01*
X223Y610D02*
X255Y610D01*
X224Y609D02*
X256Y609D01*
X224Y608D02*
X257Y608D01*
X225Y607D02*
X258Y607D01*
X226Y606D02*
X259Y606D01*
X227Y605D02*
X260Y605D01*
X228Y604D02*
X261Y604D01*
X229Y603D02*
X262Y603D01*
X230Y602D02*
X263Y602D01*
X231Y601D02*
X264Y601D01*
X232Y600D02*
X265Y600D01*
X233Y599D02*
X266Y599D01*
X234Y598D02*
X267Y598D01*
X235Y597D02*
X268Y597D01*
X236Y596D02*
X269Y596D01*
X237Y595D02*
X270Y595D01*
X238Y594D02*
X271Y594D01*
X239Y593D02*
X272Y593D01*
X240Y592D02*
X273Y592D01*
X241Y591D02*
X274Y591D01*
X242Y590D02*
X275Y590D01*
X243Y589D02*
X277Y589D01*
X244Y588D02*
X278Y588D01*
X245Y587D02*
X279Y587D01*
X246Y586D02*
X280Y586D01*
X247Y585D02*
X281Y585D01*
X248Y584D02*
X282Y584D01*
X249Y583D02*
X283Y583D01*
X250Y582D02*
X284Y582D01*
X251Y581D02*
X285Y581D01*
X252Y580D02*
X286Y580D01*
X253Y579D02*
X287Y579D01*
X254Y578D02*
X289Y578D01*
X255Y577D02*
X290Y577D01*
X256Y576D02*
X291Y576D01*
X257Y575D02*
X292Y575D01*
X259Y574D02*
X293Y574D01*
X260Y573D02*
X294Y573D01*
X261Y572D02*
X295Y572D01*
X262Y571D02*
X297Y571D01*
X263Y570D02*
X298Y570D01*
X264Y569D02*
X299Y569D01*
X265Y568D02*
X300Y568D01*
X266Y567D02*
X301Y567D01*
X267Y566D02*
X302Y566D01*
X268Y565D02*
X304Y565D01*
X269Y564D02*
X305Y564D01*
X270Y563D02*
X306Y563D01*
X272Y562D02*
X307Y562D01*
X273Y561D02*
X308Y561D01*
X274Y560D02*
X310Y560D01*
X275Y559D02*
X311Y559D01*
X276Y558D02*
X312Y558D01*
X277Y557D02*
X313Y557D01*
X278Y556D02*
X315Y556D01*
X280Y555D02*
X316Y555D01*
X281Y554D02*
X317Y554D01*
X282Y553D02*
X318Y553D01*
X283Y552D02*
X320Y552D01*
X284Y551D02*
X321Y551D01*
X285Y550D02*
X322Y550D01*
X287Y549D02*
X323Y549D01*
X288Y548D02*
X325Y548D01*
X289Y547D02*
X326Y547D01*
X290Y546D02*
X327Y546D01*
X291Y545D02*
X329Y545D01*
X292Y544D02*
X330Y544D01*
X294Y543D02*
X331Y543D01*
X295Y542D02*
X332Y542D01*
X296Y541D02*
X334Y541D01*
X297Y540D02*
X335Y540D01*
X299Y539D02*
X336Y539D01*
X300Y538D02*
X338Y538D01*
X301Y537D02*
X339Y537D01*
X302Y536D02*
X340Y536D01*
X304Y535D02*
X342Y535D01*
X305Y534D02*
X343Y534D01*
X306Y533D02*
X345Y533D01*
X307Y532D02*
X346Y532D01*
X309Y531D02*
X347Y531D01*
X310Y530D02*
X349Y530D01*
X311Y529D02*
X350Y529D01*
X312Y528D02*
X351Y528D01*
X314Y527D02*
X353Y527D01*
X315Y526D02*
X354Y526D01*
X316Y525D02*
X356Y525D01*
X318Y524D02*
X357Y524D01*
X319Y523D02*
X359Y523D01*
X320Y522D02*
X360Y522D01*
X321Y521D02*
X361Y521D01*
X323Y520D02*
X363Y520D01*
X324Y519D02*
X364Y519D01*
X326Y518D02*
X366Y518D01*
X327Y517D02*
X367Y517D01*
X328Y516D02*
X369Y516D01*
X330Y515D02*
X370Y515D01*
X331Y514D02*
X372Y514D01*
X332Y513D02*
X373Y513D01*
X334Y512D02*
X375Y512D01*
X335Y511D02*
X376Y511D01*
X336Y510D02*
X378Y510D01*
X338Y509D02*
X379Y509D01*
X339Y508D02*
X381Y508D01*
X341Y507D02*
X383Y507D01*
X342Y506D02*
X384Y506D01*
X344Y505D02*
X386Y505D01*
X345Y504D02*
X387Y504D01*
X346Y503D02*
X389Y503D01*
X348Y502D02*
X390Y502D01*
X349Y501D02*
X392Y501D01*
X351Y500D02*
X394Y500D01*
X352Y499D02*
X395Y499D01*
X354Y498D02*
X397Y498D01*
X355Y497D02*
X399Y497D01*
X357Y496D02*
X400Y496D01*
X358Y495D02*
X402Y495D01*
X360Y494D02*
X404Y494D01*
X361Y493D02*
X405Y493D01*
X363Y492D02*
X407Y492D01*
X364Y491D02*
X409Y491D01*
X366Y490D02*
X410Y490D01*
X367Y489D02*
X412Y489D01*
X369Y488D02*
X414Y488D01*
X370Y487D02*
X416Y487D01*
X372Y486D02*
X417Y486D01*
X373Y485D02*
X419Y485D01*
X375Y484D02*
X421Y484D01*
X377Y483D02*
X423Y483D01*
X378Y482D02*
X424Y482D01*
X380Y481D02*
X426Y481D01*
X381Y480D02*
X428Y480D01*
X383Y479D02*
X430Y479D01*
X385Y478D02*
X432Y478D01*
X386Y477D02*
X434Y477D01*
X388Y476D02*
X435Y476D01*
X390Y475D02*
X437Y475D01*
X391Y474D02*
X439Y474D01*
X393Y473D02*
X441Y473D01*
X395Y472D02*
X443Y472D01*
X396Y471D02*
X445Y471D01*
X398Y470D02*
X447Y470D01*
X400Y469D02*
X449Y469D01*
X401Y468D02*
X451Y468D01*
X403Y467D02*
X453Y467D01*
X1319Y467D02*
X1322Y467D01*
X405Y466D02*
X455Y466D01*
X1315Y466D02*
X1325Y466D01*
X407Y465D02*
X457Y465D01*
X1312Y465D02*
X1327Y465D01*
X408Y464D02*
X459Y464D01*
X1309Y464D02*
X1328Y464D01*
X410Y463D02*
X461Y463D01*
X1307Y463D02*
X1329Y463D01*
X412Y462D02*
X463Y462D01*
X1304Y462D02*
X1330Y462D01*
X414Y461D02*
X465Y461D01*
X1301Y461D02*
X1330Y461D01*
X416Y460D02*
X467Y460D01*
X1298Y460D02*
X1331Y460D01*
X417Y459D02*
X469Y459D01*
X1295Y459D02*
X1331Y459D01*
X419Y458D02*
X471Y458D01*
X1292Y458D02*
X1331Y458D01*
X421Y457D02*
X473Y457D01*
X1289Y457D02*
X1332Y457D01*
X423Y456D02*
X475Y456D01*
X1286Y456D02*
X1332Y456D01*
X425Y455D02*
X478Y455D01*
X1283Y455D02*
X1332Y455D01*
X427Y454D02*
X480Y454D01*
X1281Y454D02*
X1332Y454D01*
X428Y453D02*
X482Y453D01*
X1278Y453D02*
X1332Y453D01*
X430Y452D02*
X484Y452D01*
X1275Y452D02*
X1331Y452D01*
X432Y451D02*
X486Y451D01*
X1271Y451D02*
X1331Y451D01*
X434Y450D02*
X489Y450D01*
X1268Y450D02*
X1331Y450D01*
X436Y449D02*
X491Y449D01*
X1265Y449D02*
X1330Y449D01*
X438Y448D02*
X493Y448D01*
X1262Y448D02*
X1329Y448D01*
X440Y447D02*
X495Y447D01*
X1259Y447D02*
X1328Y447D01*
X442Y446D02*
X498Y446D01*
X1256Y446D02*
X1327Y446D01*
X444Y445D02*
X500Y445D01*
X1253Y445D02*
X1326Y445D01*
X446Y444D02*
X503Y444D01*
X1250Y444D02*
X1324Y444D01*
X448Y443D02*
X505Y443D01*
X1247Y443D02*
X1321Y443D01*
X450Y442D02*
X507Y442D01*
X1243Y442D02*
X1318Y442D01*
X452Y441D02*
X510Y441D01*
X1240Y441D02*
X1315Y441D01*
X454Y440D02*
X512Y440D01*
X1237Y440D02*
X1312Y440D01*
X456Y439D02*
X515Y439D01*
X1234Y439D02*
X1310Y439D01*
X458Y438D02*
X517Y438D01*
X1230Y438D02*
X1307Y438D01*
X460Y437D02*
X520Y437D01*
X1227Y437D02*
X1304Y437D01*
X463Y436D02*
X522Y436D01*
X1223Y436D02*
X1301Y436D01*
X465Y435D02*
X525Y435D01*
X1220Y435D02*
X1298Y435D01*
X467Y434D02*
X527Y434D01*
X1217Y434D02*
X1295Y434D01*
X469Y433D02*
X530Y433D01*
X1213Y433D02*
X1292Y433D01*
X471Y432D02*
X533Y432D01*
X1210Y432D02*
X1289Y432D01*
X473Y431D02*
X535Y431D01*
X1207Y431D02*
X1286Y431D01*
X476Y430D02*
X538Y430D01*
X1203Y430D02*
X1283Y430D01*
X478Y429D02*
X541Y429D01*
X1199Y429D02*
X1280Y429D01*
X480Y428D02*
X544Y428D01*
X1196Y428D02*
X1277Y428D01*
X482Y427D02*
X547Y427D01*
X1192Y427D02*
X1274Y427D01*
X485Y426D02*
X549Y426D01*
X1188Y426D02*
X1271Y426D01*
X487Y425D02*
X552Y425D01*
X1185Y425D02*
X1268Y425D01*
X489Y424D02*
X555Y424D01*
X1181Y424D02*
X1265Y424D01*
X492Y423D02*
X558Y423D01*
X1177Y423D02*
X1262Y423D01*
X494Y422D02*
X561Y422D01*
X1174Y422D02*
X1259Y422D01*
X497Y421D02*
X564Y421D01*
X1170Y421D02*
X1255Y421D01*
X499Y420D02*
X567Y420D01*
X1166Y420D02*
X1252Y420D01*
X501Y419D02*
X570Y419D01*
X1162Y419D02*
X1249Y419D01*
X504Y418D02*
X573Y418D01*
X1158Y418D02*
X1246Y418D01*
X506Y417D02*
X577Y417D01*
X1154Y417D02*
X1243Y417D01*
X509Y416D02*
X580Y416D01*
X1150Y416D02*
X1239Y416D01*
X511Y415D02*
X583Y415D01*
X1146Y415D02*
X1236Y415D01*
X514Y414D02*
X587Y414D01*
X1142Y414D02*
X1233Y414D01*
X517Y413D02*
X590Y413D01*
X1138Y413D02*
X1229Y413D01*
X519Y412D02*
X593Y412D01*
X1134Y412D02*
X1226Y412D01*
X522Y411D02*
X597Y411D01*
X1129Y411D02*
X1222Y411D01*
X524Y410D02*
X601Y410D01*
X1125Y410D02*
X1219Y410D01*
X527Y409D02*
X604Y409D01*
X1120Y409D02*
X1216Y409D01*
X530Y408D02*
X608Y408D01*
X1116Y408D02*
X1212Y408D01*
X533Y407D02*
X612Y407D01*
X1111Y407D02*
X1209Y407D01*
X535Y406D02*
X615Y406D01*
X1107Y406D02*
X1205Y406D01*
X538Y405D02*
X619Y405D01*
X1102Y405D02*
X1202Y405D01*
X541Y404D02*
X623Y404D01*
X1098Y404D02*
X1198Y404D01*
X544Y403D02*
X628Y403D01*
X1093Y403D02*
X1194Y403D01*
X547Y402D02*
X632Y402D01*
X1087Y402D02*
X1190Y402D01*
X550Y401D02*
X636Y401D01*
X1082Y401D02*
X1187Y401D01*
X553Y400D02*
X640Y400D01*
X1077Y400D02*
X1183Y400D01*
X556Y399D02*
X645Y399D01*
X1072Y399D02*
X1179Y399D01*
X559Y398D02*
X650Y398D01*
X1067Y398D02*
X1176Y398D01*
X562Y397D02*
X654Y397D01*
X1061Y397D02*
X1172Y397D01*
X565Y396D02*
X659Y396D01*
X1056Y396D02*
X1168Y396D01*
X568Y395D02*
X664Y395D01*
X1050Y395D02*
X1164Y395D01*
X571Y394D02*
X669Y394D01*
X1044Y394D02*
X1160Y394D01*
X575Y393D02*
X675Y393D01*
X1038Y393D02*
X1156Y393D01*
X578Y392D02*
X680Y392D01*
X1032Y392D02*
X1152Y392D01*
X581Y391D02*
X686Y391D01*
X1025Y391D02*
X1148Y391D01*
X585Y390D02*
X692Y390D01*
X1018Y390D02*
X1143Y390D01*
X588Y389D02*
X698Y389D01*
X1011Y389D02*
X1139Y389D01*
X592Y388D02*
X705Y388D01*
X1004Y388D02*
X1135Y388D01*
X595Y387D02*
X711Y387D01*
X997Y387D02*
X1131Y387D01*
X599Y386D02*
X719Y386D01*
X988Y386D02*
X1126Y386D01*
X603Y385D02*
X726Y385D01*
X980Y385D02*
X1122Y385D01*
X606Y384D02*
X734Y384D01*
X971Y384D02*
X1117Y384D01*
X610Y383D02*
X743Y383D01*
X962Y383D02*
X1112Y383D01*
X614Y382D02*
X754Y382D01*
X951Y382D02*
X1108Y382D01*
X618Y381D02*
X764Y381D01*
X940Y381D02*
X1103Y381D01*
X622Y380D02*
X778Y380D01*
X926Y380D02*
X1098Y380D01*
X626Y379D02*
X792Y379D01*
X910Y379D02*
X1093Y379D01*
X630Y378D02*
X815Y378D01*
X887Y378D02*
X1088Y378D01*
X635Y377D02*
X1083Y377D01*
X639Y376D02*
X1078Y376D01*
X644Y375D02*
X1073Y375D01*
X649Y374D02*
X1068Y374D01*
X653Y373D02*
X1062Y373D01*
X658Y372D02*
X1056Y372D01*
X663Y371D02*
X1050Y371D01*
X668Y370D02*
X1044Y370D01*
X674Y369D02*
X1038Y369D01*
X679Y368D02*
X1032Y368D01*
X685Y367D02*
X1025Y367D01*
X691Y366D02*
X1018Y366D01*
X698Y365D02*
X1011Y365D01*
X704Y364D02*
X1004Y364D01*
X711Y363D02*
X996Y363D01*
X718Y362D02*
X988Y362D01*
X726Y361D02*
X980Y361D01*
X734Y360D02*
X971Y360D01*
X743Y359D02*
X961Y359D01*
X754Y358D02*
X950Y358D01*
X764Y357D02*
X939Y357D01*
X778Y356D02*
X925Y356D01*
X793Y355D02*
X908Y355D01*
X816Y354D02*
X885Y354D01*
D02*
G04 End of Copper1*
M02*