G04 MADE WITH FRITZING*
G04 WWW.FRITZING.ORG*
G04 DOUBLE SIDED*
G04 HOLES PLATED*
G04 CONTOUR ON CENTER OF CONTOUR VECTOR*
%ASAXBY*%
%FSLAX23Y23*%
%MOIN*%
%OFA0B0*%
%SFA1.0B1.0*%
%ADD10R,0.001000X0.001000*%
%LNSILK0*%
G90*
G70*
G54D10*
X709Y3419D02*
X711Y3419D01*
X738Y3419D02*
X741Y3419D01*
X708Y3418D02*
X712Y3418D01*
X738Y3418D02*
X742Y3418D01*
X708Y3417D02*
X713Y3417D01*
X737Y3417D02*
X742Y3417D01*
X707Y3416D02*
X713Y3416D01*
X737Y3416D02*
X742Y3416D01*
X707Y3415D02*
X713Y3415D01*
X737Y3415D02*
X742Y3415D01*
X707Y3414D02*
X713Y3414D01*
X737Y3414D02*
X742Y3414D01*
X707Y3413D02*
X713Y3413D01*
X737Y3413D02*
X742Y3413D01*
X707Y3412D02*
X713Y3412D01*
X737Y3412D02*
X742Y3412D01*
X707Y3411D02*
X713Y3411D01*
X737Y3411D02*
X742Y3411D01*
X707Y3410D02*
X713Y3410D01*
X737Y3410D02*
X742Y3410D01*
X707Y3409D02*
X713Y3409D01*
X737Y3409D02*
X742Y3409D01*
X707Y3408D02*
X713Y3408D01*
X737Y3408D02*
X742Y3408D01*
X707Y3407D02*
X713Y3407D01*
X737Y3407D02*
X742Y3407D01*
X707Y3406D02*
X713Y3406D01*
X737Y3406D02*
X742Y3406D01*
X707Y3405D02*
X713Y3405D01*
X737Y3405D02*
X742Y3405D01*
X707Y3404D02*
X713Y3404D01*
X737Y3404D02*
X742Y3404D01*
X707Y3403D02*
X713Y3403D01*
X737Y3403D02*
X742Y3403D01*
X708Y3402D02*
X713Y3402D01*
X737Y3402D02*
X742Y3402D01*
X708Y3401D02*
X714Y3401D01*
X736Y3401D02*
X742Y3401D01*
X708Y3400D02*
X714Y3400D01*
X735Y3400D02*
X742Y3400D01*
X708Y3399D02*
X715Y3399D01*
X735Y3399D02*
X742Y3399D01*
X709Y3398D02*
X716Y3398D01*
X734Y3398D02*
X741Y3398D01*
X710Y3397D02*
X717Y3397D01*
X733Y3397D02*
X740Y3397D01*
X710Y3396D02*
X718Y3396D01*
X732Y3396D02*
X740Y3396D01*
X711Y3395D02*
X719Y3395D01*
X731Y3395D02*
X739Y3395D01*
X712Y3394D02*
X738Y3394D01*
X713Y3393D02*
X737Y3393D01*
X714Y3392D02*
X736Y3392D01*
X715Y3391D02*
X735Y3391D01*
X716Y3390D02*
X734Y3390D01*
X717Y3389D02*
X732Y3389D01*
X709Y3370D02*
X711Y3370D01*
X708Y3369D02*
X712Y3369D01*
X708Y3368D02*
X713Y3368D01*
X707Y3367D02*
X713Y3367D01*
X707Y3366D02*
X713Y3366D01*
X707Y3365D02*
X713Y3365D01*
X707Y3364D02*
X713Y3364D01*
X707Y3363D02*
X713Y3363D01*
X707Y3362D02*
X713Y3362D01*
X707Y3361D02*
X754Y3361D01*
X707Y3360D02*
X755Y3360D01*
X707Y3359D02*
X756Y3359D01*
X707Y3358D02*
X756Y3358D01*
X707Y3357D02*
X756Y3357D01*
X707Y3356D02*
X756Y3356D01*
X707Y3355D02*
X756Y3355D01*
X707Y3354D02*
X713Y3354D01*
X751Y3354D02*
X756Y3354D01*
X707Y3353D02*
X713Y3353D01*
X751Y3353D02*
X756Y3353D01*
X707Y3352D02*
X713Y3352D01*
X751Y3352D02*
X756Y3352D01*
X707Y3351D02*
X713Y3351D01*
X751Y3351D02*
X756Y3351D01*
X707Y3350D02*
X713Y3350D01*
X751Y3350D02*
X756Y3350D01*
X707Y3349D02*
X713Y3349D01*
X751Y3349D02*
X756Y3349D01*
X708Y3348D02*
X713Y3348D01*
X751Y3348D02*
X756Y3348D01*
X708Y3347D02*
X712Y3347D01*
X751Y3347D02*
X755Y3347D01*
X709Y3346D02*
X711Y3346D01*
X752Y3346D02*
X755Y3346D01*
X700Y3324D02*
X741Y3324D01*
X752Y3324D02*
X757Y3324D01*
X698Y3323D02*
X742Y3323D01*
X751Y3323D02*
X758Y3323D01*
X697Y3322D02*
X742Y3322D01*
X751Y3322D02*
X758Y3322D01*
X696Y3321D02*
X742Y3321D01*
X751Y3321D02*
X759Y3321D01*
X695Y3320D02*
X742Y3320D01*
X751Y3320D02*
X759Y3320D01*
X695Y3319D02*
X742Y3319D01*
X751Y3319D02*
X759Y3319D01*
X694Y3318D02*
X701Y3318D01*
X737Y3318D02*
X742Y3318D01*
X751Y3318D02*
X758Y3318D01*
X694Y3317D02*
X700Y3317D01*
X737Y3317D02*
X742Y3317D01*
X751Y3317D02*
X758Y3317D01*
X694Y3316D02*
X700Y3316D01*
X737Y3316D02*
X742Y3316D01*
X752Y3316D02*
X757Y3316D01*
X694Y3315D02*
X699Y3315D01*
X737Y3315D02*
X742Y3315D01*
X694Y3314D02*
X699Y3314D01*
X737Y3314D02*
X742Y3314D01*
X694Y3313D02*
X699Y3313D01*
X737Y3313D02*
X742Y3313D01*
X694Y3312D02*
X699Y3312D01*
X737Y3312D02*
X742Y3312D01*
X694Y3311D02*
X699Y3311D01*
X737Y3311D02*
X742Y3311D01*
X694Y3310D02*
X699Y3310D01*
X737Y3310D02*
X742Y3310D01*
X694Y3309D02*
X699Y3309D01*
X737Y3309D02*
X742Y3309D01*
X694Y3308D02*
X700Y3308D01*
X737Y3308D02*
X742Y3308D01*
X694Y3307D02*
X700Y3307D01*
X738Y3307D02*
X742Y3307D01*
X695Y3306D02*
X702Y3306D01*
X739Y3306D02*
X740Y3306D01*
X695Y3305D02*
X703Y3305D01*
X695Y3304D02*
X704Y3304D01*
X696Y3303D02*
X705Y3303D01*
X697Y3302D02*
X705Y3302D01*
X698Y3301D02*
X704Y3301D01*
X700Y3300D02*
X703Y3300D01*
X710Y3282D02*
X710Y3282D01*
X740Y3282D02*
X740Y3282D01*
X708Y3281D02*
X712Y3281D01*
X738Y3281D02*
X742Y3281D01*
X708Y3280D02*
X713Y3280D01*
X737Y3280D02*
X742Y3280D01*
X707Y3279D02*
X713Y3279D01*
X737Y3279D02*
X742Y3279D01*
X707Y3278D02*
X713Y3278D01*
X737Y3278D02*
X742Y3278D01*
X707Y3277D02*
X713Y3277D01*
X737Y3277D02*
X742Y3277D01*
X707Y3276D02*
X713Y3276D01*
X737Y3276D02*
X742Y3276D01*
X707Y3275D02*
X713Y3275D01*
X737Y3275D02*
X742Y3275D01*
X707Y3274D02*
X713Y3274D01*
X737Y3274D02*
X742Y3274D01*
X707Y3273D02*
X713Y3273D01*
X737Y3273D02*
X742Y3273D01*
X707Y3272D02*
X713Y3272D01*
X737Y3272D02*
X742Y3272D01*
X707Y3271D02*
X713Y3271D01*
X737Y3271D02*
X742Y3271D01*
X707Y3270D02*
X713Y3270D01*
X737Y3270D02*
X742Y3270D01*
X707Y3269D02*
X713Y3269D01*
X737Y3269D02*
X742Y3269D01*
X707Y3268D02*
X713Y3268D01*
X737Y3268D02*
X742Y3268D01*
X707Y3267D02*
X713Y3267D01*
X737Y3267D02*
X742Y3267D01*
X707Y3266D02*
X713Y3266D01*
X737Y3266D02*
X742Y3266D01*
X707Y3265D02*
X713Y3265D01*
X737Y3265D02*
X742Y3265D01*
X708Y3264D02*
X713Y3264D01*
X737Y3264D02*
X742Y3264D01*
X708Y3263D02*
X714Y3263D01*
X736Y3263D02*
X742Y3263D01*
X708Y3262D02*
X715Y3262D01*
X735Y3262D02*
X742Y3262D01*
X709Y3261D02*
X716Y3261D01*
X734Y3261D02*
X741Y3261D01*
X709Y3260D02*
X717Y3260D01*
X733Y3260D02*
X741Y3260D01*
X710Y3259D02*
X717Y3259D01*
X732Y3259D02*
X740Y3259D01*
X711Y3258D02*
X718Y3258D01*
X732Y3258D02*
X739Y3258D01*
X712Y3257D02*
X720Y3257D01*
X730Y3257D02*
X738Y3257D01*
X713Y3256D02*
X737Y3256D01*
X713Y3255D02*
X737Y3255D01*
X714Y3254D02*
X736Y3254D01*
X715Y3253D02*
X735Y3253D01*
X717Y3252D02*
X733Y3252D01*
X719Y3251D02*
X731Y3251D01*
X710Y3233D02*
X710Y3233D01*
X708Y3232D02*
X712Y3232D01*
X708Y3231D02*
X713Y3231D01*
X707Y3230D02*
X713Y3230D01*
X707Y3229D02*
X713Y3229D01*
X707Y3228D02*
X713Y3228D01*
X707Y3227D02*
X713Y3227D01*
X707Y3226D02*
X713Y3226D01*
X707Y3225D02*
X713Y3225D01*
X707Y3224D02*
X713Y3224D01*
X707Y3223D02*
X755Y3223D01*
X707Y3222D02*
X755Y3222D01*
X707Y3221D02*
X756Y3221D01*
X707Y3220D02*
X756Y3220D01*
X707Y3219D02*
X756Y3219D01*
X707Y3218D02*
X756Y3218D01*
X707Y3217D02*
X713Y3217D01*
X750Y3217D02*
X756Y3217D01*
X707Y3216D02*
X713Y3216D01*
X751Y3216D02*
X756Y3216D01*
X707Y3215D02*
X713Y3215D01*
X751Y3215D02*
X756Y3215D01*
X707Y3214D02*
X713Y3214D01*
X751Y3214D02*
X756Y3214D01*
X707Y3213D02*
X713Y3213D01*
X751Y3213D02*
X756Y3213D01*
X707Y3212D02*
X713Y3212D01*
X751Y3212D02*
X756Y3212D01*
X707Y3211D02*
X713Y3211D01*
X751Y3211D02*
X756Y3211D01*
X708Y3210D02*
X713Y3210D01*
X751Y3210D02*
X756Y3210D01*
X708Y3209D02*
X712Y3209D01*
X751Y3209D02*
X755Y3209D01*
X710Y3208D02*
X711Y3208D01*
X753Y3208D02*
X754Y3208D01*
X701Y3187D02*
X740Y3187D01*
X753Y3187D02*
X756Y3187D01*
X699Y3186D02*
X742Y3186D01*
X751Y3186D02*
X758Y3186D01*
X697Y3185D02*
X742Y3185D01*
X751Y3185D02*
X758Y3185D01*
X696Y3184D02*
X742Y3184D01*
X751Y3184D02*
X759Y3184D01*
X696Y3183D02*
X742Y3183D01*
X751Y3183D02*
X759Y3183D01*
X695Y3182D02*
X742Y3182D01*
X751Y3182D02*
X759Y3182D01*
X695Y3181D02*
X742Y3181D01*
X751Y3181D02*
X759Y3181D01*
X694Y3180D02*
X701Y3180D01*
X737Y3180D02*
X742Y3180D01*
X751Y3180D02*
X758Y3180D01*
X694Y3179D02*
X700Y3179D01*
X737Y3179D02*
X742Y3179D01*
X751Y3179D02*
X758Y3179D01*
X694Y3178D02*
X699Y3178D01*
X737Y3178D02*
X742Y3178D01*
X752Y3178D02*
X757Y3178D01*
X694Y3177D02*
X699Y3177D01*
X737Y3177D02*
X742Y3177D01*
X694Y3176D02*
X699Y3176D01*
X737Y3176D02*
X742Y3176D01*
X694Y3175D02*
X699Y3175D01*
X737Y3175D02*
X742Y3175D01*
X694Y3174D02*
X699Y3174D01*
X737Y3174D02*
X742Y3174D01*
X694Y3173D02*
X699Y3173D01*
X737Y3173D02*
X742Y3173D01*
X694Y3172D02*
X699Y3172D01*
X737Y3172D02*
X742Y3172D01*
X694Y3171D02*
X700Y3171D01*
X737Y3171D02*
X742Y3171D01*
X694Y3170D02*
X700Y3170D01*
X737Y3170D02*
X742Y3170D01*
X694Y3169D02*
X701Y3169D01*
X738Y3169D02*
X741Y3169D01*
X695Y3168D02*
X702Y3168D01*
X695Y3167D02*
X704Y3167D01*
X696Y3166D02*
X705Y3166D01*
X697Y3165D02*
X705Y3165D01*
X698Y3164D02*
X705Y3164D01*
X699Y3163D02*
X704Y3163D01*
X702Y3162D02*
X702Y3162D01*
X709Y3144D02*
X711Y3144D01*
X739Y3144D02*
X741Y3144D01*
X708Y3143D02*
X712Y3143D01*
X738Y3143D02*
X742Y3143D01*
X708Y3142D02*
X713Y3142D01*
X737Y3142D02*
X742Y3142D01*
X707Y3141D02*
X713Y3141D01*
X737Y3141D02*
X742Y3141D01*
X707Y3140D02*
X713Y3140D01*
X737Y3140D02*
X742Y3140D01*
X707Y3139D02*
X713Y3139D01*
X737Y3139D02*
X742Y3139D01*
X707Y3138D02*
X713Y3138D01*
X737Y3138D02*
X742Y3138D01*
X707Y3137D02*
X713Y3137D01*
X737Y3137D02*
X742Y3137D01*
X707Y3136D02*
X713Y3136D01*
X737Y3136D02*
X742Y3136D01*
X707Y3135D02*
X713Y3135D01*
X737Y3135D02*
X742Y3135D01*
X707Y3134D02*
X713Y3134D01*
X737Y3134D02*
X742Y3134D01*
X707Y3133D02*
X713Y3133D01*
X737Y3133D02*
X742Y3133D01*
X707Y3132D02*
X713Y3132D01*
X737Y3132D02*
X742Y3132D01*
X707Y3131D02*
X713Y3131D01*
X737Y3131D02*
X742Y3131D01*
X707Y3130D02*
X713Y3130D01*
X737Y3130D02*
X742Y3130D01*
X707Y3129D02*
X713Y3129D01*
X737Y3129D02*
X742Y3129D01*
X707Y3128D02*
X713Y3128D01*
X737Y3128D02*
X742Y3128D01*
X708Y3127D02*
X713Y3127D01*
X737Y3127D02*
X742Y3127D01*
X708Y3126D02*
X714Y3126D01*
X736Y3126D02*
X742Y3126D01*
X708Y3125D02*
X714Y3125D01*
X736Y3125D02*
X742Y3125D01*
X708Y3124D02*
X715Y3124D01*
X735Y3124D02*
X742Y3124D01*
X709Y3123D02*
X716Y3123D01*
X734Y3123D02*
X741Y3123D01*
X710Y3122D02*
X717Y3122D01*
X733Y3122D02*
X741Y3122D01*
X710Y3121D02*
X718Y3121D01*
X732Y3121D02*
X740Y3121D01*
X711Y3120D02*
X719Y3120D01*
X731Y3120D02*
X739Y3120D01*
X712Y3119D02*
X738Y3119D01*
X713Y3118D02*
X737Y3118D01*
X714Y3117D02*
X736Y3117D01*
X715Y3116D02*
X735Y3116D01*
X716Y3115D02*
X734Y3115D01*
X717Y3114D02*
X733Y3114D01*
X721Y3113D02*
X729Y3113D01*
X709Y3095D02*
X711Y3095D01*
X708Y3094D02*
X712Y3094D01*
X708Y3093D02*
X713Y3093D01*
X707Y3092D02*
X713Y3092D01*
X707Y3091D02*
X713Y3091D01*
X707Y3090D02*
X713Y3090D01*
X707Y3089D02*
X713Y3089D01*
X707Y3088D02*
X713Y3088D01*
X707Y3087D02*
X713Y3087D01*
X707Y3086D02*
X753Y3086D01*
X707Y3085D02*
X755Y3085D01*
X707Y3084D02*
X756Y3084D01*
X707Y3083D02*
X756Y3083D01*
X707Y3082D02*
X756Y3082D01*
X707Y3081D02*
X756Y3081D01*
X707Y3080D02*
X756Y3080D01*
X707Y3079D02*
X713Y3079D01*
X751Y3079D02*
X756Y3079D01*
X707Y3078D02*
X713Y3078D01*
X751Y3078D02*
X756Y3078D01*
X707Y3077D02*
X713Y3077D01*
X751Y3077D02*
X756Y3077D01*
X707Y3076D02*
X713Y3076D01*
X751Y3076D02*
X756Y3076D01*
X707Y3075D02*
X713Y3075D01*
X751Y3075D02*
X756Y3075D01*
X707Y3074D02*
X713Y3074D01*
X751Y3074D02*
X756Y3074D01*
X708Y3073D02*
X713Y3073D01*
X751Y3073D02*
X756Y3073D01*
X708Y3072D02*
X712Y3072D01*
X751Y3072D02*
X755Y3072D01*
X709Y3071D02*
X712Y3071D01*
X752Y3071D02*
X755Y3071D01*
X700Y3049D02*
X741Y3049D01*
X752Y3049D02*
X757Y3049D01*
X698Y3048D02*
X742Y3048D01*
X751Y3048D02*
X758Y3048D01*
X697Y3047D02*
X742Y3047D01*
X751Y3047D02*
X758Y3047D01*
X696Y3046D02*
X742Y3046D01*
X751Y3046D02*
X759Y3046D01*
X695Y3045D02*
X742Y3045D01*
X751Y3045D02*
X759Y3045D01*
X695Y3044D02*
X742Y3044D01*
X751Y3044D02*
X759Y3044D01*
X694Y3043D02*
X701Y3043D01*
X737Y3043D02*
X742Y3043D01*
X751Y3043D02*
X759Y3043D01*
X694Y3042D02*
X700Y3042D01*
X737Y3042D02*
X742Y3042D01*
X751Y3042D02*
X758Y3042D01*
X694Y3041D02*
X700Y3041D01*
X737Y3041D02*
X742Y3041D01*
X752Y3041D02*
X758Y3041D01*
X694Y3040D02*
X699Y3040D01*
X737Y3040D02*
X742Y3040D01*
X694Y3039D02*
X699Y3039D01*
X737Y3039D02*
X742Y3039D01*
X694Y3038D02*
X699Y3038D01*
X737Y3038D02*
X742Y3038D01*
X694Y3037D02*
X699Y3037D01*
X737Y3037D02*
X742Y3037D01*
X694Y3036D02*
X699Y3036D01*
X737Y3036D02*
X742Y3036D01*
X694Y3035D02*
X699Y3035D01*
X737Y3035D02*
X742Y3035D01*
X694Y3034D02*
X699Y3034D01*
X737Y3034D02*
X742Y3034D01*
X694Y3033D02*
X700Y3033D01*
X737Y3033D02*
X742Y3033D01*
X694Y3032D02*
X700Y3032D01*
X738Y3032D02*
X742Y3032D01*
X695Y3031D02*
X702Y3031D01*
X739Y3031D02*
X741Y3031D01*
X695Y3030D02*
X703Y3030D01*
X695Y3029D02*
X704Y3029D01*
X696Y3028D02*
X705Y3028D01*
X697Y3027D02*
X705Y3027D01*
X698Y3026D02*
X704Y3026D01*
X700Y3025D02*
X703Y3025D01*
X708Y3006D02*
X712Y3006D01*
X738Y3006D02*
X741Y3006D01*
X708Y3005D02*
X713Y3005D01*
X737Y3005D02*
X742Y3005D01*
X708Y3004D02*
X713Y3004D01*
X737Y3004D02*
X742Y3004D01*
X707Y3003D02*
X713Y3003D01*
X737Y3003D02*
X742Y3003D01*
X707Y3002D02*
X713Y3002D01*
X737Y3002D02*
X742Y3002D01*
X707Y3001D02*
X713Y3001D01*
X737Y3001D02*
X742Y3001D01*
X707Y3000D02*
X713Y3000D01*
X737Y3000D02*
X742Y3000D01*
X707Y2999D02*
X713Y2999D01*
X737Y2999D02*
X742Y2999D01*
X707Y2998D02*
X713Y2998D01*
X737Y2998D02*
X742Y2998D01*
X707Y2997D02*
X713Y2997D01*
X737Y2997D02*
X742Y2997D01*
X707Y2996D02*
X713Y2996D01*
X737Y2996D02*
X742Y2996D01*
X707Y2995D02*
X713Y2995D01*
X737Y2995D02*
X742Y2995D01*
X707Y2994D02*
X713Y2994D01*
X737Y2994D02*
X742Y2994D01*
X707Y2993D02*
X713Y2993D01*
X737Y2993D02*
X742Y2993D01*
X707Y2992D02*
X713Y2992D01*
X737Y2992D02*
X742Y2992D01*
X707Y2991D02*
X713Y2991D01*
X737Y2991D02*
X742Y2991D01*
X707Y2990D02*
X713Y2990D01*
X737Y2990D02*
X742Y2990D01*
X708Y2989D02*
X713Y2989D01*
X737Y2989D02*
X742Y2989D01*
X708Y2988D02*
X714Y2988D01*
X736Y2988D02*
X742Y2988D01*
X708Y2987D02*
X715Y2987D01*
X735Y2987D02*
X742Y2987D01*
X708Y2986D02*
X716Y2986D01*
X734Y2986D02*
X741Y2986D01*
X709Y2985D02*
X716Y2985D01*
X733Y2985D02*
X741Y2985D01*
X710Y2984D02*
X717Y2984D01*
X733Y2984D02*
X740Y2984D01*
X711Y2983D02*
X718Y2983D01*
X732Y2983D02*
X739Y2983D01*
X712Y2982D02*
X720Y2982D01*
X730Y2982D02*
X738Y2982D01*
X712Y2981D02*
X738Y2981D01*
X713Y2980D02*
X737Y2980D01*
X714Y2979D02*
X736Y2979D01*
X715Y2978D02*
X735Y2978D01*
X716Y2977D02*
X733Y2977D01*
X718Y2976D02*
X731Y2976D01*
X708Y2957D02*
X712Y2957D01*
X708Y2956D02*
X713Y2956D01*
X708Y2955D02*
X713Y2955D01*
X707Y2954D02*
X713Y2954D01*
X707Y2953D02*
X713Y2953D01*
X707Y2952D02*
X713Y2952D01*
X707Y2951D02*
X713Y2951D01*
X707Y2950D02*
X713Y2950D01*
X707Y2949D02*
X713Y2949D01*
X707Y2948D02*
X754Y2948D01*
X707Y2947D02*
X755Y2947D01*
X707Y2946D02*
X756Y2946D01*
X707Y2945D02*
X756Y2945D01*
X707Y2944D02*
X756Y2944D01*
X707Y2943D02*
X756Y2943D01*
X707Y2942D02*
X713Y2942D01*
X750Y2942D02*
X756Y2942D01*
X707Y2941D02*
X713Y2941D01*
X751Y2941D02*
X756Y2941D01*
X707Y2940D02*
X713Y2940D01*
X751Y2940D02*
X756Y2940D01*
X707Y2939D02*
X713Y2939D01*
X751Y2939D02*
X756Y2939D01*
X707Y2938D02*
X713Y2938D01*
X751Y2938D02*
X756Y2938D01*
X707Y2937D02*
X713Y2937D01*
X751Y2937D02*
X756Y2937D01*
X707Y2936D02*
X713Y2936D01*
X751Y2936D02*
X756Y2936D01*
X708Y2935D02*
X713Y2935D01*
X751Y2935D02*
X756Y2935D01*
X708Y2934D02*
X712Y2934D01*
X751Y2934D02*
X755Y2934D01*
X709Y2933D02*
X711Y2933D01*
X752Y2933D02*
X754Y2933D01*
X702Y2912D02*
X740Y2912D01*
X753Y2912D02*
X756Y2912D01*
X699Y2911D02*
X742Y2911D01*
X751Y2911D02*
X758Y2911D01*
X698Y2910D02*
X742Y2910D01*
X751Y2910D02*
X758Y2910D01*
X696Y2909D02*
X742Y2909D01*
X751Y2909D02*
X759Y2909D01*
X696Y2908D02*
X742Y2908D01*
X751Y2908D02*
X759Y2908D01*
X695Y2907D02*
X742Y2907D01*
X751Y2907D02*
X759Y2907D01*
X695Y2906D02*
X742Y2906D01*
X751Y2906D02*
X759Y2906D01*
X694Y2905D02*
X701Y2905D01*
X737Y2905D02*
X742Y2905D01*
X751Y2905D02*
X758Y2905D01*
X694Y2904D02*
X700Y2904D01*
X737Y2904D02*
X742Y2904D01*
X751Y2904D02*
X758Y2904D01*
X694Y2903D02*
X700Y2903D01*
X737Y2903D02*
X742Y2903D01*
X752Y2903D02*
X757Y2903D01*
X694Y2902D02*
X699Y2902D01*
X737Y2902D02*
X742Y2902D01*
X694Y2901D02*
X699Y2901D01*
X737Y2901D02*
X742Y2901D01*
X694Y2900D02*
X699Y2900D01*
X737Y2900D02*
X742Y2900D01*
X694Y2899D02*
X699Y2899D01*
X737Y2899D02*
X742Y2899D01*
X694Y2898D02*
X699Y2898D01*
X737Y2898D02*
X742Y2898D01*
X694Y2897D02*
X699Y2897D01*
X737Y2897D02*
X742Y2897D01*
X694Y2896D02*
X699Y2896D01*
X737Y2896D02*
X742Y2896D01*
X694Y2895D02*
X700Y2895D01*
X737Y2895D02*
X742Y2895D01*
X694Y2894D02*
X701Y2894D01*
X738Y2894D02*
X741Y2894D01*
X695Y2893D02*
X702Y2893D01*
X695Y2892D02*
X704Y2892D01*
X696Y2891D02*
X705Y2891D01*
X696Y2890D02*
X705Y2890D01*
X697Y2889D02*
X705Y2889D01*
X699Y2888D02*
X704Y2888D01*
X701Y2887D02*
X702Y2887D01*
X785Y1505D02*
X786Y1505D01*
X783Y1504D02*
X788Y1504D01*
X783Y1503D02*
X788Y1503D01*
X782Y1502D02*
X789Y1502D01*
X782Y1501D02*
X789Y1501D01*
X765Y1500D02*
X812Y1500D01*
X765Y1499D02*
X813Y1499D01*
X764Y1498D02*
X813Y1498D01*
X764Y1497D02*
X813Y1497D01*
X764Y1496D02*
X813Y1496D01*
X765Y1495D02*
X813Y1495D01*
X766Y1494D02*
X812Y1494D01*
X782Y1493D02*
X789Y1493D01*
X782Y1492D02*
X789Y1492D01*
X782Y1491D02*
X789Y1491D01*
X782Y1490D02*
X789Y1490D01*
X782Y1489D02*
X789Y1489D01*
X782Y1488D02*
X789Y1488D01*
X782Y1487D02*
X789Y1487D01*
X782Y1486D02*
X789Y1486D01*
X782Y1485D02*
X789Y1485D01*
X782Y1484D02*
X789Y1484D01*
X782Y1483D02*
X789Y1483D01*
X782Y1482D02*
X789Y1482D01*
X782Y1481D02*
X789Y1481D01*
X782Y1480D02*
X789Y1480D01*
X782Y1479D02*
X817Y1479D01*
X782Y1478D02*
X818Y1478D01*
X782Y1477D02*
X819Y1477D01*
X782Y1476D02*
X820Y1476D01*
X782Y1475D02*
X820Y1475D01*
X782Y1474D02*
X819Y1474D01*
X782Y1473D02*
X819Y1473D01*
X783Y1472D02*
X817Y1472D01*
X796Y1454D02*
X813Y1454D01*
X765Y1453D02*
X769Y1453D01*
X792Y1453D02*
X816Y1453D01*
X764Y1452D02*
X770Y1452D01*
X791Y1452D02*
X817Y1452D01*
X764Y1451D02*
X770Y1451D01*
X790Y1451D02*
X818Y1451D01*
X764Y1450D02*
X770Y1450D01*
X790Y1450D02*
X819Y1450D01*
X764Y1449D02*
X770Y1449D01*
X789Y1449D02*
X819Y1449D01*
X764Y1448D02*
X770Y1448D01*
X789Y1448D02*
X819Y1448D01*
X764Y1447D02*
X770Y1447D01*
X789Y1447D02*
X820Y1447D01*
X764Y1446D02*
X770Y1446D01*
X789Y1446D02*
X795Y1446D01*
X813Y1446D02*
X820Y1446D01*
X764Y1445D02*
X770Y1445D01*
X789Y1445D02*
X795Y1445D01*
X813Y1445D02*
X820Y1445D01*
X764Y1444D02*
X770Y1444D01*
X789Y1444D02*
X795Y1444D01*
X813Y1444D02*
X820Y1444D01*
X764Y1443D02*
X770Y1443D01*
X789Y1443D02*
X795Y1443D01*
X813Y1443D02*
X820Y1443D01*
X764Y1442D02*
X770Y1442D01*
X789Y1442D02*
X795Y1442D01*
X813Y1442D02*
X820Y1442D01*
X764Y1441D02*
X770Y1441D01*
X789Y1441D02*
X795Y1441D01*
X813Y1441D02*
X820Y1441D01*
X764Y1440D02*
X770Y1440D01*
X789Y1440D02*
X795Y1440D01*
X813Y1440D02*
X820Y1440D01*
X764Y1439D02*
X770Y1439D01*
X789Y1439D02*
X795Y1439D01*
X813Y1439D02*
X820Y1439D01*
X764Y1438D02*
X770Y1438D01*
X789Y1438D02*
X795Y1438D01*
X813Y1438D02*
X820Y1438D01*
X764Y1437D02*
X770Y1437D01*
X789Y1437D02*
X795Y1437D01*
X813Y1437D02*
X820Y1437D01*
X764Y1436D02*
X770Y1436D01*
X789Y1436D02*
X795Y1436D01*
X813Y1436D02*
X820Y1436D01*
X764Y1435D02*
X770Y1435D01*
X789Y1435D02*
X795Y1435D01*
X813Y1435D02*
X820Y1435D01*
X764Y1434D02*
X770Y1434D01*
X789Y1434D02*
X795Y1434D01*
X813Y1434D02*
X820Y1434D01*
X764Y1433D02*
X770Y1433D01*
X789Y1433D02*
X795Y1433D01*
X813Y1433D02*
X820Y1433D01*
X764Y1432D02*
X770Y1432D01*
X789Y1432D02*
X795Y1432D01*
X813Y1432D02*
X820Y1432D01*
X764Y1431D02*
X770Y1431D01*
X789Y1431D02*
X795Y1431D01*
X813Y1431D02*
X820Y1431D01*
X764Y1430D02*
X770Y1430D01*
X789Y1430D02*
X795Y1430D01*
X813Y1430D02*
X820Y1430D01*
X764Y1429D02*
X770Y1429D01*
X789Y1429D02*
X795Y1429D01*
X813Y1429D02*
X820Y1429D01*
X764Y1428D02*
X770Y1428D01*
X789Y1428D02*
X795Y1428D01*
X813Y1428D02*
X820Y1428D01*
X764Y1427D02*
X770Y1427D01*
X789Y1427D02*
X795Y1427D01*
X813Y1427D02*
X820Y1427D01*
X764Y1426D02*
X770Y1426D01*
X789Y1426D02*
X795Y1426D01*
X813Y1426D02*
X820Y1426D01*
X764Y1425D02*
X795Y1425D01*
X813Y1425D02*
X820Y1425D01*
X764Y1424D02*
X795Y1424D01*
X813Y1424D02*
X820Y1424D01*
X764Y1423D02*
X795Y1423D01*
X813Y1423D02*
X820Y1423D01*
X764Y1422D02*
X794Y1422D01*
X813Y1422D02*
X820Y1422D01*
X764Y1421D02*
X794Y1421D01*
X813Y1421D02*
X820Y1421D01*
X764Y1420D02*
X793Y1420D01*
X814Y1420D02*
X819Y1420D01*
X764Y1419D02*
X791Y1419D01*
X814Y1419D02*
X819Y1419D01*
X764Y1418D02*
X789Y1418D01*
X816Y1418D02*
X817Y1418D01*
X769Y1401D02*
X814Y1401D01*
X767Y1400D02*
X816Y1400D01*
X766Y1399D02*
X818Y1399D01*
X765Y1398D02*
X818Y1398D01*
X765Y1397D02*
X819Y1397D01*
X764Y1396D02*
X819Y1396D01*
X764Y1395D02*
X820Y1395D01*
X764Y1394D02*
X820Y1394D01*
X764Y1393D02*
X770Y1393D01*
X813Y1393D02*
X820Y1393D01*
X764Y1392D02*
X770Y1392D01*
X813Y1392D02*
X820Y1392D01*
X764Y1391D02*
X770Y1391D01*
X813Y1391D02*
X820Y1391D01*
X764Y1390D02*
X770Y1390D01*
X813Y1390D02*
X820Y1390D01*
X764Y1389D02*
X770Y1389D01*
X813Y1389D02*
X820Y1389D01*
X764Y1388D02*
X770Y1388D01*
X813Y1388D02*
X820Y1388D01*
X764Y1387D02*
X770Y1387D01*
X813Y1387D02*
X820Y1387D01*
X764Y1386D02*
X770Y1386D01*
X813Y1386D02*
X820Y1386D01*
X764Y1385D02*
X770Y1385D01*
X813Y1385D02*
X820Y1385D01*
X764Y1384D02*
X770Y1384D01*
X813Y1384D02*
X820Y1384D01*
X764Y1383D02*
X770Y1383D01*
X813Y1383D02*
X820Y1383D01*
X764Y1382D02*
X770Y1382D01*
X813Y1382D02*
X820Y1382D01*
X764Y1381D02*
X770Y1381D01*
X813Y1381D02*
X820Y1381D01*
X764Y1380D02*
X770Y1380D01*
X813Y1380D02*
X820Y1380D01*
X764Y1379D02*
X770Y1379D01*
X813Y1379D02*
X820Y1379D01*
X764Y1378D02*
X770Y1378D01*
X813Y1378D02*
X820Y1378D01*
X764Y1377D02*
X770Y1377D01*
X813Y1377D02*
X820Y1377D01*
X764Y1376D02*
X770Y1376D01*
X813Y1376D02*
X820Y1376D01*
X764Y1375D02*
X770Y1375D01*
X813Y1375D02*
X820Y1375D01*
X764Y1374D02*
X770Y1374D01*
X813Y1374D02*
X820Y1374D01*
X764Y1373D02*
X770Y1373D01*
X813Y1373D02*
X820Y1373D01*
X764Y1372D02*
X820Y1372D01*
X764Y1371D02*
X819Y1371D01*
X764Y1370D02*
X819Y1370D01*
X765Y1369D02*
X819Y1369D01*
X765Y1368D02*
X818Y1368D01*
X766Y1367D02*
X817Y1367D01*
X768Y1366D02*
X816Y1366D01*
X765Y1348D02*
X769Y1348D01*
X793Y1348D02*
X815Y1348D01*
X764Y1347D02*
X770Y1347D01*
X791Y1347D02*
X817Y1347D01*
X764Y1346D02*
X770Y1346D01*
X790Y1346D02*
X818Y1346D01*
X764Y1345D02*
X770Y1345D01*
X790Y1345D02*
X819Y1345D01*
X764Y1344D02*
X770Y1344D01*
X789Y1344D02*
X819Y1344D01*
X764Y1343D02*
X770Y1343D01*
X789Y1343D02*
X819Y1343D01*
X764Y1342D02*
X770Y1342D01*
X789Y1342D02*
X820Y1342D01*
X764Y1341D02*
X770Y1341D01*
X789Y1341D02*
X795Y1341D01*
X813Y1341D02*
X820Y1341D01*
X764Y1340D02*
X770Y1340D01*
X789Y1340D02*
X795Y1340D01*
X813Y1340D02*
X820Y1340D01*
X764Y1339D02*
X770Y1339D01*
X789Y1339D02*
X795Y1339D01*
X813Y1339D02*
X820Y1339D01*
X764Y1338D02*
X770Y1338D01*
X789Y1338D02*
X795Y1338D01*
X813Y1338D02*
X820Y1338D01*
X764Y1337D02*
X770Y1337D01*
X789Y1337D02*
X795Y1337D01*
X813Y1337D02*
X820Y1337D01*
X764Y1336D02*
X770Y1336D01*
X789Y1336D02*
X795Y1336D01*
X813Y1336D02*
X820Y1336D01*
X764Y1335D02*
X770Y1335D01*
X789Y1335D02*
X795Y1335D01*
X813Y1335D02*
X820Y1335D01*
X764Y1334D02*
X770Y1334D01*
X789Y1334D02*
X795Y1334D01*
X813Y1334D02*
X820Y1334D01*
X764Y1333D02*
X770Y1333D01*
X789Y1333D02*
X795Y1333D01*
X813Y1333D02*
X820Y1333D01*
X764Y1332D02*
X770Y1332D01*
X789Y1332D02*
X795Y1332D01*
X813Y1332D02*
X820Y1332D01*
X764Y1331D02*
X770Y1331D01*
X789Y1331D02*
X795Y1331D01*
X813Y1331D02*
X820Y1331D01*
X764Y1330D02*
X770Y1330D01*
X789Y1330D02*
X795Y1330D01*
X813Y1330D02*
X820Y1330D01*
X764Y1329D02*
X770Y1329D01*
X789Y1329D02*
X795Y1329D01*
X813Y1329D02*
X820Y1329D01*
X764Y1328D02*
X770Y1328D01*
X789Y1328D02*
X795Y1328D01*
X813Y1328D02*
X820Y1328D01*
X764Y1327D02*
X770Y1327D01*
X789Y1327D02*
X795Y1327D01*
X813Y1327D02*
X820Y1327D01*
X764Y1326D02*
X770Y1326D01*
X789Y1326D02*
X795Y1326D01*
X813Y1326D02*
X820Y1326D01*
X764Y1325D02*
X770Y1325D01*
X789Y1325D02*
X795Y1325D01*
X813Y1325D02*
X820Y1325D01*
X764Y1324D02*
X770Y1324D01*
X789Y1324D02*
X795Y1324D01*
X813Y1324D02*
X820Y1324D01*
X764Y1323D02*
X770Y1323D01*
X789Y1323D02*
X795Y1323D01*
X813Y1323D02*
X820Y1323D01*
X764Y1322D02*
X770Y1322D01*
X789Y1322D02*
X795Y1322D01*
X813Y1322D02*
X820Y1322D01*
X764Y1321D02*
X770Y1321D01*
X789Y1321D02*
X795Y1321D01*
X813Y1321D02*
X820Y1321D01*
X764Y1320D02*
X771Y1320D01*
X788Y1320D02*
X795Y1320D01*
X813Y1320D02*
X820Y1320D01*
X764Y1319D02*
X795Y1319D01*
X813Y1319D02*
X820Y1319D01*
X764Y1318D02*
X795Y1318D01*
X813Y1318D02*
X820Y1318D01*
X764Y1317D02*
X794Y1317D01*
X813Y1317D02*
X820Y1317D01*
X764Y1316D02*
X794Y1316D01*
X813Y1316D02*
X820Y1316D01*
X764Y1315D02*
X793Y1315D01*
X814Y1315D02*
X819Y1315D01*
X764Y1314D02*
X792Y1314D01*
X814Y1314D02*
X819Y1314D01*
X764Y1313D02*
X790Y1313D01*
X815Y1313D02*
X818Y1313D01*
X766Y1243D02*
X768Y1243D01*
X783Y1243D02*
X794Y1243D01*
X765Y1242D02*
X769Y1242D01*
X781Y1242D02*
X796Y1242D01*
X764Y1241D02*
X770Y1241D01*
X781Y1241D02*
X798Y1241D01*
X764Y1240D02*
X770Y1240D01*
X781Y1240D02*
X799Y1240D01*
X764Y1239D02*
X770Y1239D01*
X781Y1239D02*
X800Y1239D01*
X764Y1238D02*
X770Y1238D01*
X781Y1238D02*
X801Y1238D01*
X764Y1237D02*
X770Y1237D01*
X781Y1237D02*
X802Y1237D01*
X764Y1236D02*
X770Y1236D01*
X781Y1236D02*
X787Y1236D01*
X793Y1236D02*
X802Y1236D01*
X764Y1235D02*
X770Y1235D01*
X781Y1235D02*
X787Y1235D01*
X795Y1235D02*
X803Y1235D01*
X764Y1234D02*
X770Y1234D01*
X781Y1234D02*
X787Y1234D01*
X796Y1234D02*
X803Y1234D01*
X764Y1233D02*
X770Y1233D01*
X781Y1233D02*
X787Y1233D01*
X797Y1233D02*
X804Y1233D01*
X764Y1232D02*
X770Y1232D01*
X781Y1232D02*
X787Y1232D01*
X797Y1232D02*
X804Y1232D01*
X764Y1231D02*
X770Y1231D01*
X781Y1231D02*
X787Y1231D01*
X798Y1231D02*
X804Y1231D01*
X764Y1230D02*
X770Y1230D01*
X781Y1230D02*
X787Y1230D01*
X798Y1230D02*
X804Y1230D01*
X764Y1229D02*
X770Y1229D01*
X781Y1229D02*
X787Y1229D01*
X798Y1229D02*
X804Y1229D01*
X764Y1228D02*
X770Y1228D01*
X781Y1228D02*
X787Y1228D01*
X798Y1228D02*
X804Y1228D01*
X764Y1227D02*
X770Y1227D01*
X781Y1227D02*
X787Y1227D01*
X798Y1227D02*
X804Y1227D01*
X764Y1226D02*
X770Y1226D01*
X781Y1226D02*
X787Y1226D01*
X798Y1226D02*
X804Y1226D01*
X764Y1225D02*
X770Y1225D01*
X781Y1225D02*
X787Y1225D01*
X798Y1225D02*
X804Y1225D01*
X764Y1224D02*
X770Y1224D01*
X781Y1224D02*
X787Y1224D01*
X798Y1224D02*
X804Y1224D01*
X764Y1223D02*
X770Y1223D01*
X781Y1223D02*
X787Y1223D01*
X798Y1223D02*
X804Y1223D01*
X764Y1222D02*
X770Y1222D01*
X781Y1222D02*
X787Y1222D01*
X798Y1222D02*
X804Y1222D01*
X764Y1221D02*
X770Y1221D01*
X781Y1221D02*
X787Y1221D01*
X798Y1221D02*
X804Y1221D01*
X764Y1220D02*
X771Y1220D01*
X781Y1220D02*
X787Y1220D01*
X798Y1220D02*
X804Y1220D01*
X764Y1219D02*
X771Y1219D01*
X781Y1219D02*
X787Y1219D01*
X797Y1219D02*
X804Y1219D01*
X764Y1218D02*
X772Y1218D01*
X781Y1218D02*
X787Y1218D01*
X797Y1218D02*
X804Y1218D01*
X765Y1217D02*
X772Y1217D01*
X781Y1217D02*
X787Y1217D01*
X796Y1217D02*
X803Y1217D01*
X765Y1216D02*
X773Y1216D01*
X781Y1216D02*
X787Y1216D01*
X795Y1216D02*
X803Y1216D01*
X766Y1215D02*
X775Y1215D01*
X781Y1215D02*
X787Y1215D01*
X793Y1215D02*
X802Y1215D01*
X766Y1214D02*
X802Y1214D01*
X767Y1213D02*
X801Y1213D01*
X768Y1212D02*
X800Y1212D01*
X769Y1211D02*
X799Y1211D01*
X770Y1210D02*
X798Y1210D01*
X771Y1209D02*
X796Y1209D01*
X773Y1208D02*
X794Y1208D01*
X765Y1190D02*
X818Y1190D01*
X764Y1189D02*
X819Y1189D01*
X764Y1188D02*
X819Y1188D01*
X764Y1187D02*
X820Y1187D01*
X764Y1186D02*
X819Y1186D01*
X765Y1185D02*
X819Y1185D01*
X766Y1184D02*
X817Y1184D01*
X768Y1183D02*
X777Y1183D01*
X791Y1183D02*
X800Y1183D01*
X767Y1182D02*
X776Y1182D01*
X792Y1182D02*
X800Y1182D01*
X767Y1181D02*
X775Y1181D01*
X793Y1181D02*
X801Y1181D01*
X766Y1180D02*
X775Y1180D01*
X794Y1180D02*
X802Y1180D01*
X765Y1179D02*
X774Y1179D01*
X794Y1179D02*
X803Y1179D01*
X765Y1178D02*
X773Y1178D01*
X795Y1178D02*
X803Y1178D01*
X764Y1177D02*
X772Y1177D01*
X796Y1177D02*
X804Y1177D01*
X764Y1176D02*
X771Y1176D01*
X797Y1176D02*
X804Y1176D01*
X764Y1175D02*
X771Y1175D01*
X798Y1175D02*
X804Y1175D01*
X764Y1174D02*
X770Y1174D01*
X798Y1174D02*
X804Y1174D01*
X764Y1173D02*
X770Y1173D01*
X798Y1173D02*
X804Y1173D01*
X764Y1172D02*
X770Y1172D01*
X798Y1172D02*
X804Y1172D01*
X764Y1171D02*
X770Y1171D01*
X798Y1171D02*
X804Y1171D01*
X764Y1170D02*
X770Y1170D01*
X798Y1170D02*
X804Y1170D01*
X764Y1169D02*
X770Y1169D01*
X798Y1169D02*
X804Y1169D01*
X764Y1168D02*
X770Y1168D01*
X798Y1168D02*
X804Y1168D01*
X764Y1167D02*
X771Y1167D01*
X798Y1167D02*
X804Y1167D01*
X764Y1166D02*
X771Y1166D01*
X797Y1166D02*
X804Y1166D01*
X764Y1165D02*
X772Y1165D01*
X796Y1165D02*
X804Y1165D01*
X765Y1164D02*
X773Y1164D01*
X795Y1164D02*
X803Y1164D01*
X765Y1163D02*
X774Y1163D01*
X794Y1163D02*
X803Y1163D01*
X766Y1162D02*
X802Y1162D01*
X767Y1161D02*
X801Y1161D01*
X767Y1160D02*
X801Y1160D01*
X768Y1159D02*
X800Y1159D01*
X769Y1158D02*
X799Y1158D01*
X770Y1157D02*
X798Y1157D01*
X772Y1156D02*
X796Y1156D01*
X774Y1155D02*
X794Y1155D01*
X771Y1127D02*
X780Y1127D01*
X770Y1126D02*
X781Y1126D01*
X770Y1125D02*
X782Y1125D01*
X769Y1124D02*
X782Y1124D01*
X769Y1123D02*
X782Y1123D01*
X769Y1122D02*
X782Y1122D01*
X769Y1121D02*
X782Y1121D01*
X769Y1120D02*
X782Y1120D01*
X769Y1119D02*
X782Y1119D01*
X769Y1118D02*
X782Y1118D01*
X769Y1117D02*
X782Y1117D01*
X769Y1116D02*
X782Y1116D01*
X770Y1115D02*
X781Y1115D01*
X771Y1114D02*
X781Y1114D01*
X773Y1113D02*
X778Y1113D01*
X790Y1085D02*
X798Y1085D01*
X790Y1084D02*
X800Y1084D01*
X789Y1083D02*
X801Y1083D01*
X789Y1082D02*
X802Y1082D01*
X790Y1081D02*
X803Y1081D01*
X790Y1080D02*
X803Y1080D01*
X791Y1079D02*
X804Y1079D01*
X796Y1078D02*
X804Y1078D01*
X797Y1077D02*
X804Y1077D01*
X798Y1076D02*
X804Y1076D01*
X798Y1075D02*
X804Y1075D01*
X798Y1074D02*
X804Y1074D01*
X798Y1073D02*
X804Y1073D01*
X798Y1072D02*
X804Y1072D01*
X798Y1071D02*
X804Y1071D01*
X798Y1070D02*
X804Y1070D01*
X798Y1069D02*
X804Y1069D01*
X797Y1068D02*
X804Y1068D01*
X796Y1067D02*
X804Y1067D01*
X795Y1066D02*
X804Y1066D01*
X794Y1065D02*
X803Y1065D01*
X794Y1064D02*
X802Y1064D01*
X793Y1063D02*
X801Y1063D01*
X792Y1062D02*
X801Y1062D01*
X791Y1061D02*
X800Y1061D01*
X790Y1060D02*
X799Y1060D01*
X789Y1059D02*
X798Y1059D01*
X788Y1058D02*
X797Y1058D01*
X787Y1057D02*
X797Y1057D01*
X765Y1056D02*
X803Y1056D01*
X764Y1055D02*
X804Y1055D01*
X764Y1054D02*
X804Y1054D01*
X764Y1053D02*
X804Y1053D01*
X764Y1052D02*
X804Y1052D01*
X765Y1051D02*
X803Y1051D01*
X766Y1050D02*
X802Y1050D01*
X766Y1033D02*
X768Y1033D01*
X783Y1033D02*
X793Y1033D01*
X765Y1032D02*
X769Y1032D01*
X782Y1032D02*
X796Y1032D01*
X764Y1031D02*
X770Y1031D01*
X781Y1031D02*
X797Y1031D01*
X764Y1030D02*
X770Y1030D01*
X781Y1030D02*
X799Y1030D01*
X764Y1029D02*
X770Y1029D01*
X781Y1029D02*
X800Y1029D01*
X764Y1028D02*
X770Y1028D01*
X781Y1028D02*
X801Y1028D01*
X764Y1027D02*
X770Y1027D01*
X781Y1027D02*
X802Y1027D01*
X764Y1026D02*
X770Y1026D01*
X781Y1026D02*
X802Y1026D01*
X764Y1025D02*
X770Y1025D01*
X781Y1025D02*
X787Y1025D01*
X794Y1025D02*
X803Y1025D01*
X764Y1024D02*
X770Y1024D01*
X781Y1024D02*
X787Y1024D01*
X796Y1024D02*
X803Y1024D01*
X764Y1023D02*
X770Y1023D01*
X781Y1023D02*
X787Y1023D01*
X796Y1023D02*
X804Y1023D01*
X764Y1022D02*
X770Y1022D01*
X781Y1022D02*
X787Y1022D01*
X797Y1022D02*
X804Y1022D01*
X764Y1021D02*
X770Y1021D01*
X781Y1021D02*
X787Y1021D01*
X798Y1021D02*
X804Y1021D01*
X764Y1020D02*
X770Y1020D01*
X781Y1020D02*
X787Y1020D01*
X798Y1020D02*
X804Y1020D01*
X764Y1019D02*
X770Y1019D01*
X781Y1019D02*
X787Y1019D01*
X798Y1019D02*
X804Y1019D01*
X764Y1018D02*
X770Y1018D01*
X781Y1018D02*
X787Y1018D01*
X798Y1018D02*
X804Y1018D01*
X764Y1017D02*
X770Y1017D01*
X781Y1017D02*
X787Y1017D01*
X798Y1017D02*
X804Y1017D01*
X764Y1016D02*
X770Y1016D01*
X781Y1016D02*
X787Y1016D01*
X798Y1016D02*
X804Y1016D01*
X764Y1015D02*
X770Y1015D01*
X781Y1015D02*
X787Y1015D01*
X798Y1015D02*
X804Y1015D01*
X764Y1014D02*
X770Y1014D01*
X781Y1014D02*
X787Y1014D01*
X798Y1014D02*
X804Y1014D01*
X764Y1013D02*
X770Y1013D01*
X781Y1013D02*
X787Y1013D01*
X798Y1013D02*
X804Y1013D01*
X764Y1012D02*
X770Y1012D01*
X781Y1012D02*
X787Y1012D01*
X798Y1012D02*
X804Y1012D01*
X764Y1011D02*
X770Y1011D01*
X781Y1011D02*
X787Y1011D01*
X798Y1011D02*
X804Y1011D01*
X764Y1010D02*
X770Y1010D01*
X781Y1010D02*
X787Y1010D01*
X798Y1010D02*
X804Y1010D01*
X764Y1009D02*
X771Y1009D01*
X781Y1009D02*
X787Y1009D01*
X797Y1009D02*
X804Y1009D01*
X764Y1008D02*
X771Y1008D01*
X781Y1008D02*
X787Y1008D01*
X797Y1008D02*
X804Y1008D01*
X765Y1007D02*
X772Y1007D01*
X781Y1007D02*
X787Y1007D01*
X796Y1007D02*
X803Y1007D01*
X765Y1006D02*
X773Y1006D01*
X781Y1006D02*
X787Y1006D01*
X795Y1006D02*
X803Y1006D01*
X765Y1005D02*
X774Y1005D01*
X781Y1005D02*
X787Y1005D01*
X794Y1005D02*
X803Y1005D01*
X766Y1004D02*
X802Y1004D01*
X767Y1003D02*
X801Y1003D01*
X768Y1002D02*
X800Y1002D01*
X769Y1001D02*
X800Y1001D01*
X770Y1000D02*
X798Y1000D01*
X771Y999D02*
X797Y999D01*
X772Y998D02*
X795Y998D01*
X777Y997D02*
X791Y997D01*
X771Y980D02*
X774Y980D01*
X769Y979D02*
X776Y979D01*
X768Y978D02*
X776Y978D01*
X767Y977D02*
X776Y977D01*
X766Y976D02*
X776Y976D01*
X765Y975D02*
X776Y975D01*
X765Y974D02*
X775Y974D01*
X799Y974D02*
X803Y974D01*
X764Y973D02*
X773Y973D01*
X798Y973D02*
X804Y973D01*
X764Y972D02*
X771Y972D01*
X798Y972D02*
X804Y972D01*
X764Y971D02*
X771Y971D01*
X798Y971D02*
X804Y971D01*
X764Y970D02*
X770Y970D01*
X798Y970D02*
X804Y970D01*
X764Y969D02*
X770Y969D01*
X798Y969D02*
X804Y969D01*
X764Y968D02*
X770Y968D01*
X798Y968D02*
X804Y968D01*
X764Y967D02*
X770Y967D01*
X798Y967D02*
X804Y967D01*
X764Y966D02*
X770Y966D01*
X798Y966D02*
X804Y966D01*
X764Y965D02*
X770Y965D01*
X798Y965D02*
X804Y965D01*
X764Y964D02*
X770Y964D01*
X798Y964D02*
X804Y964D01*
X764Y963D02*
X770Y963D01*
X798Y963D02*
X804Y963D01*
X764Y962D02*
X770Y962D01*
X798Y962D02*
X804Y962D01*
X764Y961D02*
X771Y961D01*
X798Y961D02*
X804Y961D01*
X764Y960D02*
X771Y960D01*
X798Y960D02*
X804Y960D01*
X765Y959D02*
X773Y959D01*
X798Y959D02*
X805Y959D01*
X765Y958D02*
X815Y958D01*
X765Y957D02*
X816Y957D01*
X766Y956D02*
X816Y956D01*
X767Y955D02*
X817Y955D01*
X768Y954D02*
X816Y954D01*
X769Y953D02*
X816Y953D01*
X772Y952D02*
X815Y952D01*
X798Y951D02*
X804Y951D01*
X798Y950D02*
X804Y950D01*
X798Y949D02*
X804Y949D01*
X798Y948D02*
X804Y948D01*
X798Y947D02*
X804Y947D01*
X799Y946D02*
X804Y946D01*
X799Y945D02*
X803Y945D01*
X771Y927D02*
X778Y927D01*
X797Y927D02*
X799Y927D01*
X769Y926D02*
X780Y926D01*
X796Y926D02*
X800Y926D01*
X768Y925D02*
X781Y925D01*
X795Y925D02*
X801Y925D01*
X767Y924D02*
X783Y924D01*
X795Y924D02*
X802Y924D01*
X766Y923D02*
X783Y923D01*
X795Y923D02*
X803Y923D01*
X765Y922D02*
X784Y922D01*
X795Y922D02*
X803Y922D01*
X765Y921D02*
X784Y921D01*
X796Y921D02*
X804Y921D01*
X764Y920D02*
X772Y920D01*
X777Y920D02*
X785Y920D01*
X797Y920D02*
X804Y920D01*
X764Y919D02*
X771Y919D01*
X778Y919D02*
X785Y919D01*
X797Y919D02*
X804Y919D01*
X764Y918D02*
X770Y918D01*
X779Y918D02*
X786Y918D01*
X798Y918D02*
X804Y918D01*
X764Y917D02*
X770Y917D01*
X779Y917D02*
X786Y917D01*
X798Y917D02*
X804Y917D01*
X764Y916D02*
X770Y916D01*
X780Y916D02*
X787Y916D01*
X798Y916D02*
X804Y916D01*
X764Y915D02*
X770Y915D01*
X780Y915D02*
X787Y915D01*
X798Y915D02*
X804Y915D01*
X764Y914D02*
X770Y914D01*
X780Y914D02*
X787Y914D01*
X798Y914D02*
X804Y914D01*
X764Y913D02*
X770Y913D01*
X781Y913D02*
X788Y913D01*
X798Y913D02*
X804Y913D01*
X764Y912D02*
X770Y912D01*
X781Y912D02*
X788Y912D01*
X798Y912D02*
X804Y912D01*
X764Y911D02*
X770Y911D01*
X782Y911D02*
X789Y911D01*
X798Y911D02*
X804Y911D01*
X764Y910D02*
X770Y910D01*
X782Y910D02*
X789Y910D01*
X798Y910D02*
X804Y910D01*
X764Y909D02*
X770Y909D01*
X783Y909D02*
X790Y909D01*
X798Y909D02*
X804Y909D01*
X764Y908D02*
X770Y908D01*
X783Y908D02*
X790Y908D01*
X798Y908D02*
X804Y908D01*
X764Y907D02*
X770Y907D01*
X783Y907D02*
X790Y907D01*
X798Y907D02*
X804Y907D01*
X764Y906D02*
X770Y906D01*
X784Y906D02*
X791Y906D01*
X798Y906D02*
X804Y906D01*
X764Y905D02*
X770Y905D01*
X784Y905D02*
X791Y905D01*
X798Y905D02*
X804Y905D01*
X764Y904D02*
X770Y904D01*
X785Y904D02*
X792Y904D01*
X798Y904D02*
X804Y904D01*
X764Y903D02*
X770Y903D01*
X785Y903D02*
X792Y903D01*
X798Y903D02*
X804Y903D01*
X764Y902D02*
X770Y902D01*
X786Y902D02*
X793Y902D01*
X798Y902D02*
X804Y902D01*
X764Y901D02*
X771Y901D01*
X786Y901D02*
X793Y901D01*
X798Y901D02*
X804Y901D01*
X764Y900D02*
X771Y900D01*
X787Y900D02*
X804Y900D01*
X765Y899D02*
X772Y899D01*
X787Y899D02*
X804Y899D01*
X765Y898D02*
X772Y898D01*
X787Y898D02*
X803Y898D01*
X765Y897D02*
X773Y897D01*
X788Y897D02*
X803Y897D01*
X766Y896D02*
X773Y896D01*
X789Y896D02*
X802Y896D01*
X766Y895D02*
X773Y895D01*
X790Y895D02*
X801Y895D01*
X767Y894D02*
X773Y894D01*
X791Y894D02*
X800Y894D01*
X768Y893D02*
X772Y893D01*
X794Y893D02*
X797Y893D01*
X770Y892D02*
X771Y892D01*
X766Y875D02*
X796Y875D01*
X765Y874D02*
X798Y874D01*
X764Y873D02*
X800Y873D01*
X764Y872D02*
X801Y872D01*
X764Y871D02*
X802Y871D01*
X764Y870D02*
X802Y870D01*
X765Y869D02*
X803Y869D01*
X767Y868D02*
X775Y868D01*
X780Y868D02*
X788Y868D01*
X795Y868D02*
X803Y868D01*
X767Y867D02*
X774Y867D01*
X782Y867D02*
X788Y867D01*
X797Y867D02*
X804Y867D01*
X766Y866D02*
X773Y866D01*
X782Y866D02*
X789Y866D01*
X798Y866D02*
X804Y866D01*
X766Y865D02*
X773Y865D01*
X783Y865D02*
X789Y865D01*
X798Y865D02*
X804Y865D01*
X765Y864D02*
X772Y864D01*
X783Y864D02*
X789Y864D01*
X798Y864D02*
X804Y864D01*
X764Y863D02*
X772Y863D01*
X783Y863D02*
X789Y863D01*
X798Y863D02*
X804Y863D01*
X764Y862D02*
X771Y862D01*
X783Y862D02*
X789Y862D01*
X798Y862D02*
X804Y862D01*
X764Y861D02*
X770Y861D01*
X783Y861D02*
X789Y861D01*
X798Y861D02*
X804Y861D01*
X764Y860D02*
X770Y860D01*
X783Y860D02*
X789Y860D01*
X798Y860D02*
X804Y860D01*
X764Y859D02*
X770Y859D01*
X783Y859D02*
X789Y859D01*
X798Y859D02*
X804Y859D01*
X764Y858D02*
X770Y858D01*
X783Y858D02*
X789Y858D01*
X798Y858D02*
X804Y858D01*
X764Y857D02*
X770Y857D01*
X783Y857D02*
X789Y857D01*
X798Y857D02*
X804Y857D01*
X764Y856D02*
X770Y856D01*
X783Y856D02*
X789Y856D01*
X798Y856D02*
X804Y856D01*
X764Y855D02*
X770Y855D01*
X783Y855D02*
X789Y855D01*
X798Y855D02*
X804Y855D01*
X764Y854D02*
X770Y854D01*
X783Y854D02*
X789Y854D01*
X798Y854D02*
X804Y854D01*
X764Y853D02*
X770Y853D01*
X783Y853D02*
X789Y853D01*
X798Y853D02*
X804Y853D01*
X764Y852D02*
X770Y852D01*
X783Y852D02*
X789Y852D01*
X798Y852D02*
X804Y852D01*
X764Y851D02*
X770Y851D01*
X783Y851D02*
X789Y851D01*
X798Y851D02*
X804Y851D01*
X764Y850D02*
X770Y850D01*
X783Y850D02*
X789Y850D01*
X798Y850D02*
X804Y850D01*
X764Y849D02*
X770Y849D01*
X783Y849D02*
X789Y849D01*
X798Y849D02*
X804Y849D01*
X764Y848D02*
X770Y848D01*
X782Y848D02*
X789Y848D01*
X798Y848D02*
X804Y848D01*
X764Y847D02*
X771Y847D01*
X781Y847D02*
X788Y847D01*
X798Y847D02*
X804Y847D01*
X765Y846D02*
X788Y846D01*
X799Y846D02*
X804Y846D01*
X765Y845D02*
X787Y845D01*
X800Y845D02*
X803Y845D01*
X766Y844D02*
X787Y844D01*
X767Y843D02*
X786Y843D01*
X768Y842D02*
X785Y842D01*
X769Y841D02*
X784Y841D01*
X771Y840D02*
X782Y840D01*
X771Y822D02*
X775Y822D01*
X769Y821D02*
X776Y821D01*
X768Y820D02*
X776Y820D01*
X767Y819D02*
X776Y819D01*
X766Y818D02*
X776Y818D01*
X765Y817D02*
X776Y817D01*
X765Y816D02*
X774Y816D01*
X799Y816D02*
X803Y816D01*
X764Y815D02*
X773Y815D01*
X798Y815D02*
X804Y815D01*
X764Y814D02*
X771Y814D01*
X798Y814D02*
X804Y814D01*
X764Y813D02*
X770Y813D01*
X798Y813D02*
X804Y813D01*
X764Y812D02*
X770Y812D01*
X798Y812D02*
X804Y812D01*
X764Y811D02*
X770Y811D01*
X798Y811D02*
X804Y811D01*
X764Y810D02*
X770Y810D01*
X798Y810D02*
X804Y810D01*
X764Y809D02*
X770Y809D01*
X798Y809D02*
X804Y809D01*
X764Y808D02*
X770Y808D01*
X798Y808D02*
X804Y808D01*
X764Y807D02*
X770Y807D01*
X798Y807D02*
X804Y807D01*
X764Y806D02*
X770Y806D01*
X798Y806D02*
X804Y806D01*
X764Y805D02*
X770Y805D01*
X798Y805D02*
X804Y805D01*
X764Y804D02*
X770Y804D01*
X798Y804D02*
X804Y804D01*
X764Y803D02*
X771Y803D01*
X798Y803D02*
X804Y803D01*
X764Y802D02*
X771Y802D01*
X798Y802D02*
X804Y802D01*
X765Y801D02*
X813Y801D01*
X765Y800D02*
X815Y800D01*
X766Y799D02*
X816Y799D01*
X766Y798D02*
X816Y798D01*
X767Y797D02*
X816Y797D01*
X768Y796D02*
X816Y796D01*
X770Y795D02*
X816Y795D01*
X772Y794D02*
X814Y794D01*
X798Y793D02*
X804Y793D01*
X798Y792D02*
X804Y792D01*
X798Y791D02*
X804Y791D01*
X798Y790D02*
X804Y790D01*
X798Y789D02*
X804Y789D01*
X799Y788D02*
X803Y788D01*
X800Y787D02*
X802Y787D01*
X766Y770D02*
X768Y770D01*
X783Y770D02*
X793Y770D01*
X765Y769D02*
X769Y769D01*
X782Y769D02*
X796Y769D01*
X764Y768D02*
X770Y768D01*
X781Y768D02*
X797Y768D01*
X764Y767D02*
X770Y767D01*
X781Y767D02*
X799Y767D01*
X764Y766D02*
X770Y766D01*
X781Y766D02*
X800Y766D01*
X764Y765D02*
X770Y765D01*
X781Y765D02*
X801Y765D01*
X764Y764D02*
X770Y764D01*
X781Y764D02*
X802Y764D01*
X764Y763D02*
X770Y763D01*
X781Y763D02*
X802Y763D01*
X764Y762D02*
X770Y762D01*
X781Y762D02*
X787Y762D01*
X794Y762D02*
X803Y762D01*
X764Y761D02*
X770Y761D01*
X781Y761D02*
X787Y761D01*
X796Y761D02*
X803Y761D01*
X764Y760D02*
X770Y760D01*
X781Y760D02*
X787Y760D01*
X796Y760D02*
X804Y760D01*
X764Y759D02*
X770Y759D01*
X781Y759D02*
X787Y759D01*
X797Y759D02*
X804Y759D01*
X764Y758D02*
X770Y758D01*
X781Y758D02*
X787Y758D01*
X798Y758D02*
X804Y758D01*
X764Y757D02*
X770Y757D01*
X781Y757D02*
X787Y757D01*
X798Y757D02*
X804Y757D01*
X764Y756D02*
X770Y756D01*
X781Y756D02*
X787Y756D01*
X798Y756D02*
X804Y756D01*
X764Y755D02*
X770Y755D01*
X781Y755D02*
X787Y755D01*
X798Y755D02*
X804Y755D01*
X764Y754D02*
X770Y754D01*
X781Y754D02*
X787Y754D01*
X798Y754D02*
X804Y754D01*
X764Y753D02*
X770Y753D01*
X781Y753D02*
X787Y753D01*
X798Y753D02*
X804Y753D01*
X764Y752D02*
X770Y752D01*
X781Y752D02*
X787Y752D01*
X798Y752D02*
X804Y752D01*
X764Y751D02*
X770Y751D01*
X781Y751D02*
X787Y751D01*
X798Y751D02*
X804Y751D01*
X764Y750D02*
X770Y750D01*
X781Y750D02*
X787Y750D01*
X798Y750D02*
X804Y750D01*
X764Y749D02*
X770Y749D01*
X781Y749D02*
X787Y749D01*
X798Y749D02*
X804Y749D01*
X764Y748D02*
X770Y748D01*
X781Y748D02*
X787Y748D01*
X798Y748D02*
X804Y748D01*
X764Y747D02*
X770Y747D01*
X781Y747D02*
X787Y747D01*
X798Y747D02*
X804Y747D01*
X764Y746D02*
X771Y746D01*
X781Y746D02*
X787Y746D01*
X797Y746D02*
X804Y746D01*
X764Y745D02*
X771Y745D01*
X781Y745D02*
X787Y745D01*
X797Y745D02*
X804Y745D01*
X765Y744D02*
X772Y744D01*
X781Y744D02*
X787Y744D01*
X796Y744D02*
X803Y744D01*
X765Y743D02*
X773Y743D01*
X781Y743D02*
X787Y743D01*
X795Y743D02*
X803Y743D01*
X765Y742D02*
X774Y742D01*
X781Y742D02*
X787Y742D01*
X794Y742D02*
X803Y742D01*
X766Y741D02*
X802Y741D01*
X767Y740D02*
X801Y740D01*
X768Y739D02*
X800Y739D01*
X769Y738D02*
X800Y738D01*
X770Y737D02*
X798Y737D01*
X771Y736D02*
X797Y736D01*
X772Y735D02*
X795Y735D01*
X777Y734D02*
X791Y734D01*
X774Y717D02*
X794Y717D01*
X771Y716D02*
X796Y716D01*
X770Y715D02*
X798Y715D01*
X769Y714D02*
X799Y714D01*
X768Y713D02*
X800Y713D01*
X767Y712D02*
X801Y712D01*
X766Y711D02*
X802Y711D01*
X766Y710D02*
X775Y710D01*
X793Y710D02*
X802Y710D01*
X765Y709D02*
X773Y709D01*
X795Y709D02*
X803Y709D01*
X765Y708D02*
X772Y708D01*
X796Y708D02*
X803Y708D01*
X764Y707D02*
X772Y707D01*
X797Y707D02*
X804Y707D01*
X764Y706D02*
X771Y706D01*
X797Y706D02*
X804Y706D01*
X764Y705D02*
X771Y705D01*
X798Y705D02*
X804Y705D01*
X764Y704D02*
X770Y704D01*
X798Y704D02*
X804Y704D01*
X764Y703D02*
X770Y703D01*
X798Y703D02*
X804Y703D01*
X764Y702D02*
X770Y702D01*
X798Y702D02*
X804Y702D01*
X764Y701D02*
X770Y701D01*
X798Y701D02*
X804Y701D01*
X764Y700D02*
X770Y700D01*
X798Y700D02*
X804Y700D01*
X764Y699D02*
X770Y699D01*
X798Y699D02*
X804Y699D01*
X764Y698D02*
X770Y698D01*
X798Y698D02*
X804Y698D01*
X764Y697D02*
X770Y697D01*
X798Y697D02*
X804Y697D01*
X764Y696D02*
X770Y696D01*
X798Y696D02*
X804Y696D01*
X764Y695D02*
X770Y695D01*
X798Y695D02*
X804Y695D01*
X764Y694D02*
X771Y694D01*
X798Y694D02*
X804Y694D01*
X764Y693D02*
X771Y693D01*
X797Y693D02*
X804Y693D01*
X764Y692D02*
X772Y692D01*
X797Y692D02*
X804Y692D01*
X765Y691D02*
X772Y691D01*
X796Y691D02*
X803Y691D01*
X765Y690D02*
X773Y690D01*
X795Y690D02*
X803Y690D01*
X766Y689D02*
X775Y689D01*
X793Y689D02*
X802Y689D01*
X767Y688D02*
X802Y688D01*
X767Y687D02*
X801Y687D01*
X768Y686D02*
X800Y686D01*
X769Y685D02*
X799Y685D01*
X770Y684D02*
X798Y684D01*
X771Y683D02*
X796Y683D01*
X773Y682D02*
X794Y682D01*
X774Y664D02*
X794Y664D01*
X772Y663D02*
X795Y663D01*
X771Y662D02*
X797Y662D01*
X770Y661D02*
X798Y661D01*
X769Y660D02*
X799Y660D01*
X769Y659D02*
X800Y659D01*
X768Y658D02*
X800Y658D01*
X767Y657D02*
X776Y657D01*
X792Y657D02*
X801Y657D01*
X766Y656D02*
X775Y656D01*
X793Y656D02*
X802Y656D01*
X765Y655D02*
X774Y655D01*
X794Y655D02*
X803Y655D01*
X764Y654D02*
X773Y654D01*
X795Y654D02*
X804Y654D01*
X764Y653D02*
X772Y653D01*
X796Y653D02*
X804Y653D01*
X763Y652D02*
X771Y652D01*
X797Y652D02*
X805Y652D01*
X763Y651D02*
X770Y651D01*
X798Y651D02*
X805Y651D01*
X763Y650D02*
X770Y650D01*
X799Y650D02*
X805Y650D01*
X763Y649D02*
X769Y649D01*
X799Y649D02*
X806Y649D01*
X762Y648D02*
X769Y648D01*
X799Y648D02*
X806Y648D01*
X762Y647D02*
X769Y647D01*
X799Y647D02*
X806Y647D01*
X762Y646D02*
X769Y646D01*
X799Y646D02*
X806Y646D01*
X762Y645D02*
X769Y645D01*
X799Y645D02*
X806Y645D01*
X763Y644D02*
X769Y644D01*
X799Y644D02*
X805Y644D01*
X763Y643D02*
X770Y643D01*
X798Y643D02*
X805Y643D01*
X763Y642D02*
X771Y642D01*
X797Y642D02*
X805Y642D01*
X764Y641D02*
X772Y641D01*
X796Y641D02*
X804Y641D01*
X764Y640D02*
X773Y640D01*
X795Y640D02*
X804Y640D01*
X765Y639D02*
X774Y639D01*
X794Y639D02*
X803Y639D01*
X766Y638D02*
X775Y638D01*
X793Y638D02*
X802Y638D01*
X767Y637D02*
X776Y637D01*
X792Y637D02*
X801Y637D01*
X752Y636D02*
X802Y636D01*
X750Y635D02*
X805Y635D01*
X749Y634D02*
X805Y634D01*
X749Y633D02*
X806Y633D01*
X749Y632D02*
X806Y632D01*
X749Y631D02*
X805Y631D01*
X749Y630D02*
X805Y630D01*
X751Y629D02*
X803Y629D01*
X772Y612D02*
X810Y612D01*
X770Y611D02*
X812Y611D01*
X768Y610D02*
X814Y610D01*
X767Y609D02*
X815Y609D01*
X766Y608D02*
X816Y608D01*
X765Y607D02*
X817Y607D01*
X765Y606D02*
X818Y606D01*
X765Y605D02*
X773Y605D01*
X808Y605D02*
X818Y605D01*
X764Y604D02*
X771Y604D01*
X811Y604D02*
X819Y604D01*
X764Y603D02*
X771Y603D01*
X812Y603D02*
X819Y603D01*
X764Y602D02*
X770Y602D01*
X813Y602D02*
X819Y602D01*
X764Y601D02*
X770Y601D01*
X813Y601D02*
X819Y601D01*
X764Y600D02*
X771Y600D01*
X813Y600D02*
X820Y600D01*
X764Y599D02*
X771Y599D01*
X813Y599D02*
X820Y599D01*
X765Y598D02*
X774Y598D01*
X813Y598D02*
X820Y598D01*
X765Y597D02*
X797Y597D01*
X813Y597D02*
X820Y597D01*
X765Y596D02*
X798Y596D01*
X813Y596D02*
X820Y596D01*
X766Y595D02*
X798Y595D01*
X813Y595D02*
X820Y595D01*
X766Y594D02*
X798Y594D01*
X813Y594D02*
X820Y594D01*
X766Y593D02*
X798Y593D01*
X813Y593D02*
X820Y593D01*
X765Y592D02*
X798Y592D01*
X813Y592D02*
X820Y592D01*
X765Y591D02*
X798Y591D01*
X813Y591D02*
X820Y591D01*
X764Y590D02*
X772Y590D01*
X792Y590D02*
X798Y590D01*
X813Y590D02*
X820Y590D01*
X764Y589D02*
X771Y589D01*
X792Y589D02*
X798Y589D01*
X813Y589D02*
X820Y589D01*
X764Y588D02*
X770Y588D01*
X792Y588D02*
X798Y588D01*
X813Y588D02*
X820Y588D01*
X764Y587D02*
X770Y587D01*
X792Y587D02*
X798Y587D01*
X813Y587D02*
X819Y587D01*
X764Y586D02*
X770Y586D01*
X791Y586D02*
X798Y586D01*
X812Y586D02*
X819Y586D01*
X764Y585D02*
X771Y585D01*
X791Y585D02*
X798Y585D01*
X811Y585D02*
X819Y585D01*
X764Y584D02*
X772Y584D01*
X790Y584D02*
X798Y584D01*
X810Y584D02*
X819Y584D01*
X765Y583D02*
X797Y583D01*
X809Y583D02*
X818Y583D01*
X765Y582D02*
X797Y582D01*
X808Y582D02*
X817Y582D01*
X766Y581D02*
X796Y581D01*
X807Y581D02*
X817Y581D01*
X767Y580D02*
X795Y580D01*
X807Y580D02*
X816Y580D01*
X768Y579D02*
X794Y579D01*
X807Y579D02*
X815Y579D01*
X769Y578D02*
X793Y578D01*
X808Y578D02*
X814Y578D01*
X771Y577D02*
X791Y577D01*
X809Y577D02*
X812Y577D01*
X771Y559D02*
X775Y559D01*
X769Y558D02*
X776Y558D01*
X768Y557D02*
X776Y557D01*
X767Y556D02*
X776Y556D01*
X766Y555D02*
X776Y555D01*
X765Y554D02*
X776Y554D01*
X765Y553D02*
X774Y553D01*
X799Y553D02*
X803Y553D01*
X764Y552D02*
X773Y552D01*
X798Y552D02*
X804Y552D01*
X764Y551D02*
X771Y551D01*
X798Y551D02*
X804Y551D01*
X764Y550D02*
X770Y550D01*
X798Y550D02*
X804Y550D01*
X764Y549D02*
X770Y549D01*
X798Y549D02*
X804Y549D01*
X764Y548D02*
X770Y548D01*
X798Y548D02*
X804Y548D01*
X764Y547D02*
X770Y547D01*
X798Y547D02*
X804Y547D01*
X764Y546D02*
X770Y546D01*
X798Y546D02*
X804Y546D01*
X764Y545D02*
X770Y545D01*
X798Y545D02*
X804Y545D01*
X764Y544D02*
X770Y544D01*
X798Y544D02*
X804Y544D01*
X764Y543D02*
X770Y543D01*
X798Y543D02*
X804Y543D01*
X764Y542D02*
X770Y542D01*
X798Y542D02*
X804Y542D01*
X764Y541D02*
X770Y541D01*
X798Y541D02*
X804Y541D01*
X764Y540D02*
X771Y540D01*
X798Y540D02*
X804Y540D01*
X764Y539D02*
X771Y539D01*
X798Y539D02*
X804Y539D01*
X765Y538D02*
X813Y538D01*
X765Y537D02*
X815Y537D01*
X766Y536D02*
X816Y536D01*
X766Y535D02*
X816Y535D01*
X767Y534D02*
X816Y534D01*
X768Y533D02*
X816Y533D01*
X770Y532D02*
X816Y532D01*
X772Y531D02*
X814Y531D01*
X798Y530D02*
X804Y530D01*
X798Y529D02*
X804Y529D01*
X798Y528D02*
X804Y528D01*
X798Y527D02*
X804Y527D01*
X798Y526D02*
X804Y526D01*
X799Y525D02*
X803Y525D01*
X800Y524D02*
X802Y524D01*
X766Y506D02*
X797Y506D01*
X765Y505D02*
X799Y505D01*
X764Y504D02*
X801Y504D01*
X764Y503D02*
X802Y503D01*
X764Y502D02*
X802Y502D01*
X765Y501D02*
X803Y501D01*
X766Y500D02*
X803Y500D01*
X796Y499D02*
X804Y499D01*
X797Y498D02*
X804Y498D01*
X798Y497D02*
X804Y497D01*
X798Y496D02*
X804Y496D01*
X798Y495D02*
X804Y495D01*
X798Y494D02*
X804Y494D01*
X798Y493D02*
X804Y493D01*
X798Y492D02*
X804Y492D01*
X798Y491D02*
X804Y491D01*
X797Y490D02*
X804Y490D01*
X797Y489D02*
X804Y489D01*
X796Y488D02*
X804Y488D01*
X796Y487D02*
X803Y487D01*
X795Y486D02*
X803Y486D01*
X794Y485D02*
X802Y485D01*
X794Y484D02*
X801Y484D01*
X793Y483D02*
X801Y483D01*
X792Y482D02*
X800Y482D01*
X792Y481D02*
X799Y481D01*
X791Y480D02*
X799Y480D01*
X790Y479D02*
X798Y479D01*
X765Y478D02*
X803Y478D01*
X765Y477D02*
X804Y477D01*
X764Y476D02*
X804Y476D01*
X764Y475D02*
X804Y475D01*
X764Y474D02*
X804Y474D01*
X765Y473D02*
X803Y473D01*
X766Y472D02*
X802Y472D01*
X765Y450D02*
X769Y450D01*
X764Y449D02*
X770Y449D01*
X764Y448D02*
X770Y448D01*
X764Y447D02*
X770Y447D01*
X764Y446D02*
X770Y446D01*
X764Y445D02*
X770Y445D01*
X764Y444D02*
X770Y444D01*
X764Y443D02*
X770Y443D01*
X764Y442D02*
X770Y442D01*
X764Y441D02*
X770Y441D01*
X764Y440D02*
X801Y440D01*
X816Y440D02*
X820Y440D01*
X764Y439D02*
X803Y439D01*
X814Y439D02*
X822Y439D01*
X764Y438D02*
X804Y438D01*
X814Y438D02*
X822Y438D01*
X764Y437D02*
X804Y437D01*
X813Y437D02*
X823Y437D01*
X764Y436D02*
X804Y436D01*
X813Y436D02*
X823Y436D01*
X764Y435D02*
X804Y435D01*
X813Y435D02*
X823Y435D01*
X764Y434D02*
X804Y434D01*
X813Y434D02*
X823Y434D01*
X764Y433D02*
X804Y433D01*
X813Y433D02*
X823Y433D01*
X764Y432D02*
X770Y432D01*
X798Y432D02*
X804Y432D01*
X813Y432D02*
X823Y432D01*
X764Y431D02*
X770Y431D01*
X798Y431D02*
X804Y431D01*
X814Y431D02*
X822Y431D01*
X764Y430D02*
X770Y430D01*
X798Y430D02*
X804Y430D01*
X815Y430D02*
X821Y430D01*
X764Y429D02*
X770Y429D01*
X798Y429D02*
X804Y429D01*
X764Y428D02*
X770Y428D01*
X798Y428D02*
X804Y428D01*
X764Y427D02*
X770Y427D01*
X798Y427D02*
X804Y427D01*
X764Y426D02*
X770Y426D01*
X798Y426D02*
X804Y426D01*
X764Y425D02*
X770Y425D01*
X798Y425D02*
X804Y425D01*
X764Y424D02*
X770Y424D01*
X798Y424D02*
X804Y424D01*
X765Y423D02*
X769Y423D01*
X799Y423D02*
X803Y423D01*
X793Y402D02*
X794Y402D01*
X790Y401D02*
X799Y401D01*
X790Y400D02*
X800Y400D01*
X789Y399D02*
X802Y399D01*
X789Y398D02*
X802Y398D01*
X790Y397D02*
X803Y397D01*
X790Y396D02*
X803Y396D01*
X792Y395D02*
X804Y395D01*
X797Y394D02*
X804Y394D01*
X797Y393D02*
X804Y393D01*
X798Y392D02*
X804Y392D01*
X798Y391D02*
X804Y391D01*
X798Y390D02*
X804Y390D01*
X798Y389D02*
X804Y389D01*
X798Y388D02*
X804Y388D01*
X798Y387D02*
X804Y387D01*
X798Y386D02*
X804Y386D01*
X798Y385D02*
X804Y385D01*
X797Y384D02*
X804Y384D01*
X796Y383D02*
X804Y383D01*
X795Y382D02*
X804Y382D01*
X794Y381D02*
X803Y381D01*
X793Y380D02*
X802Y380D01*
X793Y379D02*
X801Y379D01*
X792Y378D02*
X800Y378D01*
X791Y377D02*
X800Y377D01*
X790Y376D02*
X799Y376D01*
X789Y375D02*
X798Y375D01*
X788Y374D02*
X797Y374D01*
X767Y373D02*
X801Y373D01*
X765Y372D02*
X803Y372D01*
X764Y371D02*
X804Y371D01*
X764Y370D02*
X804Y370D01*
X764Y369D02*
X804Y369D01*
X764Y368D02*
X804Y368D01*
X765Y367D02*
X803Y367D01*
X766Y366D02*
X802Y366D01*
X776Y349D02*
X792Y349D01*
X773Y348D02*
X795Y348D01*
X772Y347D02*
X796Y347D01*
X771Y346D02*
X797Y346D01*
X770Y345D02*
X798Y345D01*
X769Y344D02*
X799Y344D01*
X768Y343D02*
X800Y343D01*
X767Y342D02*
X778Y342D01*
X790Y342D02*
X801Y342D01*
X766Y341D02*
X775Y341D01*
X793Y341D02*
X802Y341D01*
X766Y340D02*
X774Y340D01*
X794Y340D02*
X803Y340D01*
X765Y339D02*
X773Y339D01*
X795Y339D02*
X803Y339D01*
X764Y338D02*
X773Y338D01*
X795Y338D02*
X804Y338D01*
X764Y337D02*
X772Y337D01*
X796Y337D02*
X805Y337D01*
X763Y336D02*
X771Y336D01*
X797Y336D02*
X805Y336D01*
X763Y335D02*
X770Y335D01*
X798Y335D02*
X805Y335D01*
X763Y334D02*
X769Y334D01*
X799Y334D02*
X805Y334D01*
X762Y333D02*
X769Y333D01*
X799Y333D02*
X806Y333D01*
X762Y332D02*
X769Y332D01*
X799Y332D02*
X806Y332D01*
X762Y331D02*
X769Y331D01*
X799Y331D02*
X806Y331D01*
X762Y330D02*
X769Y330D01*
X799Y330D02*
X806Y330D01*
X762Y329D02*
X769Y329D01*
X799Y329D02*
X806Y329D01*
X763Y328D02*
X770Y328D01*
X798Y328D02*
X805Y328D01*
X763Y327D02*
X771Y327D01*
X797Y327D02*
X805Y327D01*
X763Y326D02*
X772Y326D01*
X796Y326D02*
X805Y326D01*
X764Y325D02*
X773Y325D01*
X795Y325D02*
X804Y325D01*
X765Y324D02*
X774Y324D01*
X794Y324D02*
X803Y324D01*
X765Y323D02*
X775Y323D01*
X793Y323D02*
X803Y323D01*
X766Y322D02*
X776Y322D01*
X792Y322D02*
X802Y322D01*
X767Y321D02*
X777Y321D01*
X791Y321D02*
X801Y321D01*
X750Y320D02*
X804Y320D01*
X749Y319D02*
X805Y319D01*
X749Y318D02*
X806Y318D01*
X749Y317D02*
X806Y317D01*
X749Y316D02*
X806Y316D01*
X749Y315D02*
X805Y315D01*
X750Y314D02*
X804Y314D01*
X765Y296D02*
X769Y296D01*
X782Y296D02*
X795Y296D01*
X764Y295D02*
X770Y295D01*
X781Y295D02*
X797Y295D01*
X764Y294D02*
X770Y294D01*
X781Y294D02*
X798Y294D01*
X764Y293D02*
X770Y293D01*
X781Y293D02*
X799Y293D01*
X764Y292D02*
X770Y292D01*
X781Y292D02*
X800Y292D01*
X764Y291D02*
X770Y291D01*
X781Y291D02*
X801Y291D01*
X764Y290D02*
X770Y290D01*
X781Y290D02*
X802Y290D01*
X764Y289D02*
X770Y289D01*
X781Y289D02*
X787Y289D01*
X794Y289D02*
X802Y289D01*
X764Y288D02*
X770Y288D01*
X781Y288D02*
X787Y288D01*
X795Y288D02*
X803Y288D01*
X764Y287D02*
X770Y287D01*
X781Y287D02*
X787Y287D01*
X796Y287D02*
X803Y287D01*
X764Y286D02*
X770Y286D01*
X781Y286D02*
X787Y286D01*
X797Y286D02*
X804Y286D01*
X764Y285D02*
X770Y285D01*
X781Y285D02*
X787Y285D01*
X797Y285D02*
X804Y285D01*
X764Y284D02*
X770Y284D01*
X781Y284D02*
X787Y284D01*
X798Y284D02*
X804Y284D01*
X764Y283D02*
X770Y283D01*
X781Y283D02*
X787Y283D01*
X798Y283D02*
X804Y283D01*
X764Y282D02*
X770Y282D01*
X781Y282D02*
X787Y282D01*
X798Y282D02*
X804Y282D01*
X764Y281D02*
X770Y281D01*
X781Y281D02*
X787Y281D01*
X798Y281D02*
X804Y281D01*
X764Y280D02*
X770Y280D01*
X781Y280D02*
X787Y280D01*
X798Y280D02*
X804Y280D01*
X764Y279D02*
X770Y279D01*
X781Y279D02*
X787Y279D01*
X798Y279D02*
X804Y279D01*
X764Y278D02*
X770Y278D01*
X781Y278D02*
X787Y278D01*
X798Y278D02*
X804Y278D01*
X764Y277D02*
X770Y277D01*
X781Y277D02*
X787Y277D01*
X798Y277D02*
X804Y277D01*
X764Y276D02*
X770Y276D01*
X781Y276D02*
X787Y276D01*
X798Y276D02*
X804Y276D01*
X764Y275D02*
X770Y275D01*
X781Y275D02*
X787Y275D01*
X798Y275D02*
X804Y275D01*
X764Y274D02*
X770Y274D01*
X781Y274D02*
X787Y274D01*
X798Y274D02*
X804Y274D01*
X764Y273D02*
X771Y273D01*
X781Y273D02*
X787Y273D01*
X798Y273D02*
X804Y273D01*
X764Y272D02*
X771Y272D01*
X781Y272D02*
X787Y272D01*
X797Y272D02*
X804Y272D01*
X764Y271D02*
X772Y271D01*
X781Y271D02*
X787Y271D01*
X796Y271D02*
X804Y271D01*
X765Y270D02*
X773Y270D01*
X781Y270D02*
X787Y270D01*
X796Y270D02*
X803Y270D01*
X765Y269D02*
X774Y269D01*
X781Y269D02*
X787Y269D01*
X794Y269D02*
X803Y269D01*
X766Y268D02*
X776Y268D01*
X780Y268D02*
X788Y268D01*
X792Y268D02*
X802Y268D01*
X767Y267D02*
X802Y267D01*
X767Y266D02*
X801Y266D01*
X768Y265D02*
X800Y265D01*
X769Y264D02*
X799Y264D01*
X770Y263D02*
X798Y263D01*
X772Y262D02*
X796Y262D01*
X774Y261D02*
X794Y261D01*
X765Y243D02*
X803Y243D01*
X765Y242D02*
X804Y242D01*
X764Y241D02*
X804Y241D01*
X764Y240D02*
X804Y240D01*
X764Y239D02*
X804Y239D01*
X764Y238D02*
X803Y238D01*
X765Y237D02*
X802Y237D01*
X770Y236D02*
X778Y236D01*
X769Y235D02*
X777Y235D01*
X769Y234D02*
X776Y234D01*
X768Y233D02*
X776Y233D01*
X767Y232D02*
X775Y232D01*
X767Y231D02*
X774Y231D01*
X766Y230D02*
X774Y230D01*
X765Y229D02*
X773Y229D01*
X765Y228D02*
X772Y228D01*
X765Y227D02*
X772Y227D01*
X764Y226D02*
X771Y226D01*
X764Y225D02*
X771Y225D01*
X764Y224D02*
X770Y224D01*
X764Y223D02*
X770Y223D01*
X764Y222D02*
X770Y222D01*
X764Y221D02*
X770Y221D01*
X764Y220D02*
X770Y220D01*
X764Y219D02*
X770Y219D01*
X764Y218D02*
X771Y218D01*
X764Y217D02*
X771Y217D01*
X764Y216D02*
X773Y216D01*
X765Y215D02*
X803Y215D01*
X765Y214D02*
X804Y214D01*
X766Y213D02*
X804Y213D01*
X767Y212D02*
X804Y212D01*
X768Y211D02*
X804Y211D01*
X769Y210D02*
X803Y210D01*
X771Y209D02*
X802Y209D01*
X765Y187D02*
X769Y187D01*
X764Y186D02*
X770Y186D01*
X764Y185D02*
X770Y185D01*
X764Y184D02*
X770Y184D01*
X764Y183D02*
X770Y183D01*
X764Y182D02*
X770Y182D01*
X764Y181D02*
X770Y181D01*
X764Y180D02*
X770Y180D01*
X764Y179D02*
X770Y179D01*
X764Y178D02*
X770Y178D01*
X764Y177D02*
X817Y177D01*
X764Y176D02*
X819Y176D01*
X764Y175D02*
X819Y175D01*
X764Y174D02*
X820Y174D01*
X764Y173D02*
X820Y173D01*
X764Y172D02*
X820Y172D01*
X764Y171D02*
X820Y171D01*
X764Y170D02*
X820Y170D01*
X764Y169D02*
X770Y169D01*
X813Y169D02*
X820Y169D01*
X764Y168D02*
X770Y168D01*
X813Y168D02*
X820Y168D01*
X764Y167D02*
X770Y167D01*
X813Y167D02*
X820Y167D01*
X764Y166D02*
X770Y166D01*
X813Y166D02*
X820Y166D01*
X764Y165D02*
X770Y165D01*
X813Y165D02*
X820Y165D01*
X764Y164D02*
X770Y164D01*
X813Y164D02*
X820Y164D01*
X764Y163D02*
X770Y163D01*
X813Y163D02*
X820Y163D01*
X764Y162D02*
X770Y162D01*
X813Y162D02*
X819Y162D01*
X764Y161D02*
X770Y161D01*
X814Y161D02*
X819Y161D01*
X765Y160D02*
X769Y160D01*
X815Y160D02*
X818Y160D01*
X777Y139D02*
X791Y139D01*
X773Y138D02*
X795Y138D01*
X771Y137D02*
X797Y137D01*
X770Y136D02*
X798Y136D01*
X769Y135D02*
X800Y135D01*
X768Y134D02*
X801Y134D01*
X767Y133D02*
X801Y133D01*
X766Y132D02*
X802Y132D01*
X766Y131D02*
X774Y131D01*
X794Y131D02*
X803Y131D01*
X765Y130D02*
X773Y130D01*
X795Y130D02*
X803Y130D01*
X765Y129D02*
X772Y129D01*
X796Y129D02*
X803Y129D01*
X764Y128D02*
X771Y128D01*
X797Y128D02*
X804Y128D01*
X764Y127D02*
X771Y127D01*
X797Y127D02*
X804Y127D01*
X764Y126D02*
X770Y126D01*
X798Y126D02*
X804Y126D01*
X764Y125D02*
X770Y125D01*
X798Y125D02*
X804Y125D01*
X764Y124D02*
X770Y124D01*
X798Y124D02*
X804Y124D01*
X764Y123D02*
X770Y123D01*
X798Y123D02*
X804Y123D01*
X764Y122D02*
X770Y122D01*
X798Y122D02*
X804Y122D01*
X764Y121D02*
X770Y121D01*
X798Y121D02*
X804Y121D01*
X764Y120D02*
X770Y120D01*
X798Y120D02*
X804Y120D01*
X764Y119D02*
X770Y119D01*
X798Y119D02*
X804Y119D01*
X764Y118D02*
X771Y118D01*
X797Y118D02*
X804Y118D01*
X764Y117D02*
X772Y117D01*
X796Y117D02*
X804Y117D01*
X765Y116D02*
X773Y116D01*
X796Y116D02*
X803Y116D01*
X765Y115D02*
X773Y115D01*
X795Y115D02*
X803Y115D01*
X766Y114D02*
X774Y114D01*
X794Y114D02*
X802Y114D01*
X766Y113D02*
X775Y113D01*
X793Y113D02*
X802Y113D01*
X767Y112D02*
X776Y112D01*
X792Y112D02*
X801Y112D01*
X768Y111D02*
X777Y111D01*
X791Y111D02*
X800Y111D01*
X767Y110D02*
X817Y110D01*
X765Y109D02*
X819Y109D01*
X764Y108D02*
X819Y108D01*
X764Y107D02*
X820Y107D01*
X764Y106D02*
X820Y106D01*
X764Y105D02*
X819Y105D01*
X765Y104D02*
X819Y104D01*
X767Y103D02*
X817Y103D01*
D02*
G04 End of Silk0*
M02*