G04 MADE WITH FRITZING*
G04 WWW.FRITZING.ORG*
G04 DOUBLE SIDED*
G04 HOLES PLATED*
G04 CONTOUR ON CENTER OF CONTOUR VECTOR*
%ASAXBY*%
%FSLAX23Y23*%
%MOIN*%
%OFA0B0*%
%SFA1.0B1.0*%
%ADD10C,0.053622*%
%ADD11C,0.078000*%
%ADD12C,0.088000*%
%ADD13C,0.080000*%
%ADD14C,0.085000*%
%ADD15C,0.084000*%
%ADD16C,0.092000*%
%ADD17C,0.150000*%
%ADD18C,0.135984*%
%ADD19C,0.093307*%
%ADD20C,0.072992*%
%ADD21C,0.084667*%
%ADD22C,0.084695*%
%ADD23C,0.134033*%
%ADD24C,0.100020*%
%ADD25R,0.088000X0.088000*%
%ADD26R,0.085000X0.085000*%
%ADD27R,0.092000X0.092000*%
%ADD28R,0.072992X0.072992*%
%ADD29R,0.001000X0.001000*%
%LNMASK0*%
G90*
G70*
G54D10*
X1320Y455D03*
X1570Y455D03*
G54D11*
X1261Y2075D03*
X1161Y2075D03*
X1061Y2075D03*
X961Y2075D03*
X961Y1775D03*
X1061Y1775D03*
X1161Y1775D03*
X1261Y1775D03*
G54D12*
X1789Y829D03*
X1889Y829D03*
G54D13*
X814Y2409D03*
X814Y2209D03*
X1168Y1572D03*
X1168Y1372D03*
X966Y2166D03*
X1166Y2166D03*
X832Y1774D03*
X832Y1974D03*
X341Y3689D03*
X341Y3889D03*
G54D14*
X968Y1569D03*
X968Y1669D03*
X1880Y2184D03*
X1780Y2184D03*
X1450Y2183D03*
X1550Y2183D03*
X1184Y3459D03*
X1084Y3459D03*
G54D15*
X758Y3821D03*
X658Y3821D03*
X558Y3821D03*
G54D14*
X1184Y3702D03*
X1084Y3702D03*
G54D16*
X908Y3872D03*
X1206Y3872D03*
G54D17*
X1573Y3542D03*
X1813Y3542D03*
X1693Y3732D03*
G54D18*
X76Y80D03*
X79Y3847D03*
X1879Y83D03*
X1881Y3850D03*
G54D12*
X1503Y3771D03*
X1503Y3771D03*
X1503Y3871D03*
X206Y3408D03*
X106Y3408D03*
X206Y3408D03*
X106Y3408D03*
X106Y3308D03*
X206Y3308D03*
G54D19*
X1350Y3861D03*
X1095Y3276D03*
X813Y1641D03*
X1371Y881D03*
X599Y2469D03*
X499Y2469D03*
X171Y2784D03*
X71Y2784D03*
G54D12*
X1123Y2454D03*
X1023Y2454D03*
X1123Y2454D03*
X1023Y2454D03*
X1023Y2354D03*
X1123Y2354D03*
X171Y2673D03*
X71Y2673D03*
X171Y2673D03*
X71Y2673D03*
X71Y2573D03*
X171Y2573D03*
G54D19*
X71Y1200D03*
X71Y1300D03*
X71Y693D03*
X171Y693D03*
X71Y585D03*
X171Y585D03*
X71Y1766D03*
X71Y1866D03*
G54D12*
X1817Y1417D03*
X1817Y1417D03*
X1717Y1417D03*
X1324Y3158D03*
X1224Y3158D03*
X1324Y3158D03*
X1224Y3158D03*
X1224Y3058D03*
X1324Y3058D03*
X206Y3095D03*
X106Y3095D03*
X206Y3095D03*
X106Y3095D03*
X106Y2995D03*
X206Y2995D03*
X206Y3697D03*
X106Y3697D03*
X206Y3697D03*
X106Y3697D03*
X106Y3597D03*
X206Y3597D03*
G54D15*
X988Y1135D03*
X988Y1242D03*
X988Y1349D03*
X1216Y840D03*
X1216Y947D03*
X1216Y1054D03*
X1350Y3461D03*
X1350Y3568D03*
X1350Y3675D03*
G54D14*
X1341Y2356D03*
X1341Y2656D03*
X1040Y2705D03*
X1040Y3005D03*
G54D20*
X1169Y2568D03*
X1169Y2667D03*
X496Y2800D03*
X496Y2898D03*
X348Y3024D03*
X348Y3122D03*
X348Y3334D03*
X348Y3432D03*
G54D12*
X171Y233D03*
X171Y333D03*
X171Y433D03*
X171Y233D03*
X171Y333D03*
X171Y433D03*
X71Y433D03*
X71Y333D03*
X71Y233D03*
G54D19*
X171Y2453D03*
X71Y2453D03*
X171Y2453D03*
X71Y2453D03*
X71Y2353D03*
X171Y2353D03*
G54D12*
X171Y855D03*
X171Y955D03*
X171Y1055D03*
X171Y855D03*
X171Y955D03*
X171Y1055D03*
X71Y1055D03*
X71Y955D03*
X71Y855D03*
X171Y1434D03*
X171Y1534D03*
X171Y1634D03*
X171Y1434D03*
X171Y1534D03*
X171Y1634D03*
X71Y1634D03*
X71Y1534D03*
X71Y1434D03*
X171Y2004D03*
X171Y2104D03*
X171Y2204D03*
X171Y2004D03*
X171Y2104D03*
X171Y2204D03*
X71Y2204D03*
X71Y2104D03*
X71Y2004D03*
G54D21*
X303Y439D03*
X303Y339D03*
G54D22*
X303Y239D03*
G54D23*
X598Y533D03*
X598Y144D03*
G54D21*
X303Y1050D03*
X303Y950D03*
G54D22*
X303Y850D03*
G54D23*
X598Y1144D03*
X598Y756D03*
G54D21*
X1802Y1966D03*
X1702Y1966D03*
G54D22*
X1602Y1966D03*
G54D23*
X1896Y1671D03*
X1508Y1671D03*
G54D21*
X1801Y2772D03*
X1701Y2772D03*
G54D22*
X1601Y2772D03*
G54D23*
X1895Y2477D03*
X1506Y2477D03*
G54D21*
X303Y1639D03*
X303Y1539D03*
G54D22*
X303Y1439D03*
G54D23*
X598Y1733D03*
X598Y1344D03*
G54D21*
X304Y2210D03*
X304Y2110D03*
G54D22*
X304Y2010D03*
G54D23*
X600Y2305D03*
X600Y1916D03*
G54D24*
X1572Y929D03*
X1627Y1028D03*
X1458Y1294D03*
X1753Y1314D03*
X1881Y1122D03*
X1576Y2908D03*
X1631Y3007D03*
X1462Y3273D03*
X1757Y3293D03*
X1885Y3101D03*
G54D14*
X964Y2613D03*
X664Y2613D03*
X352Y2880D03*
X52Y2880D03*
X350Y3193D03*
X50Y3193D03*
X352Y3506D03*
X52Y3506D03*
X1284Y1577D03*
X1284Y1277D03*
X1376Y1688D03*
X1376Y1988D03*
G54D25*
X1789Y829D03*
G54D26*
X968Y1569D03*
X1880Y2184D03*
X1450Y2183D03*
X1184Y3459D03*
X1184Y3702D03*
G54D27*
X907Y3872D03*
G54D28*
X1169Y2568D03*
X496Y2800D03*
X348Y3024D03*
X348Y3334D03*
G54D29*
X717Y3863D02*
X800Y3863D01*
X717Y3862D02*
X800Y3862D01*
X717Y3861D02*
X800Y3861D01*
X717Y3860D02*
X800Y3860D01*
X717Y3859D02*
X800Y3859D01*
X717Y3858D02*
X800Y3858D01*
X717Y3857D02*
X800Y3857D01*
X717Y3856D02*
X800Y3856D01*
X717Y3855D02*
X800Y3855D01*
X717Y3854D02*
X800Y3854D01*
X717Y3853D02*
X800Y3853D01*
X717Y3852D02*
X800Y3852D01*
X717Y3851D02*
X800Y3851D01*
X717Y3850D02*
X800Y3850D01*
X717Y3849D02*
X800Y3849D01*
X717Y3848D02*
X800Y3848D01*
X717Y3847D02*
X800Y3847D01*
X717Y3846D02*
X800Y3846D01*
X717Y3845D02*
X800Y3845D01*
X717Y3844D02*
X800Y3844D01*
X717Y3843D02*
X800Y3843D01*
X717Y3842D02*
X800Y3842D01*
X717Y3841D02*
X800Y3841D01*
X717Y3840D02*
X800Y3840D01*
X717Y3839D02*
X800Y3839D01*
X717Y3838D02*
X800Y3838D01*
X717Y3837D02*
X800Y3837D01*
X717Y3836D02*
X754Y3836D01*
X762Y3836D02*
X800Y3836D01*
X717Y3835D02*
X751Y3835D01*
X765Y3835D02*
X800Y3835D01*
X717Y3834D02*
X749Y3834D01*
X767Y3834D02*
X800Y3834D01*
X717Y3833D02*
X748Y3833D01*
X768Y3833D02*
X800Y3833D01*
X717Y3832D02*
X747Y3832D01*
X769Y3832D02*
X800Y3832D01*
X717Y3831D02*
X746Y3831D01*
X770Y3831D02*
X800Y3831D01*
X717Y3830D02*
X745Y3830D01*
X771Y3830D02*
X800Y3830D01*
X717Y3829D02*
X745Y3829D01*
X771Y3829D02*
X800Y3829D01*
X717Y3828D02*
X744Y3828D01*
X772Y3828D02*
X800Y3828D01*
X717Y3827D02*
X744Y3827D01*
X772Y3827D02*
X800Y3827D01*
X717Y3826D02*
X743Y3826D01*
X773Y3826D02*
X800Y3826D01*
X717Y3825D02*
X743Y3825D01*
X773Y3825D02*
X800Y3825D01*
X717Y3824D02*
X743Y3824D01*
X773Y3824D02*
X800Y3824D01*
X717Y3823D02*
X743Y3823D01*
X773Y3823D02*
X800Y3823D01*
X717Y3822D02*
X743Y3822D01*
X773Y3822D02*
X800Y3822D01*
X717Y3821D02*
X743Y3821D01*
X773Y3821D02*
X800Y3821D01*
X717Y3820D02*
X743Y3820D01*
X773Y3820D02*
X800Y3820D01*
X717Y3819D02*
X743Y3819D01*
X773Y3819D02*
X800Y3819D01*
X717Y3818D02*
X743Y3818D01*
X773Y3818D02*
X800Y3818D01*
X717Y3817D02*
X744Y3817D01*
X772Y3817D02*
X800Y3817D01*
X717Y3816D02*
X744Y3816D01*
X772Y3816D02*
X800Y3816D01*
X717Y3815D02*
X745Y3815D01*
X772Y3815D02*
X800Y3815D01*
X717Y3814D02*
X745Y3814D01*
X771Y3814D02*
X800Y3814D01*
X717Y3813D02*
X746Y3813D01*
X770Y3813D02*
X800Y3813D01*
X717Y3812D02*
X747Y3812D01*
X769Y3812D02*
X800Y3812D01*
X717Y3811D02*
X748Y3811D01*
X768Y3811D02*
X800Y3811D01*
X717Y3810D02*
X749Y3810D01*
X767Y3810D02*
X800Y3810D01*
X717Y3809D02*
X750Y3809D01*
X766Y3809D02*
X800Y3809D01*
X717Y3808D02*
X753Y3808D01*
X764Y3808D02*
X800Y3808D01*
X717Y3807D02*
X800Y3807D01*
X717Y3806D02*
X800Y3806D01*
X717Y3805D02*
X800Y3805D01*
X717Y3804D02*
X800Y3804D01*
X717Y3803D02*
X800Y3803D01*
X717Y3802D02*
X800Y3802D01*
X717Y3801D02*
X800Y3801D01*
X717Y3800D02*
X800Y3800D01*
X717Y3799D02*
X800Y3799D01*
X717Y3798D02*
X800Y3798D01*
X717Y3797D02*
X800Y3797D01*
X717Y3796D02*
X800Y3796D01*
X717Y3795D02*
X800Y3795D01*
X717Y3794D02*
X800Y3794D01*
X717Y3793D02*
X800Y3793D01*
X717Y3792D02*
X800Y3792D01*
X717Y3791D02*
X800Y3791D01*
X717Y3790D02*
X800Y3790D01*
X717Y3789D02*
X800Y3789D01*
X717Y3788D02*
X800Y3788D01*
X717Y3787D02*
X800Y3787D01*
X717Y3786D02*
X800Y3786D01*
X717Y3785D02*
X800Y3785D01*
X717Y3784D02*
X800Y3784D01*
X717Y3783D02*
X800Y3783D01*
X717Y3782D02*
X800Y3782D01*
X717Y3781D02*
X800Y3781D01*
X717Y3780D02*
X799Y3780D01*
D02*
G04 End of Mask0*
M02*